<svg width="49" height="48" viewBox="0 0 49 48" fill="none" xmlns="http://www.w3.org/2000/svg">
<path d="M29.5033 18.548L29.8532 7.13672C29.8475 5.52429 26.7366 4.22812 22.905 4.24163C19.0734 4.25515 16.8854 5.57014 16.8912 7.18261L17.8606 21.0226C17.9901 22.8716 17.9962 24.7273 17.879 26.5771L17.0316 39.9506C17.0194 40.4059 17.3606 40.7934 17.8136 40.8391L20.1053 41.0703L20.0681 42.3468C20.0722 43.4983 22.2938 44.424 25.0302 44.4143C27.7667 44.4046 29.9817 43.4633 29.9777 42.3117L29.5403 30.2541C29.4684 28.2739 29.4425 20.5286 29.5033 18.548Z" fill="#E5D8C6"/>
<path d="M19.9436 7.17159L20.3744 18.5802C20.4491 20.5602 20.478 28.3056 20.4202 30.2862L20.0681 42.3465C20.0722 43.4981 22.2939 44.4238 25.0303 44.4141C27.7668 44.4044 29.9818 43.4631 29.9777 42.3115L29.5403 30.2539C29.4684 28.2738 29.4425 20.5284 29.5032 18.5479L29.8532 7.13651L19.9436 7.17159Z" fill="#F3E8D6"/>
<path d="M29.5033 18.5477L29.8533 7.13642L26.6591 7.14773L26.3091 18.5591C26.2484 20.5396 26.2744 28.2849 26.3462 30.2651L26.7836 42.3227C26.7868 43.239 25.3844 44.0217 23.4328 44.3083C23.9344 44.3784 24.4713 44.416 25.0303 44.414C27.7668 44.4043 29.9818 43.463 29.9778 42.3114L29.5404 30.2538C29.4686 28.2736 29.4426 20.5283 29.5033 18.5477Z" fill="#E5D8C6"/>
<path d="M29.8526 7.13717C29.8485 5.98562 27.6271 5.05997 24.8908 5.06966C22.1546 5.07935 19.9397 6.02072 19.9438 7.17227C19.9479 8.32381 22.1693 9.24947 24.9056 9.23978C27.6418 9.23008 29.8567 8.28872 29.8526 7.13717Z" fill="#CCBAA3"/>
<path d="M24.8911 5.06878C24.3357 5.07074 23.8024 5.1117 23.3042 5.18437C25.2628 5.456 26.6755 6.22976 26.6787 7.14758C26.682 8.0654 25.2748 8.8492 23.3182 9.13465C23.8169 9.20379 24.3505 9.24091 24.9058 9.23899C27.6422 9.2293 29.8573 8.28792 29.8532 7.13638C29.8491 5.9848 27.6275 5.05908 24.8911 5.06878Z" fill="#BFA68C"/>
<path d="M17.8138 27.6056C17.8138 27.6056 19.2619 28.1042 23.4463 28.0894C27.1338 28.0764 29.4924 27.5643 29.4924 27.5643C29.9213 26.3738 29.9127 23.949 29.4693 22.6444C29.4693 22.6444 26.3196 23.1358 23.4287 23.146C20.322 23.157 17.9423 22.6851 17.9423 22.6851C17.7874 23.2162 17.4221 24.5907 17.8138 27.6056Z" fill="#FF4C4C"/>
<path d="M29.4694 22.6446C29.4694 22.6446 28.0947 22.8591 26.3281 23.0076C26.7338 24.3791 26.747 26.6789 26.3656 27.9712C28.3309 27.8163 29.4925 27.5645 29.4925 27.5645C29.9214 26.374 29.9128 23.9492 29.4694 22.6446Z" fill="#EA2828"/>
<path d="M21.7092 33.227L20.973 31.4796C20.9519 31.4296 20.902 31.398 20.8478 31.4003L18.9534 31.4799C18.8486 31.4843 18.7821 31.3691 18.8382 31.2806L22.6817 25.2177L25.7821 27.1831L21.9387 33.246C21.8826 33.3347 21.75 33.3236 21.7092 33.227Z" fill="#FF4C4C"/>
<path d="M25.6854 33.2129L26.4093 31.4604C26.43 31.4102 26.4797 31.3783 26.5339 31.3802L28.4288 31.4464C28.5336 31.4501 28.5993 31.3344 28.5425 31.2462L24.6563 25.2107L21.5698 27.1981L25.4561 33.2336C25.5129 33.3218 25.6454 33.3099 25.6854 33.2129Z" fill="#EA2828"/>
<path d="M26.2766 28.1753C27.7058 26.736 27.6976 24.4106 26.2583 22.9814C24.8189 21.5522 22.4935 21.5605 21.0643 22.9998C19.6351 24.4391 19.6434 26.7645 21.0827 28.1937C22.5221 29.6229 24.8475 29.6147 26.2766 28.1753Z" fill="#FFB125"/>
<path d="M23.6573 21.9155C23.0978 21.9175 22.5684 22.045 22.0947 22.2703C23.3429 22.8533 24.2101 24.1173 24.2153 25.5862C24.2205 27.0552 23.3623 28.3252 22.1182 28.9171C22.5936 29.1391 23.1239 29.2629 23.6833 29.2608C25.7116 29.2537 27.3501 27.6035 27.343 25.5752C27.3357 23.5468 25.6856 21.9083 23.6573 21.9155Z" fill="#FF901D"/>
<path d="M25.0193 26.927C25.759 26.182 25.7548 24.9785 25.0098 24.2388C24.2648 23.4991 23.0613 23.5033 22.3215 24.2483C21.5818 24.9933 21.5861 26.1968 22.3311 26.9365C23.076 27.6762 24.2796 27.672 25.0193 26.927Z" fill="#FED130"/>
</svg>
