<svg width="35" height="36" viewBox="0 0 35 36" fill="none" xmlns="http://www.w3.org/2000/svg">
<g clip-path="url(#clip0)">
<path d="M31.8851 3.47189C32.363 4.0493 32.5696 4.80916 32.4522 5.55483C31.809 9.61826 29.323 13.2084 25.7937 15.1781C25.4713 15.9754 25.106 16.7311 24.6993 17.4352C23.4202 19.6497 21.8334 21.1895 20.087 21.9535C19.8877 23.8406 21.102 25.6337 22.9407 26.0594C22.9447 26.0603 22.9472 26.0611 22.9512 26.062C23.3085 26.1486 23.5741 26.4786 23.5741 26.8718V30.6944H25.0775C26.4173 30.6944 27.5076 31.8159 27.5076 33.194V35.1669C27.5076 35.6269 27.1447 36.0001 26.6976 36.0001H8.37789C7.93076 36.0001 7.56784 35.6269 7.56784 35.1669V33.194C7.56784 31.8159 8.65817 30.6944 9.99794 30.6944H11.5014V26.8718C11.5014 26.4786 11.7663 26.1503 12.1227 26.0628C12.1259 26.062 12.1292 26.0603 12.1332 26.0595C13.9582 25.6362 15.17 23.8616 14.9902 21.9886C13.2122 21.2371 11.5978 19.6832 10.2985 17.4353C9.89185 16.7313 9.52654 15.9756 9.20415 15.1782C5.67565 13.2094 3.1888 9.6184 2.54568 5.55497C2.42824 4.8093 2.63475 4.04944 3.11272 3.47203C3.59547 2.88795 4.30026 2.55305 5.04462 2.55305H7.49093V1.76548C7.49086 0.792351 8.26045 0 9.20737 0H25.7904C26.7373 0 27.5076 0.792351 27.5076 1.76548V2.55284H29.9531C30.6976 2.55284 31.4023 2.8878 31.8851 3.47189ZM30.8531 5.28736C30.8944 5.02073 30.8231 4.7591 30.6514 4.55084C30.4764 4.34004 30.2221 4.21924 29.9531 4.21924H27.5076V5.75227C27.5076 8.15512 27.2087 10.4839 26.6441 12.6127C28.8653 10.8072 30.3947 8.1843 30.8531 5.28736ZM25.8876 34.3337V33.1939C25.8876 32.7348 25.5239 32.3607 25.0775 32.3607H9.99794C9.55163 32.3607 9.18789 32.7348 9.18789 33.1939V34.3337H25.8876ZM25.8876 5.75227V1.76548C25.8876 1.71134 25.8439 1.66634 25.7904 1.66634H9.20737C9.15391 1.66634 9.11098 1.71134 9.11098 1.76548V5.75227C9.11098 9.85648 10.0271 13.7033 11.6909 16.5836C13.277 19.3281 15.3393 20.8387 17.4997 20.8387C19.6592 20.8387 21.7216 19.3281 23.3068 16.5836C24.9706 13.7033 25.8876 9.85648 25.8876 5.75227ZM21.9541 30.6943V27.7048H13.1214V30.6943H21.9541ZM15.2453 26.0385H19.8375C18.9764 25.0661 18.4645 23.7856 18.4466 22.4325C18.1339 22.48 17.8181 22.505 17.4997 22.505C17.2064 22.505 16.9165 22.4842 16.6281 22.4433C16.616 23.4498 16.3325 24.4355 15.793 25.3036C15.6285 25.5661 15.4454 25.8119 15.2453 26.0385ZM8.35438 12.6135C7.78898 10.4839 7.49086 8.15512 7.49086 5.75227V4.21924H5.04456C4.77563 4.21924 4.52126 4.34004 4.34633 4.55084C4.17461 4.7591 4.10332 5.02073 4.1446 5.28736C4.60309 8.1843 6.13249 10.8072 8.35438 12.6135Z" fill="#1E0478"/>
<path d="M25.8887 33.1936V34.3333H9.18896V33.1936C9.18896 32.7345 9.55264 32.3604 9.99902 32.3604H25.0786C25.525 32.3604 25.8887 32.7345 25.8887 33.1936Z" fill="#6F7CCD"/>
<path d="M25.8889 1.76516V5.75195C25.8889 9.85616 24.972 13.703 23.3082 16.5833C21.7229 19.3278 19.6606 20.8383 17.501 20.8383C15.3407 20.8383 13.2783 19.3278 11.6923 16.5833C10.0285 13.703 9.1123 9.85623 9.1123 5.75195V1.76516C9.1123 1.71102 9.15523 1.66602 9.20869 1.66602H25.7917C25.8452 1.66602 25.8889 1.71102 25.8889 1.76516ZM22.213 9.40792C22.4341 9.18629 22.5135 8.85554 22.4179 8.5539C22.3223 8.25226 22.0696 8.03232 21.7642 7.98648L19.3195 7.62156L18.2268 5.3428C18.0899 5.05866 17.8088 4.87873 17.5002 4.87873C17.1916 4.87873 16.9105 5.05873 16.7736 5.3428L15.6809 7.62156L13.2362 7.98648C12.9309 8.03232 12.6781 8.25226 12.5825 8.5539C12.4869 8.85554 12.5663 9.18629 12.7874 9.40792L14.5566 11.1809L14.1386 13.6854C14.0868 13.9979 14.2115 14.3137 14.461 14.5003C14.7105 14.6869 15.041 14.7111 15.314 14.5637L17.5002 13.3813L19.6865 14.5637C19.8047 14.6278 19.9343 14.6595 20.0631 14.6595C20.2316 14.6595 20.3985 14.6062 20.5395 14.5004C20.789 14.3138 20.9137 13.998 20.8618 13.6855L20.4439 11.181L22.213 9.40792Z" fill="#9B8CCC"/>
<path d="M22.4183 8.55456C22.5139 8.8562 22.4345 9.18695 22.2134 9.40857L20.4442 11.1816L20.8622 13.6861C20.914 13.9986 20.7893 14.3143 20.5398 14.501C20.3988 14.6068 20.232 14.6601 20.0635 14.6601C19.9347 14.6601 19.8051 14.6284 19.6868 14.5642L17.5006 13.382L15.3143 14.5643C15.0414 14.7118 14.7109 14.6876 14.4613 14.501C14.2118 14.3143 14.0871 13.9986 14.139 13.6861L14.5569 11.1816L12.7878 9.40857C12.5666 9.18695 12.4873 8.8562 12.5828 8.55456C12.6784 8.25292 12.9311 8.03298 13.2366 7.98714L15.6812 7.62221L16.7739 5.34346C16.9109 5.05932 17.1919 4.87939 17.5005 4.87939C17.8092 4.87939 18.0903 5.05939 18.2271 5.34346L19.3199 7.62221L21.7645 7.98714C22.07 8.03305 22.3228 8.25299 22.4183 8.55456ZM19.0089 10.2943L19.9072 9.39367L18.6654 9.2079C18.4021 9.16874 18.1737 8.99879 18.0554 8.75214L17.5006 7.59557L16.9457 8.752C16.8275 8.99858 16.599 9.1686 16.3358 9.20776L15.0939 9.39353L15.9923 10.2942C16.1835 10.4858 16.2701 10.7616 16.2256 11.0315L16.0133 12.3038L17.1239 11.703C17.2413 11.6397 17.3709 11.6072 17.5005 11.6072C17.6302 11.6072 17.7598 11.6397 17.8772 11.703L18.9878 12.3038L18.7755 11.0315C18.7311 10.7617 18.8178 10.4859 19.0089 10.2943Z" fill="#1E0478"/>
<path d="M21.954 27.7045H13.1213V30.6939H21.954V27.7045Z" fill="#6F7CCD"/>
<path d="M19.9065 9.39263L19.0081 10.2933C18.8169 10.4849 18.7303 10.7607 18.7748 11.0306L18.9871 12.3029L17.8765 11.7021C17.7591 11.6388 17.6295 11.6063 17.4999 11.6063C17.3703 11.6063 17.2406 11.6388 17.1232 11.7021L16.0126 12.3029L16.2249 11.0306C16.2695 10.7607 16.1828 10.4849 15.9916 10.2933L15.0933 9.39263L16.3351 9.20687C16.5983 9.1677 16.8268 8.99776 16.9451 8.7511L17.4999 7.5946L18.0547 8.75103C18.173 8.99762 18.4015 9.16763 18.6647 9.2068L19.9065 9.39263Z" fill="#94E7EF"/>
<path d="M19.8397 26.0385H15.2476C15.4476 25.8119 15.6307 25.5661 15.7951 25.3037C16.3346 24.4355 16.6181 23.4498 16.6303 22.4434C16.9186 22.4842 17.2087 22.505 17.5018 22.505C17.8202 22.505 18.1361 22.4801 18.4488 22.4326C18.4667 23.7856 18.9786 25.0663 19.8397 26.0385Z" fill="#9B8CCC"/>
</g>
<defs>
<clipPath id="clip0">
<rect width="35" height="36" fill="white"/>
</clipPath>
</defs>
</svg>
