<svg width="250" height="216" viewBox="0 0 250 216" fill="none" xmlns="http://www.w3.org/2000/svg">
<g clip-path="url(#clip0)">
<g opacity="0.5">
<path opacity="0.5" d="M37.9857 38.4749H36.9937V44.0807H37.9857V38.4749Z" fill="#47E6B1"/>
<path opacity="0.5" d="M40.3003 41.7724V40.7831H34.6789V41.7724H40.3003Z" fill="#47E6B1"/>
</g>
<g opacity="0.5">
<path opacity="0.5" d="M73.2489 160.479H72.2568V166.085H73.2489V160.479Z" fill="#47E6B1"/>
<path opacity="0.5" d="M75.5608 163.777V162.787H69.9394V163.777H75.5608Z" fill="#47E6B1"/>
</g>
<g opacity="0.5">
<path opacity="0.5" d="M23.8892 95.3622H22.8972V100.968H23.8892V95.3622Z" fill="#47E6B1"/>
<path opacity="0.5" d="M26.2039 98.6597V97.6705H20.5824V98.6597H26.2039Z" fill="#47E6B1"/>
</g>
<g opacity="0.5">
<path opacity="0.5" d="M197.566 0H196.574V5.60588H197.566V0Z" fill="#47E6B1"/>
<path opacity="0.5" d="M199.881 3.29757V2.30829L194.26 2.30829V3.29757L199.881 3.29757Z" fill="#47E6B1"/>
</g>
<g opacity="0.5">
<path opacity="0.5" d="M30.1778 13.9418H29.1858V19.5477H30.1778V13.9418Z" fill="#47E6B1"/>
<path opacity="0.5" d="M32.4897 17.2394V16.2501H26.8683V17.2394H32.4897Z" fill="#47E6B1"/>
</g>
<path opacity="0.5" d="M49.1835 140.474C48.9103 140.355 48.6904 140.14 48.5657 139.87C48.441 139.6 48.4202 139.293 48.5072 139.009C48.5213 138.966 48.5303 138.921 48.534 138.875C48.5541 138.741 48.527 138.603 48.4574 138.486C48.3878 138.368 48.2798 138.279 48.1517 138.231C48.0235 138.184 47.883 138.182 47.7535 138.226C47.6241 138.269 47.5136 138.356 47.4407 138.471C47.4134 138.508 47.3904 138.548 47.3722 138.59C47.253 138.863 47.0374 139.082 46.7666 139.206C46.4959 139.331 46.1887 139.351 45.9036 139.265C45.86 139.251 45.8151 139.242 45.7695 139.238C45.6343 139.218 45.4964 139.245 45.3787 139.314C45.2611 139.384 45.171 139.491 45.1236 139.619C45.0761 139.747 45.0741 139.887 45.1179 140.016C45.1618 140.145 45.2488 140.255 45.3644 140.328C45.4013 140.355 45.4413 140.378 45.4835 140.396C45.7567 140.515 45.9766 140.73 46.1013 141C46.2259 141.27 46.2468 141.577 46.1598 141.861C46.1457 141.904 46.1367 141.949 46.1329 141.995C46.1129 142.13 46.14 142.267 46.2096 142.384C46.2792 142.502 46.3871 142.592 46.5153 142.639C46.6434 142.686 46.784 142.688 46.9135 142.645C47.0429 142.601 47.1533 142.514 47.2262 142.399C47.2536 142.362 47.2766 142.322 47.2948 142.28C47.414 142.007 47.6296 141.788 47.9003 141.664C48.1711 141.54 48.4783 141.519 48.7634 141.606C48.8069 141.62 48.8519 141.629 48.8975 141.632C49.0327 141.652 49.1706 141.625 49.2882 141.556C49.4058 141.486 49.4959 141.379 49.5434 141.251C49.5909 141.123 49.5929 140.983 49.5491 140.854C49.5052 140.725 49.4182 140.615 49.3026 140.542C49.2657 140.515 49.2257 140.492 49.1835 140.474Z" fill="#4D8AF0"/>
<path opacity="0.5" d="M44.2679 193.755C43.9947 193.636 43.7748 193.421 43.6502 193.151C43.5255 192.881 43.5047 192.574 43.5917 192.29C43.6057 192.247 43.6147 192.202 43.6185 192.156C43.6385 192.021 43.6114 191.884 43.5418 191.767C43.4722 191.649 43.3643 191.559 43.2361 191.512C43.108 191.465 42.9674 191.463 42.838 191.507C42.7085 191.55 42.5981 191.637 42.5252 191.752C42.4978 191.789 42.4748 191.829 42.4566 191.871C42.338 192.143 42.1231 192.363 41.853 192.488C41.5828 192.613 41.2761 192.634 40.991 192.548C40.9475 192.534 40.9025 192.525 40.8569 192.522C40.7217 192.502 40.5838 192.529 40.4661 192.598C40.3485 192.668 40.2584 192.775 40.211 192.903C40.1635 193.031 40.1615 193.171 40.2053 193.3C40.2492 193.429 40.3362 193.539 40.4518 193.612C40.4887 193.639 40.5287 193.662 40.5709 193.68C40.8441 193.799 41.064 194.014 41.1887 194.284C41.3133 194.554 41.3342 194.861 41.2472 195.145C41.2331 195.188 41.2241 195.233 41.2203 195.279C41.2003 195.413 41.2274 195.551 41.297 195.668C41.3666 195.786 41.4745 195.875 41.6027 195.923C41.7308 195.97 41.8714 195.972 42.0009 195.928C42.1303 195.885 42.2407 195.798 42.3137 195.683C42.341 195.646 42.364 195.606 42.3822 195.564C42.5014 195.291 42.717 195.072 42.9877 194.948C43.2585 194.823 43.5657 194.803 43.8508 194.889C43.8943 194.903 43.9393 194.912 43.9849 194.916C44.1201 194.936 44.258 194.909 44.3756 194.84C44.4933 194.77 44.5833 194.663 44.6308 194.535C44.6783 194.407 44.6803 194.267 44.6365 194.138C44.5926 194.009 44.5056 193.899 44.39 193.826C44.3523 193.797 44.3113 193.773 44.2679 193.755Z" fill="#4D8AF0"/>
<path opacity="0.5" d="M225.095 75.8143C224.822 75.6954 224.602 75.4805 224.478 75.2104C224.353 74.9404 224.332 74.6341 224.419 74.3497C224.433 74.3063 224.442 74.2615 224.446 74.216C224.466 74.0812 224.439 73.9436 224.369 73.8264C224.3 73.7091 224.192 73.6192 224.064 73.5719C223.935 73.5245 223.795 73.5225 223.665 73.5663C223.536 73.61 223.425 73.6967 223.353 73.812C223.325 73.8489 223.302 73.8887 223.284 73.9308C223.165 74.2032 222.951 74.4226 222.68 74.5475C222.41 74.6723 222.103 74.6939 221.818 74.6082C221.775 74.5942 221.73 74.5852 221.684 74.5815C221.549 74.5615 221.411 74.5885 221.294 74.6579C221.176 74.7273 221.086 74.8349 221.038 74.9627C220.991 75.0905 220.989 75.2307 221.033 75.3598C221.077 75.4889 221.164 75.599 221.279 75.6717C221.316 75.699 221.356 75.7219 221.398 75.7401C221.672 75.859 221.891 76.0739 222.016 76.344C222.141 76.614 222.162 76.9203 222.075 77.2046C222.061 77.248 222.052 77.2929 222.048 77.3383C222.028 77.4732 222.055 77.6107 222.124 77.728C222.194 77.8453 222.302 77.9351 222.43 77.9825C222.558 78.0299 222.699 78.0318 222.828 77.9881C222.958 77.9444 223.068 77.8576 223.141 77.7424C223.168 77.7055 223.191 77.6656 223.21 77.6235C223.329 77.3511 223.544 77.1318 223.815 77.0075C224.086 76.8832 224.393 76.8624 224.678 76.9492C224.722 76.9632 224.767 76.9721 224.812 76.9759C224.947 76.9959 225.085 76.9689 225.203 76.8994C225.321 76.83 225.411 76.7224 225.458 76.5946C225.506 76.4668 225.508 76.3266 225.464 76.1975C225.42 76.0685 225.333 75.9583 225.217 75.8856C225.18 75.8571 225.139 75.8332 225.095 75.8143Z" fill="#4D8AF0"/>
<path opacity="0.5" d="M216.912 132.063C216.639 131.945 216.419 131.73 216.294 131.46C216.17 131.19 216.149 130.883 216.236 130.599C216.25 130.555 216.259 130.511 216.263 130.465C216.283 130.33 216.256 130.193 216.186 130.076C216.116 129.958 216.008 129.868 215.88 129.821C215.752 129.774 215.612 129.772 215.482 129.815C215.353 129.859 215.242 129.946 215.169 130.061C215.142 130.098 215.119 130.138 215.101 130.18C214.981 130.452 214.766 130.672 214.495 130.796C214.224 130.92 213.917 130.941 213.632 130.854C213.589 130.84 213.544 130.831 213.498 130.828C213.363 130.808 213.225 130.835 213.107 130.904C212.99 130.973 212.9 131.081 212.852 131.209C212.805 131.337 212.803 131.477 212.846 131.606C212.89 131.735 212.977 131.845 213.093 131.918C213.13 131.945 213.17 131.968 213.212 131.986C213.485 132.105 213.705 132.32 213.83 132.59C213.954 132.86 213.975 133.166 213.888 133.451C213.874 133.494 213.865 133.539 213.861 133.585C213.841 133.719 213.869 133.857 213.938 133.974C214.008 134.091 214.116 134.181 214.244 134.229C214.372 134.276 214.513 134.278 214.642 134.234C214.771 134.191 214.882 134.104 214.955 133.989C214.982 133.952 215.005 133.912 215.023 133.87C215.143 133.597 215.358 133.378 215.629 133.254C215.9 133.129 216.207 133.109 216.492 133.195C216.535 133.209 216.58 133.218 216.626 133.222C216.761 133.242 216.899 133.215 217.017 133.146C217.134 133.076 217.225 132.969 217.272 132.841C217.319 132.713 217.321 132.573 217.278 132.444C217.234 132.315 217.147 132.205 217.031 132.132C216.994 132.105 216.954 132.082 216.912 132.063Z" fill="#4D8AF0"/>
<path opacity="0.5" d="M223.01 19.9665C222.737 19.8476 222.517 19.6327 222.392 19.3626C222.268 19.0926 222.247 18.7863 222.334 18.5019C222.348 18.4586 222.357 18.4137 222.361 18.3683C222.381 18.2334 222.354 18.0959 222.284 17.9786C222.214 17.8613 222.107 17.7715 221.978 17.7241C221.85 17.6767 221.71 17.6748 221.58 17.7185C221.451 17.7622 221.34 17.849 221.267 17.9642C221.24 18.0011 221.217 18.041 221.199 18.0831C221.08 18.3555 220.864 18.5748 220.593 18.6991C220.323 18.8234 220.015 18.8442 219.73 18.7574C219.687 18.7434 219.642 18.7344 219.596 18.7307C219.461 18.7107 219.323 18.7377 219.205 18.8071C219.088 18.8766 218.998 18.9842 218.95 19.112C218.903 19.2398 218.901 19.38 218.945 19.5091C218.988 19.6381 219.075 19.7483 219.191 19.821C219.228 19.8483 219.268 19.8712 219.31 19.8893C219.583 20.0082 219.803 20.2232 219.928 20.4932C220.053 20.7632 220.073 21.0696 219.986 21.3539C219.972 21.3973 219.963 21.4421 219.96 21.4876C219.94 21.6224 219.967 21.76 220.036 21.8773C220.106 21.9945 220.214 22.0844 220.342 22.1318C220.47 22.1791 220.611 22.1811 220.74 22.1374C220.87 22.0937 220.98 22.0069 221.053 21.8916C221.08 21.8548 221.103 21.8149 221.121 21.7728C221.241 21.5003 221.456 21.2811 221.727 21.1567C221.998 21.0324 222.305 21.0116 222.59 21.0984C222.634 21.1124 222.679 21.1214 222.724 21.1252C222.859 21.1451 222.997 21.1181 223.115 21.0487C223.233 20.9793 223.323 20.8717 223.37 20.7439C223.418 20.6161 223.42 20.4759 223.376 20.3468C223.332 20.2177 223.245 20.1076 223.129 20.0349C223.092 20.0076 223.052 19.9847 223.01 19.9665Z" fill="#4D8AF0"/>
<path opacity="0.5" d="M242.142 166.144C241.869 166.025 241.649 165.811 241.524 165.54C241.399 165.27 241.378 164.964 241.465 164.68C241.48 164.636 241.489 164.592 241.492 164.546C241.512 164.411 241.485 164.274 241.416 164.156C241.346 164.039 241.238 163.949 241.11 163.902C240.982 163.855 240.841 163.853 240.712 163.896C240.582 163.94 240.472 164.027 240.399 164.142C240.372 164.179 240.349 164.219 240.33 164.261C240.211 164.533 239.996 164.753 239.725 164.877C239.454 165.001 239.147 165.022 238.862 164.935C238.818 164.921 238.773 164.912 238.728 164.909C238.593 164.889 238.455 164.916 238.337 164.985C238.219 165.054 238.129 165.162 238.082 165.29C238.034 165.418 238.032 165.558 238.076 165.687C238.12 165.816 238.207 165.926 238.323 165.999C238.36 166.026 238.4 166.049 238.442 166.067C238.715 166.186 238.935 166.401 239.06 166.671C239.184 166.941 239.205 167.247 239.118 167.532C239.104 167.575 239.095 167.62 239.091 167.665C239.071 167.8 239.098 167.938 239.168 168.055C239.237 168.172 239.345 168.262 239.474 168.31C239.602 168.357 239.742 168.359 239.872 168.315C240.001 168.271 240.112 168.185 240.185 168.069C240.212 168.033 240.235 167.993 240.253 167.951C240.372 167.678 240.588 167.459 240.859 167.335C241.129 167.21 241.437 167.19 241.722 167.276C241.765 167.29 241.81 167.299 241.856 167.303C241.991 167.323 242.129 167.296 242.247 167.227C242.364 167.157 242.454 167.05 242.502 166.922C242.549 166.794 242.551 166.654 242.507 166.525C242.464 166.396 242.376 166.285 242.261 166.213C242.224 166.185 242.184 166.163 242.142 166.144Z" fill="#4D8AF0"/>
<path opacity="0.5" d="M1.98403 78.5593C3.07978 78.5593 3.96806 77.6735 3.96806 76.5808C3.96806 75.4881 3.07978 74.6022 1.98403 74.6022C0.888282 74.6022 0 75.4881 0 76.5808C0 77.6735 0.888282 78.5593 1.98403 78.5593Z" fill="#F55F44"/>
<path opacity="0.5" d="M223.377 45.3788C224.472 45.3788 225.361 44.493 225.361 43.4003C225.361 42.3076 224.472 41.4218 223.377 41.4218C222.281 41.4218 221.393 42.3076 221.393 43.4003C221.393 44.493 222.281 45.3788 223.377 45.3788Z" fill="#F55F44"/>
<path opacity="0.5" d="M133.138 119.859C134.372 119.859 135.373 118.862 135.373 117.631C135.373 116.401 134.372 115.403 133.138 115.403C131.904 115.403 130.904 116.401 130.904 117.631C130.904 118.862 131.904 119.859 133.138 119.859Z" fill="#F55F44"/>
<path opacity="0.5" d="M133.138 119.859C134.372 119.859 135.373 118.862 135.373 117.631C135.373 116.401 134.372 115.403 133.138 115.403C131.904 115.403 130.904 116.401 130.904 117.631C130.904 118.862 131.904 119.859 133.138 119.859Z" fill="#F55F44"/>
<path opacity="0.5" d="M248.019 104.869C249.115 104.869 250.003 103.983 250.003 102.89C250.003 101.797 249.115 100.912 248.019 100.912C246.923 100.912 246.035 101.797 246.035 102.89C246.035 103.983 246.923 104.869 248.019 104.869Z" fill="#F55F44"/>
<path opacity="0.5" d="M87.6339 16.2712C88.8679 16.2712 89.8682 15.2737 89.8682 14.0432C89.8682 12.8126 88.8679 11.8151 87.6339 11.8151C86.4 11.8151 85.3997 12.8126 85.3997 14.0432C85.3997 15.2737 86.4 16.2712 87.6339 16.2712Z" fill="#47E6B1"/>
<path opacity="0.5" d="M214.933 186.586C216.029 186.586 216.918 185.7 216.918 184.608C216.918 183.515 216.029 182.629 214.933 182.629C213.838 182.629 212.949 183.515 212.949 184.608C212.949 185.7 213.838 186.586 214.933 186.586Z" fill="#F55F44"/>
<path d="M91.3673 113.347C90.1935 117.147 91.9631 121.639 95.3979 123.638C96.8397 124.476 98.4991 124.898 99.8962 125.807C102.932 127.78 104.129 131.555 105.115 135.031C106.248 139.027 107.383 143.251 106.346 147.271C105.684 149.835 104.18 152.101 103.325 154.609C102.61 156.709 102.361 158.939 102.595 161.144C102.72 162.315 103.012 163.521 103.817 164.394C104.978 165.642 106.849 165.829 108.529 166.129C112.082 166.799 115.424 168.299 118.282 170.506C121.141 172.713 123.434 175.565 124.974 178.827" stroke="url(#paint0_linear)" stroke-width="2" stroke-miterlimit="10"/>
<path d="M91.7269 113.347C90.5532 117.147 92.3227 121.639 95.7575 123.638C97.1994 124.476 98.8587 124.898 100.256 125.807C103.291 127.78 104.489 131.555 105.475 135.031C106.607 139.027 107.742 143.251 106.705 147.271C106.044 149.835 104.54 152.101 103.685 154.609C102.97 156.709 102.721 158.939 102.955 161.144C103.08 162.315 103.372 163.521 104.176 164.394C105.338 165.642 107.209 165.829 108.889 166.129C112.441 166.799 115.784 168.299 118.642 170.506C121.5 172.713 123.794 175.565 125.333 178.827" stroke="#535461" stroke-width="2" stroke-miterlimit="10"/>
<path d="M136.156 84.9465C133.26 88.972 130.255 93.3004 130.007 98.2497C129.629 105.852 135.727 112.07 138.45 119.182C139.63 122.315 140.164 125.653 140.02 128.996C139.876 132.34 139.058 135.62 137.613 138.641C136.284 141.38 134.389 144.101 134.634 147.134C134.774 148.985 135.703 150.669 136.451 152.372C138.286 156.638 139.087 161.275 138.788 165.908C138.49 170.54 137.1 175.038 134.732 179.034" stroke="url(#paint1_linear)" stroke-width="2" stroke-miterlimit="10"/>
<path d="M136.514 84.9465C133.622 88.9868 130.616 93.3034 130.363 98.2497C129.984 105.852 136.082 112.07 138.805 119.182C139.985 122.315 140.519 125.653 140.375 128.996C140.232 132.34 139.413 135.62 137.968 138.641C136.639 141.38 134.745 144.101 134.989 147.134C135.129 148.985 136.058 150.669 136.806 152.372C138.641 156.638 139.442 161.275 139.143 165.908C138.845 170.54 137.455 175.038 135.087 179.034" stroke="#535461" stroke-width="2" stroke-miterlimit="10"/>
<path d="M176.784 121.155L178.185 132.536C178.369 134.048 178.527 135.697 177.714 136.992C176.942 138.213 175.494 138.795 174.368 139.698C170.671 142.669 171.008 148.346 172.283 152.903C173.558 157.461 175.393 162.356 173.621 166.741C172.888 168.551 171.595 170.075 170.642 171.774C169.006 174.678 168.358 178.032 168.795 181.334" stroke="url(#paint2_linear)" stroke-width="2" stroke-miterlimit="10"/>
<path d="M177.132 121.155L178.532 132.536C178.717 134.048 178.875 135.697 178.062 136.992C177.29 138.213 175.842 138.795 174.716 139.698C171.019 142.669 171.356 148.346 172.631 152.903C173.906 157.461 175.741 162.356 173.969 166.741C173.236 168.551 171.943 170.075 170.99 171.774C169.354 174.678 168.706 178.032 169.143 181.334" stroke="#535461" stroke-width="2" stroke-miterlimit="10"/>
<g opacity="0.7">
<path opacity="0.7" d="M213.09 74.3766C213.087 69.0522 211.822 63.8039 209.396 59.0606C206.971 54.3173 203.454 50.2137 199.134 47.085C194.814 43.9562 189.813 41.8913 184.539 41.0588C179.266 40.2263 173.869 40.6499 168.792 42.2951C169.071 40.3994 169.215 38.4864 169.224 36.5704C169.237 27.8259 165.844 19.418 159.761 13.1202C153.677 6.82238 145.379 3.1269 136.616 2.81323C127.853 2.49956 119.31 5.59222 112.79 11.4389C106.269 17.2856 102.28 25.4292 101.665 34.1521C96.5859 32.5035 91.1875 32.0772 85.9114 32.9082C80.6353 33.7392 75.6314 35.8039 71.3089 38.9333C66.9864 42.0627 63.4681 46.1681 61.0418 50.9136C58.6156 55.6591 57.3502 60.9099 57.3491 66.2366C57.3491 83.1701 69.861 107.233 86.1414 111.497L88.6766 112.94L87.3003 117.643H95.4509L93.6813 112.934L96.2046 111.497C108.794 108.202 119.116 93.0777 123.159 78.5713C125.372 80.0404 127.808 81.1438 130.374 81.8392L132.909 83.283L131.554 87.9739H139.704L137.935 83.2652L140.458 81.8273C142.328 81.3256 144.129 80.5962 145.82 79.6557C147.998 95.9296 159.583 115.798 174.243 119.634L176.778 121.077L175.402 125.78H183.553L181.777 121.071L184.3 119.634C200.593 115.37 213.09 91.2982 213.09 74.3766Z" fill="url(#paint3_linear)"/>
</g>
<path d="M96.7469 115.902H88.8584L90.2407 111.185H94.9714L96.7469 115.902Z" fill="#F55F44"/>
<path d="M125.333 66.1594C125.333 84.1861 110.68 110.593 92.6058 110.593C74.532 110.593 59.8782 84.1831 59.8782 66.1594C59.8782 57.5031 63.3264 49.2013 69.4643 43.0804C75.6022 36.9595 83.927 33.5208 92.6073 33.5208C101.288 33.5208 109.612 36.9595 115.75 43.0804C121.888 49.2013 125.336 57.5031 125.336 66.1594H125.333Z" fill="#F55F44"/>
<path d="M94.971 111.381H90.2403L87.4788 109.809H97.7326L94.971 111.381Z" fill="#535461"/>
<path opacity="0.1" d="M80.7769 40.7947C80.7769 40.7947 66.975 48.2662 65.0029 63.2093L80.7769 40.7947Z" fill="white"/>
<path d="M139.547 87.2105H131.658L133.041 82.4929H137.771L139.547 87.2105Z" fill="#4D8AF0"/>
<path d="M168.133 37.4677C168.133 55.4944 153.48 81.9018 135.406 81.9018C117.332 81.9018 102.678 55.4915 102.678 37.4677C102.678 28.8114 106.126 20.5097 112.264 14.3888C118.402 8.26786 126.727 4.82916 135.407 4.82916C144.088 4.82916 152.412 8.26786 158.55 14.3888C164.688 20.5097 168.136 28.8114 168.136 37.4677H168.133Z" fill="#4D8AF0"/>
<path d="M137.771 82.689H133.04L130.279 81.1145H140.533L137.771 82.689Z" fill="#535461"/>
<path opacity="0.1" d="M123.576 12.1031C123.576 12.1031 109.774 19.5746 107.802 34.5177L123.576 12.1031Z" fill="white"/>
<path d="M181.986 123.796H174.098L175.48 119.075H180.211L181.986 123.796Z" fill="#8C40D9"/>
<path d="M210.573 74.0501C210.573 92.0768 195.919 118.484 177.846 118.484C159.772 118.484 145.115 92.0768 145.115 74.0501C145.115 65.3938 148.563 57.092 154.701 50.9711C160.839 44.8502 169.164 41.4115 177.844 41.4115C186.524 41.4115 194.849 44.8502 200.987 50.9711C207.125 57.092 210.573 65.3938 210.573 74.0501Z" fill="#8C40D9"/>
<path d="M180.211 119.271H175.48L172.718 117.699H182.972L180.211 119.271Z" fill="#535461"/>
<path opacity="0.1" d="M166.015 48.6854C166.015 48.6854 152.214 56.1569 150.241 71.1L166.015 48.6854Z" fill="white"/>
<g opacity="0.5">
<path opacity="0.5" d="M153.84 129.357C151.942 127.459 149.175 126.704 146.047 127.23C143.122 127.723 140.193 129.309 137.804 131.686C137.112 132.38 136.53 133.176 136.079 134.045C135.64 133.146 135.063 132.321 134.369 131.6C132.022 129.179 129.12 127.548 126.192 127.013C123.076 126.419 120.296 127.141 118.363 129.006C116.429 130.872 115.637 133.62 116.12 136.745C116.572 139.669 118.116 142.613 120.466 145.028C125.405 150.111 135.263 148.126 135.68 148.037L135.802 148.01L136.18 148.097C136.597 148.192 146.419 150.346 151.445 145.349C153.828 142.972 155.428 140.058 155.934 137.14C156.485 134.018 155.738 131.258 153.84 129.357ZM134.024 145.102C131.64 145.423 125.703 145.857 122.757 142.823C120.862 140.872 119.623 138.543 119.268 136.258C118.947 134.179 119.411 132.396 120.585 131.273C121.043 130.835 121.591 130.5 122.191 130.293C123.3 129.935 124.483 129.876 125.623 130.12C127.899 130.545 130.198 131.852 132.093 133.804C135.039 136.817 134.42 142.734 134.024 145.099V145.102ZM152.824 136.603C152.431 138.878 151.153 141.19 149.223 143.106C146.223 146.077 140.285 145.551 137.917 145.185C137.563 142.809 137.044 136.9 140.044 133.917C141.975 132.001 144.295 130.732 146.577 130.352C147.721 130.127 148.903 130.207 150.006 130.584C150.603 130.802 151.146 131.147 151.597 131.594C152.747 132.744 153.182 134.52 152.824 136.6V136.603Z" fill="url(#paint4_linear)"/>
</g>
<path d="M136.648 147.39L135.709 147.586C135.31 147.669 125.878 149.567 121.151 144.704C118.905 142.393 117.427 139.576 116.98 136.778C116.515 133.786 117.278 131.157 119.125 129.372C120.972 127.586 123.632 126.909 126.614 127.465C129.406 127.984 132.182 129.544 134.428 131.858C139.153 136.722 136.955 146.065 136.859 146.46L136.648 147.39ZM122.786 130.608C122.212 130.806 121.688 131.127 121.249 131.546C120.129 132.631 119.682 134.324 119.989 136.318C120.329 138.501 121.514 140.732 123.328 142.601C126.15 145.503 131.831 145.087 134.11 144.781C134.488 142.521 135.084 136.87 132.263 133.968C130.448 132.102 128.25 130.848 126.069 130.444C124.979 130.21 123.847 130.266 122.786 130.608Z" fill="#F9AC30"/>
<path d="M135.254 147.431L135.045 146.498C134.956 146.1 132.918 136.721 137.726 131.941C140.014 129.669 142.815 128.157 145.615 127.684C148.594 127.179 151.254 127.901 153.062 129.719C154.871 131.537 155.595 134.175 155.079 137.146C154.597 139.936 153.071 142.725 150.784 144.998C145.975 149.778 136.577 147.716 136.186 147.627L135.254 147.431ZM149.404 130.875C148.351 130.515 147.22 130.438 146.127 130.652C143.941 131.02 141.721 132.236 139.871 134.069C137 136.923 137.488 142.58 137.837 144.849C140.11 145.194 145.785 145.708 148.654 142.856C150.501 141.02 151.722 138.81 152.1 136.617C152.443 134.63 152.026 132.928 150.924 131.826C150.491 131.404 149.973 131.079 149.404 130.875Z" fill="#F9AC30"/>
<g opacity="0.5">
<path opacity="0.5" d="M181.253 144.933H89.7942V163.182H94.5457V216H176.502V163.182H181.253V144.933Z" fill="url(#paint5_linear)"/>
</g>
<path d="M175.465 150.45H95.5825V215.103H175.465V150.45Z" fill="#44CC77"/>
<path d="M143.047 161.994H127.997V215.1H143.047V161.994Z" fill="#F9AC30"/>
<path opacity="0.1" d="M175.465 146.986H95.5825V163.15H175.465V146.986Z" fill="black"/>
<path d="M180.097 145.83H90.9526V161.994H180.097V145.83Z" fill="#44CC77"/>
<path d="M143.047 145.83H127.997V161.994H143.047V145.83Z" fill="#F9AC30"/>
</g>
<defs>
<linearGradient id="paint0_linear" x1="90.7059" y1="146.094" x2="125.242" y2="146.094" gradientUnits="userSpaceOnUse">
<stop stop-color="#808080" stop-opacity="0.25"/>
<stop offset="0.54" stop-color="#808080" stop-opacity="0.12"/>
<stop offset="1" stop-color="#808080" stop-opacity="0.1"/>
</linearGradient>
<linearGradient id="paint1_linear" x1="6319.93" y1="50019.2" x2="6679.32" y2="50019.2" gradientUnits="userSpaceOnUse">
<stop stop-color="#808080" stop-opacity="0.25"/>
<stop offset="0.54" stop-color="#808080" stop-opacity="0.12"/>
<stop offset="1" stop-color="#808080" stop-opacity="0.1"/>
</linearGradient>
<linearGradient id="paint2_linear" x1="7378.24" y1="35961.5" x2="7712.28" y2="35961.5" gradientUnits="userSpaceOnUse">
<stop stop-color="#808080" stop-opacity="0.25"/>
<stop offset="0.54" stop-color="#808080" stop-opacity="0.12"/>
<stop offset="1" stop-color="#808080" stop-opacity="0.1"/>
</linearGradient>
<linearGradient id="paint3_linear" x1="98846.7" y1="62708.5" x2="98846.7" y2="11812.2" gradientUnits="userSpaceOnUse">
<stop stop-color="#808080" stop-opacity="0.25"/>
<stop offset="0.54" stop-color="#808080" stop-opacity="0.12"/>
<stop offset="1" stop-color="#808080" stop-opacity="0.1"/>
</linearGradient>
<linearGradient id="paint4_linear" x1="25682.9" y1="12935.5" x2="25682.9" y2="11331.7" gradientUnits="userSpaceOnUse">
<stop stop-color="#808080" stop-opacity="0.25"/>
<stop offset="0.54" stop-color="#808080" stop-opacity="0.12"/>
<stop offset="1" stop-color="#808080" stop-opacity="0.1"/>
</linearGradient>
<linearGradient id="paint5_linear" x1="41696.4" y1="51816.5" x2="41696.4" y2="34815.8" gradientUnits="userSpaceOnUse">
<stop stop-color="#808080" stop-opacity="0.25"/>
<stop offset="0.54" stop-color="#808080" stop-opacity="0.12"/>
<stop offset="1" stop-color="#808080" stop-opacity="0.1"/>
</linearGradient>
<clipPath id="clip0">
<rect width="250" height="216" fill="white"/>
</clipPath>
</defs>
</svg>
