<svg width="56" height="57" viewBox="0 0 56 57" fill="none" xmlns="http://www.w3.org/2000/svg">
<g clip-path="url(#clip0)">
<path d="M51.9612 0.835693H4.03878C1.80808 0.835693 0 2.64377 0 4.87447V52.7969C0 55.0276 1.80808 56.8357 4.03878 56.8357H51.9612C54.1919 56.8357 56 55.0276 56 52.7969V4.87447C56 2.64377 54.1919 0.835693 51.9612 0.835693V0.835693ZM42.027 22.2687V26.0545C40.2418 26.0552 38.5072 25.7054 36.8714 25.0151C35.8195 24.5711 34.8396 23.9988 33.9432 23.3074L33.9701 34.9605C33.9589 37.5845 32.9208 40.0499 31.0419 41.9069C29.5129 43.4184 27.5753 44.3797 25.4753 44.6908C24.9818 44.7639 24.4797 44.8014 23.9718 44.8014C21.7238 44.8014 19.5895 44.0731 17.8437 42.7295C17.5151 42.4765 17.201 42.2023 16.9017 41.9069C14.8655 39.8944 13.8155 37.1666 13.9922 34.2971C14.1272 32.1128 15.0017 30.0296 16.4595 28.3969C18.3883 26.2363 21.0867 25.037 23.9718 25.037C24.4797 25.037 24.9818 25.0751 25.4753 25.1482V26.548V30.4419C25.0075 30.2875 24.5078 30.2027 23.9875 30.2027C21.3515 30.2027 19.219 32.3532 19.2584 34.991C19.2834 36.6788 20.2054 38.1541 21.5651 38.9673C22.2041 39.3496 22.9393 39.5863 23.7239 39.6294C24.3386 39.6631 24.9288 39.5775 25.4753 39.3971C27.3585 38.7749 28.7171 37.006 28.7171 34.9198L28.7233 27.1163V12.87H33.937C33.942 13.3866 33.9944 13.8907 34.0919 14.3791C34.4854 16.356 35.5997 18.0712 37.1506 19.2406C38.503 20.2606 40.1869 20.8652 42.0121 20.8652C42.0133 20.8652 42.0283 20.8652 42.0271 20.864V22.2687H42.027Z" fill="black"/>
</g>
<defs>
<clipPath id="clip0">
<rect width="56" height="56" fill="white" transform="translate(0 0.835693)"/>
</clipPath>
</defs>
</svg>
