<svg width="16" height="23" viewBox="0 0 16 23" fill="none" xmlns="http://www.w3.org/2000/svg">
<g clip-path="url(#clip0)">
<rect width="16" height="23" fill="white"/>
<path d="M14.1213 8.48688C14.1484 8.06682 14.1623 7.64707 14.1623 7.22885V6.67582L13.784 6.56796C9.95969 5.47735 6.08141 5.47735 2.25702 6.56796L1.8787 6.67582V7.22889C1.8787 7.64711 1.89271 8.06686 1.91978 8.48693H0.0205078L0.0856132 9.24346C0.28212 11.5255 0.795725 13.7434 1.61214 15.8354C1.6712 15.9868 1.73258 16.139 1.79449 16.2879C2.21369 17.296 2.98568 17.9221 3.80915 17.9221H5.04527C5.52918 18.6091 6.05347 19.2111 6.61037 19.7157V22.0107H4.41687V27.4021V28.75H11.6241V27.4021V22.0106H9.43061V19.7156C9.98748 19.211 10.5118 18.609 10.9957 17.9221H12.2318C13.0553 17.9221 13.8273 17.2959 14.2465 16.288C14.3084 16.1391 14.3698 15.9868 14.4288 15.8354C15.2453 13.7433 15.7589 11.5254 15.9554 9.24341L16.0205 8.48688H14.1213ZM3.80921 16.5742C3.31506 16.5742 2.8525 16.2 2.60194 15.5975C2.54445 15.4592 2.48743 15.3178 2.43257 15.1772C1.7667 13.4709 1.31839 11.6773 1.09669 9.83481H2.0525C2.26492 11.4381 2.66959 13.0243 3.25294 14.519C3.53852 15.2508 3.85831 15.9378 4.20765 16.5742L3.80921 16.5742ZM10.6841 23.3584V27.4021H5.35698V23.3584H10.6841ZM8.72207 18.7568L8.49056 18.9523V21.9657H7.55048V18.9523L7.31898 18.7568C4.7769 16.6102 2.97033 12.1592 2.82787 7.78332C6.27576 6.86952 9.76541 6.86952 13.2133 7.78332C13.0708 12.1592 11.2642 16.6102 8.72207 18.7568ZM13.6085 15.1773C13.5536 15.3179 13.4967 15.4593 13.4392 15.5975C13.1886 16.1999 12.726 16.5742 12.2319 16.5742H11.8335C12.1828 15.9379 12.5026 15.2508 12.7882 14.5191C13.3716 13.0243 13.7762 11.4381 13.9886 9.83485H14.9445C14.7227 11.6773 14.2744 13.4709 13.6085 15.1773Z" fill="#737373"/>
</g>
<defs>
<clipPath id="clip0">
<rect width="16" height="23" fill="white"/>
</clipPath>
</defs>
</svg>
