<svg width="26" height="97" viewBox="0 0 26 97" fill="none" xmlns="http://www.w3.org/2000/svg">
<path d="M0 0H23C24.6569 0 26 1.34315 26 3V49H0V0Z" fill="#6600CC"/>
<path d="M0 49H26V94C26 95.6569 24.6569 97 23 97H0V49Z" fill="#E47474"/>
<path fill-rule="evenodd" clip-rule="evenodd" d="M14.4584 68.75L15.0417 69.3333H17.0834V70.5H8.91669V69.3333H10.9584L11.5417 68.75H14.4584ZM13 74.3441L14.2367 73.1074L15.0592 73.9299L13.8225 75.1666L15.0592 76.4032L14.2367 77.2257L13 75.9891L11.7634 77.2257L10.9409 76.4032L12.1775 75.1666L10.935 73.9299L11.7575 73.1074L13 74.3441ZM9.50002 78.0833C9.50002 78.725 10.025 79.25 10.6667 79.25H15.3334C15.975 79.25 16.5 78.725 16.5 78.0833V71.0833H9.50002V78.0833ZM15.3334 72.25H10.6667V78.0833H15.3334V72.25Z" fill="white"/>
<path fill-rule="evenodd" clip-rule="evenodd" d="M16.7151 21.9192L18.0801 23.2842C18.3076 23.5117 18.3076 23.8792 18.0801 24.1067L17.0126 25.1742L14.8251 22.9867L15.8926 21.9192C16.0034 21.8083 16.1493 21.75 16.3009 21.75C16.4526 21.75 16.5984 21.8025 16.7151 21.9192ZM7.74927 30.0625V32.25H9.93677L16.3884 25.7984L14.2009 23.6109L7.74927 30.0625ZM9.4526 31.0833H8.91593V30.5467L14.2009 25.2617L14.7376 25.7983L9.4526 31.0833Z" fill="white"/>
</svg>
