<svg width="374" height="189" viewBox="0 0 374 189" fill="none" xmlns="http://www.w3.org/2000/svg">
<path d="M273.941 92.521C273.941 139.686 235.295 178.042 187.471 178.042C139.647 178.042 101 139.686 101 92.521C101 45.3563 139.647 7 187.471 7C235.295 7 273.941 45.3563 273.941 92.521Z" stroke="#F2F2F2" stroke-width="14"/>
<rect x="130.489" y="146.95" width="114.964" height="41.5497" rx="19.5" fill="white" stroke="#6600CC"/>
<path d="M164.836 167.269H168.166V170.091H164.836V173.909H161.759V170.091H158.42V167.269H161.759V163.558H164.836V167.269ZM181.808 175.335H178.507V164.827L175.265 165.775V163.275L181.505 161.116H181.808V175.335ZM196.584 165.843L198.908 161.116H202.824L198.849 168.167L202.931 175.335H198.976L196.584 170.521L194.191 175.335H190.246L194.318 168.167L190.353 161.116H194.259L196.584 165.843ZM207.482 170.511V175.335H204.054V161.116H209.728C210.815 161.116 211.776 161.318 212.609 161.722C213.449 162.119 214.097 162.689 214.552 163.431C215.015 164.167 215.246 165.003 215.246 165.941C215.246 167.327 214.748 168.437 213.752 169.271C212.762 170.098 211.401 170.511 209.67 170.511H207.482ZM207.482 167.865H209.728C210.392 167.865 210.897 167.698 211.242 167.366C211.593 167.034 211.769 166.566 211.769 165.96C211.769 165.296 211.59 164.766 211.232 164.368C210.874 163.971 210.386 163.769 209.767 163.763H207.482V167.865Z" fill="#6600CC"/>
<path d="M135.988 154.592C130.389 160.565 130.323 165.709 130.989 167.534C86.5028 132.691 94.5009 93.8669 94.5009 88.8894C103.498 76.4457 105.497 88.8894 107.996 88.8894C104.497 126.221 132.489 150.61 135.988 154.592Z" fill="#6600CC"/>
<path d="M186.992 70.9146H183.477L176.633 59.688V70.9146H173.117V53.8521H176.633L183.488 65.1021V53.8521H186.992V70.9146ZM197.188 70.9146C197.031 70.6099 196.918 70.231 196.848 69.7778C196.027 70.6919 194.961 71.1489 193.648 71.1489C192.406 71.1489 191.375 70.7896 190.555 70.0708C189.742 69.3521 189.336 68.4458 189.336 67.3521C189.336 66.0083 189.832 64.9771 190.824 64.2583C191.824 63.5396 193.266 63.1763 195.148 63.1685H196.707V62.4419C196.707 61.856 196.555 61.3872 196.25 61.0356C195.953 60.6841 195.48 60.5083 194.832 60.5083C194.262 60.5083 193.812 60.645 193.484 60.9185C193.164 61.1919 193.004 61.5669 193.004 62.0435H189.617C189.617 61.3091 189.844 60.6294 190.297 60.0044C190.75 59.3794 191.391 58.8911 192.219 58.5396C193.047 58.1802 193.977 58.0005 195.008 58.0005C196.57 58.0005 197.809 58.395 198.723 59.1841C199.645 59.9653 200.105 61.0669 200.105 62.4888V67.9849C200.113 69.188 200.281 70.0981 200.609 70.7153V70.9146H197.188ZM194.387 68.5591C194.887 68.5591 195.348 68.4497 195.77 68.231C196.191 68.0044 196.504 67.7036 196.707 67.3286V65.1489H195.441C193.746 65.1489 192.844 65.7349 192.734 66.9067L192.723 67.106C192.723 67.5278 192.871 67.8755 193.168 68.1489C193.465 68.4224 193.871 68.5591 194.387 68.5591ZM158.152 97.6255C157.316 98.6411 156.16 99.1489 154.684 99.1489C153.324 99.1489 152.285 98.7583 151.566 97.9771C150.855 97.1958 150.492 96.0513 150.477 94.5435V86.2349H153.863V94.4263C153.863 95.7466 154.465 96.4067 155.668 96.4067C156.816 96.4067 157.605 96.0083 158.035 95.2114V86.2349H161.434V98.9146H158.246L158.152 97.6255ZM156.641 80.9146H160.332L157.086 84.5474H154.332L156.641 80.9146ZM167.562 98.9146H164.164V80.9146H167.562V98.9146ZM174.418 83.1177V86.2349H176.586V88.7192H174.418V95.0474C174.418 95.5161 174.508 95.8521 174.688 96.0552C174.867 96.2583 175.211 96.3599 175.719 96.3599C176.094 96.3599 176.426 96.3325 176.715 96.2778V98.8442C176.051 99.0474 175.367 99.1489 174.664 99.1489C172.289 99.1489 171.078 97.9497 171.031 95.5513V88.7192H169.18V86.2349H171.031V83.1177H174.418ZM182.047 98.9146H178.648V86.2349H182.047V98.9146ZM178.449 82.9536C178.449 82.4458 178.617 82.0278 178.953 81.6997C179.297 81.3716 179.762 81.2075 180.348 81.2075C180.926 81.2075 181.387 81.3716 181.73 81.6997C182.074 82.0278 182.246 82.4458 182.246 82.9536C182.246 83.4692 182.07 83.8911 181.719 84.2192C181.375 84.5474 180.918 84.7114 180.348 84.7114C179.777 84.7114 179.316 84.5474 178.965 84.2192C178.621 83.8911 178.449 83.4692 178.449 82.9536ZM188.023 86.2349L188.129 87.6528C189.027 86.5513 190.242 86.0005 191.773 86.0005C193.406 86.0005 194.527 86.645 195.137 87.9341C196.027 86.645 197.297 86.0005 198.945 86.0005C200.32 86.0005 201.344 86.4028 202.016 87.2075C202.688 88.0044 203.023 89.2075 203.023 90.8169V98.9146H199.625V90.8286C199.625 90.1099 199.484 89.5864 199.203 89.2583C198.922 88.9224 198.426 88.7544 197.715 88.7544C196.699 88.7544 195.996 89.2388 195.605 90.2075L195.617 98.9146H192.23V90.8403C192.23 90.106 192.086 89.5747 191.797 89.2466C191.508 88.9185 191.016 88.7544 190.32 88.7544C189.359 88.7544 188.664 89.1528 188.234 89.9497V98.9146H184.848V86.2349H188.023ZM212.984 98.9146C212.828 98.6099 212.715 98.231 212.645 97.7778C211.824 98.6919 210.758 99.1489 209.445 99.1489C208.203 99.1489 207.172 98.7896 206.352 98.0708C205.539 97.3521 205.133 96.4458 205.133 95.3521C205.133 94.0083 205.629 92.9771 206.621 92.2583C207.621 91.5396 209.062 91.1763 210.945 91.1685H212.504V90.4419C212.504 89.856 212.352 89.3872 212.047 89.0356C211.75 88.6841 211.277 88.5083 210.629 88.5083C210.059 88.5083 209.609 88.645 209.281 88.9185C208.961 89.1919 208.801 89.5669 208.801 90.0435H205.414C205.414 89.3091 205.641 88.6294 206.094 88.0044C206.547 87.3794 207.188 86.8911 208.016 86.5396C208.844 86.1802 209.773 86.0005 210.805 86.0005C212.367 86.0005 213.605 86.395 214.52 87.1841C215.441 87.9653 215.902 89.0669 215.902 90.4888V95.9849C215.91 97.188 216.078 98.0981 216.406 98.7153V98.9146H212.984ZM210.184 96.5591C210.684 96.5591 211.145 96.4497 211.566 96.231C211.988 96.0044 212.301 95.7036 212.504 95.3286V93.1489H211.238C209.543 93.1489 208.641 93.7349 208.531 94.9067L208.52 95.106C208.52 95.5278 208.668 95.8755 208.965 96.1489C209.262 96.4224 209.668 96.5591 210.184 96.5591ZM221.949 93.6763H219.137L218.738 81.8521H222.348L221.949 93.6763ZM220.543 95.5278C221.113 95.5278 221.57 95.6958 221.914 96.0317C222.266 96.3677 222.441 96.7974 222.441 97.3208C222.441 97.8364 222.266 98.2622 221.914 98.5981C221.57 98.9341 221.113 99.1021 220.543 99.1021C219.98 99.1021 219.523 98.9341 219.172 98.5981C218.828 98.2622 218.656 97.8364 218.656 97.3208C218.656 96.8052 218.828 96.3794 219.172 96.0435C219.523 95.6997 219.98 95.5278 220.543 95.5278Z" fill="#1A1A1A"/>
</svg>
