<svg width="34" height="44" viewBox="0 0 34 44" fill="none" xmlns="http://www.w3.org/2000/svg">
<path d="M14.5333 34.2153C12.8395 35.7805 10.4968 36.131 8.41896 35.1306C7.66779 34.7688 7.0339 34.2693 6.53764 33.6711L3.70836 39.9289C3.57963 40.2136 3.72339 40.4282 3.7911 40.5072C3.85882 40.5861 4.04899 40.7608 4.3499 40.6772L6.40959 40.1039C6.64431 40.0386 6.88158 40.0071 7.11553 40.0071C8.10252 40.0071 9.03147 40.5658 9.47877 41.4915L10.409 43.4165C10.5448 43.6978 10.7997 43.7259 10.9058 43.7238C11.0098 43.7224 11.2657 43.6886 11.3944 43.4039L15.8947 33.4497C15.4002 33.592 14.932 33.8468 14.5333 34.2153Z" fill="white"/>
<path d="M30.2915 39.9289L27.4622 33.6711C26.9659 34.2694 26.332 34.7689 25.5809 35.1306C23.5029 36.131 21.1603 35.7805 19.4665 34.2153C19.0679 33.8468 18.5996 33.592 18.105 33.4497L22.6053 43.4039C22.734 43.6887 22.99 43.7224 23.0939 43.7238C23.2 43.7259 23.4548 43.6978 23.5907 43.4165L24.5209 41.4915C24.9681 40.5658 25.8971 40.0071 26.8841 40.0071C27.1181 40.0071 27.3554 40.0386 27.5901 40.1039L29.6498 40.6772C29.9507 40.7609 30.1409 40.5862 30.2086 40.5072C30.2765 40.4281 30.4202 40.2135 30.2915 39.9289Z" fill="white"/>
<path d="M32.5139 17.9091C30.1642 16.3001 29.4351 13.1056 30.8541 10.6365C31.707 9.15222 31.2631 7.68552 30.5633 6.80782C29.8634 5.93038 28.5321 5.17132 26.8954 5.67241C24.1728 6.50632 21.2203 5.08476 20.1745 2.43581C19.5459 0.84352 18.1224 0.276154 17 0.276154C15.8775 0.276154 14.454 0.84352 13.8254 2.4359C12.7796 5.08493 9.82735 6.50632 7.10448 5.6725C5.46764 5.17149 4.13663 5.93038 3.43663 6.80791C2.7368 7.6856 2.2929 9.15213 3.14582 10.6366C4.56483 13.1056 3.83572 16.3002 1.48598 17.9091C0.0734192 18.8764 -0.162913 20.3904 0.0867419 21.4848C0.336397 22.5791 1.20637 23.8405 2.89871 24.0991C5.71382 24.5291 7.75671 27.0909 7.54974 29.9312C7.42516 31.6386 8.46154 32.7674 9.47281 33.2545C10.4842 33.7415 12.0128 33.8481 13.2701 32.6861C14.3157 31.7198 15.6581 31.2365 16.9999 31.2365C18.3422 31.2365 19.6838 31.7196 20.7296 32.6861C21.987 33.8482 23.5158 33.7416 24.527 33.2545C25.5383 32.7675 26.5746 31.6387 26.4501 29.9313C26.2431 27.0909 28.286 24.5292 31.1011 24.0991C32.7935 23.8405 33.6633 22.579 33.9131 21.4848C34.1628 20.3902 33.9263 18.8763 32.5139 17.9091ZM17 28.7822C10.8413 28.7822 5.83092 23.7718 5.83092 17.6132C5.83092 11.4545 10.8412 6.44403 17 6.44403C23.1587 6.44403 28.169 11.4544 28.169 17.6131C28.1689 23.7717 23.1586 28.7822 17 28.7822Z" fill="white"/>
<path d="M16.9998 8.52655C11.9894 8.52655 7.91321 12.6028 7.91321 17.6131C7.91321 22.6235 11.9893 26.6997 16.9998 26.6997C22.0103 26.6997 26.0864 22.6235 26.0864 17.6131C26.0864 12.6028 22.0102 8.52655 16.9998 8.52655ZM21.6564 16.7321L16.0013 20.8626C15.8218 20.9938 15.6064 21.0631 15.3871 21.0631C15.3306 21.0631 15.2739 21.0585 15.2173 21.0492C14.9416 21.0036 14.6957 20.8491 14.535 20.6203L12.8434 18.2118C12.5129 17.7411 12.6265 17.0917 13.0971 16.7612C13.5677 16.4306 14.217 16.5442 14.5476 17.0148L15.6296 18.5553L20.4282 15.0505C20.8926 14.7115 21.5441 14.8126 21.8832 15.2772C22.2224 15.7415 22.1208 16.3929 21.6564 16.7321Z" fill="white"/>
</svg>
