<svg width="375" height="190" viewBox="0 0 375 190" fill="none" xmlns="http://www.w3.org/2000/svg">
<path d="M274 93.521C274 140.684 235.342 179.042 187.5 179.042C139.658 179.042 101 140.684 101 93.521C101 46.3583 139.658 8 187.5 8C235.342 8 274 46.3583 274 93.521Z" stroke="#6600CC" stroke-width="14"/>
<path d="M187.992 71.4868H184.477L177.633 60.2603V71.4868H174.117V54.4243H177.633L184.488 65.6743V54.4243H187.992V71.4868ZM198.188 71.4868C198.031 71.1821 197.918 70.8032 197.848 70.3501C197.027 71.2642 195.961 71.7212 194.648 71.7212C193.406 71.7212 192.375 71.3618 191.555 70.6431C190.742 69.9243 190.336 69.0181 190.336 67.9243C190.336 66.5806 190.832 65.5493 191.824 64.8306C192.824 64.1118 194.266 63.7485 196.148 63.7407H197.707V63.0142C197.707 62.4282 197.555 61.9595 197.25 61.6079C196.953 61.2563 196.48 61.0806 195.832 61.0806C195.262 61.0806 194.812 61.2173 194.484 61.4907C194.164 61.7642 194.004 62.1392 194.004 62.6157H190.617C190.617 61.8813 190.844 61.2017 191.297 60.5767C191.75 59.9517 192.391 59.4634 193.219 59.1118C194.047 58.7524 194.977 58.5728 196.008 58.5728C197.57 58.5728 198.809 58.9673 199.723 59.7563C200.645 60.5376 201.105 61.6392 201.105 63.061V68.5571C201.113 69.7603 201.281 70.6704 201.609 71.2876V71.4868H198.188ZM195.387 69.1313C195.887 69.1313 196.348 69.022 196.77 68.8032C197.191 68.5767 197.504 68.2759 197.707 67.9009V65.7212H196.441C194.746 65.7212 193.844 66.3071 193.734 67.479L193.723 67.6782C193.723 68.1001 193.871 68.4478 194.168 68.7212C194.465 68.9946 194.871 69.1313 195.387 69.1313ZM148.195 83.6899V86.8071H150.363V89.2915H148.195V95.6196C148.195 96.0884 148.285 96.4243 148.465 96.6274C148.645 96.8306 148.988 96.9321 149.496 96.9321C149.871 96.9321 150.203 96.9048 150.492 96.8501V99.4165C149.828 99.6196 149.145 99.7212 148.441 99.7212C146.066 99.7212 144.855 98.522 144.809 96.1235V89.2915H142.957V86.8071H144.809V83.6899H148.195ZM158.086 99.7212C156.227 99.7212 154.711 99.1509 153.539 98.0103C152.375 96.8696 151.793 95.3501 151.793 93.4517V93.1235C151.793 91.8501 152.039 90.7134 152.531 89.7134C153.023 88.7056 153.719 87.9321 154.617 87.3931C155.523 86.8462 156.555 86.5728 157.711 86.5728C159.445 86.5728 160.809 87.1196 161.801 88.2134C162.801 89.3071 163.301 90.8579 163.301 92.8657V94.2485H155.227C155.336 95.0767 155.664 95.7407 156.211 96.2407C156.766 96.7407 157.465 96.9907 158.309 96.9907C159.613 96.9907 160.633 96.5181 161.367 95.5728L163.031 97.436C162.523 98.1548 161.836 98.7173 160.969 99.1235C160.102 99.522 159.141 99.7212 158.086 99.7212ZM157.699 89.3149C157.027 89.3149 156.48 89.5415 156.059 89.9946C155.645 90.4478 155.379 91.0962 155.262 91.9399H159.973V91.6704C159.957 90.9204 159.754 90.3423 159.363 89.936C158.973 89.522 158.418 89.3149 157.699 89.3149ZM172.359 89.9829C171.898 89.9204 171.492 89.8892 171.141 89.8892C169.859 89.8892 169.02 90.3228 168.621 91.1899V99.4868H165.234V86.8071H168.434L168.527 88.3188C169.207 87.1548 170.148 86.5728 171.352 86.5728C171.727 86.5728 172.078 86.6235 172.406 86.7251L172.359 89.9829ZM179.039 96.9907C179.664 96.9907 180.172 96.8188 180.562 96.4751C180.953 96.1313 181.156 95.6743 181.172 95.104H184.348C184.34 95.9634 184.105 96.7524 183.645 97.4712C183.184 98.1821 182.551 98.7368 181.746 99.1353C180.949 99.5259 180.066 99.7212 179.098 99.7212C177.285 99.7212 175.855 99.147 174.809 97.9985C173.762 96.8423 173.238 95.2485 173.238 93.2173V92.9946C173.238 91.0415 173.758 89.4829 174.797 88.3188C175.836 87.1548 177.262 86.5728 179.074 86.5728C180.66 86.5728 181.93 87.0259 182.883 87.9321C183.844 88.8306 184.332 90.0298 184.348 91.5298H181.172C181.156 90.8735 180.953 90.3423 180.562 89.936C180.172 89.522 179.656 89.3149 179.016 89.3149C178.227 89.3149 177.629 89.604 177.223 90.1821C176.824 90.7524 176.625 91.6821 176.625 92.9712V93.3228C176.625 94.6274 176.824 95.5649 177.223 96.1353C177.621 96.7056 178.227 96.9907 179.039 96.9907ZM192.117 99.7212C190.258 99.7212 188.742 99.1509 187.57 98.0103C186.406 96.8696 185.824 95.3501 185.824 93.4517V93.1235C185.824 91.8501 186.07 90.7134 186.562 89.7134C187.055 88.7056 187.75 87.9321 188.648 87.3931C189.555 86.8462 190.586 86.5728 191.742 86.5728C193.477 86.5728 194.84 87.1196 195.832 88.2134C196.832 89.3071 197.332 90.8579 197.332 92.8657V94.2485H189.258C189.367 95.0767 189.695 95.7407 190.242 96.2407C190.797 96.7407 191.496 96.9907 192.34 96.9907C193.645 96.9907 194.664 96.5181 195.398 95.5728L197.062 97.436C196.555 98.1548 195.867 98.7173 195 99.1235C194.133 99.522 193.172 99.7212 192.117 99.7212ZM191.73 89.3149C191.059 89.3149 190.512 89.5415 190.09 89.9946C189.676 90.4478 189.41 91.0962 189.293 91.9399H194.004V91.6704C193.988 90.9204 193.785 90.3423 193.395 89.936C193.004 89.522 192.449 89.3149 191.73 89.3149ZM202.84 99.4868H199.441V86.8071H202.84V99.4868ZM199.242 83.5259C199.242 83.0181 199.41 82.6001 199.746 82.272C200.09 81.9438 200.555 81.7798 201.141 81.7798C201.719 81.7798 202.18 81.9438 202.523 82.272C202.867 82.6001 203.039 83.0181 203.039 83.5259C203.039 84.0415 202.863 84.4634 202.512 84.7915C202.168 85.1196 201.711 85.2837 201.141 85.2837C200.57 85.2837 200.109 85.1196 199.758 84.7915C199.414 84.4634 199.242 84.0415 199.242 83.5259ZM212.766 89.9829C212.305 89.9204 211.898 89.8892 211.547 89.8892C210.266 89.8892 209.426 90.3228 209.027 91.1899V99.4868H205.641V86.8071H208.84L208.934 88.3188C209.613 87.1548 210.555 86.5728 211.758 86.5728C212.133 86.5728 212.484 86.6235 212.812 86.7251L212.766 89.9829ZM221.402 99.4868C221.246 99.1821 221.133 98.8032 221.062 98.3501C220.242 99.2642 219.176 99.7212 217.863 99.7212C216.621 99.7212 215.59 99.3618 214.77 98.6431C213.957 97.9243 213.551 97.0181 213.551 95.9243C213.551 94.5806 214.047 93.5493 215.039 92.8306C216.039 92.1118 217.48 91.7485 219.363 91.7407H220.922V91.0142C220.922 90.4282 220.77 89.9595 220.465 89.6079C220.168 89.2563 219.695 89.0806 219.047 89.0806C218.477 89.0806 218.027 89.2173 217.699 89.4907C217.379 89.7642 217.219 90.1392 217.219 90.6157H213.832C213.832 89.8813 214.059 89.2017 214.512 88.5767C214.965 87.9517 215.605 87.4634 216.434 87.1118C217.262 86.7524 218.191 86.5728 219.223 86.5728C220.785 86.5728 222.023 86.9673 222.938 87.7563C223.859 88.5376 224.32 89.6392 224.32 91.061V96.5571C224.328 97.7603 224.496 98.6704 224.824 99.2876V99.4868H221.402ZM218.602 97.1313C219.102 97.1313 219.562 97.022 219.984 96.8032C220.406 96.5767 220.719 96.2759 220.922 95.9009V93.7212H219.656C217.961 93.7212 217.059 94.3071 216.949 95.479L216.938 95.6782C216.938 96.1001 217.086 96.4478 217.383 96.7212C217.68 96.9946 218.086 97.1313 218.602 97.1313ZM230.367 94.2485H227.555L227.156 82.4243H230.766L230.367 94.2485ZM228.961 96.1001C229.531 96.1001 229.988 96.2681 230.332 96.604C230.684 96.9399 230.859 97.3696 230.859 97.8931C230.859 98.4087 230.684 98.8345 230.332 99.1704C229.988 99.5063 229.531 99.6743 228.961 99.6743C228.398 99.6743 227.941 99.5063 227.59 99.1704C227.246 98.8345 227.074 98.4087 227.074 97.8931C227.074 97.3774 227.246 96.9517 227.59 96.6157C227.941 96.272 228.398 96.1001 228.961 96.1001Z" fill="#1A1A1A"/>
<path d="M193 0.787842C199.4 7.15903 195.667 12.8997 193 14.7248C254 23.1866 262.5 72.9615 264.5 83.4143C272.5 124.23 243 149.117 239.5 153.597C244.5 162.556 244 163.054 246 166.538C281 139.162 282.5 99.84 281.5 80.9255C264 3.77434 203.5 1.78334 193 0.787842Z" fill="#F2F2F2"/>
<rect x="130.5" y="147.95" width="115" height="41.5497" rx="19.5" fill="white" stroke="#6600CC"/>
<path d="M164.855 168.269H168.186V171.091H164.855V174.909H161.779V171.091H158.439V168.269H161.779V164.558H164.855V168.269ZM184.455 176.335H174.533V174.187L179.104 169.382C180.23 168.1 180.793 167.081 180.793 166.325C180.793 165.713 180.66 165.248 180.393 164.929C180.126 164.61 179.738 164.45 179.23 164.45C178.729 164.45 178.322 164.665 178.01 165.095C177.697 165.518 177.541 166.049 177.541 166.687H174.24C174.24 165.814 174.458 165.01 174.895 164.275C175.331 163.532 175.936 162.953 176.711 162.536C177.486 162.12 178.352 161.911 179.309 161.911C180.845 161.911 182.027 162.266 182.854 162.976C183.687 163.685 184.104 164.704 184.104 166.032C184.104 166.592 183.999 167.139 183.791 167.673C183.583 168.2 183.257 168.757 182.814 169.343C182.378 169.922 181.672 170.7 180.695 171.677L178.859 173.796H184.455V176.335ZM196.604 166.843L198.928 162.116H202.844L198.869 169.167L202.951 176.335H198.996L196.604 171.521L194.211 176.335H190.266L194.338 169.167L190.373 162.116H194.279L196.604 166.843ZM207.502 171.511V176.335H204.074V162.116H209.748C210.835 162.116 211.796 162.318 212.629 162.722C213.469 163.119 214.117 163.689 214.572 164.431C215.035 165.167 215.266 166.003 215.266 166.941C215.266 168.327 214.768 169.437 213.771 170.271C212.782 171.098 211.421 171.511 209.689 171.511H207.502ZM207.502 168.865H209.748C210.412 168.865 210.917 168.698 211.262 168.366C211.613 168.034 211.789 167.566 211.789 166.96C211.789 166.296 211.61 165.766 211.252 165.368C210.894 164.971 210.406 164.769 209.787 164.763H207.502V168.865Z" fill="#6600CC"/>
</svg>
