<svg width="55" height="56" viewBox="0 0 55 56" fill="none" xmlns="http://www.w3.org/2000/svg">
<path d="M3.58763 4.65418C-0.722032 9.12978 0.160009 13.8841 0.160009 28.3276C0.160009 40.3219 -1.93313 52.3459 9.02156 55.1766C12.4423 56.0562 42.7517 56.0562 46.1679 55.172C50.7289 53.9954 54.4399 50.2966 54.9471 43.8471C55.018 42.9469 55.018 13.7242 54.9449 12.8058C54.4056 5.93586 50.1759 1.97659 44.6026 1.17468C43.3252 0.989624 43.0693 0.934793 36.5157 0.92337C13.2695 0.934793 8.17379 -0.100147 3.58763 4.65418Z" fill="url(#paint0_linear)"/>
<path d="M27.5005 7.85545C19.1037 7.85545 11.1302 7.1091 8.08458 14.9192C6.82657 18.145 7.00925 22.3343 7.00925 28.3328C7.00925 33.5966 6.84044 38.5438 8.08458 41.7441C11.1232 49.5588 19.1616 48.8102 27.4959 48.8102C35.5365 48.8102 43.8269 49.6466 46.9095 41.7441C48.1698 38.486 47.9848 34.3591 47.9848 28.3328C47.9848 20.3332 48.4265 15.1688 44.5438 11.2915C40.6125 7.36328 35.296 7.85545 27.4913 7.85545H27.5005ZM25.6644 11.5456C43.1794 11.5179 45.4087 9.5723 44.1784 36.6005C43.7413 46.1598 36.4569 45.1107 27.5028 45.1107C11.1764 45.1107 10.707 44.644 10.707 28.3236C10.707 11.8137 12.002 11.5549 25.6644 11.541V11.5456ZM38.4387 14.9447C37.0813 14.9447 35.9805 16.0445 35.9805 17.4009C35.9805 18.7573 37.0813 19.8572 38.4387 19.8572C39.7962 19.8572 40.8969 18.7573 40.8969 17.4009C40.8969 16.0445 39.7962 14.9447 38.4387 14.9447ZM27.5005 17.8168C21.6891 17.8168 16.9785 22.526 16.9785 28.3328C16.9785 34.1396 21.6891 38.8465 27.5005 38.8465C33.3119 38.8465 38.0202 34.1396 38.0202 28.3328C38.0202 22.526 33.3119 17.8168 27.5005 17.8168ZM27.5005 21.507C36.5309 21.507 36.5425 35.1586 27.5005 35.1586C18.4724 35.1586 18.4585 21.507 27.5005 21.507Z" fill="white"/>
<defs>
<linearGradient id="paint0_linear" x1="3.69279" y1="52.2525" x2="54.654" y2="8.13742" gradientUnits="userSpaceOnUse">
<stop stop-color="#FFDD55"/>
<stop offset="0.5" stop-color="#FF543E"/>
<stop offset="1" stop-color="#C837AB"/>
</linearGradient>
</defs>
</svg>
