<svg width="30" height="30" viewBox="0 0 30 30" fill="none" xmlns="http://www.w3.org/2000/svg">
<g clip-path="url(#clip0)">
<path d="M17.9915 0H27.0215L19.5146 9.58066H10.4846L17.9915 0Z" fill="#0E6A8E"/>
<path d="M17.9915 0H21.8077L14.3009 9.58066H10.4846L17.9915 0Z" fill="#E52E40"/>
<path d="M20.9107 0H24.1032L16.5963 9.58066H13.4038L20.9107 0Z" fill="#EAEAE4"/>
<path d="M15.0001 30.0003C20.1655 30.0003 24.3528 25.813 24.3528 20.6477C24.3528 15.4823 20.1655 11.295 15.0001 11.295C9.8348 11.295 5.64746 15.4823 5.64746 20.6477C5.64746 25.813 9.8348 30.0003 15.0001 30.0003Z" fill="#F9AC30"/>
<path d="M10.4859 12.4555V9.581H19.5159V12.4555L21.0465 13.5116V8.81565C21.0465 8.39319 20.7042 8.05035 20.2812 8.05035H9.72062C9.29815 8.05035 8.95532 8.39319 8.95532 8.81565V13.5122L10.4859 12.4555Z" fill="#F9AC30"/>
<path d="M14.999 27.6493C18.8659 27.6493 22.0006 24.5145 22.0006 20.6476C22.0006 16.7807 18.8659 13.6459 14.999 13.6459C11.1321 13.6459 7.99731 16.7807 7.99731 20.6476C7.99731 24.5145 11.1321 27.6493 14.999 27.6493Z" fill="#DD8D19"/>
<path d="M12.008 0H2.97803L10.4849 9.58066H19.5149L12.008 0Z" fill="#E52E40"/>
<path d="M12.0075 0H8.19116L15.6981 9.58066H19.5143L12.0075 0Z" fill="#0E6A8E"/>
<path d="M9.09 0H5.89746L13.4043 9.58066H16.5969L9.09 0Z" fill="#EAEAE4"/>
<path d="M15.192 15.39C16.7551 15.39 18.0759 16.4546 18.0759 18.0717C18.0759 20.9691 13.7096 21.9124 13.7096 23.4621V23.9742H17.6715C17.9141 23.9742 18.1432 24.2572 18.1432 24.5942C18.1432 24.9311 17.9141 25.241 17.6715 25.241H12.8741C12.6045 25.241 12.2407 25.0524 12.2407 24.7693V23.4621C12.2407 21.279 16.6475 20.1875 16.6475 18.1121C16.6475 17.4518 16.2163 16.6971 15.1921 16.6971C14.4375 16.6971 13.831 17.1148 13.831 18.0312C13.831 18.3008 13.548 18.5703 13.0764 18.5703C12.699 18.5703 12.4296 18.3816 12.4296 17.7752C12.4293 16.3333 13.7231 15.39 15.192 15.39Z" fill="#F9AC30"/>
</g>
<defs>
<clipPath id="clip0">
<rect width="30" height="30" fill="white"/>
</clipPath>
</defs>
</svg>
