<svg width="374" height="226" viewBox="0 0 374 226" fill="none" xmlns="http://www.w3.org/2000/svg">
<g filter="url(#filter0_d)">
<path d="M273 108.521C273 155.684 234.342 194.042 186.5 194.042C138.658 194.042 100 155.684 100 108.521C100 61.3583 138.658 23 186.5 23C234.342 23 273 61.3583 273 108.521Z" stroke="#6600CC" stroke-width="14"/>
</g>
<rect x="129.5" y="162.95" width="115" height="41.5497" rx="19.5" fill="white" stroke="#6600CC"/>
<path d="M156.855 183.269H160.186V186.091H156.855V189.909H153.779V186.091H150.439V183.269H153.779V179.558H156.855V183.269ZM173.828 191.335H170.527V180.827L167.285 181.775V179.275L173.525 177.116H173.828V191.335ZM187.988 185.525C187.988 187.445 187.555 188.926 186.689 189.968C185.83 191.01 184.616 191.531 183.047 191.531C181.465 191.531 180.241 191.006 179.375 189.958C178.509 188.91 178.076 187.432 178.076 185.525V182.927C178.076 181.006 178.506 179.525 179.365 178.484C180.231 177.442 181.452 176.921 183.027 176.921C184.603 176.921 185.824 177.445 186.689 178.493C187.555 179.542 187.988 181.023 187.988 182.937V185.525ZM184.697 182.507C184.697 181.485 184.564 180.723 184.297 180.222C184.03 179.714 183.607 179.46 183.027 179.46C182.461 179.46 182.048 179.695 181.787 180.163C181.533 180.632 181.396 181.342 181.377 182.292V185.925C181.377 186.986 181.51 187.764 181.777 188.259C182.044 188.747 182.467 188.991 183.047 188.991C183.607 188.991 184.02 188.754 184.287 188.279C184.554 187.797 184.691 187.045 184.697 186.023V182.507ZM200.186 181.843L202.51 177.116H206.426L202.451 184.167L206.533 191.335H202.578L200.186 186.521L197.793 191.335H193.848L197.92 184.167L193.955 177.116H197.861L200.186 181.843ZM211.084 186.511V191.335H207.656V177.116H213.33C214.417 177.116 215.378 177.318 216.211 177.722C217.051 178.119 217.699 178.689 218.154 179.431C218.617 180.167 218.848 181.003 218.848 181.941C218.848 183.327 218.35 184.437 217.354 185.271C216.364 186.098 215.003 186.511 213.271 186.511H211.084ZM211.084 183.865H213.33C213.994 183.865 214.499 183.698 214.844 183.366C215.195 183.034 215.371 182.566 215.371 181.96C215.371 181.296 215.192 180.766 214.834 180.368C214.476 179.971 213.988 179.769 213.369 179.763H211.084V183.865Z" fill="#6600CC"/>
<path d="M173.727 86.4868V69.4243H178.977C180.477 69.4243 181.816 69.7642 182.996 70.4438C184.184 71.1157 185.109 72.0767 185.773 73.3267C186.438 74.5688 186.77 75.9829 186.77 77.5688V78.354C186.77 79.9399 186.441 81.3501 185.785 82.5845C185.137 83.8188 184.219 84.7759 183.031 85.4556C181.844 86.1353 180.504 86.479 179.012 86.4868H173.727ZM177.242 72.272V83.6626H178.941C180.316 83.6626 181.367 83.2134 182.094 82.3149C182.82 81.4165 183.191 80.1313 183.207 78.4595V77.5571C183.207 75.8228 182.848 74.5103 182.129 73.6196C181.41 72.7212 180.359 72.272 178.977 72.272H177.242ZM194.949 86.7212C193.09 86.7212 191.574 86.1509 190.402 85.0103C189.238 83.8696 188.656 82.3501 188.656 80.4517V80.1235C188.656 78.8501 188.902 77.7134 189.395 76.7134C189.887 75.7056 190.582 74.9321 191.48 74.3931C192.387 73.8462 193.418 73.5728 194.574 73.5728C196.309 73.5728 197.672 74.1196 198.664 75.2134C199.664 76.3071 200.164 77.8579 200.164 79.8657V81.2485H192.09C192.199 82.0767 192.527 82.7407 193.074 83.2407C193.629 83.7407 194.328 83.9907 195.172 83.9907C196.477 83.9907 197.496 83.5181 198.23 82.5728L199.895 84.436C199.387 85.1548 198.699 85.7173 197.832 86.1235C196.965 86.522 196.004 86.7212 194.949 86.7212ZM194.562 76.3149C193.891 76.3149 193.344 76.5415 192.922 76.9946C192.508 77.4478 192.242 78.0962 192.125 78.9399H196.836V78.6704C196.82 77.9204 196.617 77.3423 196.227 76.936C195.836 76.522 195.281 76.3149 194.562 76.3149ZM147.629 108.264C147.629 110.217 147.184 111.784 146.293 112.963C145.41 114.135 144.215 114.721 142.707 114.721C141.426 114.721 140.391 114.276 139.602 113.385V119.362H136.215V101.807H139.355L139.473 103.049C140.293 102.065 141.363 101.573 142.684 101.573C144.246 101.573 145.461 102.151 146.328 103.307C147.195 104.463 147.629 106.057 147.629 108.088V108.264ZM144.242 108.018C144.242 106.838 144.031 105.928 143.609 105.288C143.195 104.647 142.59 104.327 141.793 104.327C140.73 104.327 140 104.733 139.602 105.545V110.737C140.016 111.573 140.754 111.991 141.816 111.991C143.434 111.991 144.242 110.667 144.242 108.018ZM156.863 104.983C156.402 104.92 155.996 104.889 155.645 104.889C154.363 104.889 153.523 105.323 153.125 106.19V114.487H149.738V101.807H152.938L153.031 103.319C153.711 102.155 154.652 101.573 155.855 101.573C156.23 101.573 156.582 101.624 156.91 101.725L156.863 104.983ZM162.078 114.487H158.68V101.807H162.078V114.487ZM158.48 98.5259C158.48 98.0181 158.648 97.6001 158.984 97.272C159.328 96.9438 159.793 96.7798 160.379 96.7798C160.957 96.7798 161.418 96.9438 161.762 97.272C162.105 97.6001 162.277 98.0181 162.277 98.5259C162.277 99.0415 162.102 99.4634 161.75 99.7915C161.406 100.12 160.949 100.284 160.379 100.284C159.809 100.284 159.348 100.12 158.996 99.7915C158.652 99.4634 158.48 99.0415 158.48 98.5259ZM168.055 101.807L168.16 103.225C169.059 102.124 170.273 101.573 171.805 101.573C173.438 101.573 174.559 102.217 175.168 103.506C176.059 102.217 177.328 101.573 178.977 101.573C180.352 101.573 181.375 101.975 182.047 102.78C182.719 103.577 183.055 104.78 183.055 106.389V114.487H179.656V106.401C179.656 105.682 179.516 105.159 179.234 104.831C178.953 104.495 178.457 104.327 177.746 104.327C176.73 104.327 176.027 104.811 175.637 105.78L175.648 114.487H172.262V106.413C172.262 105.678 172.117 105.147 171.828 104.819C171.539 104.491 171.047 104.327 170.352 104.327C169.391 104.327 168.695 104.725 168.266 105.522V114.487H164.879V101.807H168.055ZM191.504 114.721C189.645 114.721 188.129 114.151 186.957 113.01C185.793 111.87 185.211 110.35 185.211 108.452V108.124C185.211 106.85 185.457 105.713 185.949 104.713C186.441 103.706 187.137 102.932 188.035 102.393C188.941 101.846 189.973 101.573 191.129 101.573C192.863 101.573 194.227 102.12 195.219 103.213C196.219 104.307 196.719 105.858 196.719 107.866V109.249H188.645C188.754 110.077 189.082 110.741 189.629 111.241C190.184 111.741 190.883 111.991 191.727 111.991C193.031 111.991 194.051 111.518 194.785 110.573L196.449 112.436C195.941 113.155 195.254 113.717 194.387 114.124C193.52 114.522 192.559 114.721 191.504 114.721ZM191.117 104.315C190.445 104.315 189.898 104.542 189.477 104.995C189.062 105.448 188.797 106.096 188.68 106.94H193.391V106.67C193.375 105.92 193.172 105.342 192.781 104.936C192.391 104.522 191.836 104.315 191.117 104.315ZM202.227 114.487H198.828V101.807H202.227V114.487ZM198.629 98.5259C198.629 98.0181 198.797 97.6001 199.133 97.272C199.477 96.9438 199.941 96.7798 200.527 96.7798C201.105 96.7798 201.566 96.9438 201.91 97.272C202.254 97.6001 202.426 98.0181 202.426 98.5259C202.426 99.0415 202.25 99.4634 201.898 99.7915C201.555 100.12 201.098 100.284 200.527 100.284C199.957 100.284 199.496 100.12 199.145 99.7915C198.801 99.4634 198.629 99.0415 198.629 98.5259ZM212.152 104.983C211.691 104.92 211.285 104.889 210.934 104.889C209.652 104.889 208.812 105.323 208.414 106.19V114.487H205.027V101.807H208.227L208.32 103.319C209 102.155 209.941 101.573 211.145 101.573C211.52 101.573 211.871 101.624 212.199 101.725L212.152 104.983ZM220.789 114.487C220.633 114.182 220.52 113.803 220.449 113.35C219.629 114.264 218.562 114.721 217.25 114.721C216.008 114.721 214.977 114.362 214.156 113.643C213.344 112.924 212.938 112.018 212.938 110.924C212.938 109.581 213.434 108.549 214.426 107.831C215.426 107.112 216.867 106.749 218.75 106.741H220.309V106.014C220.309 105.428 220.156 104.959 219.852 104.608C219.555 104.256 219.082 104.081 218.434 104.081C217.863 104.081 217.414 104.217 217.086 104.491C216.766 104.764 216.605 105.139 216.605 105.616H213.219C213.219 104.881 213.445 104.202 213.898 103.577C214.352 102.952 214.992 102.463 215.82 102.112C216.648 101.752 217.578 101.573 218.609 101.573C220.172 101.573 221.41 101.967 222.324 102.756C223.246 103.538 223.707 104.639 223.707 106.061V111.557C223.715 112.76 223.883 113.67 224.211 114.288V114.487H220.789ZM217.988 112.131C218.488 112.131 218.949 112.022 219.371 111.803C219.793 111.577 220.105 111.276 220.309 110.901V108.721H219.043C217.348 108.721 216.445 109.307 216.336 110.479L216.324 110.678C216.324 111.1 216.473 111.448 216.77 111.721C217.066 111.995 217.473 112.131 217.988 112.131ZM229.754 109.249H226.941L226.543 97.4243H230.152L229.754 109.249ZM228.348 111.1C228.918 111.1 229.375 111.268 229.719 111.604C230.07 111.94 230.246 112.37 230.246 112.893C230.246 113.409 230.07 113.834 229.719 114.17C229.375 114.506 228.918 114.674 228.348 114.674C227.785 114.674 227.328 114.506 226.977 114.17C226.633 113.834 226.461 113.409 226.461 112.893C226.461 112.377 226.633 111.952 226.977 111.616C227.328 111.272 227.785 111.1 228.348 111.1ZM236.293 109.249H233.48L233.082 97.4243H236.691L236.293 109.249ZM234.887 111.1C235.457 111.1 235.914 111.268 236.258 111.604C236.609 111.94 236.785 112.37 236.785 112.893C236.785 113.409 236.609 113.834 236.258 114.17C235.914 114.506 235.457 114.674 234.887 114.674C234.324 114.674 233.867 114.506 233.516 114.17C233.172 113.834 233 113.409 233 112.893C233 112.377 233.172 111.952 233.516 111.616C233.867 111.272 234.324 111.1 234.887 111.1Z" fill="#1A1A1A"/>
<defs>
<filter id="filter0_d" x="73" y="0" width="227" height="225.042" filterUnits="userSpaceOnUse" color-interpolation-filters="sRGB">
<feFlood flood-opacity="0" result="BackgroundImageFix"/>
<feColorMatrix in="SourceAlpha" type="matrix" values="0 0 0 0 0 0 0 0 0 0 0 0 0 0 0 0 0 0 127 0"/>
<feOffset dy="4"/>
<feGaussianBlur stdDeviation="10"/>
<feColorMatrix type="matrix" values="0 0 0 0 0.4 0 0 0 0 0 0 0 0 0 0.8 0 0 0 0.06 0"/>
<feBlend mode="normal" in2="BackgroundImageFix" result="effect1_dropShadow"/>
<feBlend mode="normal" in="SourceGraphic" in2="effect1_dropShadow" result="shape"/>
</filter>
</defs>
</svg>
