<svg width="429" height="429" viewBox="0 0 429 429" fill="none" xmlns="http://www.w3.org/2000/svg">
<path d="M110.99 288.579C111.715 287.048 112.607 285.555 113.654 284.062C114.701 282.582 115.752 281.252 116.807 280.089C117.85 278.927 118.871 277.983 119.832 277.258C120.801 276.541 121.569 276.172 122.131 276.172C122.448 276.172 122.448 276.799 122.131 278.047C121.809 279.291 121.363 280.553 120.797 281.84C120.072 283.448 119.081 284.928 117.828 286.293C116.571 287.648 115.344 288.622 114.13 289.18C112.993 289.742 112.032 290.021 111.222 290.021C110.66 290.021 110.372 289.956 110.372 289.84C110.394 289.729 110.595 289.3 110.99 288.579ZM203.675 292.436C203.195 291.544 202.324 290.69 201.067 289.84C199.81 289 198.66 288.498 197.614 288.33C197.206 288.245 196.846 288.129 196.528 287.966C196.198 287.807 195.962 287.648 195.795 287.49C195.387 287.009 195.057 285.778 194.769 283.813C194.49 281.844 194.345 279.66 194.345 277.245C194.345 275.881 194.302 274.761 194.229 273.877C194.143 272.994 194.027 272.234 193.864 271.591C193.697 270.952 193.418 270.39 193.015 269.9C192.607 269.42 192.122 268.931 191.565 268.455C190.595 267.648 189.501 266.945 188.296 266.348C187.082 265.739 186.146 265.443 185.503 265.443C184.611 265.443 183.873 265.881 183.263 266.773C182.654 267.657 182.273 268.776 182.105 270.136C182.028 270.784 181.946 271.608 181.861 272.607C181.783 273.607 181.693 274.431 181.616 275.07C181.53 275.876 181.286 277.103 180.891 278.746C180.484 280.39 179.999 282.196 179.433 284.169C178.871 286.138 178.283 288.12 177.678 290.124C177.069 292.127 176.494 293.903 175.923 295.426C175.443 296.79 174.731 298.485 173.813 300.493C172.877 302.496 171.946 304.431 171.02 306.267C170.093 308.129 169.239 309.699 168.476 311.029C167.699 312.359 167.206 313.062 166.961 313.135C166.794 313.135 166.696 312.998 166.661 312.711C166.618 312.432 166.584 311.87 166.545 311.02C166.494 310.179 166.481 308.995 166.481 307.472V301.689C166.481 298.24 166.46 295.533 166.417 293.556C166.365 291.587 166.172 290.085 165.807 289.038C165.443 288.004 164.902 287.198 164.169 286.632C163.444 286.07 162.436 285.426 161.144 284.705C159.608 283.899 158.09 283.483 156.605 283.44C155.104 283.405 154.04 283.783 153.392 284.589C152.744 285.229 152.187 286.391 151.698 288.082C151.217 289.772 150.887 291.659 150.72 293.749C150.552 295.516 150.093 297.477 149.334 299.647C148.557 301.818 147.249 304.783 145.396 308.562L143.946 311.574L144.306 307.837C144.392 306.795 144.559 305.332 144.786 303.44C145.04 301.552 145.267 299.763 145.52 298.082C145.838 295.834 146.159 293.47 146.49 290.977C146.807 288.493 147.099 286.155 147.33 283.993C147.584 281.822 147.781 279.935 147.94 278.326C148.107 276.717 148.184 275.598 148.184 274.958C148.184 272.316 146.854 270.068 144.19 268.214C143.053 267.575 141.964 267.065 140.921 266.704C139.866 266.344 138.939 266.237 138.128 266.404C137.807 266.49 137.425 266.829 136.979 267.429C136.533 268.026 136.086 268.811 135.644 269.772C135.198 270.741 134.769 271.84 134.375 273.092C133.967 274.336 133.641 275.598 133.397 276.885C132.26 281.698 131.397 286.194 130.788 290.368C130.617 291.582 130.466 292.783 130.308 293.98C130.055 294.362 129.797 294.765 129.518 295.194C127.901 297.837 125.82 300.317 123.276 302.616C120.732 304.924 118.291 306.632 115.941 307.738C115.057 308.142 114.323 308.455 113.765 308.695C113.203 308.927 112.659 309.103 112.127 309.227C111.603 309.343 111.054 309.42 110.497 309.463C109.93 309.493 109.24 309.514 108.429 309.514C105.842 309.514 104.267 308.884 103.71 307.61C103.143 306.34 103.101 304.95 103.59 303.444C104.07 301.934 104.847 300.63 105.889 299.506C106.936 298.386 107.794 297.983 108.433 298.313C109.325 298.867 110.861 299.154 113.045 299.154C114.25 299.154 115.207 299.068 115.889 298.91C116.571 298.742 117.476 298.386 118.613 297.824C120.874 296.619 122.809 295.014 124.43 293.011C126.048 290.999 127.253 288.828 128.06 286.503C128.871 284.173 129.252 281.805 129.218 279.399C129.175 276.983 128.63 274.701 127.588 272.53C123.624 264.499 117.652 262.573 109.656 266.747C105.297 268.995 101.638 272.007 98.6861 275.786C95.7346 279.557 93.5124 283.594 92.0281 287.893C90.5266 292.187 89.8015 296.426 89.8444 300.608C89.8788 304.791 90.7582 308.481 92.4614 311.694C94.1559 314.898 96.6999 317.305 100.089 318.905C103.478 320.506 107.759 320.823 112.925 319.866C114.701 319.549 116.378 319.103 117.953 318.536C119.518 317.974 121.02 317.258 122.427 316.366C123.834 315.482 125.237 314.397 126.61 313.118C127.335 312.436 128.081 311.711 128.845 310.922V312.277C128.896 314.851 129.145 316.992 129.634 318.712C130.115 320.437 130.891 321.853 131.934 322.938C132.98 324.015 134.362 325.006 136.052 325.889C137.425 326.606 138.416 327.069 139.025 327.271C139.634 327.472 140.462 327.537 141.505 327.451C142.397 327.374 143.156 327.207 143.804 326.975C144.452 326.722 145.074 326.263 145.687 325.589C146.297 324.916 146.914 324.01 147.571 322.882C148.218 321.762 148.978 320.265 149.87 318.429L152.895 312.17L154.353 314.216C155.726 316.143 157.189 317.816 158.78 319.21C160.346 320.626 161.882 321.724 163.384 322.53C164.872 323.337 166.331 323.796 167.742 323.912C169.149 324.032 170.351 323.775 171.312 323.127C172.281 322.488 173.495 320.977 174.945 318.609C176.395 316.246 177.854 313.474 179.304 310.3C180.762 307.134 182.114 303.8 183.362 300.3C184.619 296.807 185.567 293.62 186.206 290.724L186.46 289.523L188.39 291.218C192.191 294.744 195.825 296.636 199.295 296.88C200.668 297.039 201.556 297.061 201.959 296.936C202.354 296.82 202.843 296.477 203.409 295.915C204.134 295.199 204.516 294.671 204.559 294.358C204.628 294.049 204.323 293.401 203.675 292.436Z" fill="#6600CC"/>
<path d="M90.3429 275.318C90.5102 274.477 90.6861 273.495 90.8877 272.366C91.0894 271.247 91.3124 270.037 91.5484 268.754C91.7929 267.467 92.0289 266.227 92.2734 265.017C93.3202 259.565 94.2768 254.687 95.1177 250.384C95.9671 246.094 96.7565 242.272 97.4815 238.939C98.2065 235.605 98.8886 232.718 99.545 230.268C100.193 227.819 100.836 225.67 101.484 223.833L102.11 222.014C102.634 220.483 102.449 218.818 101.608 217.437C100.158 214.872 98.6183 213.795 97.0053 214.189C95.8684 214.434 94.4999 217.064 92.8869 222.07C91.2695 227.098 89.5321 234.147 87.6788 243.211C87.3571 244.657 87.0396 246.201 86.7093 247.845C86.3789 249.488 86.0486 251.114 85.684 252.722C85.3236 254.331 84.9933 255.863 84.7144 257.304C84.4356 258.75 84.1696 259.99 83.9251 261.032C83.5175 263.117 83.0756 265.236 82.5909 267.356C82.1104 269.488 81.7801 271.071 81.6128 272.117C80.9735 275.416 80.4416 278.093 80.0469 280.187C79.6394 282.272 79.3133 283.979 79.0688 285.309C78.8243 286.639 78.6441 287.66 78.524 288.377C78.4081 289.102 78.3009 289.706 78.2279 290.187C77.9834 292.358 77.7174 293.22 77.4386 292.782C77.1512 292.336 76.7693 290.311 76.2803 286.699C76.0358 285.176 75.7183 283.25 75.3022 280.925C74.8989 278.591 74.4828 276.103 74.0323 273.452C73.5862 270.809 73.1271 268.093 72.6467 265.318C72.1662 262.546 71.69 259.96 71.261 257.553C70.8148 255.138 70.4116 253.018 70.0469 251.165C69.6866 249.32 69.4206 247.99 69.2576 247.184C68.3652 243.327 67.2799 239.801 65.9886 236.588C64.6973 233.383 63.3245 230.569 61.8702 228.162C60.4116 225.755 58.9187 223.846 57.3871 222.443C55.8513 221.041 54.3198 220.26 52.784 220.093C51.4927 219.934 50.4073 220.191 49.515 220.878C48.6227 221.568 47.7775 222.752 46.9667 224.434C46.4047 225.79 45.6154 228.372 44.6115 232.135C43.5991 235.914 42.5437 240.187 41.4584 244.966C40.3644 249.745 29.0731 319.642 28.095 324.541C27.1255 329.441 26.4005 333.658 25.92 337.184C25.2722 341.281 24.7274 345.073 24.2812 348.57C23.835 352.07 23.4532 355.172 23.1229 357.9C22.8011 360.625 22.5609 362.873 22.3979 364.644C22.2563 366.403 22.1748 367.574 22.1748 368.128C22.4193 371.024 23.7921 373.104 26.2932 374.391C27.0182 374.786 27.4772 374.975 27.6789 374.932C27.8805 374.889 28.1465 374.674 28.4682 374.271C28.8715 373.718 29.0774 372.993 29.0774 372.109C29.0774 371.701 29.2447 370.466 29.5579 368.381C29.8754 366.292 30.24 363.962 30.6518 361.392C31.1323 358.827 31.5785 356.279 31.986 353.743C32.3807 351.217 32.6596 349.428 32.8269 348.389C33.08 347.025 33.4747 344.854 34.0409 341.882C34.6029 338.913 35.225 335.725 35.9157 332.311C36.5978 328.891 47.5759 260.436 48.3009 257.064C49.0345 253.696 49.6351 250.921 50.1199 248.754C51.3339 243.696 52.2606 240.105 52.9127 237.978C53.5519 235.85 53.998 234.902 54.2468 235.146C54.3241 235.232 54.4613 235.708 54.6716 236.592C54.8732 237.484 55.0748 238.57 55.2807 239.848C55.4824 241.135 55.684 242.542 55.8899 244.065C56.083 245.597 56.2717 247.077 56.4347 248.527C56.512 249.325 56.6921 251.053 56.9753 253.7C57.2627 256.343 57.6059 259.205 58.0006 262.255C58.4039 265.228 58.79 268.218 59.1589 271.229C59.5193 274.232 59.7852 276.382 59.9483 277.664C60.1928 280.307 60.5574 283.168 61.0422 286.219C61.527 289.269 62.0332 292.238 62.5566 295.133C63.08 298.029 63.599 300.65 64.131 303.023C64.6544 305.386 65.122 307.21 65.5167 308.505C66.6449 311.954 68.1979 315.073 70.1799 317.836C72.1619 320.607 74.1953 322.512 76.2932 323.555C76.9409 323.949 77.5844 324.258 78.2322 324.46C78.88 324.653 79.2747 324.756 79.4377 324.756C80.0855 324.756 80.729 324.46 81.3682 323.851C82.016 323.246 82.4622 322.508 82.711 321.624C82.9555 320.655 83.2515 319.355 83.6162 317.707C83.9808 316.064 84.3283 314.232 84.6415 312.225C84.959 310.221 85.2893 308.102 85.611 305.901C85.9285 303.688 86.2202 301.628 86.4605 299.694C86.9409 295.687 87.4858 291.749 88.0992 287.883C88.7041 284.026 89.3219 280.5 89.974 277.287C90.0641 276.819 90.1799 276.159 90.3429 275.318Z" fill="#6600CC"/>
<path d="M50.934 388.06C46.5281 387.018 42.9245 385.619 40.0931 383.856L46.1721 370.093C48.8447 371.646 51.8263 372.882 55.1382 373.813C58.4415 374.748 61.6161 375.216 64.6577 375.216C67.2746 375.216 69.1408 374.963 70.2605 374.452C71.3801 373.95 71.9421 373.187 71.9421 372.174C71.9421 370.994 71.2085 370.119 69.7457 369.532C68.2742 368.948 65.8589 368.305 62.5041 367.614C58.1798 366.709 54.5805 365.731 51.6976 364.697C48.8147 363.654 46.3094 361.947 44.1772 359.574C42.0451 357.198 40.9812 353.985 40.9812 349.926C40.9812 346.404 41.9636 343.208 43.9413 340.329C45.9104 337.447 48.8533 335.177 52.7787 333.526C56.6998 331.874 61.466 331.046 67.0601 331.046C70.904 331.046 74.6749 331.462 78.39 332.281C82.088 333.114 85.357 334.328 88.1884 335.924L82.5041 349.609C77.0086 346.837 71.8091 345.447 66.9014 345.447C62.0451 345.447 59.617 346.619 59.617 348.97C59.617 350.089 60.342 350.93 61.7791 351.492C63.2248 352.054 65.5929 352.65 68.9048 353.29C73.1734 354.088 76.7727 355.014 79.7028 356.048C82.6414 357.091 85.1854 358.785 87.3475 361.136C89.5097 363.487 90.5865 366.683 90.5865 370.733C90.5865 374.259 89.6041 377.442 87.6264 380.295C85.6487 383.152 82.7058 385.417 78.7847 387.099C74.8636 388.781 70.106 389.622 64.5033 389.622C59.8572 389.617 55.3398 389.102 50.934 388.06Z" fill="#1A1A1A"/>
<path d="M109.148 385.898C104.399 383.418 100.68 379.948 97.9856 375.495C95.2915 371.042 93.9487 365.992 93.9487 360.329C93.9487 354.675 95.2915 349.626 97.9856 345.173C100.68 340.711 104.399 337.249 109.148 334.765C113.897 332.286 119.234 331.05 125.154 331.05C130.594 331.05 135.45 332.007 139.714 333.933C143.983 335.851 147.501 338.622 150.276 342.251L138.35 352.891C134.888 348.515 130.808 346.331 126.111 346.331C122.168 346.331 118.989 347.597 116.591 350.132C114.193 352.668 112.992 356.065 112.992 360.334C112.992 364.602 114.193 368.004 116.591 370.535C118.989 373.071 122.164 374.336 126.111 374.336C130.808 374.336 134.888 372.153 138.35 367.777L150.276 378.416C147.505 382.045 143.983 384.825 139.714 386.743C135.446 388.661 130.59 389.626 125.154 389.626C119.234 389.622 113.893 388.377 109.148 385.898Z" fill="#1A1A1A"/>
<path d="M192.041 332.328V352.169H174.598V332.328H155.722V388.334H174.598V367.695H192.041V388.334H210.93V332.328H192.041Z" fill="#1A1A1A"/>
<path d="M255.781 372.616C257.668 371.466 259.178 369.845 260.298 367.738C261.418 365.628 261.98 363.161 261.98 360.334C261.98 357.511 261.418 355.04 260.298 352.933C259.178 350.827 257.668 349.197 255.781 348.047C253.884 346.906 251.765 346.331 249.414 346.331C247.063 346.331 244.944 346.906 243.056 348.047C241.16 349.197 239.65 350.827 238.53 352.933C237.411 355.04 236.849 357.511 236.849 360.334C236.849 363.165 237.411 365.628 238.53 367.738C239.65 369.845 241.16 371.466 243.056 372.616C244.944 373.757 247.063 374.332 249.414 374.332C251.765 374.336 253.884 373.761 255.781 372.616ZM233.172 385.859C228.372 383.354 224.609 379.875 221.894 375.413C219.169 370.964 217.814 365.936 217.814 360.334C217.814 354.731 219.169 349.707 221.894 345.254C224.609 340.801 228.372 337.318 233.172 334.808C237.973 332.303 243.387 331.05 249.414 331.05C255.442 331.05 260.86 332.299 265.656 334.808C270.452 337.318 274.219 340.801 276.943 345.254C279.659 349.707 281.023 354.731 281.023 360.334C281.023 365.936 279.659 370.964 276.943 375.413C274.219 379.875 270.457 383.35 265.656 385.859C260.856 388.365 255.442 389.617 249.414 389.617C243.391 389.613 237.973 388.365 233.172 385.859Z" fill="#1A1A1A"/>
<path d="M323.628 372.616C325.525 371.466 327.035 369.845 328.154 367.738C329.274 365.628 329.836 363.161 329.836 360.334C329.836 357.511 329.274 355.04 328.154 352.933C327.035 350.827 325.525 349.197 323.628 348.047C321.741 346.906 319.621 346.331 317.271 346.331C314.92 346.331 312.8 346.906 310.904 348.047C309.017 349.197 307.507 350.827 306.387 352.933C305.267 355.04 304.705 357.511 304.705 360.334C304.705 363.165 305.267 365.628 306.387 367.738C307.507 369.845 309.017 371.466 310.904 372.616C312.8 373.757 314.92 374.332 317.271 374.332C319.621 374.336 321.741 373.761 323.628 372.616ZM301.029 385.859C296.228 383.354 292.466 379.875 289.742 375.413C287.026 370.964 285.662 365.936 285.662 360.334C285.662 354.731 287.026 349.707 289.742 345.254C292.466 340.801 296.228 337.318 301.029 334.808C305.829 332.303 311.243 331.05 317.271 331.05C323.298 331.05 328.716 332.299 333.513 334.808C338.313 337.314 342.075 340.801 344.799 345.254C347.515 349.707 348.871 354.731 348.871 360.334C348.871 365.936 347.511 370.964 344.799 375.413C342.075 379.875 338.313 383.35 333.513 385.859C328.712 388.365 323.298 389.617 317.271 389.617C311.243 389.617 305.829 388.365 301.029 385.859Z" fill="#1A1A1A"/>
<path d="M355.756 332.328V388.334H399.921V373.692H374.636V332.328H355.756Z" fill="#1A1A1A"/>
<path d="M358.142 179.326C360.051 178.965 364.521 175.289 358.927 168.313C353.332 161.338 344.602 166.271 344.602 166.271C341.878 179.184 356.254 179.677 358.142 179.326Z" fill="#6600CC"/>
<path d="M384.188 179.615C386.501 180.52 389.916 179.735 391.28 177.603C393.781 173.682 391.438 168.341 389.907 166.732C389.384 166.178 387.779 165.968 386.668 166.457C382.189 168.431 382.305 178.872 384.188 179.615Z" fill="#6600CC"/>
<path d="M394.296 299.037C393.721 298.132 393.005 297.343 392.168 296.643C385.523 290.848 365.926 292.392 365.798 292.405C366.458 291.221 369.461 285.725 372.134 278.518C373.601 274.224 374.901 269.402 375.544 264.554L353.404 263.593C351.808 263.508 350.302 262.632 349.26 261.174C348.054 259.484 347.608 257.244 348.059 255.254L348.891 249.097C348.891 249.097 321.529 221.337 306.454 221.337C306.18 221.337 305.914 221.345 305.648 221.358C295.682 221.787 296.008 237.682 305.978 237.862C326.583 238.227 344.944 242.366 345.914 266.862C346.797 289.441 323.473 303.413 324.966 303.585C328.535 304.001 338.53 301.989 338.53 313.169C338.53 315.078 338.02 319.801 338.02 319.801H394.39C397.711 319.801 400.229 316.605 399.59 313.156C398.856 309.145 397.35 303.889 394.296 299.037Z" fill="#6600CC"/>
<path d="M369.867 199.203L367.332 211.696C367.066 212.996 365.865 214.047 364.651 214.047C363.428 214.047 362.651 213 362.917 211.696L365.453 199.203C365.719 197.904 366.92 196.861 368.134 196.861C369.348 196.861 370.125 197.904 369.867 199.203ZM396.422 192.97L366.165 193.099C364.333 192.97 362.733 194.347 362.248 196.462L354.912 228.328C358.842 229.765 368.13 235.325 366.667 243.107C365.195 250.894 361.523 256.771 350.502 250.113L349.541 255.887C348.829 259.01 350.833 262.245 353.535 262.344L376.173 263.313C376.182 263.24 379.957 263.365 382.896 263.356C385.251 263.348 387.357 261.735 388.031 259.341C388.04 259.332 388.04 259.319 388.04 259.306L391.639 243.545C390.167 243.545 383.621 240.894 384.299 233.429C385.032 225.304 393.115 226.424 395.311 227.209L400.318 199.401C401 196.329 399.073 193.155 396.422 192.97Z" fill="#6600CC"/>
<path d="M285.26 319.448C286.753 319.628 288.464 319.778 290.348 319.898C290.356 319.409 290.069 318.907 289.485 318.821C273.501 316.445 254.333 303.176 250.88 260.473C246.971 212.219 288.022 181.825 299.305 174.424C300.828 173.421 309.219 168.749 310.112 170.4L315.255 185.184C315.843 186.282 316.692 186.003 316.354 184.789C314.513 178.178 313.78 171.177 315.255 165.737C316.723 160.285 321.133 153.288 321.133 153.288C321.133 153.288 309.781 145.351 314.299 129.379C318.825 113.408 323.694 113.498 326.268 118.273C328.057 121.584 332.836 126.917 336.139 131.104C338.546 134.158 342.368 135.51 346.019 134.557C351.141 133.223 359.172 132.129 369.61 133.832C369.61 133.832 375.637 115.45 378.426 116.711C383.569 119.045 387.242 125.274 386.731 141.035C386.731 141.044 386.722 141.044 386.722 141.044C393.848 147.904 395.315 153.283 395.543 162.82C395.594 165.342 396.045 166.514 396.045 166.514C396.045 166.514 395.873 164.201 396.045 161.07C396.782 147.835 387.971 140.838 387.971 140.838C387.971 132.275 387.237 118.273 379.155 115.939C379.155 104.755 331.085 47.0672 257.259 39.1135C248.1 38.1225 240.699 46.9299 242.806 56.4279C247.937 79.5167 262.711 92.3352 234.874 131.387C171.858 219.791 197.293 263.678 227.885 291.524C228.001 291.631 228.121 291.739 228.237 291.842C228.447 292.03 228.645 292.215 228.855 292.404C248.902 310.28 274.024 318.114 285.26 319.448Z" fill="#6600CC"/>
<path d="M397.621 179.199C397.621 179.199 406.249 186.548 406.596 195.214C406.939 203.871 404.181 210.452 400.38 214.287C400.38 214.283 414.533 196.008 397.621 179.199Z" fill="#6600CC"/>
</svg>
