<svg width="295" height="169" viewBox="0 0 295 169" fill="none" xmlns="http://www.w3.org/2000/svg">
<g clip-path="url(#clip0)">
<path opacity="0.1" d="M177.341 121.603C183.039 121.278 190.11 117.402 195.608 115.688C202.115 113.664 208.647 111.717 215.206 109.847C238.037 103.333 261.114 97.7823 284.435 93.1954C286.612 92.7662 288.792 92.3474 290.975 91.9388C287.574 84.5703 282.305 78.2253 275.694 73.5371C275.863 71.924 275.949 70.3033 275.951 68.6813C275.951 43.0477 255.521 22.2672 230.309 22.2672C222.547 22.2589 214.915 24.2677 208.158 28.0977C190.314 16.3281 167.023 9.20471 141.541 9.20471C105.331 9.20471 73.5438 23.5884 55.5318 45.248L140.184 59.5878L192.103 68.3788C132.915 70.15 73.5438 71.9108 14.5258 67.7531C6.73511 75.3115 1.80416 85.3483 0.575632 96.148C-0.652893 106.948 1.89727 117.84 7.7903 126.963C7.7903 127.892 7.82898 128.812 7.8986 129.725C9.40197 130.157 10.8538 130.576 12.156 130.85C33.0621 135.278 54.1024 138.984 75.2767 141.968C59.6732 151.615 40.6709 152.98 22.6718 157.065C31.3877 164.279 43.2238 168.7 56.2667 168.7H250.472C271.501 168.7 288.546 154.022 288.546 135.912C291.701 130.695 293.804 124.906 294.734 118.876C255.822 122.643 216.425 119.372 177.341 121.603Z" fill="#6C63FF"/>
<path opacity="0.1" d="M295 111.163C295.021 103.699 293.251 96.3401 289.84 89.7062C286.43 83.0723 281.478 77.3582 275.402 73.0459C275.57 71.4336 275.656 69.8138 275.66 68.1927C275.66 42.559 255.219 21.7863 230.018 21.7863C222.255 21.778 214.623 23.7858 207.864 27.6143C190.02 15.8394 166.727 8.7135 141.244 8.7135C99.7946 8.7135 64.1161 27.5755 48.2934 54.6235C47.414 54.5718 46.5295 54.5433 45.6373 54.5433C20.4334 54.5433 -0.0051599 75.3238 -0.0051599 100.957C-0.0228258 110.012 2.58616 118.876 7.50393 126.47C7.50393 149.533 29.2138 168.23 55.983 168.23H250.193C271.22 168.23 288.265 153.549 288.265 135.439C292.687 128.119 295.017 119.721 295 111.163Z" fill="#6C63FF"/>
<path d="M240.92 82.7264C240.551 82.4426 240.12 82.2527 239.662 82.173C239.179 82.0619 238.687 81.9921 238.197 81.9145L231.848 80.9966C231.207 80.8773 230.554 80.8425 229.904 80.8932C229.578 80.92 229.26 81.0115 228.97 81.1624C228.68 81.3133 228.422 81.5206 228.212 81.7723C228.023 82.0064 227.919 82.2983 227.918 82.5997C227.954 82.9029 228.052 83.1954 228.207 83.4581C228.269 83.5808 228.321 83.7079 228.364 83.8382C228.425 84.1306 228.501 84.4197 228.591 84.7043C228.619 84.766 228.656 84.8234 228.7 84.875C228.701 84.8896 228.701 84.9043 228.7 84.919C228.63 85.2758 228.854 85.6481 228.754 85.992C228.666 86.2867 228.38 86.4651 228.199 86.7108C228.079 86.885 228.012 87.0909 228.008 87.3029C228.003 87.5148 228.061 87.7234 228.174 87.9027C228.367 88.2027 228.718 88.4069 228.818 88.7508C228.95 89.2033 228.594 89.6403 228.277 89.9893C227.693 90.6319 227.154 91.3135 226.663 92.0294C226.524 92.2054 226.435 92.4151 226.405 92.637C226.376 93.0869 226.807 93.4825 226.732 93.9298C226.673 94.2814 226.33 94.496 226.033 94.7055C224.937 95.4294 224.058 96.593 223.97 97.909C223.689 95.8151 222.824 93.8434 221.474 92.2207C221.105 91.776 220.701 91.3287 220.549 90.765C220.492 90.5401 220.481 90.2996 220.404 90.0824C220.146 89.3972 219.326 89.1025 218.968 88.4716C218.71 88.0269 218.71 87.4554 218.39 87.065C218.07 86.6746 217.568 86.5867 217.292 86.2092C217.154 85.9535 217.037 85.6872 216.941 85.4128C216.825 85.1891 216.662 84.9932 216.464 84.8388C216.426 84.8083 216.386 84.7798 216.345 84.7535C216.388 84.7151 216.422 84.6681 216.446 84.6155C216.469 84.5629 216.482 84.506 216.482 84.4484C216.482 84.1459 216.183 83.9468 215.922 83.7968C215.587 83.6055 215.26 83.3986 214.94 83.184C215.289 83.0212 215.591 82.7731 215.819 82.4626C216.105 81.9995 216.224 81.4517 216.154 80.9113C216.137 80.4751 215.974 80.0574 215.693 79.7245C215.53 79.5512 215.327 79.4271 215.156 79.2642C214.716 78.8324 214.566 78.1938 214.383 77.6043C214.14 76.8286 213.761 76.0141 213.055 75.603C212.714 75.4039 212.317 75.3109 211.985 75.1014C211.652 74.892 211.374 74.4964 211.49 74.1163C211.567 73.8578 211.807 73.6793 211.969 73.4596C212.163 73.1754 212.238 72.826 212.176 72.4872C212.115 72.1483 211.923 71.8474 211.642 71.6496C211.451 71.5281 211.216 71.4221 211.178 71.1997C211.028 71.1609 210.893 71.0806 210.787 70.9681C210.681 70.8556 210.609 70.7154 210.579 70.5637C210.521 70.2596 210.521 69.9473 210.579 69.6432C210.646 69.1623 210.713 68.6831 210.778 68.2056C210.892 68.253 211.013 68.2774 211.136 68.2774C211.259 68.2774 211.381 68.253 211.495 68.2056C211.718 68.5687 211.977 68.9083 212.268 69.2192C213.054 70.149 213.665 71.2132 214.073 72.3607C214.22 72.7744 214.37 73.2372 214.752 73.457C214.883 73.532 215.033 73.5707 215.162 73.6509C215.321 73.762 215.457 73.9024 215.564 74.0646C215.873 74.4757 216.183 74.8842 216.49 75.2953L216.505 75.3574C216.513 75.3938 216.527 75.4287 216.546 75.4608C216.603 75.5253 216.683 75.5659 216.768 75.5746C217.717 75.7944 218.782 75.996 219.605 75.4763C220.347 75.0109 220.672 74.0905 221.301 73.4751C221.748 73.0381 222.379 72.6994 222.506 72.084C222.355 72.0374 222.207 71.9831 222.062 71.9211C222.191 71.7919 222.32 71.6419 222.495 71.4712C222.75 71.2211 222.98 70.9466 223.181 70.6516C223.399 70.2877 223.572 69.8987 223.697 69.4933C224.194 68.0729 224.692 66.6517 225.193 65.2296C225.43 64.5573 225.667 63.8799 225.966 63.2257C226.276 62.5173 226.642 61.8373 226.98 61.1418C227.851 59.3329 228.524 57.4342 228.986 55.4793C229.068 55.2126 229.095 54.932 229.066 54.6545C228.994 54.2072 228.656 53.8555 228.333 53.5375C228.009 53.1857 227.64 52.8787 227.235 52.6248C227.032 52.498 226.805 52.413 226.569 52.3749C226.332 52.3367 226.091 52.3461 225.858 52.4024C225.198 52.5963 224.783 53.2738 224.631 53.9538C224.478 54.6338 224.535 55.3345 224.471 56.0223C224.378 57.0177 224.037 57.9796 223.955 58.9776C223.911 59.5542 223.955 60.1385 223.885 60.7151C223.758 61.4697 223.496 62.195 223.112 62.856C222.275 64.4324 221.143 65.8318 219.777 66.9775C219.62 67.1093 219.458 67.236 219.303 67.3782C219.303 67.267 219.321 67.1533 219.337 67.0421C219.224 67.0714 219.115 67.1103 219.009 67.1585C219.022 67.0279 219.009 66.896 218.97 66.7706C218.764 66.1527 217.846 65.9949 217.681 65.3666C217.654 65.2112 217.639 65.0539 217.637 64.8961C217.583 64.3453 217.209 63.8799 217.08 63.3447C216.962 62.8508 217.052 62.3104 216.822 61.8528C216.627 61.5666 216.396 61.3061 216.136 61.0771C215.827 60.7222 215.603 60.3 215.484 59.8438C215.45 59.7171 215.42 59.5852 215.383 59.4585C215.423 59.1716 215.391 58.8795 215.291 58.6079C215.056 58.0235 214.45 57.6486 214.231 57.0565C214.061 56.5963 214.135 56.0223 213.813 55.6654C213.642 55.495 213.432 55.3682 213.202 55.2957C212.022 54.8348 210.783 54.5416 209.522 54.4244C208.816 54.3597 208.037 54.3235 207.531 53.8245C206.941 53.2453 206.912 52.2033 206.221 51.756C205.613 51.3604 204.752 51.6526 204.28 52.2085C204.209 52.2903 204.143 52.3766 204.084 52.4671C203.998 52.1205 203.979 51.7605 204.03 51.407C204.03 51.3191 204.048 51.2286 204.055 51.1484C205.22 50.7669 206.211 49.9823 206.851 48.9351C206.851 48.9351 206.851 48.9351 206.851 48.9506L206.882 49.0308C206.956 49.2195 207.075 49.4005 207.25 49.4212C207.367 49.4198 207.48 49.3788 207.57 49.3049C207.726 49.1965 207.869 49.0716 207.998 48.9325C208.063 48.8601 208.125 48.7852 208.184 48.7076C208.303 48.5461 208.405 48.3728 208.488 48.1905C208.616 47.9161 208.703 47.6242 208.746 47.3243C208.792 47.0244 208.797 46.7167 208.849 46.4168C208.897 46.1846 208.96 45.9557 209.037 45.7316C209.063 45.6566 209.089 45.5816 209.112 45.5066C209.135 45.4316 209.169 45.3308 209.195 45.2481C209.356 44.7163 209.443 44.1646 209.452 43.6088C209.452 43.5157 209.452 43.4226 209.452 43.3295C209.443 42.9668 209.362 42.6096 209.213 42.2789C209.064 41.9481 208.851 41.6504 208.586 41.4033C208.143 41.0387 207.555 40.8861 207.23 40.3923C207.018 40.0613 206.972 39.6347 206.848 39.2469C206.714 38.7827 206.453 38.3654 206.095 38.0423C205.737 37.7192 205.296 37.5032 204.821 37.4188C204.25 37.356 203.676 37.5142 203.217 37.861L203.181 37.8894C202.925 38.0852 202.709 38.3273 202.542 38.6031C202.201 38.509 201.889 38.3312 201.634 38.0859C201.376 37.8455 201.178 37.543 200.917 37.3103C200.674 37.0868 200.375 36.9329 200.052 36.8646C199.729 36.7964 199.394 36.8164 199.081 36.9224C198.759 37.0518 198.472 37.2558 198.244 37.5179C198.016 37.7799 197.853 38.0924 197.769 38.4298C197.627 38.9625 197.652 39.5752 197.356 40.02C197.126 40.3664 196.75 40.5371 196.487 40.8525C196.323 41.0523 196.212 41.2894 196.162 41.5429C196.131 41.6846 196.116 41.8295 196.118 41.9747C196.118 42.0393 196.118 42.104 196.134 42.166C196.134 42.166 196.134 42.1867 196.134 42.197C196.143 42.2679 196.157 42.3379 196.177 42.4065C196.251 42.6686 196.382 42.9108 196.562 43.1149C196.732 43.3105 196.944 43.4644 197.183 43.5648C197.281 43.6029 197.381 43.6349 197.482 43.6605L197.789 43.7303L197.897 43.7562C197.527 44.4533 197.322 45.2265 197.296 46.0159C197.271 46.8054 197.428 47.5901 197.753 48.3094C197.753 48.3818 197.735 48.4542 197.727 48.5266C197.685 49.5447 197.73 50.5646 197.861 51.575C197.897 51.9758 197.918 52.4179 197.673 52.736C197.562 52.8611 197.436 52.973 197.299 53.0695C197.438 52.8885 197.58 52.7101 197.725 52.5317C197.361 52.1645 196.786 52.118 196.27 52.1542C195.272 52.229 194.303 52.5257 193.434 53.023C192.856 53.3565 192.263 53.7986 191.603 53.7211C191.214 53.6771 190.829 53.4625 190.45 53.5659C190.237 53.6533 190.038 53.7718 189.86 53.9176C189.719 54.019 189.548 54.0717 189.375 54.0675C188.97 53.5685 188.343 53.2298 187.859 52.8239C187.307 52.3314 186.802 51.7887 186.35 51.2027C185.515 50.1917 184.682 49.1782 183.862 48.1569C183.171 47.2984 182.461 46.3702 182.34 45.2713C182.328 45.1623 182.322 45.0527 182.322 44.943C182.339 44.4208 182.405 43.9014 182.518 43.3916C182.549 43.2685 182.549 43.1398 182.518 43.0167C182.441 42.7581 182.144 42.6625 181.889 42.6056C181.923 42.4065 181.946 42.2022 181.959 42.0083C182.103 39.7847 181.946 37.5249 182.415 35.3478C182.593 34.5101 182.884 33.662 183.485 33.0544C184.426 32.1003 186.002 31.8702 186.724 30.7402C187.327 29.7991 187.088 28.4675 186.33 27.6375C185.571 26.8075 184.403 26.4688 183.292 26.5102C182.98 26.4995 182.672 26.5823 182.407 26.7481C182.16 26.9683 181.975 27.2502 181.871 27.5651L180.765 30.2619C180.444 30.964 180.173 31.6881 179.955 32.4286C179.646 33.5611 179.576 34.7557 179.331 35.8985C179.331 36.7776 178.766 37.8739 178.457 38.6832C178.111 39.5933 177.737 40.4931 177.425 41.4214C177.348 41.6541 177.077 42.3444 176.91 42.9727C176.846 43.0097 176.787 43.054 176.734 43.1046C176.6 43.2776 176.477 43.4599 176.368 43.6502C176.133 43.9604 175.752 44.1259 175.494 44.4258C175.236 44.7258 175.182 45.2765 175.54 45.4265C175.613 45.451 175.688 45.4675 175.765 45.4756C175.812 45.4796 175.858 45.4873 175.904 45.4989C176.291 45.6075 176.443 46.0961 176.386 46.4995C176.329 46.9028 176.128 47.2752 176.095 47.6785C176.025 48.3922 176.443 49.0567 176.845 49.6565C177.262 50.3068 177.722 50.9279 178.222 51.5156C178.586 51.9241 178.996 52.2912 179.362 52.6842C180.757 54.1218 181.866 55.8025 183.119 57.3642C183.57 57.9536 184.083 58.4928 184.648 58.9724C185.018 59.2621 185.404 59.529 185.806 59.7714L187.962 61.1418C188.206 61.3214 188.483 61.4522 188.777 61.527C188.873 61.5399 188.97 61.5399 189.065 61.527C189.078 61.5917 189.089 61.6537 189.104 61.7183C189.272 62.3958 189.641 63.0111 189.682 63.7015C189.723 64.3919 189.661 65.0977 189.71 65.7958C189.757 66.4397 189.898 67.0886 189.934 67.7221C190.007 68.9425 189.708 70.1474 189.419 71.342C188.983 73.0898 188.72 74.8739 187.872 76.4589C187.634 76.8958 187.356 77.3406 187.356 77.8396C187.356 77.899 187.356 77.9611 187.371 78.0206L186.984 78.2403C186.871 78.305 186.758 78.3696 186.654 78.4369C186.164 78.7575 185.641 79.1117 185.44 79.665C185.277 80.1123 185.352 80.6243 185.156 81.0587C185.147 81.0781 185.137 81.0971 185.125 81.1155C184.919 81.5189 184.509 81.8188 184.416 82.261C184.347 82.5997 184.481 82.9591 184.416 83.2952C184.416 83.2952 184.416 83.2952 184.416 83.3081C184.357 83.4769 184.311 83.6498 184.277 83.8252C184.274 83.8826 184.279 83.94 184.292 83.9959C184.342 84.1918 184.45 84.3678 184.602 84.5001C184.695 84.5895 184.796 84.67 184.903 84.7406C185.014 84.813 185.127 84.8802 185.244 84.9422L185.311 84.9784C185.409 85.0301 185.507 85.0793 185.607 85.1258L185.675 85.1542C185.791 85.206 185.909 85.2525 186.028 85.2939L186.11 85.3197C186.203 85.3508 186.299 85.3792 186.394 85.4025L186.458 85.4231L186.518 85.4361L186.776 85.4904L186.871 85.5085C186.984 85.5274 187.101 85.5429 187.219 85.555H187.322C187.41 85.555 187.495 85.5679 187.58 85.5705H187.701C187.792 85.5705 187.879 85.5705 187.959 85.5705H188.052C188.173 85.5705 188.294 85.5524 188.416 85.5369H188.454C188.563 85.5214 188.671 85.5033 188.779 85.48L188.862 85.4619C188.962 85.4387 189.063 85.4154 189.163 85.3844L189.218 85.3689C189.339 85.3327 189.46 85.2939 189.579 85.2473C189.989 85.0782 190.387 84.8803 190.77 84.6552C191.028 84.513 191.286 84.3682 191.544 84.2364C191.735 84.1397 191.931 84.0534 192.132 83.9778C192.619 83.7689 193.15 83.6802 193.679 83.7192C193.94 83.7549 194.198 83.8076 194.452 83.877C194.452 83.9054 194.452 83.9338 194.452 83.9623C194.662 85.2034 194.869 86.4445 195.074 87.6856C195.411 87.4419 195.768 87.2265 196.141 87.0417C196.072 87.2291 196.026 87.4246 196.005 87.6235C195.989 87.7774 195.989 87.9324 196.005 88.0863C196.028 88.332 196.079 88.6034 195.932 88.7974C195.842 88.9163 195.675 88.9835 195.626 89.118C195.59 89.2554 195.581 89.3986 195.6 89.5394C195.589 89.7001 195.521 89.8517 195.409 89.9666C195.296 90.0814 195.146 90.1519 194.986 90.1651C195.06 90.3733 195.062 90.6003 194.991 90.8095C194.92 91.0187 194.781 91.198 194.597 91.3183C194.489 91.3704 194.388 91.4364 194.298 91.5148C194.209 91.6291 194.15 91.763 194.125 91.9053C193.784 93.1857 193.083 94.3408 192.106 95.2329C191.739 95.5218 191.404 95.8495 191.108 96.2103C190.924 96.4897 190.773 96.7889 190.657 97.1023C189.969 98.7881 189.271 100.475 188.563 102.162C188.171 103.106 187.789 104.065 187.665 105.081C187.356 107.869 184.88 110.232 185.344 112.999C185.438 113.69 185.716 114.343 186.149 114.889C186.665 115.512 187.438 115.869 188.212 116.158C190.2 116.934 192.297 117.358 194.385 117.785L197.665 118.459C198.309 118.608 198.962 118.712 199.62 118.77C200.412 118.824 201.224 118.749 201.995 118.951C202.472 119.075 202.928 119.305 203.421 119.331C203.844 119.354 204.365 119.264 204.615 119.61C204.865 119.956 204.672 120.414 204.909 120.722C205.29 121.21 206.221 120.722 206.637 121.182C206.75 121.359 206.837 121.551 206.894 121.753C206.957 121.878 207.045 121.989 207.152 122.079C207.178 122.225 207.188 122.373 207.183 122.521C207.129 123.122 207.005 123.714 206.812 124.285C206.502 125.335 206.194 126.385 205.886 127.437C205.769 127.808 205.682 128.189 205.628 128.574C205.609 128.762 205.609 128.951 205.628 129.138C205.682 129.709 206.01 130.299 206.554 130.485C206.976 130.597 207.425 130.541 207.807 130.33C208.176 130.137 208.522 129.903 208.839 129.632C209.41 129.199 209.911 128.681 210.327 128.096C211.616 126.162 211.198 123.545 212.103 121.407C212.704 119.98 213.875 118.821 214.264 117.317C214.355 117.03 214.366 116.724 214.295 116.432C214.133 115.915 213.584 115.62 213.07 115.434H213.047C212.626 115.284 212.195 115.16 211.758 115.064C211.649 115.041 211.539 115.023 211.428 115.005C211.182 114.805 210.987 114.55 210.858 114.26C210.838 114.107 210.797 113.956 210.737 113.813C210.696 113.751 210.641 113.701 210.576 113.665C210.511 113.629 210.439 113.609 210.365 113.606C210.107 113.58 209.762 113.673 209.481 113.653C208.906 113.611 208.524 113.045 208.008 112.784C207.493 112.523 206.933 112.587 206.384 112.626C206.187 112.653 205.988 112.641 205.796 112.59C205.567 112.484 205.358 112.34 205.177 112.163C204.86 111.916 204.489 111.746 204.095 111.666C203.701 111.587 203.293 111.6 202.905 111.706C202.658 111.806 202.397 111.865 202.132 111.882C201.629 111.853 201.273 111.403 200.902 111.062C199.886 110.129 198.439 109.883 197.206 109.27C197.018 109.2 196.86 109.064 196.763 108.887C196.621 108.536 196.941 108.184 197.23 107.944L199.349 106.178C201.67 104.244 204.571 102.788 205.649 99.9517C205.761 99.5714 205.936 99.2123 206.165 98.889C206.248 98.7903 206.344 98.7033 206.451 98.6304C206.92 98.3258 207.488 98.2146 208.037 98.3201C208.705 98.4702 209.339 98.7476 209.904 99.1372C210.827 99.6974 211.725 100.301 212.598 100.947C213.463 101.567 214.286 102.244 215.061 102.974C216.415 104.267 217.542 105.8 218.803 107.194C220.064 108.588 221.505 109.888 223.256 110.555C225.007 111.222 227.124 111.194 228.627 110.074C230.363 108.781 230.92 106.47 231.358 104.35C232.325 103.414 232.617 101.989 233.089 100.73C233.385 99.931 233.764 99.1786 234.084 98.3822C234.466 97.4462 234.765 96.4792 235.064 95.5148C235.403 94.5463 235.633 93.5429 235.75 92.5232C235.874 90.9124 235.443 89.1981 235.894 87.6856C236.49 87.5537 237.031 87.2176 237.617 87.021C238.488 86.734 239.422 86.7806 240.345 86.7858H240.404C240.722 86.8197 241.042 86.744 241.312 86.5712C241.621 86.3126 241.67 85.8705 241.686 85.4697C241.722 84.4794 241.66 83.3676 240.92 82.7264ZM203.558 38.6212C203.344 38.674 203.124 38.6898 202.905 38.6677L203.558 38.6212Z" fill="url(#paint0_linear)"/>
<path d="M204.574 54.9777C204.261 55.2436 203.895 55.4386 203.501 55.5491L201.673 56.2059C200.68 56.5627 199.643 56.9221 198.596 56.7928C198.011 56.7204 195.502 56.3507 195.123 55.893C194.545 55.1846 196.569 54.1426 197.26 53.5453C197.417 53.4324 197.562 53.3042 197.694 53.1626C197.952 52.8472 197.918 52.405 197.882 52.0069C197.751 50.9981 197.706 49.98 197.748 48.9636C197.768 48.7213 197.802 48.4804 197.851 48.2422C198.109 47.0528 199.213 47.4872 200.084 47.8027C201.133 48.1444 202.148 48.5851 203.114 49.1187C203.408 49.2709 203.664 49.4884 203.862 49.7548C204.244 50.334 204.091 51.0941 204.03 51.8233C203.975 52.3895 203.978 52.9325 204.331 53.3436C204.509 53.5008 204.672 53.6739 204.819 53.8607C204.901 54.0489 204.922 54.2585 204.878 54.4593C204.834 54.6601 204.727 54.8416 204.574 54.9777Z" fill="#BE6F72"/>
<path d="M179.318 36.3432C179.576 35.1978 179.633 34.0161 179.942 32.8811C180.161 32.143 180.431 31.4215 180.752 30.7221L181.889 28.0615C181.993 27.7473 182.178 27.4664 182.426 27.247C182.691 27.0824 182.998 26.9997 183.31 27.0092C184.421 26.9678 185.59 27.3143 186.348 28.1339C187.106 28.9535 187.346 30.2799 186.742 31.2185C186.02 32.3484 184.445 32.576 183.503 33.5275C182.903 34.1351 182.611 34.9806 182.433 35.8157C181.964 37.9876 182.121 40.2397 181.977 42.4581C181.93 43.1485 181.796 43.9371 181.203 44.2939C180.845 44.47 180.446 44.5477 180.048 44.5189L178.356 44.5473C178.073 44.5473 177.044 44.7257 176.856 44.5111C176.526 44.1362 177.279 42.2694 177.415 41.8531C177.719 40.93 178.093 40.0302 178.447 39.1227C178.753 38.3134 179.318 37.2197 179.318 36.3432Z" fill="#BE6F72"/>
<path d="M214.246 117.573C213.857 119.067 212.686 120.231 212.085 121.655C211.18 123.788 211.588 126.397 210.309 128.326C209.894 128.912 209.392 129.431 208.821 129.865C208.504 130.135 208.158 130.368 207.789 130.56C207.407 130.772 206.958 130.827 206.536 130.715C205.992 130.529 205.664 129.94 205.61 129.371C205.591 129.184 205.591 128.996 205.61 128.81C205.664 128.425 205.751 128.045 205.868 127.675C206.178 126.628 206.486 125.58 206.794 124.53C206.986 123.961 207.111 123.371 207.165 122.772C207.199 122.121 206.786 121.273 206.961 120.665C207.041 120.391 207.341 120.148 207.477 119.918C207.671 119.587 207.82 119.231 207.921 118.86C208.132 118.139 208.277 117.368 208.72 116.761C209.009 116.4 209.348 116.083 209.726 115.817C210.005 115.572 210.331 115.388 210.685 115.277C211.028 115.216 211.381 115.233 211.717 115.326C212.154 115.419 212.585 115.542 213.006 115.693H213.029C213.545 115.879 214.092 116.166 214.254 116.688C214.333 116.978 214.33 117.284 214.246 117.573Z" fill="#3F3D56"/>
<path d="M241.683 85.7852C241.668 86.186 241.619 86.6333 241.309 86.8841C241.04 87.057 240.72 87.1327 240.402 87.0987H240.332C239.412 87.0987 238.476 87.047 237.604 87.334C236.941 87.5538 236.333 87.9571 235.642 88.0373C234.69 88.1459 233.795 87.6236 232.952 87.1685C232.158 86.7397 231.343 86.3513 230.51 86.005C229.963 85.7801 228.847 85.6353 228.584 85.0354C228.494 84.7516 228.418 84.4633 228.357 84.1718C228.313 84.0415 228.261 83.9145 228.199 83.7917C228.045 83.5297 227.946 83.2382 227.911 82.9359C227.912 82.6345 228.015 82.3426 228.205 82.1085C228.415 81.8588 228.672 81.6533 228.962 81.5037C229.252 81.3542 229.569 81.2636 229.894 81.2371C230.543 81.1865 231.197 81.2213 231.838 81.3406L238.187 82.2559C238.677 82.3257 239.169 82.3955 239.651 82.5144C240.109 82.5941 240.541 82.784 240.91 83.0678C241.66 83.6986 241.722 84.8079 241.683 85.7852Z" fill="#3F3D56"/>
<path d="M236.103 87.4399C235.329 89.0766 235.886 91.0132 235.747 92.8232C235.63 93.8403 235.4 94.8411 235.061 95.8069C234.762 96.7688 234.463 97.7332 234.081 98.6666C233.762 99.4423 233.383 100.218 233.086 101.009C232.614 102.271 232.312 103.69 231.356 104.629C230.917 106.744 230.36 109.056 228.625 110.338C227.116 111.455 225.015 111.494 223.254 110.819C221.492 110.144 220.061 108.851 218.8 107.458C217.539 106.064 216.412 104.546 215.059 103.248C214.283 102.518 213.458 101.842 212.591 101.224C211.717 100.588 210.819 99.9896 209.896 99.4294C209.331 99.0416 208.697 98.7652 208.029 98.6149C207.48 98.5094 206.912 98.6205 206.443 98.9252C206.337 98.9981 206.24 99.0851 206.157 99.1837C205.927 99.5059 205.753 99.8642 205.641 100.244C204.558 103.072 201.652 104.526 199.331 106.454L197.212 108.215C196.923 108.456 196.603 108.807 196.745 109.156C196.842 109.333 197 109.469 197.188 109.539C198.421 110.149 199.868 110.395 200.884 111.326C201.255 111.667 201.611 112.117 202.114 112.143C202.379 112.127 202.64 112.069 202.887 111.97C203.275 111.864 203.682 111.851 204.076 111.93C204.471 112.009 204.841 112.178 205.159 112.425C205.339 112.601 205.549 112.745 205.778 112.851C205.97 112.902 206.169 112.914 206.366 112.887C206.915 112.849 207.498 112.8 207.99 113.045C208.483 113.291 208.888 113.87 209.463 113.911C209.744 113.932 210.079 113.839 210.347 113.865C210.421 113.867 210.493 113.887 210.558 113.923C210.623 113.959 210.678 114.01 210.719 114.072C210.779 114.214 210.82 114.363 210.84 114.516C210.946 114.881 211.301 115.103 211.533 115.403C211.889 115.863 211.941 116.489 211.905 117.071C211.788 118.89 210.979 120.595 209.646 121.834C209.267 122.222 208.784 122.491 208.256 122.609C207.991 122.665 207.716 122.636 207.469 122.526C207.222 122.416 207.015 122.231 206.879 121.997C206.821 121.795 206.735 121.604 206.621 121.428C206.206 120.97 205.275 121.456 204.893 120.967C204.656 120.662 204.826 120.174 204.599 119.858C204.372 119.543 203.826 119.6 203.405 119.582C202.913 119.556 202.457 119.323 201.979 119.201C201.206 119 200.396 119.075 199.605 119.02C198.947 118.962 198.294 118.859 197.65 118.71L194.37 118.038C192.281 117.611 190.185 117.18 188.196 116.417C187.436 116.127 186.67 115.77 186.134 115.15C185.701 114.605 185.423 113.953 185.329 113.262C184.862 110.504 187.338 108.145 187.65 105.366C187.761 104.352 188.166 103.396 188.547 102.455C189.247 100.772 189.945 99.0889 190.641 97.4048C190.754 97.0913 190.901 96.7912 191.079 96.5102C191.376 96.1503 191.711 95.8234 192.077 95.5355C193.055 94.6463 193.756 93.4937 194.096 92.2155C194.122 92.0733 194.181 91.9394 194.269 91.8251C194.361 91.7484 194.461 91.6833 194.568 91.6312C194.753 91.511 194.891 91.3322 194.962 91.1235C195.032 90.9148 195.031 90.6884 194.958 90.4806C195.118 90.4673 195.268 90.3969 195.381 90.282C195.493 90.1672 195.561 90.0156 195.571 89.8549C195.553 89.7149 195.561 89.5726 195.597 89.436C195.659 89.3016 195.814 89.2343 195.904 89.1154C196.051 88.9215 196 88.65 195.976 88.4069C195.961 88.2531 195.961 88.098 195.976 87.9441C196.033 87.3966 196.277 86.8858 196.667 86.4988C197.284 85.8912 198.16 86.0489 199.011 85.9041C199.86 85.7204 200.689 85.4545 201.487 85.1103C203.724 84.2263 206.08 83.68 208.478 83.4891C210.887 83.2991 213.307 83.6855 215.538 84.6164C215.863 84.7483 216.169 84.9221 216.448 85.1336C216.647 85.287 216.81 85.482 216.925 85.705C217.021 85.9787 217.138 86.2442 217.276 86.4988C217.552 86.8763 218.073 86.9978 218.375 87.3546C218.676 87.7114 218.702 88.3139 218.952 88.756C219.311 89.3869 220.141 89.6791 220.389 90.3642C220.466 90.5814 220.476 90.8193 220.533 91.0443C220.672 91.6079 221.09 92.0526 221.459 92.4974C222.811 94.1186 223.676 96.091 223.955 98.1857C224.037 96.8748 224.917 95.7139 226.018 94.9899C226.314 94.796 226.657 94.5814 226.717 94.2297C226.791 93.785 226.361 93.3894 226.389 92.9369C226.421 92.716 226.509 92.5073 226.647 92.3319C227.138 91.6177 227.678 90.9378 228.261 90.297C228.578 89.948 228.934 89.5213 228.803 89.0611C228.702 88.7172 228.352 88.5155 228.158 88.2156C228.045 88.0368 227.988 87.8286 227.992 87.617C227.997 87.4055 228.063 87.2 228.184 87.0262C228.364 86.7806 228.651 86.6022 228.738 86.31C228.839 85.9661 228.615 85.5938 228.684 85.2396C228.778 84.9559 228.966 84.7126 229.215 84.5492C229.558 84.2369 229.947 83.9803 230.368 83.7891C231.049 83.5305 231.807 83.6262 232.529 83.727C233.736 83.8951 235.09 84.1536 235.77 85.1672C236.206 85.8007 236.428 86.7625 236.103 87.4399Z" fill="#65617D"/>
<path opacity="0.1" d="M241.684 85.7852C241.668 86.186 241.619 86.6333 241.31 86.8841C241.04 87.0569 240.72 87.1326 240.402 87.0987H240.332C240.438 86.5609 241.09 86.2532 241.204 85.7076C241.223 85.5401 241.208 85.3703 241.159 85.2088C241.111 85.0473 241.029 84.8977 240.92 84.7691C240.368 84.0218 239.481 83.6081 238.599 83.3056C236.108 82.4491 233.439 82.2488 230.848 82.7239C230.143 82.8389 229.458 83.0503 228.811 83.3522C228.596 83.4867 228.39 83.6335 228.192 83.7917C228.037 83.5297 227.939 83.2382 227.903 82.9359C227.904 82.6345 228.008 82.3426 228.197 82.1085C228.407 81.8588 228.665 81.6533 228.955 81.5037C229.245 81.3542 229.561 81.2636 229.886 81.2371C230.536 81.1865 231.19 81.2213 231.83 81.3406L238.179 82.2559C238.669 82.3257 239.162 82.3955 239.644 82.5144C240.102 82.5941 240.534 82.784 240.902 83.0677C241.66 83.6986 241.722 84.8078 241.684 85.7852Z" fill="black"/>
<path opacity="0.1" d="M214.246 117.573C213.857 119.067 212.686 120.231 212.085 121.655C211.18 123.788 211.588 126.397 210.309 128.326C209.894 128.912 209.392 129.431 208.821 129.865C208.504 130.135 208.158 130.368 207.789 130.56C207.407 130.771 206.958 130.827 206.536 130.715C205.992 130.529 205.664 129.939 205.61 129.371C205.591 129.184 205.591 128.996 205.61 128.81L205.626 128.851C205.85 129.394 206.216 129.963 206.794 130.058C207.011 130.074 207.228 130.045 207.433 129.972C207.638 129.9 207.826 129.786 207.985 129.637C208.836 128.952 209.331 127.93 209.803 126.945C210.172 126.235 210.465 125.487 210.675 124.714C210.778 124.274 210.827 123.825 210.933 123.385C211.423 121.249 213.091 119.507 213.46 117.342C213.49 117.194 213.497 117.041 213.48 116.89C213.432 116.693 213.357 116.503 213.259 116.326C213.169 116.126 213.103 115.916 213.063 115.701C213.578 115.887 214.125 116.174 214.288 116.696C214.354 116.986 214.34 117.29 214.246 117.573Z" fill="black"/>
<path opacity="0.1" d="M210.353 113.865C210.114 114.49 209.712 115.04 209.19 115.458C208.455 116.018 207.596 116.391 206.686 116.543C206.262 116.652 205.817 116.647 205.396 116.528C204.824 116.329 204.411 115.791 203.826 115.636C203.408 115.522 202.96 115.623 202.537 115.561C201.776 115.455 201.185 114.873 200.572 114.408C198.692 112.991 196.224 112.533 194.344 111.116C194.26 111.065 194.191 110.993 194.143 110.907C194.107 110.814 194.094 110.714 194.104 110.615C194.111 109.755 194.304 108.908 194.669 108.13C194.968 107.587 195.324 107.079 195.732 106.612C197.415 104.544 199.107 102.46 201.124 100.714C201.969 99.9827 202.892 99.3001 203.96 98.9691C204.553 98.7856 205.724 98.6123 206.446 98.9226C206.339 98.9955 206.243 99.0825 206.16 99.1812C205.93 99.5033 205.756 99.8616 205.644 100.241C204.558 103.072 201.652 104.526 199.331 106.454L197.212 108.215C196.923 108.456 196.603 108.807 196.745 109.156C196.842 109.333 197 109.469 197.188 109.539C198.421 110.149 199.868 110.395 200.884 111.326C201.255 111.667 201.611 112.117 202.114 112.143C202.379 112.127 202.64 112.069 202.887 111.97C203.275 111.864 203.682 111.851 204.077 111.93C204.471 112.009 204.841 112.178 205.159 112.425C205.34 112.601 205.549 112.745 205.778 112.851C205.97 112.902 206.17 112.914 206.366 112.887C206.915 112.849 207.498 112.8 207.991 113.045C208.483 113.291 208.888 113.87 209.463 113.911C209.749 113.932 210.084 113.834 210.353 113.865Z" fill="black"/>
<path d="M186.637 78.773C186.147 79.0884 185.626 79.4452 185.425 79.9934C185.26 80.4407 185.337 80.9526 185.138 81.387C184.94 81.8214 184.494 82.1239 184.396 82.5893C184.326 82.928 184.463 83.2848 184.396 83.6235C184.337 83.7997 184.29 83.9793 184.254 84.1614C184.228 84.5466 184.558 84.8595 184.88 85.0741C185.567 85.5216 186.348 85.8016 187.162 85.8914C187.976 85.9812 188.799 85.8784 189.566 85.5912C190.254 85.3326 190.876 84.9112 191.536 84.5802C192.18 84.2085 192.916 84.0291 193.658 84.0631C194.084 84.1096 194.491 84.2648 194.917 84.3217C195.127 84.3633 195.344 84.353 195.549 84.2918C195.754 84.2305 195.942 84.1201 196.095 83.97C196.227 83.7881 196.315 83.5785 196.353 83.3572C196.711 81.9377 196.549 80.4329 196.209 79.0057C195.868 77.5784 195.352 76.2055 194.989 74.786C194.731 73.7336 194.532 72.6554 194.102 71.66C193.671 70.6645 192.947 69.7389 191.933 69.3588C191.853 69.3194 191.763 69.3076 191.675 69.3252C191.61 69.3524 191.553 69.395 191.508 69.4493C190.706 70.3011 190.102 71.32 189.739 72.4331C189.334 73.6716 189.223 74.9851 188.852 76.2287C188.692 76.7458 188.485 77.4388 188.078 77.8344C187.671 78.23 187.098 78.4756 186.637 78.773Z" fill="#3F3D56"/>
<path opacity="0.1" d="M196.361 83.3496C196.317 83.5716 196.225 83.781 196.09 83.9623C195.937 84.1129 195.75 84.2235 195.544 84.2843C195.339 84.3452 195.121 84.3545 194.911 84.3114C194.489 84.2597 194.081 84.102 193.656 84.0528C192.913 84.0184 192.177 84.1978 191.533 84.57C190.873 84.9009 190.244 85.312 189.561 85.5783C188.561 85.9584 187.469 86.0207 186.433 85.7568C185.882 85.6181 185.359 85.3873 184.886 85.0741C184.561 84.8621 184.233 84.557 184.259 84.1614C184.295 83.9802 184.342 83.8015 184.401 83.6262C184.468 83.2875 184.334 82.9307 184.401 82.592C184.499 82.1266 184.947 81.8163 185.143 81.3871C185.339 80.9579 185.265 80.4433 185.427 79.996C185.628 79.4453 186.152 79.0911 186.642 78.773C187.132 78.455 187.714 78.212 188.106 77.8267C188.157 77.7667 188.203 77.7027 188.243 77.6354C188.526 77.1983 188.733 76.7167 188.857 76.2107C189.236 74.9644 189.339 73.6535 189.741 72.4124C190.106 71.3002 190.711 70.2824 191.513 69.4312C191.556 69.3757 191.613 69.3329 191.678 69.3071C191.765 69.2894 191.855 69.3003 191.936 69.3382C192.947 69.7208 193.671 70.6465 194.104 71.6419C194.538 72.6374 194.721 73.7104 194.991 74.7653C195.352 76.1848 195.871 77.563 196.211 78.9876C196.551 80.4123 196.719 81.9275 196.361 83.3496Z" fill="black"/>
<path opacity="0.1" d="M204.03 51.8155C202.817 52.2018 201.505 52.125 200.345 51.6C199.186 51.075 198.261 50.1388 197.748 48.9713C197.768 48.729 197.803 48.4881 197.851 48.2499C198.109 47.0605 199.213 47.4949 200.084 47.8104C201.133 48.1521 202.148 48.5927 203.114 49.1264C203.409 49.2786 203.664 49.4961 203.862 49.7625C204.244 50.3339 204.092 51.0941 204.03 51.8155Z" fill="black"/>
<path d="M202.472 51.8001C205.32 51.8001 207.629 49.4848 207.629 46.6288C207.629 43.7729 205.32 41.4576 202.472 41.4576C199.624 41.4576 197.315 43.7729 197.315 46.6288C197.315 49.4848 199.624 51.8001 202.472 51.8001Z" fill="#BE6F72"/>
<path opacity="0.1" d="M216.467 85.2732C216.467 85.7024 215.886 85.8395 215.456 85.8162C213.908 85.7257 212.395 85.2991 210.863 85.4284C208.926 85.6042 207.147 86.6772 205.205 86.7755C204.458 86.8143 203.697 86.7031 202.959 86.8401C202.005 87.0185 201.154 87.6003 200.182 87.683C199.339 87.7554 198.506 87.4374 197.663 87.471C197.073 87.5062 196.499 87.6704 195.979 87.9519C196.035 87.4044 196.28 86.8936 196.67 86.5066C197.286 85.8989 198.163 86.0567 199.014 85.9119C199.863 85.7282 200.692 85.4623 201.49 85.1181C203.727 84.2341 206.083 83.6877 208.48 83.4969C210.888 83.3049 213.307 83.6886 215.538 84.6165C215.863 84.7483 216.169 84.9222 216.448 85.1336C216.463 85.1787 216.469 85.226 216.467 85.2732Z" fill="black"/>
<path d="M200.087 56.0714L197.998 55.2957L197.116 54.9699C196.757 54.8189 196.379 54.718 195.992 54.67C194.981 54.5924 194.029 55.2673 193.491 56.1283C192.952 56.9893 192.748 58.0158 192.575 59.0164C192.338 60.385 192.137 61.7589 191.972 63.1378C191.794 64.3831 191.703 65.6394 191.701 66.8973C191.76 70.0983 192.436 73.2553 193.179 76.3709C193.542 77.7524 193.817 79.1558 194.001 80.5725C194.063 81.1569 194.091 81.7438 194.153 82.3308C194.22 82.9901 194.329 83.6417 194.437 84.2958L195.058 88.0113C195.832 87.4606 196.711 86.9771 197.663 86.9486C198.506 86.9176 199.342 87.2331 200.182 87.1607C201.149 87.0805 202.005 86.4988 202.959 86.3203C203.697 86.1833 204.458 86.2919 205.208 86.2557C207.147 86.1575 208.929 85.0818 210.863 84.9086C212.397 84.769 213.921 85.2034 215.458 85.2939C215.886 85.3197 216.466 85.1827 216.466 84.7509C216.466 84.451 216.167 84.2519 215.907 84.1019C214.679 83.3607 213.511 82.5248 212.413 81.6016C211.397 80.7949 210.365 79.9675 209.667 78.8764C207.983 76.252 208.56 72.702 207.124 69.9328C205.956 67.6833 207.124 64.7357 207.124 62.1993C207.124 60.9349 207.124 59.655 206.827 58.4269C206.642 57.74 206.411 57.0662 206.136 56.4101L205.133 53.8633C205.112 53.7889 205.071 53.7217 205.015 53.6694C204.947 53.6228 204.867 53.5984 204.785 53.5996C204.183 53.5633 203.589 53.7542 203.119 54.1348C202.647 54.52 202.346 55.0734 201.882 55.4741C201.374 55.9163 200.719 56.3041 200.087 56.0714Z" fill="#E3E8F4"/>
<path d="M203.457 54.6027C203.622 53.8943 203.8 53.1574 204.272 52.604C204.744 52.0507 205.605 51.7586 206.214 52.1542C206.905 52.604 206.933 53.6435 207.524 54.2226C208.039 54.7191 208.813 54.7578 209.514 54.8225C210.776 54.9376 212.014 55.23 213.194 55.6913C213.424 55.7628 213.634 55.8887 213.805 56.0584C214.128 56.4256 214.063 56.9892 214.223 57.4469C214.442 58.0364 215.048 58.4113 215.283 58.9982C215.541 59.6498 215.283 60.379 215.066 61.0486C214.677 62.2509 214.432 63.4998 214.053 64.7073C213.674 65.9147 213.135 67.1041 212.248 68.0142C211.856 68.4176 211.273 68.7899 210.757 68.5495L210.559 69.9845C210.501 70.2877 210.501 70.5991 210.559 70.9024C210.589 71.0541 210.661 71.1942 210.767 71.3067C210.872 71.4192 211.008 71.4995 211.157 71.5384C211.196 71.7608 211.43 71.8668 211.621 71.9883C211.762 72.0849 211.882 72.2086 211.975 72.3521C212.068 72.4957 212.132 72.6563 212.162 72.8247C212.192 72.993 212.189 73.1658 212.153 73.3329C212.116 73.5 212.047 73.6582 211.949 73.7982C211.786 74.018 211.546 74.1912 211.469 74.4524C211.353 74.8299 211.629 75.2281 211.964 75.4349C212.299 75.6418 212.694 75.7374 213.034 75.9365C213.741 76.345 214.12 77.1492 214.362 77.93C214.543 78.5195 214.692 79.1582 215.136 79.5874C215.306 79.7503 215.51 79.8744 215.672 80.045C215.953 80.3782 216.116 80.7958 216.134 81.2318C216.204 81.7723 216.086 82.3205 215.799 82.7832C215.283 83.5227 214.321 83.7425 213.478 84.076C212.109 84.6397 210.982 85.648 209.775 86.5065C209.283 86.9034 208.704 87.1765 208.086 87.3028C207.25 87.414 206.428 87.0443 205.587 87.0107C205.084 87.0154 204.584 87.0813 204.097 87.2072L202.549 87.5433C202.632 86.341 201.972 85.1361 201.603 83.9907C200.907 81.8343 200.778 79.5279 200.943 77.2681C201.108 75.0083 201.567 72.7795 202.021 70.5611C202.338 69.0097 202.307 67.3885 202.794 65.8811C203.251 64.4306 203.903 63.037 204.143 61.527C204.535 59.0836 202.905 57.0125 203.457 54.6027Z" fill="#3F3D56"/>
<path d="M215.188 59.3835C215.33 59.6462 215.43 59.9298 215.484 60.2238C215.603 60.6793 215.827 61.1006 216.136 61.4546C216.396 61.684 216.626 61.9445 216.822 62.2302C217.06 62.6801 216.969 63.2283 217.08 63.7195C217.209 64.2548 217.583 64.7202 217.637 65.2709C217.639 65.4287 217.653 65.5861 217.681 65.7415C217.849 66.3672 218.767 66.5172 218.97 67.1429C219.107 67.5488 218.872 67.991 218.916 68.4176C218.948 68.5495 218.956 68.6862 218.939 68.8209C218.881 68.9733 218.779 69.1048 218.646 69.1984C217.792 70.0159 217.201 71.0701 216.949 72.2262C216.7 73.3759 216.57 74.5481 216.559 75.7245L215.551 74.3877C215.444 74.2256 215.308 74.0852 215.149 73.974C215.02 73.8965 214.87 73.8577 214.739 73.7801C214.357 73.5629 214.208 73.1027 214.061 72.689C213.652 71.5438 213.041 70.4821 212.256 69.5552C211.846 69.0717 211.368 68.5856 211.278 67.9573C211.251 67.6688 211.267 67.3778 211.325 67.0938C211.583 65.4002 211.858 63.6652 212.681 62.163C213.065 61.4597 213.563 60.8237 213.932 60.11C214.179 59.6369 214.527 58.4061 215.188 59.3835Z" fill="#3F3D56"/>
<path d="M189.749 61.0099C189.754 61.2276 189.698 61.4423 189.589 61.6305C189.49 61.745 189.362 61.8298 189.218 61.8755C189.074 61.9211 188.921 61.9258 188.774 61.889C188.481 61.8151 188.204 61.6852 187.959 61.5064C187.241 61.0513 186.522 60.5954 185.804 60.1386C185.402 59.8961 185.016 59.6302 184.646 59.3422C184.08 58.8635 183.567 58.3251 183.117 57.7366C181.863 56.1852 180.755 54.502 179.359 53.0825C178.98 52.6946 178.586 52.3223 178.22 51.9164C177.719 51.3296 177.259 50.7093 176.843 50.0599C176.44 49.4626 176.023 48.8007 176.092 48.0871C176.134 47.6837 176.327 47.3114 176.384 46.9106C176.44 46.5099 176.288 46.0212 175.901 45.9126C175.856 45.9011 175.809 45.8933 175.762 45.8893C175.686 45.8812 175.611 45.8647 175.538 45.8402C175.179 45.6902 175.234 45.1343 175.491 44.8422C175.749 44.55 176.131 44.3871 176.366 44.0665C176.475 43.8762 176.597 43.6939 176.732 43.5209C176.905 43.3725 177.111 43.2686 177.333 43.2184C178.82 42.7789 180.394 42.7193 181.91 43.0452C182.168 43.102 182.462 43.2055 182.539 43.4563C182.57 43.5784 182.57 43.7064 182.539 43.8286C182.425 44.3384 182.36 44.8578 182.343 45.38C182.343 45.4888 182.349 45.5976 182.361 45.7057C182.482 46.802 183.191 47.7303 183.882 48.5861C184.702 49.6048 185.535 50.6158 186.371 51.6242C186.823 52.2085 187.328 52.7495 187.879 53.2402C188.395 53.6694 189.063 54.0159 189.465 54.5666C189.793 55.0113 189.687 55.6189 189.723 56.1542C189.843 57.7702 189.852 59.3927 189.749 61.0099Z" fill="#3F3D56"/>
<path d="M222.498 71.7971C222.753 71.5488 222.983 71.276 223.184 70.9826C223.401 70.6191 223.574 70.2311 223.7 69.8268L225.195 65.5735C225.433 64.9013 225.67 64.2264 225.969 63.5722C226.278 62.8664 226.645 62.1864 226.982 61.5038C227.851 59.7074 228.523 57.8218 228.986 55.8801C229.068 55.6133 229.095 55.3328 229.066 55.0553C228.994 54.608 228.656 54.2589 228.334 53.9409C228.01 53.5898 227.64 53.2838 227.235 53.0308C227.032 52.904 226.805 52.819 226.569 52.7808C226.333 52.7427 226.091 52.752 225.858 52.8084C225.198 53.0023 224.783 53.6797 224.631 54.3598C224.479 55.0398 224.535 55.7353 224.471 56.4282C224.378 57.4211 224.038 58.3804 223.955 59.3758C223.911 59.9524 223.955 60.5342 223.885 61.1082C223.759 61.8619 223.496 62.5864 223.112 63.2465C222.274 64.8188 221.142 66.2146 219.778 67.3576C219.404 67.6342 219.068 67.9584 218.777 68.322C218.535 68.6857 218.37 69.096 218.295 69.5269C218.124 70.183 218.198 70.8793 218.504 71.4842C218.924 72.203 219.731 72.5184 220.502 72.6787C221.544 72.8959 221.784 72.5391 222.498 71.7971Z" fill="#BE6F72"/>
<path d="M202.503 39.1357C202.725 38.7174 203.065 38.3739 203.481 38.1482C203.896 37.9224 204.369 37.8243 204.839 37.8662C205.314 37.9504 205.755 38.166 206.113 38.4886C206.471 38.8112 206.732 39.2279 206.866 39.6916C206.987 40.0768 207.036 40.5035 207.248 40.8344C207.568 41.3335 208.161 41.4782 208.604 41.8402C208.869 42.0869 209.082 42.3841 209.231 42.7145C209.38 43.0448 209.461 43.4016 209.471 43.7639C209.495 44.504 209.379 45.2421 209.128 45.9384C209.021 46.2355 208.935 46.5396 208.87 46.8485C208.818 47.1485 208.813 47.4536 208.767 47.7535C208.71 48.1424 208.575 48.5159 208.372 48.8521C208.169 49.1882 207.901 49.4802 207.583 49.7108C207.493 49.7847 207.38 49.8257 207.263 49.8272C207.062 49.8039 206.938 49.5686 206.864 49.3566C206.454 48.1698 206.552 46.7193 205.796 45.7729C205.452 45.3912 205.037 45.081 204.574 44.8602C204.385 44.738 204.172 44.6578 203.95 44.6249C203.623 44.6426 203.308 44.7578 203.047 44.9559C202.503 45.3219 201.899 45.5897 201.263 45.7471C200.945 45.8225 200.615 45.8259 200.296 45.757C199.977 45.6881 199.677 45.5487 199.419 45.3489C199.063 45.0541 198.803 44.612 198.408 44.3819C198.014 44.1518 197.601 44.1647 197.212 44.007C196.964 43.9011 196.743 43.7399 196.566 43.5356C196.39 43.3312 196.262 43.0891 196.193 42.8278C196.124 42.5664 196.115 42.2927 196.167 42.0275C196.22 41.7622 196.332 41.5125 196.495 41.2973C196.753 40.987 197.134 40.8112 197.364 40.4673C197.66 40.0226 197.635 39.4123 197.776 38.8797C197.86 38.5427 198.023 38.2307 198.252 37.9694C198.48 37.7082 198.767 37.5052 199.089 37.3775C199.401 37.2711 199.737 37.2507 200.06 37.3185C200.382 37.3863 200.681 37.5397 200.925 37.7627C201.183 37.9954 201.389 38.2954 201.642 38.5384C201.891 38.7779 202.197 38.9507 202.53 39.0411C202.864 39.1314 203.214 39.1364 203.55 39.0555" fill="#3F3D56"/>
<path opacity="0.1" d="M206.742 77.1932C206.592 77.3272 206.486 77.5035 206.437 77.699C206.388 77.8946 206.399 78.1003 206.469 78.2895C206.526 78.411 209.187 77.8964 209.468 77.8577C210.169 77.7568 211.399 77.806 211.871 77.1621C212.712 76.0219 210.108 76.2753 209.63 76.3167C208.723 76.3942 207.433 76.5183 206.742 77.1932Z" fill="black"/>
<path d="M182.534 43.8389C182.42 44.3487 182.355 44.8682 182.338 45.3903C181.564 45.548 180.76 45.2895 180.017 45.0309L177.885 44.3018C177.755 44.2186 177.598 44.1881 177.447 44.2165C177.296 44.2448 177.161 44.3298 177.07 44.4543C176.727 44.8111 176.255 45.4885 175.78 45.8893C175.704 45.8812 175.629 45.8647 175.556 45.8402C175.198 45.6902 175.252 45.1343 175.51 44.8421C175.768 44.55 176.149 44.3871 176.384 44.0665C176.493 43.8762 176.615 43.6939 176.75 43.5209C176.923 43.3725 177.129 43.2686 177.351 43.2184C178.838 42.7789 180.412 42.7193 181.928 43.0452C182.186 43.102 182.48 43.2055 182.557 43.4563C182.582 43.5837 182.574 43.7155 182.534 43.8389Z" fill="#3F3D56"/>
<path opacity="0.1" d="M182.534 43.8389C182.42 44.3487 182.355 44.8682 182.338 45.3903C181.564 45.548 180.76 45.2895 180.017 45.0309L177.885 44.3018C177.755 44.2186 177.598 44.1881 177.447 44.2165C177.296 44.2448 177.161 44.3298 177.07 44.4543C176.727 44.8111 176.255 45.4885 175.78 45.8893C175.704 45.8812 175.629 45.8647 175.556 45.8402C175.198 45.6902 175.252 45.1343 175.51 44.8421C175.768 44.55 176.149 44.3871 176.384 44.0665C176.493 43.8762 176.615 43.6939 176.75 43.5209C176.923 43.3725 177.129 43.2686 177.351 43.2184C178.838 42.7789 180.412 42.7193 181.928 43.0452C182.186 43.102 182.48 43.2055 182.557 43.4563C182.582 43.5837 182.574 43.7155 182.534 43.8389Z" fill="black"/>
<path opacity="0.1" d="M202.041 92.9266C202.413 93.0507 202.815 93.2317 202.941 93.604L199.955 92.8438L198.408 92.4482C198.135 92.3784 197.155 92.2983 196.974 92.0837C196.716 91.7682 197.632 91.9854 197.797 92.0087C198.297 92.0836 198.797 92.1612 199.295 92.2517C200.234 92.4198 201.136 92.6964 202.041 92.9266Z" fill="black"/>
<path opacity="0.1" d="M203.199 95.5768C202.941 95.4035 202.201 95.4242 201.884 95.3492C201.42 95.2381 200.964 95.0907 200.507 94.9485C199.581 94.646 198.663 94.3021 197.712 94.0797C197.537 94.0409 196.938 94.0306 196.967 93.8082C196.995 93.5859 197.565 93.5083 197.707 93.498C198.55 93.4359 199.602 93.8315 200.386 94.1133C201.385 94.4722 202.331 94.9644 203.199 95.5768Z" fill="black"/>
<path opacity="0.1" d="M201.306 90.5633C200.36 90.3047 199.501 89.7152 198.527 89.6014C198.273 89.6111 198.023 89.5346 197.818 89.3843C197.703 89.2713 197.623 89.1277 197.588 88.9706C198.24 88.9369 198.999 89.2136 199.592 89.4748C199.918 89.6151 200.232 89.7829 200.53 89.9764C200.747 90.1082 201.072 90.4883 201.306 90.5633Z" fill="black"/>
<path d="M219.347 67.4119C219.187 68.4868 219.419 69.5836 219.999 70.5014C220.58 71.4193 221.471 72.0967 222.509 72.4098C222.382 73.0226 221.75 73.3613 221.304 73.7983C220.675 74.4111 220.35 75.329 219.608 75.7944C218.78 76.3115 217.715 76.1098 216.771 75.8927C216.685 75.883 216.606 75.8415 216.549 75.7763C216.53 75.7453 216.516 75.7112 216.508 75.6755C216.196 74.53 215.992 73.307 216.312 72.159C216.57 71.1817 217.189 70.3491 217.684 69.4855C218.179 68.6219 218.225 67.6963 219.347 67.4119Z" fill="#3F3D56"/>
<path d="M196.291 52.586C195.293 52.6588 194.324 52.9548 193.455 53.4522C192.877 53.7831 192.284 54.2279 191.624 54.1477C191.234 54.1038 190.85 53.8891 190.471 53.9926C190.258 54.079 190.058 54.1975 189.881 54.3442C189.79 54.4162 189.683 54.4636 189.569 54.4817C189.455 54.4999 189.339 54.4881 189.231 54.4476L188.973 58.0261C188.875 59.3861 188.779 60.7746 189.104 62.101C189.272 62.7784 189.641 63.3938 189.682 64.0816C189.723 64.7694 189.661 65.4752 189.71 66.1708C189.757 66.8146 189.899 67.448 189.935 68.0919C190.007 69.3071 189.708 70.512 189.419 71.6936C188.983 73.4363 188.72 75.2178 187.872 76.795C187.635 77.232 187.356 77.6767 187.356 78.1731C187.356 78.2352 187.356 78.2946 187.372 78.3541C187.114 78.4963 186.874 78.6308 186.655 78.7704C186.165 79.0884 185.641 79.4426 185.44 79.9934C185.278 80.4407 185.352 80.9526 185.156 81.3844C184.96 81.8162 184.512 82.1239 184.414 82.5893C184.344 82.928 184.478 83.2849 184.414 83.6236C184.355 83.7988 184.308 83.9776 184.272 84.1588C184.246 84.5466 184.574 84.8595 184.899 85.0715C185.372 85.3846 185.895 85.6154 186.446 85.7541L187.985 79.6262C189.389 77.0241 190.556 74.3009 191.474 71.4893C191.737 70.5703 192.074 69.6744 192.482 68.8107C192.774 68.322 193.033 67.8141 193.256 67.2903C193.491 66.6387 193.514 65.9329 193.627 65.2451C193.762 64.4424 193.965 63.6526 194.233 62.8845C194.512 62.0545 194.834 61.2271 194.891 60.3557C194.976 59.1095 194.525 57.7934 195.004 56.6402C195.208 56.2086 195.473 55.8089 195.791 55.4534C196.456 54.6364 197.062 53.7805 197.727 52.9635C197.382 52.5938 196.807 52.555 196.291 52.586Z" fill="#3F3D56"/>
<g opacity="0.1">
<path opacity="0.1" d="M203.558 38.285L203.235 38.3083L203.199 38.3342C203.32 38.3292 203.44 38.3128 203.558 38.285Z" fill="black"/>
<path opacity="0.1" d="M209.458 43.6527C209.404 44.1668 209.293 44.6732 209.128 45.1627C209.021 45.4599 208.935 45.7639 208.87 46.0729C208.818 46.3728 208.813 46.6779 208.767 46.9778C208.71 47.3667 208.575 47.7402 208.372 48.0764C208.169 48.4125 207.901 48.7045 207.583 48.9351C207.493 49.0091 207.38 49.0501 207.263 49.0515C207.062 49.0282 206.938 48.7929 206.864 48.5809C206.454 47.3941 206.552 45.9436 205.796 44.9973C205.452 44.6155 205.037 44.3054 204.574 44.0845C204.385 43.9624 204.172 43.8821 203.95 43.8492C203.623 43.8669 203.308 43.9821 203.047 44.1802C202.503 44.5463 201.899 44.814 201.263 44.9714C200.945 45.0468 200.615 45.0502 200.296 44.9813C199.977 44.9124 199.677 44.773 199.419 44.5732C199.063 44.2785 198.803 43.8363 198.408 43.6062C198.014 43.3761 197.601 43.389 197.212 43.2313C196.968 43.1271 196.752 42.9694 196.578 42.7697C196.404 42.5701 196.276 42.3337 196.206 42.0781C196.197 42.0459 196.19 42.013 196.185 41.9799C196.121 42.2685 196.128 42.5685 196.206 42.8538C196.276 43.1094 196.404 43.3458 196.578 43.5454C196.752 43.7451 196.968 43.9028 197.212 44.007C197.601 44.1647 198.039 44.1673 198.408 44.3819C198.777 44.5965 199.063 45.0541 199.419 45.3489C199.677 45.5487 199.977 45.6881 200.296 45.757C200.615 45.8259 200.945 45.8225 201.263 45.7471C201.899 45.5897 202.503 45.3219 203.047 44.9559C203.308 44.7578 203.623 44.6426 203.95 44.6249C204.172 44.6578 204.385 44.738 204.574 44.8602C205.031 45.0854 205.44 45.3981 205.778 45.7807C206.534 46.727 206.436 48.1775 206.846 49.3643C206.92 49.5789 207.044 49.8116 207.245 49.8349C207.369 49.8355 207.489 49.7915 207.583 49.7108C207.902 49.4795 208.171 49.1864 208.375 48.8489C208.579 48.5114 208.713 48.1362 208.769 47.7457C208.816 47.4458 208.821 47.1407 208.872 46.8408C208.938 46.5319 209.024 46.2278 209.13 45.9307C209.382 45.2343 209.498 44.4963 209.473 43.7562C209.468 43.7251 209.463 43.6889 209.458 43.6527Z" fill="black"/>
</g>
<path d="M193.142 64.3997L192.967 66.7603C192.941 67.0809 192.33 74.7136 187.823 83.634C183.955 91.2848 176.427 101.25 162.216 106.85C161.108 107.29 159.957 107.7 158.764 108.081L157.433 103.892C160.773 102.838 163.991 101.427 167.031 99.6828C174.274 95.4889 179.906 89.5033 183.833 81.8008C185.917 77.6998 187.402 73.3198 188.243 68.7952H172.075V64.3997H193.142Z" fill="#6C63FF"/>
<path opacity="0.1" d="M160.476 106.853C174.684 101.252 182.214 91.2899 186.079 83.6391C190.587 74.7188 191.201 67.0912 191.224 66.7654L191.399 64.4048H193.204L193.029 66.7654C193.006 67.0861 192.392 74.7188 187.885 83.6391C184.017 91.2899 176.489 101.252 162.281 106.853C161.172 107.292 160.02 107.703 158.825 108.086L158.65 107.535C159.272 107.313 159.881 107.085 160.476 106.853Z" fill="white"/>
<path d="M132.028 103.892L130.697 108.081C129.503 107.698 128.351 107.287 127.242 106.847C113.033 101.247 105.504 91.2848 101.638 83.634C97.1308 74.7136 96.517 67.0861 96.4938 66.7603L96.3185 64.3997H117.376V68.7952H101.205C102.05 73.3204 103.54 77.7003 105.627 81.8008C109.555 89.5033 115.184 95.4889 122.428 99.6802C125.467 101.426 128.686 102.838 132.028 103.892Z" fill="#6C63FF"/>
<path opacity="0.1" d="M128.98 106.853C114.772 101.252 107.242 91.2899 103.377 83.6391C98.8691 74.7188 98.2553 67.0912 98.2321 66.7654L98.0568 64.4048H96.2517L96.4271 66.7654C96.4503 67.0861 97.064 74.7188 101.572 83.6391C105.44 91.2899 112.967 101.252 127.175 106.853C128.284 107.292 129.436 107.703 130.631 108.086L130.806 107.535C130.185 107.313 129.577 107.085 128.98 106.853Z" fill="white"/>
<path d="M169.055 144.383V168.085H120.403V144.383L121.951 142.314C137.717 136.703 140.911 122.071 141.548 116.282C141.643 115.482 141.697 114.678 141.711 113.872H147.727C147.74 114.678 147.795 115.482 147.889 116.282C148.537 122.071 151.732 136.708 167.487 142.314L169.055 144.383Z" fill="#6C63FF"/>
<path opacity="0.1" d="M169.055 144.383H120.403V147.356H169.055V144.383Z" fill="black"/>
<path opacity="0.1" d="M124.529 142.314C140.295 136.703 143.49 122.071 144.127 116.282C144.222 115.482 144.276 114.678 144.29 113.872H141.711C141.697 114.678 141.643 115.482 141.548 116.282C140.901 122.071 137.706 136.708 121.951 142.314L120.403 144.383V168.085H122.982V144.383L124.529 142.314Z" fill="white"/>
<path opacity="0.1" d="M113.013 64.3997H117.376V68.7952H113.4C113.243 67.3472 113.114 65.8821 113.013 64.3997Z" fill="black"/>
<path opacity="0.1" d="M132.028 103.892L130.697 108.081C129.503 107.698 128.351 107.287 127.242 106.847C125.418 104.614 123.806 102.214 122.427 99.6802C125.467 101.426 128.686 102.838 132.028 103.892Z" fill="black"/>
<path opacity="0.1" d="M157.431 103.892C160.771 102.838 163.989 101.427 167.028 99.6827C165.649 102.217 164.037 104.618 162.214 106.853C161.105 107.292 159.954 107.702 158.761 108.083L157.431 103.892Z" fill="black"/>
<path opacity="0.1" d="M176.443 64.3997C176.342 65.8821 176.213 67.3472 176.056 68.7952H172.083V64.3997H176.443Z" fill="black"/>
<path opacity="0.1" d="M147.9 116.282C145.806 116.689 143.653 116.689 141.559 116.282C141.654 115.482 141.708 114.678 141.721 113.872H147.737C147.751 114.678 147.805 115.482 147.9 116.282Z" fill="black"/>
<path d="M113.529 57.1185C113.64 89.7126 127.565 116.07 144.731 116.07C161.897 116.07 175.819 89.7126 175.933 57.1185H113.529Z" fill="#6C63FF"/>
<path opacity="0.1" d="M119.073 57.1185H113.529C113.64 89.7126 127.565 116.07 144.731 116.07C145.66 116.069 146.587 115.99 147.503 115.835C131.634 113.177 119.179 87.9389 119.073 57.1185Z" fill="white"/>
<path d="M161.275 153.456H128.183V161.988H161.275V153.456Z" fill="#3F3D56"/>
<path opacity="0.1" d="M129.73 154.619H161.275V153.456H128.183V161.988H129.73V154.619Z" fill="white"/>
<path d="M95.8802 88.5879C95.2845 88.3888 91.7775 85.6067 91.5119 84.3475C91.2463 83.0884 93.366 71.3575 93.366 71.3575C93.366 71.3575 93.17 71.3575 92.8503 71.3187V71.13L93.2861 55.7198C93.2861 55.7198 95.0731 45.3774 91.6976 45.9798C88.3221 46.5822 90.4392 55.7198 90.4392 55.7198C90.4392 55.7198 90.055 60.3583 89.7842 61.7494C89.5264 63.0913 88.3453 68.5573 89.1499 70.256C89.1793 70.3164 89.212 70.3751 89.2479 70.4318C89.2479 70.4318 89.3819 76.2624 87.925 77.0587C86.5351 77.8163 85.9575 81.6301 85.9085 81.9714L85.8337 81.9404C85.4187 81.68 85.0544 81.3462 84.7584 80.9552C84.7274 80.9165 84.7042 80.8751 84.6759 80.8337C85.6246 79.7635 86.1359 78.3739 86.1077 76.9423C86.0795 75.5106 85.5139 74.1423 84.5237 73.1105C84.0633 72.631 83.5232 72.2356 82.9275 71.9418C82.9102 71.4478 82.7936 70.9623 82.5846 70.5146C81.9141 69.077 78.2008 67.1973 75.5628 67.1533C74.3457 67.1171 73.3478 67.4636 72.9842 68.4177C72.7985 68.9012 72.8552 69.4519 72.7779 69.9535C72.6232 70.9877 71.9604 71.797 71.1095 72.4409C70.7659 72.0562 70.3944 71.6976 69.9981 71.3678C69.1368 70.7059 67.4194 68.5237 67.4194 68.5237C67.4194 68.5237 62.0583 62.9569 61.6612 61.4314C61.2641 59.9058 55.9082 50.7451 54.7169 52.3404C53.5255 53.9357 58.8195 60.8884 58.8195 60.8884C58.8195 60.8884 59.8252 63.4145 60.5988 64.2678C61.3724 65.121 67.3034 73.7569 67.3034 73.7569L67.587 74.3464C66.3338 75.0084 65.1889 75.8513 64.784 77.1647C64.1909 79.0988 65.488 81.0432 66.3854 82.8531C68.1337 86.385 68.3838 90.8891 66.1275 94.116C64.1058 96.9653 60.5988 98.3201 57.3162 99.5043C58.9015 100.753 60.871 101.408 62.8861 101.358C62.128 103.561 59.441 104.29 57.1511 104.699C58.3528 105.857 60.0728 106.279 61.7231 106.535C62.5314 106.673 63.3504 106.737 64.1703 106.729H64.3714L64.5725 106.713C64.852 106.694 65.1302 106.659 65.4055 106.607C66.5968 106.364 67.7546 105.712 68.3632 104.657C68.8789 103.755 69.0594 102.524 69.9955 102.072C70.2392 101.962 70.5019 101.899 70.7691 101.888H70.7407C70.9161 101.888 71.0966 101.888 71.2719 101.888L75.1735 101.927C75.3359 101.927 75.5035 101.927 75.6712 101.927C76.7722 101.901 77.9481 101.71 78.5077 100.797C78.7379 100.354 78.859 99.8619 78.861 99.3621C78.9435 98.1236 78.861 96.8489 78.8945 95.6001C79.2271 97.8728 79.5753 101.415 78.7475 102.723C78.075 103.715 77.2599 104.601 76.3287 105.353C76.0945 105.55 75.8803 105.77 75.6892 106.01C75.5628 106.1 75.4881 106.149 75.4881 106.149L75.4081 106.39C75.1142 106.837 74.9012 107.332 74.7789 107.853C74.7339 107.987 74.7172 108.129 74.7299 108.27C74.8202 108.453 74.0853 109.211 74.2993 109.529C72.4633 111.688 72.1152 114.958 72.1152 114.958L68.7629 120.062C67.0403 124.6 64.4617 125.066 64.4617 125.066C64.4617 125.066 58.4044 120.991 58.2393 120.792C58.0743 120.593 55.7586 119.597 55.7586 119.597C55.4856 119.117 55.0688 118.735 54.5673 118.506C53.7731 118.175 53.706 116.955 53.706 116.955C53.608 114.072 51.919 113.852 51.919 113.852C50.5575 113.736 49.5183 113.979 48.7189 114.423L48.4765 114.441C47.3058 114.537 45.8978 114.643 44.3506 114.746C40.0468 115.031 39.0231 117.826 39.0231 117.826C39.0231 117.826 38.4944 118.423 39.1881 119.07C39.8818 119.716 44.3222 119.07 44.5105 119.054C44.1721 119.091 43.8298 119.067 43.4996 118.984C44.1985 118.958 45.1603 118.933 45.9803 118.933H46.1789C46.1273 119.368 46.1023 119.807 46.1041 120.246C46.1041 121.073 48.3862 121.604 48.3862 121.604L55.3357 127.809C55.3357 127.809 59.704 129.766 62.4838 132.582C65.2636 135.398 67.7211 132.967 67.7211 132.967C70.6634 132.238 79.1292 121.976 79.1369 121.965C79.1369 122.265 79.3148 132.246 79.6526 134.25C79.666 134.351 79.6911 134.451 79.7274 134.547C80.1245 135.408 79.5933 137.761 79.3638 138.754C79.2174 139.585 79.1612 140.429 79.1962 141.272C79.1962 141.272 76.0218 153.425 76.2849 154.492C76.5479 155.56 74.5649 160.522 74.5649 160.522V164.659L74.9104 164.641C74.8655 164.708 74.8242 164.777 74.7867 164.848L74.7635 164.892C74.7635 164.892 76.8805 165.354 78.304 165.223C79.7274 165.091 82.172 166.321 82.172 166.321C82.172 166.321 82.9997 166.715 85.5475 166.88C88.0952 167.045 88.0952 165.753 88.0952 165.753C87.8038 163.992 83.7785 163.402 83.6547 163.384C83.3298 163.18 83.0255 162.958 82.7754 162.766L82.7238 162.725C82.7407 162.686 82.7553 162.646 82.7677 162.606C83.1983 160.848 80.8156 160.085 80.8156 160.085V159.656C82.3628 158.859 82.6697 153.393 82.6697 153.393C82.6697 153.393 84.9905 146.635 85.3154 145.507C85.6403 144.38 85.3154 142.692 85.3154 142.692L85.5475 141.233C85.5475 141.233 86.0451 140.241 86.0451 140.041C86.1096 139.537 86.3032 139.058 86.6073 138.65C86.9709 138.219 86.2102 137.192 86.2102 137.192L86.8729 135.47V133.58L88.4201 126.723C88.4201 126.723 90.0421 118.736 89.4799 116.122C88.9178 113.508 90.1427 112.179 90.1427 112.179C90.0322 112.237 89.9186 112.289 89.8023 112.334C89.9571 111.975 90.0906 111.607 90.202 111.233L93.6832 111.664V111.716H94.939C94.939 111.716 94.5419 106.804 94.5419 104.823C94.5419 102.842 95.8802 95.7345 95.8802 95.7345C95.8802 95.7345 96.4759 88.787 95.8802 88.5879ZM80.4262 82.8531C80.4262 83.047 80.4082 83.2487 80.3953 83.4555L80.3257 83.5615L80.1967 83.4529L80.0394 83.6986L79.993 83.7218C79.6526 83.546 79.4773 82.5402 79.2323 82.7574L79.1988 82.7859C79.1446 82.7238 79.0905 82.7057 79.0337 82.7574L78.9822 82.8014C78.9822 82.7264 78.9822 82.6488 78.9822 82.5712C79.4539 82.693 79.9391 82.7547 80.4262 82.7548C80.4288 82.7884 80.4262 82.822 80.4262 82.8531ZM92.0045 105.73H92.0792L91.9555 106.056C91.9709 105.948 91.9864 105.842 92.0045 105.73ZM79.2942 164.364L78.8197 164.245L79.0776 164.201L79.3174 164.359L79.3458 164.38L79.2942 164.364ZM84.1421 163.669C83.9848 163.586 83.8249 163.49 83.6702 163.392C83.7218 163.42 83.9255 163.526 84.1421 163.669Z" fill="url(#paint1_linear)"/>
<path d="M93.7167 100.846L90.5939 109.006H91.352L88.4149 111.354L93.7167 112.016V100.846Z" fill="#F86D70"/>
<path opacity="0.1" d="M93.7167 100.846L90.5939 109.006L89.8074 108.794L88.4149 111.354L93.7167 112.016V100.846Z" fill="black"/>
<path d="M88.8198 106.066H93.7167L95.5141 91.238H88.8198V106.066Z" fill="#F86D70"/>
<path opacity="0.1" d="M88.8198 106.066H93.7167L95.5141 91.238H88.8198V106.066Z" fill="black"/>
<path d="M79.2556 94.7494L80.3129 94.571L82.742 94.1573C82.742 94.1573 90.0371 92.5077 91.543 92.3732C92.4553 92.2525 93.345 91.9981 94.1836 91.6182C94.5781 91.4476 94.8282 91.3183 94.8282 91.3183L92.2006 86.5065L88.1237 83.4762C88.1237 83.4762 85.545 82.9255 84.4542 81.4206C84.2108 81.0969 84.0523 80.717 83.9933 80.3158C83.9343 79.9147 83.9766 79.5051 84.1164 79.1246C84.7817 77.0561 80.1427 81.1026 80.1427 81.1026C80.1427 81.1026 80.1865 82.0722 80.1427 83.3081C80.1427 83.5512 80.1195 83.8046 80.1014 84.0631C80.1014 84.2338 80.0782 84.4044 80.0602 84.5802C79.9467 85.8084 79.7146 87.0728 79.2556 87.8278C78.1339 89.6739 79.2556 94.7494 79.2556 94.7494Z" fill="#FBBEBE"/>
<path opacity="0.1" d="M80.1425 83.4116H80.2456C80.4313 83.4116 80.5808 83.016 80.7613 82.9979C82.2131 82.8583 83.5386 82.5532 84.4591 81.5215C84.2164 81.1979 84.0583 80.8185 83.9993 80.4179C83.9402 80.0173 83.9822 79.6082 84.1213 79.2281C84.7866 77.1596 80.1476 81.2035 80.1476 81.2035C80.1476 81.2035 80.1966 82.1757 80.1425 83.4116Z" fill="black"/>
<path d="M74.4951 77.5474C74.4948 78.2918 74.6407 79.0289 74.9247 79.7167C75.2086 80.4045 75.625 81.0294 76.1499 81.5558C76.6749 82.0821 77.2981 82.4996 77.9841 82.7843C78.67 83.069 79.4052 83.2154 80.1476 83.215C80.3332 83.215 80.5163 83.215 80.6994 83.1892C81.7885 83.082 82.8232 82.6602 83.6779 81.9749C84.5326 81.2895 85.1705 80.3701 85.5141 79.3283C85.8577 78.2865 85.8924 77.1671 85.6138 76.1059C85.3352 75.0448 84.7554 74.0875 83.9448 73.3503C83.1341 72.6132 82.1275 72.1278 81.0471 71.9532C79.9666 71.7786 78.8589 71.9222 77.8583 72.3666C76.8577 72.811 76.0073 73.5371 75.4103 74.4568C74.8133 75.3764 74.4954 76.4501 74.4951 77.5474Z" fill="#FBBEBE"/>
<path d="M72.7598 68.9451C72.5741 69.4261 72.6308 69.9639 72.5561 70.4732C72.2801 72.3116 70.4158 73.4131 68.7293 74.1836C67.0429 74.9541 65.1398 75.8668 64.6034 77.6431C64.0155 79.5642 65.2997 81.4905 66.1919 83.2926C67.9299 86.8039 68.1775 91.2822 65.934 94.4935C63.9407 97.3376 60.4672 98.6873 57.1975 99.8715C58.7712 101.113 60.727 101.766 62.7287 101.718C61.9784 103.908 59.3094 104.634 57.035 105.038C58.229 106.191 59.9386 106.61 61.5761 106.863C62.77 107.049 63.9949 107.171 65.1862 106.93C66.3776 106.69 67.507 106.041 68.1207 104.991C68.6365 104.094 68.8118 102.871 69.7427 102.418C70.1629 102.252 70.6156 102.186 71.0656 102.224L74.9336 102.266C76.1378 102.266 77.5638 102.173 78.1853 101.141C78.4145 100.7 78.5348 100.211 78.536 99.7138C78.7036 97.1696 78.2162 94.4805 79.2606 92.1587C79.5752 91.458 77.5561 90.3487 77.7675 89.6067C78.4947 87.0547 78.6778 85.0457 78.6701 82.3903C78.6701 80.3347 80.0033 78.5636 81.1043 76.8286C82.2054 75.0937 83.126 72.9037 82.257 71.0421C81.2771 68.9658 73.9176 65.9484 72.7598 68.9451Z" fill="#3F3D56"/>
<path d="M77.9094 163.62L78.8945 164.274L79.0466 164.375L79.075 164.393L80.2431 165.168L82.9714 165.629L85.3695 165.463C85.3695 165.463 86.0606 164.015 84.975 164.049C84.6273 164.031 84.2884 163.933 83.9848 163.762L83.8352 163.687C83.6779 163.604 83.5206 163.511 83.3659 163.413C83.0436 163.208 82.7393 162.986 82.4943 162.797C82.1333 162.518 81.8935 162.306 81.8935 162.306L77.9094 163.62Z" fill="#FBBEBE"/>
<path opacity="0.1" d="M78.9073 164.274L79.0595 164.375L79.0879 164.393L80.256 165.168L82.9842 165.629L85.3824 165.463C85.3824 165.463 86.0735 164.015 84.9879 164.049C84.6401 164.031 84.3012 163.933 83.9976 163.762C84.1885 163.912 84.3483 164.075 84.3638 164.212C84.4077 164.581 82.5897 165.246 82.5897 165.246L80.0265 164.566C80.0265 164.566 79.5907 164.442 78.995 164.287L78.9383 164.271L78.9073 164.274Z" fill="black"/>
<path d="M74.5236 164.905C74.5236 164.905 76.6252 165.365 78.0383 165.233C79.4514 165.101 81.8857 166.321 81.8857 166.321C81.8857 166.321 82.7083 166.709 85.2379 166.875C87.7676 167.04 87.7676 165.753 87.7676 165.753C87.4788 164.002 83.4819 163.426 83.3581 163.4C83.4071 163.426 83.616 163.532 83.8274 163.674C84.1111 163.86 84.4179 164.103 84.4411 164.3C84.485 164.667 82.667 165.334 82.667 165.334L80.1038 164.656C80.1038 164.656 79.668 164.53 79.0723 164.375H79.0156C78.1324 164.133 77.235 163.948 76.3286 163.819C75.225 163.7 74.6602 164.641 74.5442 164.853C74.5358 164.869 74.5289 164.887 74.5236 164.905Z" fill="#3F3D56"/>
<path d="M41.3979 118.408L42.5145 119.266C42.5145 119.266 42.8394 119.251 43.3242 119.235H43.4789C44.1726 119.209 45.1293 119.183 45.9416 119.183C46.4667 119.16 46.9928 119.189 47.512 119.271C48.069 119.468 49.0592 116.075 49.0592 116.075L47.94 115.817L47.5687 115.729L47.3108 115.667L46.4006 115.452L43.6414 115.768L41.7022 117.019L41.3979 118.408Z" fill="#FBBEBE"/>
<path opacity="0.1" d="M41.3979 118.408L42.5145 119.266C42.5145 119.266 42.8394 119.251 43.3242 119.235C43.1018 119.149 42.9183 118.984 42.8085 118.772C42.0865 116.763 45.6682 115.905 45.6682 115.905L47.3366 115.832L47.6615 115.817H47.9194L47.5481 115.729L47.2902 115.667L46.3799 115.452L43.6208 115.768L41.6816 117.019L41.3979 118.408Z" fill="black"/>
<path d="M39.1957 119.315C39.8713 119.941 44.2963 119.315 44.482 119.3C44.1462 119.338 43.8063 119.314 43.4789 119.23C43.3168 119.201 43.1633 119.136 43.0294 119.04C42.8956 118.943 42.7849 118.818 42.7053 118.674C41.9833 116.662 45.565 115.807 45.565 115.807L47.2334 115.734L47.5558 115.719L51.612 115.543L51.808 114.423C51.808 114.423 50.4903 114.547 48.4222 114.713C47.2592 114.808 45.8435 114.914 44.3144 115.015C40.0415 115.3 39.0255 118.079 39.0255 118.079C39.0255 118.079 38.5072 118.674 39.1957 119.315Z" fill="#3F3D56"/>
<path d="M88.8223 70.7834C88.8498 70.8448 88.8826 70.9036 88.9203 70.9592L89.9054 72.4072L92.4686 72.6657L92.4969 71.647L92.9276 56.3196C92.9276 56.3196 94.7017 46.0392 91.3494 46.6313C87.9971 47.2234 90.1013 56.3196 90.1013 56.3196C90.1013 56.3196 89.7197 60.9323 89.4515 62.3182C89.1911 63.6575 88.0229 69.1028 88.8223 70.7834Z" fill="#FBBEBE"/>
<path d="M83.0692 108.854L83.799 110.105L85.4313 112.905C85.4313 112.905 88.3916 113.994 89.1497 113.164C89.5649 112.712 90.0136 111.132 90.3282 109.803C90.586 108.727 90.7588 107.82 90.7588 107.82L83.0692 108.854Z" fill="#FBBEBE"/>
<path opacity="0.1" d="M83.0692 108.854L83.799 110.105C83.8447 110.066 83.8862 110.022 83.9228 109.973C84.7479 108.918 88.3813 109.748 90.3282 109.816C90.586 108.74 90.7588 107.833 90.7588 107.833L83.0692 108.854Z" fill="black"/>
<path opacity="0.1" d="M45.9415 119.178C46.4666 119.154 46.9927 119.184 47.5119 119.266C48.0689 119.463 49.0591 116.07 49.0591 116.07L47.5687 115.719L51.6249 115.543L51.8209 114.423C51.8209 114.423 50.5032 114.547 48.4351 114.713C48.0078 114.96 47.6265 115.279 47.3082 115.657L47.2463 115.734C46.3825 116.797 46.0627 118.167 45.9415 119.178Z" fill="black"/>
<path opacity="0.1" d="M77.9094 163.62L79.0466 164.375C80.7434 164.067 82.2932 163.583 82.4763 162.823C82.4771 162.811 82.4771 162.799 82.4763 162.787C82.1152 162.508 81.8754 162.296 81.8754 162.296L77.9094 163.62Z" fill="black"/>
<path opacity="0.1" d="M74.5469 164.861C76.0453 164.786 77.5382 164.625 79.0183 164.38C78.1343 164.137 77.2361 163.949 76.3287 163.819C75.2276 163.7 74.6629 164.641 74.5469 164.861Z" fill="black"/>
<path d="M46.0653 120.484C46.0653 121.309 48.332 121.836 48.332 121.836L55.2351 127.998C55.2351 127.998 59.5724 129.942 62.3316 132.742C65.0907 135.542 67.525 133.138 67.525 133.138C70.4492 132.414 78.8712 122.198 78.8712 122.198C78.8712 122.198 79.0671 133.864 79.4617 134.72C79.8562 135.576 79.3302 137.916 79.1007 138.906C78.9559 139.732 78.9005 140.571 78.9356 141.409C78.9356 141.409 75.7819 153.502 76.0449 154.557C76.308 155.612 74.3353 160.556 74.3353 160.556V164.674C74.3353 164.674 82.0584 164.377 82.4839 162.632C82.9094 160.886 80.5473 160.126 80.5473 160.126V159.697C82.0945 158.906 82.3859 153.471 82.3859 153.471C82.3859 153.471 84.6886 146.748 85.0161 145.629C85.3436 144.509 85.0161 142.826 85.0161 142.826L85.2456 141.378C85.2456 141.378 85.7382 140.388 85.7382 140.191C85.8025 139.69 85.9953 139.213 86.2977 138.808C86.6588 138.379 85.9032 137.358 85.9032 137.358L86.5608 135.643V133.766L88.108 126.945C88.108 126.945 89.7196 119.002 89.1601 116.399C88.6005 113.795 89.8176 112.479 89.8176 112.479C87.1796 113.865 85.849 110.78 85.4133 109.454C85.3024 109.112 85.2482 108.885 85.2482 108.885C85.2482 108.885 81.6252 107.545 78.2523 107.866C77.5673 107.922 76.8922 108.065 76.2435 108.293C72.4967 109.645 71.9062 115.245 71.9062 115.245L68.5874 120.321C66.8778 124.835 64.3146 125.296 64.3146 125.296C64.3146 125.296 58.3011 121.244 58.1258 121.045C57.9504 120.846 55.6605 119.858 55.6605 119.858C55.3898 119.38 54.9756 119 54.4769 118.772C53.6879 118.441 53.6234 117.221 53.6234 117.221C53.5254 114.353 51.8493 114.118 51.8493 114.118C46.0318 113.632 46.0653 119.662 46.0653 120.484Z" fill="#3F3D56"/>
<path d="M79.521 104.373H83.0692V93.3351H79.521V104.373Z" fill="#F86D70"/>
<path opacity="0.1" d="M79.521 104.373H83.0692V93.3351H79.521V104.373Z" fill="black"/>
<path opacity="0.1" d="M88.8196 70.7601C88.8191 70.7679 88.8191 70.7757 88.8196 70.7834C88.8471 70.8448 88.8799 70.9036 88.9176 70.9592L89.9027 72.4072L92.4659 72.6657L92.4942 71.647C91.6948 71.5849 89.8743 71.3652 88.8196 70.7601Z" fill="black"/>
<path d="M88.9203 70.9594C88.9203 70.9594 89.0519 76.7563 87.6052 77.5475C86.1586 78.3387 85.5964 82.4601 85.5964 82.4601C85.5964 82.4601 89.9802 85.3508 90.9575 86.6229C91.9348 87.8951 94.1782 90.9254 93.7167 91.6494C93.2551 92.3733 94.8358 95.67 94.8358 95.67C94.8358 95.67 91.9425 101.601 92.6001 103.843C93.2577 106.085 93.3221 112.014 93.3221 112.014H94.5728C94.5728 112.014 94.1782 107.137 94.1782 105.159C94.1782 103.181 95.4908 96.1302 95.4908 96.1302C95.4908 96.1302 96.0839 89.2111 95.4908 89.0146C94.8977 88.8181 91.4165 86.0489 91.1535 84.7949C90.8904 83.5409 92.9946 71.8669 92.9946 71.8669C92.9946 71.8669 90.2999 71.7505 88.9203 70.9594Z" fill="#F86D70"/>
<path opacity="0.1" d="M79.454 92.3112C79.5739 93.1179 79.8669 93.8889 80.3127 94.571L82.7418 94.1573C82.7418 94.1573 90.0368 92.5077 91.5428 92.3733C92.4551 92.2525 93.3447 91.9981 94.1834 91.6183C93.6054 89.5647 92.4772 87.7091 90.9213 86.2532L89.9956 85.3922C88.6314 84.1223 87.0504 83.1089 85.3282 82.4006C85.4365 82.4911 93.09 89.043 91.4139 90.3281C89.7377 91.6131 85.225 88.4845 85.225 88.4845L80.0935 84.0632L79.9078 83.9029L79.6113 84.3657C79.7622 84.4279 79.9094 84.4987 80.0522 84.5777C81.8011 85.5402 83.099 87.1577 83.6624 89.0766C84.7171 92.6318 79.454 92.3112 79.454 92.3112Z" fill="black"/>
<path d="M77.8759 108.787C77.8759 108.787 82.7392 111.489 83.9203 109.973C84.1781 109.64 84.7222 109.495 85.4004 109.456C85.2895 109.115 85.2354 108.887 85.2354 108.887C85.2354 108.887 81.6123 107.548 78.2394 107.869C78.0177 108.427 77.8759 108.787 77.8759 108.787Z" fill="#444053"/>
<path d="M80.1141 83.908L85.4314 88.4948C85.4314 88.4948 89.926 91.6338 91.6202 90.3384C93.3143 89.043 85.5319 82.4083 85.5319 82.4083C87.2505 83.1187 88.8298 84.129 90.1967 85.3921L91.1225 86.2531C93.5567 88.5155 94.106 88.5155 94.1885 91.8406C94.2092 92.6602 93.9307 93.8367 93.7166 94.0487C92.9276 94.8244 92.3757 100.458 92.4969 101.118C92.6181 101.777 91.0271 107.468 91.5428 109.05C92.0585 110.633 85.0961 108.259 83.9177 109.777C82.7392 111.295 77.8759 108.59 77.8759 108.59C77.8759 108.59 80.5706 101.668 81.2281 101.208C81.8857 100.748 82.6748 97.1876 81.2281 95.5406C79.7815 93.8936 79.6526 92.3112 79.6526 92.3112C79.6526 92.3112 84.913 92.637 83.8584 89.0818C83.5617 88.0513 83.0469 87.0971 82.3491 86.2841C81.6514 85.4711 80.787 84.8185 79.815 84.3708L80.1141 83.908Z" fill="#E8E8F0"/>
<path opacity="0.1" d="M87.2105 95.5742C87.2105 95.5742 85.1708 99.4294 82.5328 100.43C82.4477 100.461 82.3652 100.489 82.2749 100.515C79.5209 101.356 87.4168 96.7688 87.2105 95.5742Z" fill="black"/>
<path d="M58.6855 61.4675C58.6855 61.4675 59.6705 63.973 60.4596 64.8288C61.2487 65.6846 67.0971 74.2533 67.0971 74.2533L67.5922 75.2876L68.0177 76.1692L71.7645 75.7736L72.0224 74.2585L71.8779 74.0827C71.5015 73.6302 70.4752 72.415 69.7867 71.8849C68.9331 71.2282 67.2235 69.0537 67.2235 69.0537C67.2235 69.0537 61.9011 63.5153 61.5065 62.0001C61.112 60.485 55.787 51.3992 54.606 52.9712C53.425 54.5432 58.6855 61.4675 58.6855 61.4675Z" fill="#FBBEBE"/>
<g opacity="0.1">
<path opacity="0.1" d="M69.5569 102.224C69.1072 102.185 68.6545 102.251 68.234 102.416C67.3057 102.868 67.1304 104.091 66.6146 104.988C66.0112 106.038 64.8611 106.687 63.6775 106.928C63.4423 106.973 63.2047 107.006 62.9658 107.026C63.7197 107.099 64.4801 107.066 65.2247 106.928C66.4084 106.687 67.5584 106.038 68.1618 104.988C68.6776 104.091 68.8529 102.868 69.7813 102.416C70.025 102.306 70.2877 102.244 70.5549 102.235L69.5569 102.224Z" fill="black"/>
<path opacity="0.1" d="M78.7163 82.3902C78.7163 80.3347 80.0494 78.5635 81.148 76.8286C82.2465 75.0936 83.1696 72.9036 82.3006 71.042C81.558 69.4519 77.0814 67.3187 74.4976 67.7402C77.0272 68.0686 80.1449 69.7389 80.7534 71.042C81.6224 72.9036 80.6993 75.0936 79.6008 76.8286C78.5022 78.5635 77.1639 80.3347 77.1691 82.3902C77.1691 85.043 76.9911 87.0443 76.264 89.6066C76.0551 90.3435 78.069 91.4579 77.7596 92.156C76.7126 94.4831 77.2026 97.1669 77.035 99.7112C77.0315 100.208 76.9104 100.697 76.6817 101.138C76.166 101.989 75.1087 102.209 74.0798 102.255H74.9798C76.1814 102.255 77.6074 102.162 78.2289 101.131C78.4576 100.69 78.5787 100.2 78.5822 99.7034C78.7498 97.1592 78.2598 94.4727 79.3068 92.1483C79.6214 91.4502 77.6023 90.3384 77.8112 89.5989C78.5383 87.0546 78.7214 85.043 78.7163 82.3902Z" fill="black"/>
</g>
<path opacity="0.1" d="M67.592 75.2824L68.0175 76.1641L71.7643 75.7685L72.0222 74.2533L71.8778 74.0775C71.4781 74.274 68.4843 75.7194 67.592 75.2824Z" fill="black"/>
<path opacity="0.1" d="M81.4266 85.193C81.4266 85.193 80.506 83.745 79.9799 84.1381C79.4539 84.5311 79.2502 82.9513 78.9485 83.215C78.6468 83.4787 77.7674 84.213 77.4013 83.1866C77.115 82.3695 74 77.2009 72.7365 75.1221C72.4115 74.5842 72.2078 74.2533 72.2078 74.2533C72.2078 74.2533 68.6596 76.0322 67.806 75.4401V76.6915L68.5281 76.7587L72.3961 83.9984C72.3961 83.9984 73.6132 85.9402 73.5307 86.6176C73.4482 87.2951 75.0908 90.2608 75.3538 90.4573C75.6168 90.6538 78.4482 93.9504 78.4482 93.9504C78.4482 93.9504 79.8948 101.069 78.6442 103.047C77.3935 105.025 75.2275 106.472 75.2275 106.472C75.2275 106.472 74.575 108.383 74.6705 108.582C74.7659 108.781 73.9123 109.637 74.3069 109.901C74.7014 110.165 75.2275 112.008 75.2275 112.008C75.2275 112.008 77.0686 109.043 78.064 108.582C79.0594 108.122 80.3332 102.056 80.3332 102.056C80.3332 102.056 80.6968 98.483 80.7252 96.1766C80.7535 93.8703 80.6375 85.193 81.4266 85.193Z" fill="black"/>
<path d="M81.2281 85.193C81.2281 85.193 80.3101 83.745 79.784 84.1381C79.258 84.5311 79.0517 82.9513 78.7526 83.215C78.4534 83.4787 77.5741 84.213 77.2054 83.1866C76.9166 82.3695 73.8015 77.2009 72.5405 75.1221L72.0119 74.2533C72.0119 74.2533 68.4637 76.0322 67.6075 75.4401V76.6915L68.3322 76.7587L72.2002 83.9984C72.2002 83.9984 73.4199 85.9402 73.3348 86.6176C73.2497 87.2951 74.882 90.2608 75.1579 90.4573C75.4338 90.6538 78.2523 93.9504 78.2523 93.9504C78.2523 93.9504 79.6989 101.069 78.4509 103.047C77.7916 104.04 76.9895 104.931 76.0708 105.689C75.299 106.327 74.7558 107.201 74.5235 108.176C74.4788 108.309 74.463 108.45 74.4771 108.59C74.5725 108.787 73.719 109.645 74.1135 109.909C74.5081 110.172 75.0393 112.024 75.0393 112.024C75.0393 112.024 76.8805 109.058 77.8758 108.598C78.8712 108.138 80.1476 102.072 80.1476 102.072C80.1476 102.072 80.5086 98.4985 80.5396 96.1921C80.5705 93.8858 80.4545 85.193 81.2281 85.193Z" fill="#F86D70"/>
<path opacity="0.1" d="M72.2234 115.181C72.2234 115.181 74.9852 115.698 76.0914 116.497C77.1977 117.296 71.8856 115.246 71.8856 115.246L72.2234 115.181Z" fill="black"/>
<path opacity="0.1" d="M78.8634 122.198C78.8634 122.198 81.7438 124.605 81.2281 126.78C80.7123 128.954 79.3817 134.426 79.3817 134.426L78.8634 122.198Z" fill="black"/>
<path opacity="0.1" d="M53.6725 117.57C53.6725 117.57 49.6136 118.015 49.8766 118.542C50.1397 119.07 53.6725 118.056 53.6725 118.056V117.57Z" fill="black"/>
<path opacity="0.1" d="M84.8383 137.588C84.8383 137.588 85.0962 137.916 83.5903 137.588C82.0843 137.259 83.1957 136.246 83.1957 136.246L84.8383 137.588Z" fill="black"/>
<path opacity="0.1" d="M84.3226 142.136C84.3226 142.136 82.2597 142.464 81.1534 142.136C80.0472 141.807 84.3226 142.136 84.3226 142.136Z" fill="black"/>
<path opacity="0.1" d="M80.0781 159.93C80.0781 159.93 79.7171 159.534 77.9094 160.258C76.1018 160.982 75.3798 161.016 74.8537 160.775C74.3277 160.535 80.0781 159.93 80.0781 159.93Z" fill="black"/>
<path opacity="0.1" d="M82.0844 117.009L79.5212 120.585C79.5212 120.585 80.9008 117.454 82.0844 117.009Z" fill="black"/>
<path opacity="0.1" d="M77.1024 84.1381C77.1024 84.1381 76.9915 85.3249 75.3386 85.7877C73.6857 86.2505 73.3711 86.6254 73.3711 86.6254" fill="black"/>
<path opacity="0.1" d="M72.8063 75.5358C72.8063 75.5358 70.6247 77.0872 68.3478 76.7588L72.8063 75.5358Z" fill="black"/>
<path opacity="0.1" d="M74.4669 108.753C74.4669 108.753 75.1038 109.154 76.633 107.401L74.4669 108.753Z" fill="black"/>
<path opacity="0.1" d="M90.3489 90.1652C90.4108 89.8446 90.189 89.5472 89.9802 89.2964L89.5521 88.7793C89.4685 88.6735 89.3743 88.5764 89.271 88.4897C89.0132 88.2906 88.6831 88.2311 88.4149 88.0527" fill="black"/>
<path opacity="0.1" d="M228.803 0.0284687C228.803 0.0284687 207.093 -1.28502 209.646 13.97C209.646 13.97 209.13 16.6668 211.575 17.8898C211.575 17.8898 211.614 16.7599 213.803 17.1452C214.582 17.2747 215.374 17.3129 216.162 17.2589C217.227 17.1852 218.239 16.7659 219.045 16.0644C219.045 16.0644 225.149 13.5357 227.521 3.53455C227.521 3.53455 229.278 1.3523 229.208 0.791223L225.544 2.36068C225.544 2.36068 226.797 5.01093 225.801 7.21386C225.801 7.21386 225.683 2.45635 224.979 2.55977C224.837 2.58304 223.076 3.47766 223.076 3.47766C223.076 3.47766 225.229 8.09297 223.604 11.4491C223.604 11.4491 224.221 5.76075 222.403 3.81121L219.824 5.3212C219.824 5.3212 222.341 10.0891 220.634 13.9804C220.634 13.9804 221.072 8.01281 219.28 5.68836L216.944 7.51637C216.944 7.51637 219.308 12.217 217.867 15.4438C217.867 15.4438 217.679 8.49632 216.438 7.97144C216.438 7.97144 214.393 9.78136 214.081 10.5208C214.081 10.5208 215.701 13.9338 214.695 15.7334C214.695 15.7334 214.079 11.1052 213.573 11.0793C213.573 11.0793 211.536 14.1459 211.325 16.2505C211.325 16.2505 211.412 13.1245 213.081 10.7897C213.081 10.7897 211.111 11.1285 209.961 12.4083C209.961 12.4083 210.278 10.2416 213.584 10.0529C213.584 10.0529 215.268 7.72581 215.716 7.5836C215.716 7.5836 212.431 7.30953 210.438 8.1938C210.438 8.1938 212.191 6.14859 216.32 7.07941L218.628 5.18933C218.628 5.18933 214.301 4.59723 212.465 5.25139C212.465 5.25139 214.577 3.44146 219.249 4.76012L221.761 3.2553C221.761 3.2553 218.071 2.45894 215.874 2.73818C215.874 2.73818 218.194 1.48416 222.498 2.84419L224.303 2.0349C224.303 2.0349 221.601 1.50226 220.809 1.41694C220.018 1.33161 219.976 1.11442 219.976 1.11442C221.688 0.828159 223.446 1.02419 225.054 1.68067C225.054 1.68067 228.87 0.26893 228.803 0.0284687Z" fill="#6C63FF"/>
<path opacity="0.1" d="M202.026 3.90948C202.026 3.90948 192.227 3.3148 193.375 10.208C193.375 10.208 193.145 11.4284 194.244 11.9817C194.244 11.9817 194.262 11.4646 195.252 11.643C195.604 11.7024 195.961 11.7197 196.317 11.6947C196.798 11.6619 197.255 11.4722 197.619 11.1543C197.619 11.1543 200.378 10.0141 201.451 5.49446C201.451 5.49446 202.243 4.50676 202.212 4.25337L200.556 4.96182C200.556 4.96182 201.124 6.16154 200.677 7.157C200.677 7.157 200.623 5.00578 200.306 5.05749C200.242 5.05749 199.445 5.47119 199.445 5.47119C199.445 5.47119 200.42 7.55777 199.685 9.07552C199.685 9.07552 199.963 6.50543 199.141 5.62374L197.975 6.30634C197.975 6.30634 199.115 8.46014 198.341 10.2184C198.341 10.2184 198.54 7.52157 197.73 6.47182L196.675 7.30697C196.675 7.30697 197.743 9.43233 197.093 10.888C197.093 10.888 197.008 7.7491 196.446 7.51381C196.446 7.51381 195.523 8.33086 195.381 8.66699C195.381 8.66699 196.113 10.2184 195.659 11.0199C195.659 11.0199 195.381 8.92814 195.144 8.92038C195.144 8.92038 194.226 10.3063 194.128 11.2474C194.174 10.3691 194.447 9.51795 194.922 8.77817C194.391 8.87907 193.9 9.1334 193.511 9.5099C193.511 9.5099 193.656 8.53254 195.149 8.44463C195.149 8.44463 195.922 7.39488 196.113 7.33024C196.113 7.33024 194.628 7.20613 193.728 7.6069C193.728 7.6069 194.52 6.68125 196.386 7.08978L197.418 6.23653C197.418 6.23653 195.463 5.97797 194.633 6.26497C194.633 6.26497 195.587 5.44792 197.699 6.04261L198.834 5.36259C198.834 5.36259 197.168 5.00061 196.172 5.13247C196.172 5.13247 197.222 4.56364 199.166 5.17902L199.979 4.81444C199.979 4.81444 198.756 4.5714 198.398 4.5352C198.039 4.499 198.021 4.39816 198.021 4.39816C198.795 4.26904 199.59 4.35857 200.316 4.65672C200.316 4.65672 202.057 4.01808 202.026 3.90948Z" fill="#6C63FF"/>
<path d="M236.255 168.261C241.982 168.261 246.624 167.474 246.624 166.502C246.624 165.531 241.982 164.744 236.255 164.744C230.529 164.744 225.886 165.531 225.886 166.502C225.886 167.474 230.529 168.261 236.255 168.261Z" fill="#6C63FF"/>
<path d="M240.544 163.627C241.017 163.241 241.362 162.718 241.531 162.13C241.66 161.538 241.407 160.837 240.84 160.607C240.206 160.364 239.528 160.806 239.014 161.251C238.501 161.696 237.911 162.205 237.24 162.11C237.586 161.795 237.844 161.396 237.991 160.951C238.137 160.507 238.166 160.032 238.076 159.573C238.047 159.383 237.966 159.204 237.844 159.056C237.49 158.678 236.854 158.839 236.431 159.136C235.09 160.082 234.716 161.91 234.708 163.552C234.574 162.96 234.687 162.342 234.685 161.742C234.682 161.143 234.515 160.45 234.002 160.132C233.685 159.961 233.329 159.877 232.97 159.889C232.369 159.865 231.696 159.927 231.286 160.369C230.77 160.918 230.907 161.838 231.351 162.438C231.794 163.038 232.472 163.423 233.096 163.839C233.596 164.138 234.021 164.545 234.342 165.031C234.381 165.099 234.412 165.171 234.435 165.246H238.215C239.061 164.814 239.844 164.27 240.544 163.627Z" fill="#6C63FF"/>
</g>
<defs>
<linearGradient id="paint0_linear" x1="208.488" y1="130.555" x2="208.488" y2="26.5361" gradientUnits="userSpaceOnUse">
<stop stop-color="#808080" stop-opacity="0.25"/>
<stop offset="0.54" stop-color="#808080" stop-opacity="0.12"/>
<stop offset="1" stop-color="#808080" stop-opacity="0.1"/>
</linearGradient>
<linearGradient id="paint1_linear" x1="10276.4" y1="64791.3" x2="23012.8" y2="64791.3" gradientUnits="userSpaceOnUse">
<stop stop-color="#808080" stop-opacity="0.25"/>
<stop offset="0.54" stop-color="#808080" stop-opacity="0.12"/>
<stop offset="1" stop-color="#808080" stop-opacity="0.1"/>
</linearGradient>
<clipPath id="clip0">
<rect width="295" height="168.716" fill="white"/>
</clipPath>
</defs>
</svg>
