<svg width="56" height="56" viewBox="0 0 56 56" fill="none" xmlns="http://www.w3.org/2000/svg">
<g clip-path="url(#clip0)">
<path d="M45.9836 54.8941C34.0067 56.1496 21.9933 56.1496 10.0164 54.8941C5.2406 54.3935 1.46844 50.6887 0.95874 45.9978C-0.31958 34.2347 -0.31958 22.4363 0.95874 10.6732C1.46844 5.98271 5.2406 2.27792 10.0164 1.77731C21.9933 0.52182 34.0062 0.52182 45.9832 1.77731C50.7594 2.27792 54.5316 5.98271 55.0413 10.6732C56.3196 22.4363 56.3196 34.2347 55.0413 45.9978C54.5316 50.6887 50.7598 54.3935 45.9836 54.8941Z" fill="url(#paint0_linear)"/>
<path d="M51.996 12.6626C51.544 8.50042 48.1969 5.21273 43.9586 4.76835C33.3305 3.65469 22.6707 3.65469 12.0425 4.76835C7.80466 5.21273 4.45718 8.50042 4.00473 12.6626C2.87082 23.101 2.87082 33.5704 4.00473 44.0084C4.45718 48.171 7.80466 51.4587 12.0425 51.9026C22.6707 53.0167 33.3305 53.0167 43.9582 51.9026C48.1965 51.4587 51.544 48.171 51.996 44.0084C53.1303 33.5704 53.1303 23.101 51.996 12.6626Z" fill="url(#paint1_linear)"/>
<path d="M0.839844 44.8577C0.878296 45.2378 0.91803 45.618 0.959473 45.9982C1.46918 50.6887 5.24133 54.3935 10.0175 54.8941C21.9945 56.1496 34.0074 56.1496 45.9844 54.8941C50.7606 54.3935 54.5323 50.6887 55.042 45.9982C55.0834 45.618 55.1232 45.2378 55.162 44.8577H0.839844Z" fill="url(#paint2_linear)"/>
<path d="M55.9882 26.403L44.3641 14.9869C43.0614 15.7183 41.9134 16.124 41.0486 16.3489C40.5624 16.4769 40.1655 16.5466 39.8801 16.5848C38.5693 15.2651 36.739 14.4456 34.713 14.4456C30.7268 14.4456 27.4947 17.6195 27.4947 21.5354C27.4947 21.6768 27.4985 21.8165 27.5079 21.9559C27.5272 22.2953 27.5712 22.6289 27.6391 22.9533C25.975 22.9289 20.566 22.4925 15.4075 18.1495C15.407 18.1495 15.407 18.1491 15.407 18.1491H15.4066L12.9739 15.7594C12.9739 15.7594 10.1199 20.6517 14.3159 24.364C14.5 24.5659 14.7025 24.7652 14.9243 24.9612C14.9418 24.9805 14.9601 24.9993 14.9777 25.0186C14.4269 24.9821 12.7705 24.8202 11.8118 24.1551C11.8118 24.1551 11.6191 27.1453 14.1556 29.3466L16.2039 31.3754C15.5801 31.4262 14.8901 31.414 14.4103 31.2076C14.4103 31.2076 14.835 32.9788 16.4764 34.3962L19.3458 37.2291C17.6245 38.2139 14.6111 39.4463 10.6445 39.1316L28.051 55.8357C34.0316 55.834 40.0121 55.5202 45.9838 54.8941C50.7599 54.3935 54.5321 50.6887 55.0418 45.9982C55.7506 39.4732 56.0655 32.9372 55.9882 26.403Z" fill="url(#paint3_linear)"/>
<path d="M45.3566 17.7404C44.1176 18.3769 42.2513 18.6711 41.6327 18.7559C41.6276 18.7265 41.6224 18.6984 41.6173 18.6703C43.7206 17.3925 44.3645 14.9869 44.3645 14.9869C43.0618 15.7183 41.9138 16.124 41.0491 16.3489C40.5629 16.4769 40.166 16.5462 39.8806 16.5848C38.5698 15.2646 36.7394 14.4456 34.7134 14.4456C30.7272 14.4456 27.4951 17.6191 27.4951 21.5354C27.4951 21.6764 27.499 21.8165 27.5084 21.9554C27.5276 22.2949 27.5716 22.6285 27.6395 22.9529C25.7101 22.9248 18.7455 22.3436 12.9743 15.7594C12.9743 15.7594 9.76056 21.2664 15.1635 25.0283C15.1635 25.0283 12.9743 24.9612 11.8122 24.1551C11.8122 24.1551 11.4704 29.4615 17.6932 31.14C17.6932 31.14 15.5053 31.678 14.4103 31.2076C14.4103 31.2076 15.5049 35.7747 20.9758 36.1112C20.9758 36.1112 17.0519 39.6393 10.6445 39.1316C13.7959 41.0912 17.5322 42.2254 21.538 42.2254C32.8015 42.2254 41.9326 33.2578 41.9326 22.1955C41.9326 22.0574 41.9313 21.9193 41.9283 21.7813C41.9313 21.6995 41.9326 21.6181 41.9326 21.5354C41.9326 21.4779 41.9313 21.4204 41.9305 21.3629C44.0129 20 45.3566 17.7404 45.3566 17.7404Z" fill="white"/>
</g>
<defs>
<linearGradient id="paint0_linear" x1="18.5931" y1="8.56859" x2="32.343" y2="38.5219" gradientUnits="userSpaceOnUse">
<stop stop-color="#00C3FF"/>
<stop offset="1" stop-color="#00B0ED"/>
</linearGradient>
<linearGradient id="paint1_linear" x1="39.844" y1="34.5755" x2="-40.855" y2="-9.50151" gradientUnits="userSpaceOnUse">
<stop stop-color="#00B0ED" stop-opacity="0"/>
<stop offset="1" stop-color="#00A2CE"/>
</linearGradient>
<linearGradient id="paint2_linear" x1="28.0008" y1="47.8202" x2="28.0008" y2="55.027" gradientUnits="userSpaceOnUse">
<stop stop-color="#00B0ED" stop-opacity="0"/>
<stop offset="1" stop-color="#00A2CE"/>
</linearGradient>
<linearGradient id="paint3_linear" x1="53.5305" y1="52.6208" x2="26.6658" y2="25.2676" gradientUnits="userSpaceOnUse">
<stop stop-color="#00B0ED" stop-opacity="0"/>
<stop offset="1" stop-color="#00A2CE"/>
</linearGradient>
<clipPath id="clip0">
<rect width="56" height="55" fill="white" transform="translate(0 0.835693)"/>
</clipPath>
</defs>
</svg>
