<svg width="318" height="274" viewBox="0 0 318 274" fill="none" xmlns="http://www.w3.org/2000/svg">
<g clip-path="url(#clip0)">
<path d="M173.576 76.306C189.748 76.306 202.857 63.2174 202.857 47.0718C202.857 30.9262 189.748 17.8376 173.576 17.8376C157.405 17.8376 144.296 30.9262 144.296 47.0718C144.296 63.2174 157.405 76.306 173.576 76.306Z" fill="#A0616A"/>
<path d="M151.722 61.6885C151.722 61.6885 157.239 103.21 148.752 107.87C140.264 112.531 199.25 112.954 199.25 112.954C199.25 112.954 186.095 76.9412 192.036 65.9254L151.722 61.6885Z" fill="#A0616A"/>
<path d="M242.322 113.165L237.417 135.467L227.044 182.652L226.734 185.236L223.154 215.152L220.773 235.025L219.176 248.375C209.468 253.356 202.432 256.795 202.432 256.795C202.432 256.795 201.827 253.766 200.852 249.89C194.039 251.929 181.432 255.312 170.749 255.988C174.639 260.317 176.427 264.384 174.002 267.386C166.684 276.434 136.469 257.479 125.902 250.41C125.656 252.103 125.562 253.814 125.623 255.523L117.536 249.313L118.336 235.025L119.686 210.85L121.382 180.533C120.847 179.235 120.399 177.903 120.04 176.546C117.564 167.752 114.557 150.192 112.252 135.467C110.396 123.616 109.003 113.602 108.708 111.471C108.668 111.193 108.648 111.05 108.648 111.05L153.416 91.2993C156.598 98.6659 171.454 100.88 171.454 100.88C183.762 100.033 193.41 93.5534 193.41 93.5534L242.322 113.165Z" fill="#D0CDE1"/>
<path d="M205.829 248.324C205.829 248.324 203.934 248.972 200.852 249.89C194.039 251.93 181.433 255.313 170.749 255.989C161.551 256.577 153.779 255.162 152.357 249.171C151.748 246.595 152.612 244.476 154.495 242.734C160.118 237.53 174.803 235.666 186.45 235.026C189.739 234.847 192.781 234.763 195.313 234.732C199.614 234.676 202.433 234.763 202.433 234.763L202.501 235.026L205.829 248.324Z" fill="#A0616A"/>
<path d="M149.218 19.4191L143.743 17.2307C143.743 17.2307 155.19 4.648 171.117 5.7422L166.637 0.818463C166.637 0.818463 177.587 -3.5581 187.541 7.93045C192.774 13.9697 198.828 21.0686 202.602 29.0654H208.466L206.019 34.4449L214.583 39.8245L205.792 38.8582C206.316 41.8041 206.397 44.8116 206.031 47.7812C205.654 50.7517 204.136 53.4598 201.796 55.3338C201.796 55.3338 195.007 41.302 195.007 39.1137V44.5845C195.007 44.5845 189.532 39.6608 189.532 36.3784L186.546 40.2079L185.053 34.19L166.637 40.2079L169.624 35.2843L158.176 36.9255L162.656 30.9076C162.656 30.9076 149.716 38.0196 149.218 44.0375C148.72 50.0553 144.932 55.7575 144.932 55.7575C144.932 55.7575 134.784 27.6252 149.218 19.4191Z" fill="#2F2E41"/>
<path d="M274.149 215.696C271.167 218.924 263.777 223.786 254.818 229.05C251.485 231.006 247.937 233.022 244.317 235.025C235.681 239.808 226.638 244.546 219.176 248.375C209.468 253.356 202.433 256.795 202.433 256.795C202.433 256.795 201.827 253.766 200.852 249.89C199.546 244.702 197.579 237.995 195.528 235.025C195.456 234.922 195.385 234.826 195.313 234.731C194.716 233.948 194.115 233.491 193.521 233.491L223.154 215.152L235.96 207.225L226.734 185.236L215.162 157.654L222.147 135.467L229.167 113.164H242.323C242.323 113.164 246.679 122.658 252.249 135.896C253.082 137.876 253.942 139.939 254.818 142.07C266.277 169.899 280.564 208.759 274.149 215.696Z" fill="#D0CDE1"/>
<path d="M174.002 267.386C166.684 276.434 136.47 257.479 125.902 250.411C123.6 248.872 122.23 247.898 122.23 247.898L131.898 235.026L134.96 230.951C134.96 230.951 137.7 232.402 141.749 234.763C141.897 234.851 142.044 234.938 142.195 235.026C145.687 237.073 150.071 239.749 154.495 242.734C160.599 246.857 166.771 251.56 170.749 255.988C174.639 260.318 176.427 264.385 174.002 267.386Z" fill="#A0616A"/>
<path d="M141.749 234.763C140.669 234.759 139.59 234.847 138.524 235.026C129.37 236.596 126.67 244.869 125.902 250.411C125.656 252.103 125.562 253.814 125.623 255.523L117.536 249.314L114.589 247.052C107.498 244.583 101.179 240.198 95.6996 235.026C90.9464 230.459 86.6827 225.411 82.9776 219.963C79.2871 214.592 75.9972 208.958 73.1345 203.106C72.3357 201.473 71.9064 199.685 71.8768 197.868C71.8472 196.051 72.2181 194.249 72.9633 192.591L82.9776 170.309L97.6148 137.741C97.7223 136.966 97.8404 136.208 97.9692 135.467C100.872 118.85 108.648 111.471 108.648 111.471H114.589L118.563 135.467L123.501 165.28L120.04 176.546L112.045 202.566L119.686 210.851L141.749 234.763Z" fill="#D0CDE1"/>
<path d="M148.473 165.304L153.552 171.22C155.439 170.861 157.41 170.438 159.439 169.964L157.98 165.304L161.547 169.458C183.048 164.179 209.698 153.914 209.698 153.914C209.698 153.914 180.926 156.02 159.444 151.334C149.939 149.261 140.16 153.965 136.259 162.864C133.992 168.036 134.348 172.518 142.389 172.518C145.106 172.471 147.815 172.217 150.493 171.757L148.473 165.304Z" fill="#6C63FF"/>
<path d="M264.255 262.536V264.949C264.256 265.612 264.133 266.268 263.892 266.885C263.785 267.16 263.656 267.426 263.506 267.68C263.031 268.476 262.358 269.134 261.552 269.591C260.745 270.049 259.834 270.289 258.907 270.288H81.0981C80.1709 270.289 79.2595 270.049 78.4533 269.591C77.647 269.134 76.9736 268.476 76.4991 267.68C76.349 267.426 76.2198 267.16 76.1128 266.885C75.872 266.268 75.7491 265.612 75.7505 264.949V262.536C75.7503 261.835 75.8885 261.141 76.1572 260.493C76.4259 259.845 76.8198 259.256 77.3164 258.76C77.813 258.265 78.4026 257.871 79.0514 257.603C79.7003 257.335 80.3958 257.197 81.0981 257.197H91.3473V256.072C91.3473 256.043 91.353 256.014 91.3642 255.987C91.3754 255.96 91.3918 255.935 91.4126 255.914C91.4333 255.894 91.4579 255.877 91.4849 255.866C91.512 255.855 91.541 255.849 91.5703 255.849H96.9179C96.9472 255.849 96.9762 255.855 97.0033 255.866C97.0304 255.877 97.055 255.894 97.0757 255.914C97.0964 255.935 97.1129 255.96 97.124 255.987C97.1352 256.014 97.141 256.043 97.1409 256.072V257.197H100.482V256.072C100.482 256.043 100.487 256.014 100.499 255.987C100.51 255.96 100.526 255.935 100.547 255.914C100.568 255.894 100.592 255.877 100.619 255.866C100.646 255.855 100.675 255.849 100.705 255.849H106.052C106.082 255.849 106.111 255.855 106.138 255.866C106.165 255.877 106.189 255.894 106.21 255.914C106.231 255.935 106.247 255.96 106.258 255.987C106.27 256.014 106.275 256.043 106.275 256.072V257.197H109.62V256.072C109.62 256.043 109.626 256.014 109.637 255.987C109.648 255.96 109.664 255.935 109.685 255.914C109.706 255.894 109.73 255.877 109.758 255.866C109.785 255.855 109.814 255.849 109.843 255.849H115.191C115.22 255.849 115.249 255.855 115.276 255.866C115.303 255.877 115.328 255.894 115.348 255.914C115.369 255.935 115.385 255.96 115.397 255.987C115.408 256.014 115.414 256.043 115.414 256.072V257.197H118.754V256.072C118.754 256.043 118.76 256.014 118.771 255.987C118.782 255.96 118.799 255.935 118.819 255.914C118.84 255.894 118.865 255.877 118.892 255.866C118.919 255.855 118.948 255.849 118.977 255.849H124.325C124.354 255.849 124.383 255.855 124.41 255.866C124.437 255.877 124.462 255.894 124.483 255.914C124.503 255.935 124.52 255.96 124.531 255.987C124.542 256.014 124.548 256.043 124.548 256.072V257.197H127.889V256.072C127.889 256.043 127.894 256.014 127.905 255.987C127.917 255.96 127.933 255.935 127.954 255.914C127.975 255.894 127.999 255.877 128.026 255.866C128.053 255.855 128.082 255.849 128.112 255.849H133.459C133.489 255.849 133.518 255.855 133.545 255.866C133.572 255.877 133.596 255.894 133.617 255.914C133.638 255.935 133.654 255.96 133.665 255.987C133.677 256.014 133.682 256.043 133.682 256.072V257.197H137.027V256.072C137.027 256.043 137.033 256.014 137.044 255.987C137.055 255.96 137.071 255.935 137.092 255.914C137.113 255.894 137.137 255.877 137.165 255.866C137.192 255.855 137.221 255.849 137.25 255.849H142.598C142.627 255.849 142.656 255.855 142.683 255.866C142.71 255.877 142.735 255.894 142.755 255.914C142.776 255.935 142.792 255.96 142.804 255.987C142.815 256.014 142.821 256.043 142.821 256.072V257.197H146.161V256.072C146.161 256.043 146.167 256.014 146.178 255.987C146.189 255.96 146.206 255.935 146.226 255.914C146.247 255.894 146.272 255.877 146.299 255.866C146.326 255.855 146.355 255.849 146.384 255.849H188.273C188.302 255.849 188.331 255.855 188.359 255.866C188.386 255.877 188.41 255.894 188.431 255.914C188.452 255.935 188.468 255.96 188.479 255.987C188.49 256.014 188.496 256.043 188.496 256.072V257.197H191.841V256.072C191.841 256.043 191.847 256.014 191.858 255.987C191.869 255.96 191.885 255.935 191.906 255.914C191.927 255.894 191.951 255.877 191.978 255.866C192.006 255.855 192.035 255.849 192.064 255.849H197.411C197.47 255.85 197.527 255.874 197.569 255.915C197.61 255.957 197.634 256.013 197.634 256.072V257.197H200.975V256.072C200.975 256.043 200.981 256.014 200.992 255.987C201.003 255.96 201.02 255.935 201.04 255.914C201.061 255.894 201.086 255.877 201.113 255.866C201.14 255.855 201.169 255.849 201.198 255.849H206.546C206.575 255.849 206.604 255.855 206.631 255.866C206.658 255.877 206.683 255.894 206.704 255.914C206.724 255.935 206.741 255.96 206.752 255.987C206.763 256.014 206.769 256.043 206.769 256.072V257.197H210.11V256.072C210.11 256.043 210.115 256.014 210.126 255.987C210.138 255.96 210.154 255.935 210.175 255.914C210.195 255.894 210.22 255.877 210.247 255.866C210.274 255.855 210.303 255.849 210.333 255.849H215.68C215.709 255.849 215.738 255.855 215.766 255.866C215.793 255.877 215.817 255.894 215.838 255.914C215.859 255.935 215.875 255.96 215.886 255.987C215.897 256.014 215.903 256.043 215.903 256.072V257.197H219.248V256.072C219.248 256.043 219.254 256.014 219.265 255.987C219.276 255.96 219.292 255.935 219.313 255.914C219.334 255.894 219.358 255.877 219.385 255.866C219.413 255.855 219.442 255.849 219.471 255.849H224.818C224.877 255.85 224.933 255.874 224.974 255.916C225.015 255.957 225.038 256.014 225.037 256.072V257.197H228.382V256.072C228.382 256.043 228.388 256.014 228.399 255.987C228.41 255.96 228.427 255.935 228.447 255.914C228.468 255.894 228.493 255.877 228.52 255.866C228.547 255.855 228.576 255.849 228.605 255.849H233.953C233.982 255.849 234.011 255.855 234.038 255.866C234.065 255.877 234.09 255.894 234.111 255.914C234.131 255.935 234.148 255.96 234.159 255.987C234.17 256.014 234.176 256.043 234.176 256.072V257.197H237.517V256.072C237.516 256.043 237.522 256.014 237.533 255.987C237.545 255.96 237.561 255.935 237.582 255.914C237.602 255.894 237.627 255.877 237.654 255.866C237.681 255.855 237.71 255.849 237.739 255.849H243.087C243.116 255.849 243.145 255.855 243.172 255.866C243.2 255.877 243.224 255.894 243.245 255.914C243.266 255.935 243.282 255.96 243.293 255.987C243.304 256.014 243.31 256.043 243.31 256.072V257.197H258.907C259.609 257.197 260.305 257.335 260.954 257.603C261.602 257.871 262.192 258.265 262.689 258.76C263.185 259.256 263.579 259.845 263.848 260.493C264.117 261.141 264.255 261.835 264.255 262.536Z" fill="#3F3D56"/>
<path d="M315.958 266.885H24.0901V267.68H315.958V266.885Z" fill="#3F3D56"/>
<path d="M249.938 160.911H183.663V159.547H153.611V160.911H87.0632C85.8742 160.911 84.734 161.382 83.8932 162.222C83.0525 163.061 82.5802 164.199 82.5802 165.387V255.993C82.5802 257.18 83.0525 258.318 83.8932 259.158C84.734 259.997 85.8742 260.469 87.0632 260.469H249.938C251.127 260.469 252.267 259.997 253.108 259.158C253.948 258.318 254.421 257.18 254.421 255.993V165.387C254.421 164.799 254.305 164.217 254.079 163.674C253.854 163.131 253.524 162.637 253.108 162.222C252.691 161.806 252.197 161.476 251.653 161.251C251.109 161.026 250.526 160.911 249.938 160.911Z" fill="#3F3D56"/>
<path d="M168.631 202.482C174.128 202.482 178.585 198.032 178.585 192.543C178.585 187.054 174.128 182.604 168.631 182.604C163.133 182.604 158.676 187.054 158.676 192.543C158.676 198.032 163.133 202.482 168.631 202.482Z" stroke="#D0CDE1" stroke-width="2" stroke-miterlimit="10"/>
<path d="M165.445 206.06C170.943 206.06 175.4 201.61 175.4 196.121C175.4 190.632 170.943 186.183 165.445 186.183C159.947 186.183 155.491 190.632 155.491 196.121C155.491 201.61 159.947 206.06 165.445 206.06Z" fill="#D0CDE1"/>
<path d="M43.1815 262.869H32.0323V274H43.1815V262.869Z" fill="#D0CDE1"/>
<path d="M36.4139 254.122V267.639H49.9522V254.122H36.4139ZM49.3629 267.051H36.9993V254.711H49.3629V267.051Z" fill="#3F3D56"/>
<path d="M301.204 262.869H290.055V274H301.204V262.869Z" fill="#D0CDE1"/>
<path d="M294.437 254.122V267.639H307.975V254.122H294.437ZM307.386 267.051H295.022V254.711H307.386V267.051Z" fill="#3F3D56"/>
<path d="M37.6602 91.4813C55.108 91.4813 69.2522 77.3596 69.2522 59.9396C69.2522 42.5195 55.108 28.3978 37.6602 28.3978C20.2124 28.3978 6.06812 42.5195 6.06812 59.9396C6.06812 77.3596 20.2124 91.4813 37.6602 91.4813Z" fill="#6C63FF"/>
<path d="M48.6694 22.4575C45.8089 22.0943 42.9139 22.0943 40.0534 22.4575C33.6807 23.2929 27.6818 25.936 22.7685 30.0732C17.8552 34.2104 14.2337 39.668 12.3338 45.7984C11.4698 48.5922 10.9804 51.488 10.8787 54.4103C10.8643 54.8165 10.8547 55.2275 10.8547 55.6385C10.8636 64.5081 14.3966 73.012 20.6784 79.2838C26.9602 85.5556 35.4776 89.083 44.3614 89.0918C45.0747 89.0918 45.7879 89.0679 46.4915 89.0249C48.1432 88.9214 49.7849 88.6946 51.4026 88.3463C59.1281 86.6876 66.018 82.3566 70.8554 76.1181C75.6928 69.8796 78.1664 62.135 77.8394 54.2522C77.5124 46.3695 74.4058 38.8557 69.0684 33.0379C63.7309 27.2201 56.5059 23.4727 48.6694 22.4575H48.6694ZM54.849 86.406H54.8442C52.1457 87.3254 49.337 87.883 46.4915 88.0643C45.7878 88.1121 45.0746 88.136 44.3614 88.136C35.732 88.1255 27.4591 84.6982 21.3572 78.6061C15.2553 72.5139 11.8226 64.2541 11.812 55.6385C11.812 55.2275 11.8216 54.8165 11.836 54.4103C12.165 46.0138 15.7344 38.07 21.797 32.2416C27.8595 26.4132 35.9452 23.1521 44.3614 23.1409C52.0728 23.1414 59.5336 25.8751 65.4146 30.8551C71.2955 35.835 75.2147 42.7378 76.4739 50.3336C77.7331 57.9293 76.2504 65.7247 72.2901 72.3309C68.3298 78.9371 62.149 83.925 54.849 86.406H54.849Z" fill="#3F3D56"/>
<path d="M44.8402 25.0525H43.8828V31.7432H44.8402V25.0525Z" fill="#3F3D56"/>
<path d="M23.038 33.6729L22.3611 34.3488L27.0997 39.0798L27.7766 38.4039L23.038 33.6729Z" fill="#3F3D56"/>
<path d="M13.7269 55.1608V56.1166H20.4283V55.1608H13.7269Z" fill="#3F3D56"/>
<path d="M22.3609 76.9278L23.0378 77.6037L27.7764 72.8727L27.0995 72.1968L22.3609 76.9278Z" fill="#3F3D56"/>
<path d="M60.9467 38.4038L61.6237 39.0797L66.3622 34.3487L65.6853 33.6728L60.9467 38.4038Z" fill="#3F3D56"/>
<path d="M68.2948 55.1608V56.1166H74.9961V55.1608H68.2948Z" fill="#3F3D56"/>
<path d="M61.6235 72.1973L60.9465 72.8732L65.6851 77.6042L66.362 76.9283L61.6235 72.1973Z" fill="#3F3D56"/>
<path d="M44.8402 79.5339H43.8828V86.2246H44.8402V79.5339Z" fill="#3F3D56"/>
<path d="M45.7975 53.727C45.3832 53.4168 44.8794 53.2491 44.3615 53.2491C43.8437 53.2491 43.3398 53.4168 42.9255 53.727C42.6419 53.9421 42.4084 54.2161 42.241 54.5299C42.029 54.9341 41.9373 55.3904 41.9767 55.845C42.0161 56.2996 42.1851 56.7334 42.4636 57.0951C42.7421 57.4569 43.1185 57.7315 43.5483 57.8864C43.9782 58.0414 44.4435 58.0703 44.8892 57.9697C45.3349 57.869 45.7425 57.6431 46.0638 57.3186C46.385 56.9941 46.6065 56.5845 46.702 56.1383C46.7975 55.6921 46.7631 55.228 46.6028 54.8007C46.4426 54.3734 46.1631 54.0008 45.7975 53.727H45.7975ZM44.3615 57.0724C43.981 57.0713 43.6164 56.9199 43.3473 56.6512C43.0783 56.3826 42.9266 56.0186 42.9255 55.6387C42.9274 55.3487 43.0157 55.0659 43.1792 54.8262C43.3195 54.6234 43.5098 54.4602 43.7317 54.3523C43.9536 54.2444 44.1997 54.1955 44.4461 54.2103C44.6925 54.2252 44.9309 54.3032 45.1382 54.437C45.3456 54.5707 45.5148 54.7556 45.6297 54.9737C45.7445 55.1919 45.801 55.436 45.7937 55.6823C45.7865 55.9286 45.7156 56.1689 45.5881 56.38C45.4606 56.591 45.2807 56.7656 45.0658 56.8869C44.851 57.0082 44.6084 57.0721 44.3615 57.0724V57.0724Z" fill="#3F3D56"/>
<path d="M48.6693 14.0606H40.0533V22.6629H48.6693V14.0606Z" fill="#3F3D56"/>
<path d="M44.3615 15.4946C50.7062 15.4946 55.8496 13.6759 55.8496 11.4324C55.8496 9.18895 50.7062 7.37024 44.3615 7.37024C38.0169 7.37024 32.8735 9.18895 32.8735 11.4324C32.8735 13.6759 38.0169 15.4946 44.3615 15.4946Z" fill="#3F3D56"/>
<path d="M45.7975 37.4779H42.9255V53.7267H45.7975V37.4779Z" fill="#3F3D56"/>
<path d="M89.9894 87.6361H0V88.5919H89.9894V87.6361Z" fill="#3F3D56"/>
<path d="M59.9639 238.432C60.3354 251.134 52.9021 255.788 43.5734 256.06C43.3567 256.067 43.141 256.071 42.9263 256.072C42.4937 256.075 42.0652 256.068 41.641 256.05C33.2042 255.701 26.5259 251.229 26.1804 239.417C25.8228 227.192 41.0203 211.309 42.1605 210.134L42.1625 210.133C42.2058 210.088 42.228 210.066 42.228 210.066C42.228 210.066 59.5924 225.731 59.9639 238.432Z" fill="#D0CDE1"/>
<path d="M42.9017 254.135L48.8276 245.337L42.9138 255.082L42.9261 256.072C42.4935 256.075 42.0651 256.068 41.6409 256.05L41.9348 243.324L41.9268 243.226L41.9376 243.207L41.9657 242.004L35.4762 232.597L41.9581 241.104L41.9811 241.359L42.2031 231.743L36.5979 221.99L42.219 230.054L42.1604 210.134L42.1605 210.068L42.1624 210.133L42.5345 225.833L47.643 219.455L42.5512 227.185L42.6627 235.786L47.3636 227.392L42.68 237.05L42.742 241.833L49.5784 230.14L42.7628 243.501L42.9017 254.135Z" fill="#3F3D56"/>
<path d="M317.987 238.432C318.358 251.134 310.925 255.788 301.596 256.06C301.38 256.067 301.164 256.071 300.949 256.072C300.517 256.075 300.088 256.068 299.664 256.05C291.227 255.701 284.549 251.229 284.203 239.417C283.846 227.192 299.043 211.309 300.183 210.134L300.185 210.133C300.229 210.088 300.251 210.066 300.251 210.066C300.251 210.066 317.615 225.731 317.987 238.432Z" fill="#D0CDE1"/>
<path d="M300.925 254.135L306.851 245.337L300.937 255.082L300.949 256.072C300.517 256.075 300.088 256.068 299.664 256.05L299.958 243.324L299.95 243.226L299.961 243.207L299.989 242.004L293.499 232.597L299.981 241.104L300.004 241.359L300.226 231.743L294.621 221.99L300.242 230.054L300.183 210.134L300.184 210.068L300.185 210.133L300.558 225.833L305.666 219.455L300.574 227.185L300.686 235.786L305.387 227.392L300.703 237.05L300.765 241.833L307.601 230.14L300.786 243.501L300.925 254.135Z" fill="#3F3D56"/>
</g>
<defs>
<clipPath id="clip0">
<rect width="318" height="274" fill="white"/>
</clipPath>
</defs>
</svg>
