<svg xmlns="http://www.w3.org/2000/svg" viewBox="0 0 1184 600.54"><defs><style>.cls-1{fill:#fff;}</style></defs><title>logo</title><g id="Layer_2" data-name="Layer 2"><g id="Layer_1-2" data-name="Layer 1"><path class="cls-1" d="M106.82,582.5C93,572,86.11,557.77,86.11,539.41V537.2l-.22-9.78h43.27v11c0,4.15,2.66,8.09,7.81,11.75s12.27,5.63,21.61,5.63c7.82,0,13.35-1.24,16.94-3.42,3.33-2.21,5.12-5.13,5.12-8.33,0-3.91-2.24-7.36-6.47-10.28-4.45-2.92-12.26-6.36-23.17-10.51-6.92-2.71-12.71-4.89-17.39-6.86a134.28,134.28,0,0,1-16.71-8.8,63.59,63.59,0,0,1-15.59-12,59.23,59.23,0,0,1-10-15.65,49.59,49.59,0,0,1-4.22-20.79c0-17.87,6.24-32.29,18.92-43.09s29-16.15,49-16.15c24.85,0,44.26,8.1,58.57,24.3,8.5,9.63,12.47,22.45,12.47,35.29V473.6H183v-11c0-5.14-2.24-10-6.91-14.21s-11.36-6.12-19.81-6.12c-6.91,0-12.26,1.23-15.81,3.66-3.55,2.71-5.34,5.62-5.34,9.28s2,6.62,6,9q6,4.06,22.72,10.27l11.37,4.4,12,5.38a122.85,122.85,0,0,1,12.48,7.11c3.1,2.21,6.69,5.13,10.91,8.79a55.07,55.07,0,0,1,9.8,11.26,71.75,71.75,0,0,1,6,13.47,56.64,56.64,0,0,1,2.47,16.39c0,18.12-6.47,32.08-19.14,41.86-12.71,10-29.38,14.92-49.89,14.92C138.21,598.16,120.64,593,106.82,582.5Z"/><path class="cls-1" d="M272,572.1c-19.73-18.9-29.58-41.84-29.58-68.36s9.85-49.47,29.58-68.36c19.48-18.9,42.77-28.44,70-28.44,27.4,0,51,9.54,70.45,28.44,14.65,14.08,23.81,30.61,27.16,49H389.3a48.71,48.71,0,0,0-11.06-16.73c-9.84-9.79-21.87-14.56-36.31-14.56a49.46,49.46,0,0,0-36.08,14.8,50.64,50.64,0,0,0,0,71.73,49.2,49.2,0,0,0,36.08,14.81c14.41,0,26.43-5,36.31-14.81a47.42,47.42,0,0,0,13.24-23h49c-2.66,21.27-11.78,39.68-28.13,55.45-19.48,18.89-43.05,28.44-70.45,28.44C314.73,600.54,291.44,591,272,572.1Z"/><path class="cls-1" d="M452.07,409h43.06V473.6h75.34V409h53.82V592H570.47V527.42H495.13V592H452.07Z"/><path class="cls-1" d="M667.63,564.65c-19-18.16-28.43-40.21-28.43-65.69s9.47-47.54,28.43-65.69c18.72-18.16,41.11-27.34,67.24-27.34,26.33,0,49,9.18,67.7,27.34s28,40.2,28,65.69-9.23,47.53-28,65.69S761.2,592,734.87,592C708.74,592,686.35,582.8,667.63,564.65Zm102.1-31.23c9.47-9.41,14.08-20.9,14.08-34.46s-4.61-25.26-14.08-34.7-21-14-34.9-14a47.52,47.52,0,0,0-34.66,14.22,48.66,48.66,0,0,0,0,68.93,47.28,47.28,0,0,0,34.66,14.23C748.71,547.65,760.27,542.83,769.73,533.42Z"/><path class="cls-1" d="M870.24,564.65c-19-18.16-28.43-40.21-28.43-65.69s9.47-47.54,28.43-65.69c18.72-18.16,41.1-27.34,67.24-27.34,26.33,0,49,9.18,67.7,27.34s28,40.2,28,65.69-9.23,47.53-28,65.69S963.81,592,937.48,592C911.34,592,889,582.8,870.24,564.65Zm102.1-31.23c9.46-9.41,14.08-20.9,14.08-34.46s-4.62-25.26-14.08-34.7-21-14-34.9-14a47.52,47.52,0,0,0-34.66,14.22,48.66,48.66,0,0,0,0,68.93,47.28,47.28,0,0,0,34.66,14.23C951.32,547.65,962.88,542.83,972.34,533.42Z"/><path class="cls-1" d="M1054.84,409h43.05V549H1184v43H1054.84Z"/><path class="cls-1" d="M665.69,286.05c-1.79-3.29-5-6.48-9.69-9.64s-9-5-12.84-5.6a15.18,15.18,0,0,1-4-1.35,10.31,10.31,0,0,1-2.7-1.77c-1.52-1.78-2.77-6.35-3.82-13.67A174.1,174.1,0,0,1,631,229.61c0-5.07-.16-9.23-.43-12.53a55.76,55.76,0,0,0-1.36-8.49,15.83,15.83,0,0,0-3.14-6.28,48.1,48.1,0,0,0-5.4-5.37,61.74,61.74,0,0,0-12.16-7.82c-4.49-2.25-8-3.36-10.37-3.36-3.31,0-6.08,1.64-8.34,4.93a27.64,27.64,0,0,0-4.29,12.53c-.3,2.38-.61,5.44-.91,9.16s-.61,6.79-.91,9.17A114,114,0,0,1,581,235.22q-2.28,9.17-5.4,20.14c-2.09,7.32-4.29,14.71-6.52,22.16s-4.42,14-6.52,19.71q-2.68,7.61-7.87,18.81c-3.44,7.45-6.92,14.64-10.36,21.48s-6.62,12.76-9.46,17.7-4.73,7.55-5.64,7.82c-.61,0-1-.5-1.12-1.58s-.3-3.12-.44-6.27-.23-7.52-.23-13.2V320.5q0-19.23-.24-30.22c-.17-7.32-.91-12.89-2.26-16.79a19,19,0,0,0-6.08-9,94.32,94.32,0,0,0-11.25-7.15,38.62,38.62,0,0,0-16.88-4.7c-5.58-.14-9.53,1.27-11.93,4.26q-3.58,3.57-6.31,13A107.49,107.49,0,0,0,468.85,291a92.25,92.25,0,0,1-5.16,21.92q-4.31,12.09-14.63,33.14l-5.4,11.18L445,343.37c.3-3.86.91-9.34,1.79-16.36s1.79-13.66,2.7-19.91q1.77-12.54,3.62-26.42c1.18-9.23,2.26-17.9,3.14-26s1.65-15.07,2.26-21.05.91-10.14.91-12.52q0-14.76-14.86-25.08a73.73,73.73,0,0,0-12.16-5.61A20,20,0,0,0,422,189.35c-1.21.3-2.63,1.58-4.29,3.79a50.51,50.51,0,0,0-5,8.73,109.24,109.24,0,0,0-4.73,12.33,113,113,0,0,0-3.61,14.1c-4.23,17.9-7.43,34.62-9.7,50.13-.64,4.5-1.21,9-1.79,13.43-.94,1.41-1.89,2.89-2.94,4.5a125.64,125.64,0,0,1-23.2,27.6q-14.19,12.84-27.25,19c-3.31,1.47-6,2.65-8.11,3.52a35.2,35.2,0,0,1-6.08,2,39.93,39.93,0,0,1-6.08.88c-2.09.13-4.66.2-7.67.2q-14.43,0-17.56-7.09c-2.09-4.7-2.26-9.87-.44-15.48a38.16,38.16,0,0,1,8.55-14.63c3.88-4.17,7.06-5.65,9.45-4.44q5,3.13,17.13,3.13a48.25,48.25,0,0,0,10.57-.91,51.82,51.82,0,0,0,10.13-4,69.33,69.33,0,0,0,21.62-17.9,80.23,80.23,0,0,0,13.51-24.17,76.71,76.71,0,0,0,4.29-26.43,60.73,60.73,0,0,0-6.08-25.51q-22.1-44.77-66.64-21.49a122.16,122.16,0,0,0-40.77,33.57,155.87,155.87,0,0,0-24.75,45,138.08,138.08,0,0,0-8.11,47.27q.21,23.32,9.69,41.2a60.27,60.27,0,0,0,28.37,26.79q18.9,9,47.73,3.6A113.78,113.78,0,0,0,347,383.12a84.71,84.71,0,0,0,16.65-8.06A104.19,104.19,0,0,0,379.18,363q4.05-3.78,8.31-8.16v5c.17,9.57,1.12,17.53,2.94,23.94A36.16,36.16,0,0,0,399,399.47a59.43,59.43,0,0,0,15.3,11,83.13,83.13,0,0,0,11.05,5.14,24.49,24.49,0,0,0,9.22.67,33.57,33.57,0,0,0,8.54-1.78,18.31,18.31,0,0,0,7-5.13,61,61,0,0,0,7-10.08c2.39-4.16,5.23-9.7,8.54-16.55l11.25-23.27,5.4,7.62a109.57,109.57,0,0,0,16.45,18.57A88.92,88.92,0,0,0,515.83,398a41.44,41.44,0,0,0,16.22,5.14c5.23.44,9.69-.5,13.27-2.92s8.1-8,13.51-16.79A291.29,291.29,0,0,0,575,352.5q8.1-17.69,15.1-37.17a300.43,300.43,0,0,0,10.57-35.59l.91-4.47,7.19,6.28Q630,301.25,649.34,302.6c5.1.61,8.41.68,9.9.24a14.35,14.35,0,0,0,5.4-3.79c2.71-2.69,4.12-4.64,4.29-5.81S668.09,289.64,665.69,286.05ZM324.58,272.12a113.44,113.44,0,0,1,9.72-16.5,152.38,152.38,0,0,1,11.53-14.53,77.84,77.84,0,0,1,11.05-10.33c3.55-2.64,6.34-4,8.4-4q1.74,0,0,6.83a92.79,92.79,0,0,1-4.88,13.87,60.9,60.9,0,0,1-10.86,16.27c-4.58,5-9.06,8.52-13.51,10.56-4.15,2.05-7.67,3.07-10.62,3.07-2.06,0-3.09-.23-3.09-.66A25.61,25.61,0,0,1,324.58,272.12Z"/><path class="cls-1" d="M249.13,223.67q.9-4.6,2-10.8c.73-4.09,1.56-8.51,2.42-13.2s1.76-9.24,2.66-13.63q5.73-29.91,10.39-53.48t8.64-41.82q4-18.27,7.53-31.69t7.07-23.54l2.3-6.63a19.74,19.74,0,0,0-1.83-16.7q-8-14.07-16.83-11.89-6.24,1.34-15.05,28.82t-19,77.24c-1.2,5.28-2.36,10.93-3.55,16.93s-2.43,11.95-3.76,17.83-2.52,11.45-3.55,16.74-2,9.83-2.89,13.63c-1.49,7.62-3.09,15.35-4.88,23.11s-3,13.56-3.55,17.39c-2.36,12.05-4.29,21.85-5.75,29.48s-2.65,13.86-3.55,18.71-1.56,8.59-2,11.23-.83,4.85-1.1,6.6c-.89,7.92-1.86,11.09-2.89,9.47s-2.42-9-4.21-22.21c-.9-5.58-2.06-12.61-3.55-21.13s-3-17.59-4.65-27.3-3.32-19.57-5.08-29.71-3.49-19.57-5.08-28.38-3.09-16.57-4.42-23.34-2.29-11.59-2.89-14.53a261,261,0,0,0-11.95-38.71,214.91,214.91,0,0,0-15-30.8q-8-13.23-16.37-20.9c-5.61-5.11-11.23-8-16.84-8.58q-7.06-.89-12,2.87t-9.3,13c-2.06,5-4.94,14.4-8.63,28.16s-7.54,29.41-11.52,46.87S25.2,385.64,21.65,403.53s-6.21,33.31-8,46.22q-3.54,22.42-6,41.59t-4.21,34.1c-1.2,10-2.06,18.18-2.66,24.65S0,560.79,0,562.84q1.35,15.84,15,22.87,4,2.17,5.08,2c.73-.16,1.69-1,2.89-2.41a13.32,13.32,0,0,0,2.22-7.92c0-1.49.6-6,1.76-13.63s2.49-16.15,4-25.52c1.76-9.37,3.39-18.71,4.88-28L39,490.68q1.34-7.49,4.41-23.77t6.88-35C52.73,419.44,92.84,169.3,95.49,157s4.88-22.45,6.64-30.37q6.63-27.74,10.2-39.38c2.36-7.76,4-11.22,4.88-10.33.3.29.8,2,1.56,5.28s1.46,7.19,2.22,11.88,1.46,9.84,2.23,15.42,1.39,11,2,16.27q.45,4.41,2,18.92T131,175.93q2.2,16.29,4.22,32.78t2.89,23.54q1.35,14.5,4,31.26t5.54,32.58c1.93,10.56,3.82,20.17,5.74,28.81s3.62,15.32,5.09,20a124.19,124.19,0,0,0,17,34.1q10.86,15.19,22.34,20.89a30.89,30.89,0,0,0,7.08,3.31,22.36,22.36,0,0,0,4.41,1.09c2.36,0,4.72-1.09,7.07-3.31a17.23,17.23,0,0,0,4.89-8.15c.89-3.53,2-8.28,3.32-14.29s2.59-12.71,3.75-20,2.36-15.05,3.55-23.11,2.23-15.61,3.09-22.67q2.64-22,6-43.14c2.22-14.1,4.48-27,6.87-38.72C248.1,229.14,248.53,226.74,249.13,223.67Z"/></g></g></svg>
