<svg width="30" height="30" viewBox="0 0 30 30" fill="none" xmlns="http://www.w3.org/2000/svg">
<g clip-path="url(#clip0)">
<path d="M17.9915 0H27.0215L19.5146 9.58066H10.4846L17.9915 0Z" fill="#0E6A8E"/>
<path d="M17.9915 0H21.8077L14.3009 9.58066H10.4846L17.9915 0Z" fill="#E52E40"/>
<path d="M20.9107 0H24.1032L16.5963 9.58066H13.4038L20.9107 0Z" fill="#EAEAE4"/>
<path d="M15.0001 30.0003C20.1655 30.0003 24.3528 25.813 24.3528 20.6477C24.3528 15.4823 20.1655 11.295 15.0001 11.295C9.8348 11.295 5.64746 15.4823 5.64746 20.6477C5.64746 25.813 9.8348 30.0003 15.0001 30.0003Z" fill="#F9AC30"/>
<path d="M10.4859 12.4555V9.581H19.5159V12.4555L21.0465 13.5116V8.81565C21.0465 8.39319 20.7042 8.05035 20.2812 8.05035H9.72062C9.29815 8.05035 8.95532 8.39319 8.95532 8.81565V13.5122L10.4859 12.4555Z" fill="#F9AC30"/>
<path d="M14.999 27.6493C18.8659 27.6493 22.0006 24.5145 22.0006 20.6476C22.0006 16.7807 18.8659 13.6459 14.999 13.6459C11.1321 13.6459 7.99731 16.7807 7.99731 20.6476C7.99731 24.5145 11.1321 27.6493 14.999 27.6493Z" fill="#DD8D19"/>
<path d="M12.008 0H2.97803L10.4849 9.58066H19.5149L12.008 0Z" fill="#E52E40"/>
<path d="M12.0075 0H8.19116L15.6981 9.58066H19.5143L12.0075 0Z" fill="#0E6A8E"/>
<path d="M9.09 0H5.89746L13.4043 9.58066H16.5969L9.09 0Z" fill="#EAEAE4"/>
<path d="M16.8017 22.571V22.315C16.8017 21.2369 16.1414 20.8461 15.1576 20.8461C14.8208 20.8461 14.6995 20.5631 14.6995 20.2801C14.6995 19.9836 14.8208 19.7006 15.1576 19.7006C15.9797 19.7006 16.5592 19.4446 16.5592 18.2183C16.5592 17.2345 16.0875 16.8302 15.2116 16.8302C14.1201 16.8302 13.81 17.3827 13.81 17.9352C13.81 18.2856 13.6483 18.5147 13.1363 18.5147C12.5029 18.5147 12.3951 18.3664 12.3951 17.8544C12.3951 16.9785 13.0015 15.577 15.225 15.577C16.8017 15.577 17.9337 16.1969 17.9337 17.9757C17.9337 19.0942 17.5025 19.9162 16.8556 20.2262C17.6507 20.5362 18.2302 21.1696 18.2302 22.315V22.5711C18.2302 24.7137 16.8556 25.5088 15.1576 25.5088C13.0554 25.5088 12.1794 24.2016 12.1794 23.1371C12.1794 22.6654 12.3546 22.5306 12.8397 22.5306C13.4327 22.5306 13.5809 22.7058 13.5809 23.0697C13.5809 23.6627 14.0796 24.2421 15.1711 24.2421C16.2761 24.242 16.8017 23.7435 16.8017 22.571Z" fill="#F9AC30"/>
</g>
<defs>
<clipPath id="clip0">
<rect width="30" height="30" fill="white"/>
</clipPath>
</defs>
</svg>
