<svg width="139" height="139" viewBox="0 0 139 139" fill="none" xmlns="http://www.w3.org/2000/svg">
<path d="M130.312 43.4375H52.125C50.3969 43.4375 48.7397 44.124 47.5178 45.3459C46.2958 46.5678 45.6094 48.2251 45.6094 49.9531V110.766C45.6094 112.494 46.2958 114.151 47.5178 115.373C48.7397 116.595 50.3969 117.281 52.125 117.281H72.9446L89.6832 134.02C90.0905 134.427 90.6428 134.656 91.2188 134.656C91.7947 134.656 92.347 134.427 92.7543 134.02L109.493 117.281H130.312C132.041 117.281 133.698 116.595 134.92 115.373C136.142 114.151 136.828 112.494 136.828 110.766V49.9531C136.828 48.2251 136.142 46.5678 134.92 45.3459C133.698 44.124 132.041 43.4375 130.312 43.4375ZM65.1562 84.7031C64.2971 84.7031 63.4573 84.4484 62.743 83.9711C62.0287 83.4938 61.4719 82.8154 61.1431 82.0217C60.8144 81.2279 60.7284 80.3546 60.896 79.512C61.0636 78.6693 61.4773 77.8954 62.0848 77.2879C62.6922 76.6804 63.4662 76.2667 64.3088 76.0991C65.1514 75.9315 66.0248 76.0175 66.8185 76.3463C67.6122 76.675 68.2906 77.2318 68.7679 77.9461C69.2452 78.6604 69.5 79.5003 69.5 80.3594C69.5 81.5114 69.0424 82.6163 68.2277 83.4309C67.4131 84.2455 66.3083 84.7031 65.1562 84.7031ZM82.5312 84.7031C81.6721 84.7031 80.8323 84.4484 80.118 83.9711C79.4037 83.4938 78.8469 82.8154 78.5181 82.0217C78.1894 81.2279 78.1034 80.3546 78.271 79.512C78.4386 78.6693 78.8523 77.8954 79.4598 77.2879C80.0672 76.6804 80.8412 76.2667 81.6838 76.0991C82.5264 75.9315 83.3998 76.0175 84.1935 76.3463C84.9872 76.675 85.6657 77.2318 86.1429 77.9461C86.6202 78.6604 86.875 79.5003 86.875 80.3594C86.875 81.5114 86.4174 82.6163 85.6027 83.4309C84.7881 84.2455 83.6833 84.7031 82.5312 84.7031ZM99.9062 84.7031C99.0471 84.7031 98.2073 84.4484 97.493 83.9711C96.7787 83.4938 96.2219 82.8154 95.8931 82.0217C95.5644 81.2279 95.4784 80.3546 95.646 79.512C95.8136 78.6693 96.2273 77.8954 96.8348 77.2879C97.4422 76.6804 98.2162 76.2667 99.0588 76.0991C99.9014 75.9315 100.775 76.0175 101.569 76.3463C102.362 76.675 103.041 77.2318 103.518 77.9461C103.995 78.6604 104.25 79.5003 104.25 80.3594C104.25 81.5114 103.792 82.6163 102.978 83.4309C102.163 84.2455 101.058 84.7031 99.9062 84.7031ZM117.281 84.7031C116.422 84.7031 115.582 84.4484 114.868 83.9711C114.154 83.4938 113.597 82.8154 113.268 82.0217C112.939 81.2279 112.853 80.3546 113.021 79.512C113.189 78.6693 113.602 77.8954 114.21 77.2879C114.817 76.6804 115.591 76.2667 116.434 76.0991C117.276 75.9315 118.15 76.0175 118.944 76.3463C119.737 76.675 120.416 77.2318 120.893 77.9461C121.37 78.6604 121.625 79.5003 121.625 80.3594C121.625 81.5114 121.167 82.6163 120.353 83.4309C119.538 84.2455 118.433 84.7031 117.281 84.7031Z" fill="#C4A2FC"/>
<path d="M76.1978 80.1878C81.8693 75.8647 85.965 69.7995 87.8559 62.9235C89.7468 56.0475 89.3283 48.7409 86.6649 42.1258C84.0014 35.5106 79.2401 29.9526 73.1122 26.3052C66.9842 22.6579 59.8285 21.1229 52.7437 21.9359C46.2829 22.6743 40.1912 25.3308 35.2539 29.563C30.3166 33.7952 26.7599 39.409 25.0423 45.681C23.3247 51.953 23.5249 58.5957 25.617 64.7529C27.7091 70.9101 31.5973 76.2996 36.7804 80.2268C37.7185 80.9379 38.4184 81.9173 38.7873 83.0351C37.822 83.4284 36.9659 84.049 36.2918 84.844C35.6178 85.6391 35.1456 86.5852 34.9156 87.6018C34.6855 88.6185 34.7043 89.6756 34.9704 90.6835C35.2364 91.6913 35.7419 92.62 36.4438 93.3906C35.5945 94.3216 35.0348 95.4798 34.833 96.7237C34.6312 97.9677 34.796 99.2434 35.3074 100.395C35.8188 101.547 36.6546 102.525 37.7126 103.209C38.7707 103.894 40.0052 104.256 41.2654 104.25H41.4826C41.9866 106.701 43.3204 108.904 45.2589 110.486C47.1975 112.069 49.6223 112.934 52.1247 112.937H60.8122C63.3147 112.934 65.7395 112.069 67.6781 110.486C69.6166 108.904 70.9503 106.701 71.4544 104.25H71.6716C72.9318 104.256 74.1663 103.894 75.2244 103.209C76.2824 102.525 77.1182 101.547 77.6296 100.395C78.1409 99.2434 78.3058 97.9677 78.104 96.7237C77.9022 95.4798 77.3425 94.3216 76.4932 93.3906C77.1966 92.6203 77.7035 91.6914 77.9706 90.6831C78.2378 89.6747 78.2574 88.6167 78.0277 87.5992C77.798 86.5816 77.3258 85.6346 76.6514 84.8388C75.9769 84.043 75.1202 83.422 74.1541 83.0286C74.5342 81.8977 75.2465 80.9077 76.1978 80.1878ZM28.4339 50.8913C29.2093 44.6006 32.074 38.7522 36.5688 34.2833C41.0637 29.8145 46.9286 26.9838 53.2237 26.2449C59.3681 25.53 65.5771 26.8539 70.8954 30.013C76.2137 33.1721 80.3465 37.9913 82.6579 43.729C84.9694 49.4668 85.3313 55.8051 83.6881 61.7686C82.0448 67.7322 78.4874 72.9905 73.5633 76.7345C71.6534 78.1617 70.3033 80.2126 69.7473 82.5312H58.6404V68.1295L71.1482 53.5367C71.3464 53.3221 71.4993 53.0698 71.5978 52.7948C71.6962 52.5198 71.7382 52.2277 71.7211 51.9361C71.7041 51.6445 71.6284 51.3593 71.4986 51.0977C71.3688 50.836 71.1875 50.6032 70.9657 50.4132C70.7438 50.2232 70.4859 50.0799 70.2074 49.9919C69.9289 49.9039 69.6354 49.8729 69.3447 49.9009C69.0539 49.929 68.7718 50.0153 68.5152 50.1549C68.2586 50.2945 68.0328 50.4844 67.8513 50.7132L56.4685 63.9921L45.0857 50.7132C44.7044 50.3006 44.1781 50.0517 43.6172 50.0189C43.0563 49.9861 42.5045 50.172 42.0777 50.5375C41.651 50.9029 41.3825 51.4196 41.3286 51.9788C41.2747 52.5381 41.4397 53.0965 41.7888 53.5367L54.2966 68.1295V82.5312H43.1918C42.6492 80.2217 41.3085 78.1781 39.4062 76.7605C35.4664 73.7921 32.3779 69.8383 30.4518 65.297C28.5256 60.7557 27.8296 55.7871 28.4339 50.8913ZM73.8435 89.0468C73.8435 89.6228 73.6147 90.1753 73.2074 90.5826C72.8001 90.9899 72.2476 91.2187 71.6716 91.2187H41.2654C40.6894 91.2187 40.1369 90.9899 39.7296 90.5826C39.3223 90.1753 39.0935 89.6228 39.0935 89.0468C39.0935 88.4708 39.3223 87.9184 39.7296 87.5111C40.1369 87.1038 40.6894 86.875 41.2654 86.875H71.6716C72.2476 86.875 72.8001 87.1038 73.2074 87.5111C73.6147 87.9184 73.8435 88.4708 73.8435 89.0468ZM60.8122 108.594H52.1247C50.7776 108.592 49.4639 108.174 48.3639 107.396C47.2639 106.618 46.4314 105.519 45.9805 104.25H66.9565C66.5056 105.519 65.6731 106.618 64.5731 107.396C63.4731 108.174 62.1594 108.592 60.8122 108.594ZM71.6716 99.9062H41.2654C40.6894 99.9062 40.1369 99.6774 39.7296 99.2701C39.3223 98.8628 39.0935 98.3103 39.0935 97.7343C39.0935 97.1583 39.3223 96.6059 39.7296 96.1986C40.1369 95.7913 40.6894 95.5625 41.2654 95.5625H71.6716C72.2476 95.5625 72.8001 95.7913 73.2074 96.1986C73.6147 96.6059 73.8435 97.1583 73.8435 97.7343C73.8435 98.3103 73.6147 98.8628 73.2074 99.2701C72.8001 99.6774 72.2476 99.9062 71.6716 99.9062Z" fill="#151A6A"/>
<path d="M56.4688 15.2031C57.0448 15.2031 57.5972 14.9743 58.0045 14.567C58.4118 14.1597 58.6406 13.6073 58.6406 13.0312V6.51562C58.6406 5.93961 58.4118 5.38718 58.0045 4.97988C57.5972 4.57257 57.0448 4.34375 56.4688 4.34375C55.8927 4.34375 55.3403 4.57257 54.933 4.97988C54.5257 5.38718 54.2969 5.93961 54.2969 6.51562V13.0312C54.2969 13.6073 54.5257 14.1597 54.933 14.567C55.3403 14.9743 55.8927 15.2031 56.4688 15.2031Z" fill="#151A6A"/>
<path d="M22.6811 27.9239C23.0907 28.3195 23.6393 28.5384 24.2088 28.5334C24.7782 28.5285 25.323 28.3001 25.7256 27.8974C26.1283 27.4947 26.3567 26.95 26.3617 26.3805C26.3666 25.8111 26.1477 25.2624 25.7521 24.8528L21.1455 20.2463C20.7359 19.8506 20.1873 19.6317 19.6178 19.6367C19.0484 19.6416 18.5037 19.87 18.101 20.2727C17.6983 20.6754 17.4699 21.2201 17.4649 21.7896C17.46 22.3591 17.6789 22.9077 18.0745 23.3173L22.6811 27.9239Z" fill="#151A6A"/>
<path d="M90.2564 89.3575C89.8468 88.9618 89.2981 88.7429 88.7287 88.7479C88.1592 88.7528 87.6145 88.9812 87.2118 89.3839C86.8091 89.7866 86.5807 90.3313 86.5758 90.9008C86.5708 91.4703 86.7897 92.0189 87.1854 92.4285L91.7919 97.035C91.9922 97.2425 92.2319 97.4079 92.4969 97.5218C92.7619 97.6356 93.0468 97.6955 93.3352 97.698C93.6236 97.7005 93.9096 97.6456 94.1765 97.5364C94.4434 97.4271 94.6859 97.2659 94.8898 97.062C95.0938 96.858 95.255 96.6155 95.3642 96.3486C95.4734 96.0817 95.5284 95.7957 95.5259 95.5073C95.5234 95.219 95.4635 94.934 95.3496 94.669C95.2358 94.404 95.0704 94.1644 94.8629 93.964L90.2564 89.3575Z" fill="#151A6A"/>
<path d="M10.8594 56.4688H4.34375C3.76773 56.4688 3.21531 56.6976 2.808 57.1049C2.4007 57.5122 2.17188 58.0646 2.17188 58.6406C2.17188 59.2166 2.4007 59.7691 2.808 60.1764C3.21531 60.5837 3.76773 60.8125 4.34375 60.8125H10.8594C11.4354 60.8125 11.9878 60.5837 12.3951 60.1764C12.8024 59.7691 13.0312 59.2166 13.0312 58.6406C13.0312 58.0646 12.8024 57.5122 12.3951 57.1049C11.9878 56.6976 11.4354 56.4688 10.8594 56.4688Z" fill="#151A6A"/>
<path d="M108.594 56.4688H102.078C101.502 56.4688 100.95 56.6976 100.542 57.1049C100.135 57.5122 99.9062 58.0646 99.9062 58.6406C99.9062 59.2166 100.135 59.7691 100.542 60.1764C100.95 60.5837 101.502 60.8125 102.078 60.8125H108.594C109.17 60.8125 109.722 60.5837 110.129 60.1764C110.537 59.7691 110.766 59.2166 110.766 58.6406C110.766 58.0646 110.537 57.5122 110.129 57.1049C109.722 56.6976 109.17 56.4688 108.594 56.4688Z" fill="#151A6A"/>
<path d="M22.6807 89.3575L18.0742 93.964C17.8667 94.1644 17.7013 94.404 17.5875 94.669C17.4736 94.934 17.4137 95.219 17.4112 95.5073C17.4087 95.7957 17.4637 96.0817 17.5729 96.3486C17.6821 96.6155 17.8433 96.858 18.0473 97.062C18.2512 97.2659 18.4937 97.4271 18.7606 97.5364C19.0275 97.6456 19.3135 97.7005 19.6019 97.698C19.8903 97.6955 20.1753 97.6356 20.4402 97.5218C20.7052 97.4079 20.9449 97.2425 21.1452 97.035L25.7518 92.4285C26.1474 92.0189 26.3663 91.4703 26.3614 90.9008C26.3564 90.3313 26.128 89.7866 25.7253 89.3839C25.3226 88.9812 24.7779 88.7528 24.2084 88.7479C23.639 88.7429 23.0903 88.9618 22.6807 89.3575Z" fill="#151A6A"/>
<path d="M91.7919 20.2462L87.1854 24.8527C86.7897 25.2623 86.5708 25.811 86.5758 26.3804C86.5807 26.9499 86.8091 27.4946 87.2118 27.8973C87.6145 28.3 88.1592 28.5284 88.7287 28.5333C89.2981 28.5383 89.8468 28.3194 90.2564 27.9238L94.8629 23.3172C95.0704 23.1169 95.2358 22.8772 95.3496 22.6122C95.4635 22.3473 95.5234 22.0623 95.5259 21.7739C95.5284 21.4855 95.4734 21.1995 95.3642 20.9326C95.255 20.6657 95.0938 20.4232 94.8898 20.2193C94.6859 20.0153 94.4434 19.8541 94.1765 19.7449C93.9096 19.6357 93.6236 19.5807 93.3352 19.5832C93.0468 19.5857 92.7619 19.6456 92.4969 19.7595C92.2319 19.8733 91.9922 20.0387 91.7919 20.2462Z" fill="#151A6A"/>
</svg>
