<svg width="141" height="38" viewBox="0 0 141 38" fill="none" xmlns="http://www.w3.org/2000/svg">
<path d="M15.96 30.64C12.9467 30.64 10.24 30.0133 7.84 28.76C5.44 27.5067 3.56 25.7733 2.2 23.56C0.84 21.32 0.16 18.8 0.16 16C0.16 13.2 0.84 10.6933 2.2 8.48C3.56 6.24 5.44 4.49333 7.84 3.24C10.24 1.98667 12.9467 1.36 15.96 1.36C18.9733 1.36 21.68 1.98667 24.08 3.24C26.48 4.49333 28.36 6.24 29.72 8.48C31.08 10.6933 31.76 13.2 31.76 16C31.76 18.8 31.08 21.32 29.72 23.56C28.36 25.7733 26.48 27.5067 24.08 28.76C21.68 30.0133 18.9733 30.64 15.96 30.64ZM15.96 23C17.1333 23 18.1867 22.72 19.12 22.16C20.08 21.5733 20.84 20.76 21.4 19.72C21.96 18.6533 22.24 17.4133 22.24 16C22.24 14.5867 21.96 13.36 21.4 12.32C20.84 11.2533 20.08 10.44 19.12 9.88C18.1867 9.29333 17.1333 9 15.96 9C14.7867 9 13.72 9.29333 12.76 9.88C11.8267 10.44 11.08 11.2533 10.52 12.32C9.96 13.36 9.68 14.5867 9.68 16C9.68 17.4133 9.96 18.6533 10.52 19.72C11.08 20.76 11.8267 21.5733 12.76 22.16C13.72 22.72 14.7867 23 15.96 23ZM48.6663 2C51.2529 2 53.5063 2.42666 55.4263 3.28C57.3463 4.13333 58.8263 5.36 59.8663 6.96C60.9063 8.56 61.4263 10.4267 61.4263 12.56C61.4263 14.6933 60.9063 16.56 59.8663 18.16C58.8263 19.76 57.3463 20.9867 55.4263 21.84C53.5063 22.6933 51.2529 23.12 48.6663 23.12H44.6263V30H35.1863V2H48.6663ZM48.0663 15.84C49.3463 15.84 50.3063 15.56 50.9463 15C51.5863 14.4133 51.9063 13.6 51.9063 12.56C51.9063 11.52 51.5863 10.72 50.9463 10.16C50.3063 9.57333 49.3463 9.28 48.0663 9.28H44.6263V15.84H48.0663ZM75.3528 30.64C73.0328 30.64 70.7661 30.3867 68.5528 29.88C66.3661 29.3467 64.5661 28.64 63.1528 27.76L66.1928 20.88C67.5261 21.6533 69.0195 22.28 70.6728 22.76C72.3261 23.2133 73.9128 23.44 75.4328 23.44C76.7395 23.44 77.6728 23.32 78.2328 23.08C78.7928 22.8133 79.0728 22.4267 79.0728 21.92C79.0728 21.3333 78.6995 20.8933 77.9528 20.6C77.2328 20.3067 76.0328 19.9867 74.3528 19.64C72.1928 19.1867 70.3928 18.7067 68.9528 18.2C67.5128 17.6667 66.2595 16.8133 65.1928 15.64C64.1261 14.44 63.5928 12.8267 63.5928 10.8C63.5928 9.04 64.0861 7.44 65.0728 6C66.0595 4.56 67.5261 3.42666 69.4728 2.6C71.4461 1.77333 73.8328 1.36 76.6328 1.36C78.5528 1.36 80.4328 1.57333 82.2728 2C84.1395 2.4 85.7795 3 87.1928 3.8L84.3528 10.64C81.6061 9.25333 79.0061 8.56 76.5528 8.56C74.1261 8.56 72.9128 9.14667 72.9128 10.32C72.9128 10.88 73.2728 11.3067 73.9928 11.6C74.7128 11.8667 75.8995 12.16 77.5528 12.48C79.6861 12.88 81.4861 13.3467 82.9528 13.88C84.4195 14.3867 85.6861 15.2267 86.7528 16.4C87.8461 17.5733 88.3928 19.1733 88.3928 21.2C88.3928 22.96 87.8995 24.56 86.9128 26C85.9261 27.4133 84.4461 28.5467 82.4728 29.4C80.5261 30.2267 78.1528 30.64 75.3528 30.64ZM89.8019 2H100.602L98.8019 19.28H91.6019L89.8019 2ZM95.2019 30.4C93.6552 30.4 92.3885 29.9333 91.4019 29C90.4152 28.0667 89.9219 26.9333 89.9219 25.6C89.9219 24.24 90.4152 23.12 91.4019 22.24C92.3885 21.3333 93.6552 20.88 95.2019 20.88C96.7485 20.88 98.0152 21.3333 99.0019 22.24C99.9885 23.12 100.482 24.24 100.482 25.6C100.482 26.9333 99.9885 28.0667 99.0019 29C98.0152 29.9333 96.7485 30.4 95.2019 30.4ZM112.892 37.76C114.679 34.5867 115.972 31.4933 116.772 28.48C117.599 25.44 118.012 22.2933 118.012 19.04C118.012 15.7867 117.599 12.6533 116.772 9.64C115.972 6.6 114.679 3.49333 112.892 0.319998H121.532C123.266 2.72 124.586 5.53333 125.492 8.76C126.399 11.96 126.852 15.3867 126.852 19.04C126.852 22.6933 126.399 26.1333 125.492 29.36C124.586 32.56 123.266 35.36 121.532 37.76H112.892ZM134.807 18.04C133.287 18.04 132.02 17.56 131.007 16.6C130.02 15.6133 129.527 14.36 129.527 12.84C129.527 11.32 130.02 10.0933 131.007 9.16C132.02 8.2 133.287 7.72 134.807 7.72C136.327 7.72 137.58 8.2 138.567 9.16C139.58 10.0933 140.087 11.32 140.087 12.84C140.087 14.36 139.58 15.6133 138.567 16.6C137.58 17.56 136.327 18.04 134.807 18.04ZM134.807 30.4C133.287 30.4 132.02 29.92 131.007 28.96C130.02 27.9733 129.527 26.72 129.527 25.2C129.527 23.68 130.02 22.4533 131.007 21.52C132.02 20.56 133.287 20.08 134.807 20.08C136.327 20.08 137.58 20.56 138.567 21.52C139.58 22.4533 140.087 23.68 140.087 25.2C140.087 26.72 139.58 27.9733 138.567 28.96C137.58 29.92 136.327 30.4 134.807 30.4Z" fill="#6600CC" fill-opacity="0.28"/>
</svg>
