<svg width="80" height="36" viewBox="0 0 80 36" fill="none" xmlns="http://www.w3.org/2000/svg">
<g filter="url(#filter0_d)">
<rect x="7.01755" width="65.9649" height="31.5789" fill="#6600CC"/>
<path d="M24.6901 20.0166C23.8021 20.0166 23.0021 19.8326 22.2901 19.4646C21.5781 19.0886 21.0181 18.5686 20.6101 17.9046C20.2101 17.2326 20.0101 16.4726 20.0101 15.6246C20.0101 14.7766 20.2101 14.0206 20.6101 13.3566C21.0181 12.6846 21.5781 12.1646 22.2901 11.7966C23.0021 11.4206 23.8021 11.2326 24.6901 11.2326C25.5061 11.2326 26.2341 11.3766 26.8741 11.6646C27.5141 11.9526 28.0421 12.3686 28.4581 12.9126L26.6701 14.5086C26.1501 13.8526 25.5381 13.5246 24.8341 13.5246C24.2421 13.5246 23.7661 13.7166 23.4061 14.1006C23.0461 14.4766 22.8661 14.9846 22.8661 15.6246C22.8661 16.2646 23.0461 16.7766 23.4061 17.1606C23.7661 17.5366 24.2421 17.7246 24.8341 17.7246C25.5381 17.7246 26.1501 17.3966 26.6701 16.7406L28.4581 18.3366C28.0421 18.8806 27.5141 19.2966 26.8741 19.5846C26.2341 19.8726 25.5061 20.0166 24.6901 20.0166ZM32.8758 17.7126H32.1078V19.8246H29.2758V11.4246H33.3198C34.0958 11.4246 34.7718 11.5526 35.3478 11.8086C35.9238 12.0646 36.3678 12.4326 36.6798 12.9126C36.9918 13.3926 37.1478 13.9526 37.1478 14.5926C37.1478 15.1926 37.0118 15.7166 36.7398 16.1646C36.4678 16.6126 36.0758 16.9686 35.5638 17.2326L37.3278 19.8246H34.3038L32.8758 17.7126ZM34.2918 14.5926C34.2918 14.2806 34.1958 14.0406 34.0038 13.8726C33.8118 13.6966 33.5238 13.6086 33.1398 13.6086H32.1078V15.5766H33.1398C33.5238 15.5766 33.8118 15.4926 34.0038 15.3246C34.1958 15.1486 34.2918 14.9046 34.2918 14.5926ZM38.2172 11.4246H41.0492V19.8246H38.2172V11.4246ZM48.1365 18.3606H44.9445L44.3805 19.8246H41.5005L45.1725 11.4246H47.9565L51.6285 19.8246H48.7005L48.1365 18.3606ZM47.3565 16.3206L46.5405 14.2086L45.7245 16.3206H47.3565ZM55.6805 17.7126H54.9125V19.8246H52.0805V11.4246H56.1245C56.9005 11.4246 57.5765 11.5526 58.1525 11.8086C58.7285 12.0646 59.1725 12.4326 59.4845 12.9126C59.7965 13.3926 59.9525 13.9526 59.9525 14.5926C59.9525 15.1926 59.8165 15.7166 59.5445 16.1646C59.2725 16.6126 58.8805 16.9686 58.3685 17.2326L60.1325 19.8246H57.1085L55.6805 17.7126ZM57.0965 14.5926C57.0965 14.2806 57.0005 14.0406 56.8085 13.8726C56.6165 13.6966 56.3285 13.6086 55.9445 13.6086H54.9125V15.5766H55.9445C56.3285 15.5766 56.6165 15.4926 56.8085 15.3246C57.0005 15.1486 57.0965 14.9046 57.0965 14.5926Z" fill="white"/>
</g>
<defs>
<filter id="filter0_d" x="5.01755" y="0" width="69.9649" height="35.5789" filterUnits="userSpaceOnUse" color-interpolation-filters="sRGB">
<feFlood flood-opacity="0" result="BackgroundImageFix"/>
<feColorMatrix in="SourceAlpha" type="matrix" values="0 0 0 0 0 0 0 0 0 0 0 0 0 0 0 0 0 0 127 0"/>
<feOffset dy="2"/>
<feGaussianBlur stdDeviation="1"/>
<feColorMatrix type="matrix" values="0 0 0 0 0 0 0 0 0 0 0 0 0 0 0 0 0 0 0.25 0"/>
<feBlend mode="normal" in2="BackgroundImageFix" result="effect1_dropShadow"/>
<feBlend mode="normal" in="SourceGraphic" in2="effect1_dropShadow" result="shape"/>
</filter>
</defs>
</svg>
