<?xml version="1.0" encoding="utf-8"?>
<!-- Generator: Adobe Illustrator 23.0.3, SVG Export Plug-In . SVG Version: 6.00 Build 0)  -->
<svg version="1.1" id="Layer_1" xmlns="http://www.w3.org/2000/svg" xmlns:xlink="http://www.w3.org/1999/xlink" x="0px" y="0px"
	 viewBox="0 0 1000 496" style="enable-background:new 0 0 1000 496;" xml:space="preserve">
<style type="text/css">
	.st0{fill:#4B4B4B;}
	.st1{fill:#1A1A1A;}
</style>
<g>
	<g>
		<path class="st0" d="M660.5,229.12c-0.63-1.15-1.76-2.26-3.38-3.36c-1.63-1.09-3.12-1.75-4.48-1.96c-0.53-0.11-1-0.26-1.41-0.47
			c-0.42-0.21-0.73-0.41-0.94-0.62c-0.53-0.62-0.97-2.21-1.33-4.77c-0.37-2.55-0.55-5.39-0.55-8.52c0-1.77-0.06-3.22-0.15-4.37
			c-0.11-1.15-0.26-2.13-0.47-2.96c-0.21-0.83-0.58-1.56-1.1-2.19c-0.53-0.62-1.15-1.25-1.89-1.87c-1.26-1.04-2.68-1.96-4.24-2.73
			c-1.57-0.78-2.78-1.17-3.62-1.17c-1.15,0-2.12,0.57-2.91,1.72c-0.79,1.15-1.28,2.6-1.5,4.37c-0.11,0.83-0.21,1.9-0.32,3.2
			c-0.11,1.3-0.21,2.37-0.32,3.2c-0.11,1.04-0.42,2.64-0.94,4.77c-0.53,2.13-1.15,4.48-1.89,7.03c-0.73,2.55-1.5,5.13-2.27,7.73
			c-0.79,2.6-1.54,4.9-2.27,6.88c-0.62,1.77-1.54,3.96-2.75,6.56c-1.2,2.6-2.42,5.11-3.62,7.5c-1.2,2.4-2.31,4.45-3.3,6.17
			c-1,1.72-1.65,2.64-1.97,2.73c-0.21,0-0.34-0.18-0.39-0.55c-0.06-0.36-0.11-1.09-0.15-2.19c-0.06-1.09-0.08-2.62-0.08-4.6
			c0-1.98,0-4.48,0-7.5c0-4.48-0.02-7.99-0.08-10.54c-0.06-2.55-0.32-4.5-0.79-5.86c-0.47-1.35-1.18-2.39-2.12-3.13
			c-0.94-0.73-2.25-1.56-3.92-2.5c-1.99-1.04-3.96-1.58-5.89-1.64c-1.94-0.05-3.32,0.44-4.16,1.49c-0.84,0.83-1.57,2.34-2.2,4.53
			c-0.62,2.19-1.05,4.64-1.26,7.35c-0.21,2.3-0.81,4.84-1.8,7.65c-1,2.81-2.7,6.67-5.1,11.56l-1.88,3.9l0.47-4.84
			c0.11-1.35,0.32-3.26,0.63-5.7c0.32-2.45,0.62-4.77,0.94-6.95c0.41-2.92,0.84-5.99,1.26-9.22c0.41-3.22,0.79-6.24,1.1-9.06
			c0.32-2.81,0.58-5.26,0.79-7.35c0.21-2.09,0.32-3.54,0.32-4.37c0-3.43-1.73-6.35-5.18-8.75c-1.47-0.83-2.89-1.49-4.24-1.96
			c-1.37-0.47-2.57-0.6-3.62-0.39c-0.42,0.11-0.92,0.55-1.5,1.32c-0.58,0.78-1.15,1.79-1.73,3.05c-0.58,1.25-1.13,2.68-1.65,4.3
			c-0.53,1.62-0.94,3.26-1.26,4.92c-1.47,6.24-2.59,12.08-3.38,17.49c-0.22,1.57-0.42,3.13-0.63,4.69
			c-0.33,0.49-0.66,1.01-1.03,1.57c-2.1,3.43-4.8,6.64-8.1,9.63c-3.3,2.99-6.47,5.2-9.51,6.64c-1.15,0.51-2.1,0.93-2.83,1.23
			c-0.73,0.3-1.44,0.54-2.12,0.69c-0.68,0.15-1.39,0.26-2.12,0.3c-0.73,0.05-1.63,0.07-2.68,0.07c-3.36,0-5.4-0.82-6.13-2.47
			c-0.73-1.64-0.79-3.44-0.15-5.4c0.62-1.96,1.63-3.66,2.98-5.11c1.36-1.45,2.46-1.97,3.3-1.55c1.15,0.73,3.15,1.09,5.97,1.09
			c1.57,0,2.8-0.11,3.69-0.32c0.88-0.21,2.06-0.68,3.53-1.41c2.93-1.56,5.44-3.64,7.54-6.24c2.1-2.6,3.66-5.41,4.71-8.43
			c1.05-3.02,1.54-6.09,1.5-9.22c-0.06-3.13-0.77-6.09-2.12-8.9c-5.14-10.41-12.88-12.91-23.25-7.5
			c-5.66,2.92-10.39,6.82-14.22,11.71s-6.71,10.13-8.64,15.7c-1.94,5.58-2.89,11.07-2.83,16.49c0.05,5.42,1.18,10.22,3.38,14.37
			c2.2,4.16,5.5,7.27,9.9,9.35c4.4,2.09,9.95,2.49,16.65,1.25c2.3-0.41,4.48-0.98,6.52-1.72c2.04-0.73,3.98-1.66,5.81-2.81
			c1.83-1.15,3.64-2.55,5.42-4.22c0.94-0.88,1.91-1.83,2.9-2.85c0,0.61,0,1.19,0,1.76c0.06,3.34,0.39,6.11,1.03,8.35
			c0.62,2.24,1.63,4.07,2.98,5.47c1.36,1.41,3.15,2.68,5.34,3.83c1.78,0.94,3.06,1.53,3.85,1.79c0.79,0.26,1.86,0.34,3.22,0.23
			c1.15-0.11,2.14-0.32,2.98-0.62c0.84-0.32,1.65-0.91,2.44-1.79s1.59-2.05,2.44-3.51c0.84-1.45,1.83-3.39,2.98-5.77l3.92-8.12
			l1.89,2.66c1.78,2.49,3.69,4.66,5.74,6.48c2.04,1.83,4.03,3.26,5.97,4.3c1.93,1.04,3.82,1.64,5.66,1.79
			c1.83,0.15,3.38-0.18,4.63-1.02c1.26-0.83,2.83-2.79,4.71-5.86c1.89-3.07,3.77-6.67,5.66-10.78c1.89-4.11,3.64-8.44,5.27-12.97
			s2.85-8.67,3.69-12.42l0.32-1.56l2.51,2.19c4.93,4.58,9.64,7.03,14.14,7.35c1.78,0.21,2.93,0.23,3.45,0.08
			c0.52-0.15,1.15-0.6,1.88-1.32c0.94-0.94,1.44-1.62,1.5-2.03C661.73,231.2,661.34,230.37,660.5,229.12z M540.3,224.11
			c0.94-1.98,2.1-3.92,3.45-5.86c1.36-1.92,2.72-3.64,4.09-5.16c1.36-1.51,2.67-2.73,3.92-3.67c1.26-0.94,2.25-1.41,2.98-1.41
			c0.41,0,0.41,0.81,0,2.42c-0.42,1.62-1,3.26-1.73,4.92c-0.94,2.09-2.23,4.01-3.85,5.78c-1.63,1.77-3.22,3.02-4.8,3.75
			c-1.47,0.73-2.72,1.09-3.77,1.09c-0.73,0-1.1-0.08-1.1-0.23C539.53,225.6,539.79,225.05,540.3,224.11z"/>
		<path class="st0" d="M513.53,206.92c0.21-1.09,0.45-2.37,0.71-3.83c0.26-1.45,0.55-3.02,0.86-4.69c0.32-1.66,0.62-3.28,0.94-4.84
			c1.36-7.08,2.59-13.4,3.69-18.98c1.1-5.56,2.12-10.52,3.06-14.84c0.94-4.32,1.83-8.07,2.68-11.25c0.84-3.17,1.67-5.96,2.51-8.35
			l0.81-2.35c0.68-1.98,0.44-4.15-0.65-5.93c-1.88-3.33-3.88-4.73-5.97-4.22c-1.47,0.32-3.25,3.73-5.34,10.23
			c-2.1,6.51-4.35,15.65-6.75,27.41c-0.42,1.87-0.84,3.88-1.26,6.01c-0.42,2.13-0.86,4.24-1.33,6.33c-0.47,2.09-0.9,4.07-1.26,5.94
			s-0.71,3.49-1.03,4.84c-0.53,2.71-1.1,5.45-1.73,8.2c-0.62,2.76-1.05,4.81-1.26,6.17c-0.84,4.28-1.52,7.76-2.04,10.46
			c-0.53,2.71-0.94,4.92-1.26,6.64c-0.32,1.72-0.55,3.05-0.71,3.98c-0.15,0.94-0.29,1.72-0.39,2.34c-0.32,2.81-0.66,3.94-1.03,3.36
			c-0.37-0.57-0.86-3.2-1.5-7.88c-0.32-1.98-0.73-4.48-1.26-7.5c-0.53-3.02-1.07-6.24-1.65-9.69c-0.58-3.43-1.18-6.95-1.8-10.54
			c-0.62-3.6-1.24-6.95-1.8-10.07c-0.58-3.13-1.1-5.88-1.57-8.28c-0.47-2.39-0.81-4.11-1.03-5.15c-1.15-5-2.57-9.58-4.24-13.74
			c-1.67-4.16-3.45-7.81-5.34-10.93c-1.89-3.13-3.83-5.6-5.81-7.42c-1.99-1.82-3.98-2.83-5.97-3.05c-1.67-0.21-3.09,0.13-4.24,1.02
			c-1.15,0.89-2.25,2.43-3.3,4.6c-0.73,1.77-1.76,5.11-3.06,9.99c-1.31,4.9-2.67,10.44-4.09,16.64
			c-1.41,6.2-16.06,96.85-17.32,103.2c-1.26,6.35-2.2,11.82-2.83,16.4c-0.84,5.31-1.54,10.23-2.12,14.76
			c-0.58,4.53-1.07,8.56-1.5,12.1c-0.42,3.54-0.73,6.46-0.94,8.75c-0.19,2.28-0.29,3.8-0.29,4.52c0.32,3.75,2.1,6.46,5.34,8.12
			c0.94,0.52,1.54,0.75,1.8,0.7c0.26-0.06,0.6-0.34,1.03-0.86c0.52-0.73,0.79-1.66,0.79-2.81c0-0.53,0.21-2.13,0.62-4.84
			c0.41-2.71,0.88-5.73,1.41-9.06c0.62-3.33,1.2-6.64,1.73-9.92c0.52-3.28,0.88-5.6,1.1-6.95c0.32-1.77,0.84-4.58,1.57-8.43
			c0.73-3.85,1.54-7.99,2.44-12.42c0.88-4.43,15.12-93.2,16.06-97.57c0.94-4.37,1.73-7.97,2.36-10.78
			c1.57-6.56,2.77-11.22,3.62-13.98c0.84-2.75,1.41-3.98,1.73-3.67c0.11,0.11,0.28,0.73,0.55,1.87c0.26,1.15,0.52,2.55,0.79,4.22
			c0.26,1.66,0.52,3.49,0.79,5.47c0.26,1.98,0.49,3.9,0.71,5.78c0.11,1.04,0.34,3.28,0.71,6.71c0.37,3.43,0.81,7.13,1.33,11.09
			c0.52,3.85,1.03,7.73,1.5,11.63c0.47,3.9,0.81,6.69,1.03,8.35c0.32,3.43,0.79,7.13,1.41,11.09c0.62,3.96,1.28,7.81,1.97,11.56
			c0.68,3.75,1.36,7.16,2.04,10.23c0.68,3.07,1.28,5.44,1.8,7.11c1.46,4.48,3.48,8.52,6.05,12.1c2.57,3.6,5.21,6.07,7.93,7.42
			c0.84,0.52,1.67,0.91,2.51,1.17c0.84,0.26,1.36,0.39,1.57,0.39c0.84,0,1.67-0.39,2.51-1.17c0.84-0.79,1.41-1.75,1.73-2.89
			c0.32-1.25,0.71-2.94,1.18-5.07c0.47-2.13,0.92-4.51,1.33-7.11c0.41-2.6,0.84-5.34,1.26-8.2c0.41-2.87,0.79-5.54,1.1-8.05
			c0.62-5.2,1.33-10.31,2.12-15.31c0.79-5,1.59-9.58,2.44-13.74C513.17,208.87,513.32,208.01,513.53,206.92z"/>
	</g>
	<path class="st1" d="M462.43,353.12c-5.71-1.35-10.39-3.16-14.06-5.45l7.89-17.85c3.46,2.01,7.33,3.62,11.62,4.83
		c4.29,1.21,8.41,1.82,12.35,1.82c3.39,0,5.81-0.33,7.26-0.99c1.45-0.66,2.18-1.64,2.18-2.96c0-1.52-0.95-2.66-2.85-3.42
		c-1.9-0.76-5.03-1.59-9.39-2.49c-5.6-1.18-10.27-2.44-14.01-3.79c-3.74-1.35-6.99-3.56-9.75-6.64c-2.77-3.08-4.15-7.25-4.15-12.5
		c0-4.57,1.28-8.72,3.84-12.45c2.56-3.74,6.38-6.67,11.47-8.82c5.08-2.14,11.26-3.22,18.52-3.22c4.98,0,9.87,0.54,14.68,1.61
		c4.81,1.07,9.04,2.65,12.71,4.72l-7.37,17.74c-7.13-3.6-13.87-5.4-20.23-5.4c-6.3,0-9.44,1.52-9.44,4.57c0,1.45,0.93,2.54,2.8,3.27
		c1.87,0.73,4.94,1.5,9.24,2.33c5.53,1.04,10.2,2.23,14.01,3.58c3.8,1.35,7.11,3.55,9.91,6.59c2.8,3.05,4.2,7.2,4.2,12.45
		c0,4.57-1.28,8.7-3.84,12.4c-2.56,3.7-6.38,6.64-11.47,8.82c-5.08,2.18-11.26,3.27-18.52,3.27
		C474,355.14,468.14,354.47,462.43,353.12z"/>
	<path class="st1" d="M537.92,350.32c-6.16-3.22-10.98-7.71-14.48-13.49c-3.49-5.77-5.24-12.33-5.24-19.66
		c0-7.33,1.75-13.89,5.24-19.66c3.49-5.78,8.32-10.27,14.48-13.49c6.16-3.22,13.07-4.82,20.75-4.82c7.06,0,13.35,1.25,18.89,3.74
		c5.53,2.49,10.1,6.09,13.7,10.79l-15.46,13.8c-4.5-5.67-9.79-8.51-15.88-8.51c-5.12,0-9.24,1.64-12.35,4.93
		c-3.11,3.29-4.67,7.7-4.67,13.23c0,5.54,1.56,9.95,4.67,13.23c3.11,3.29,7.23,4.93,12.35,4.93c6.09,0,11.38-2.84,15.88-8.51
		l15.46,13.8c-3.6,4.71-8.16,8.3-13.7,10.79c-5.54,2.49-11.83,3.74-18.89,3.74C550.99,355.14,544.07,353.54,537.92,350.32z"/>
	<path class="st1" d="M669.91,280.85v72.64h-24.49v-26.77H622.8v26.77h-24.49v-72.64h24.49v25.73h22.62v-25.73H669.91z"/>
	<path class="st1" d="M698.75,350.27c-6.23-3.25-11.1-7.76-14.63-13.54c-3.53-5.78-5.29-12.3-5.29-19.56
		c0-7.26,1.76-13.78,5.29-19.56c3.53-5.77,8.4-10.29,14.63-13.54c6.23-3.25,13.25-4.88,21.06-4.88c7.82,0,14.84,1.63,21.06,4.88
		c6.23,3.25,11.1,7.77,14.63,13.54c3.53,5.78,5.29,12.3,5.29,19.56c0,7.26-1.76,13.78-5.29,19.56c-3.53,5.78-8.4,10.29-14.63,13.54
		c-6.23,3.25-13.25,4.88-21.06,4.88C712,355.14,704.98,353.52,698.75,350.27z M728.07,333.09c2.46-1.49,4.41-3.6,5.86-6.33
		c1.45-2.73,2.18-5.93,2.18-9.6c0-3.67-0.73-6.86-2.18-9.6c-1.45-2.73-3.41-4.84-5.86-6.33c-2.46-1.49-5.21-2.23-8.25-2.23
		c-3.05,0-5.8,0.74-8.25,2.23c-2.46,1.49-4.41,3.6-5.86,6.33c-1.45,2.73-2.18,5.93-2.18,9.6c0,3.67,0.73,6.87,2.18,9.6
		c1.45,2.73,3.41,4.84,5.86,6.33c2.45,1.49,5.2,2.23,8.25,2.23C722.86,335.32,725.61,334.58,728.07,333.09z"/>
	<path class="st1" d="M786.75,350.27c-6.23-3.25-11.1-7.76-14.63-13.54c-3.53-5.78-5.29-12.3-5.29-19.56
		c0-7.26,1.76-13.78,5.29-19.56c3.53-5.77,8.4-10.29,14.63-13.54c6.23-3.25,13.25-4.88,21.06-4.88c7.82,0,14.84,1.63,21.06,4.88
		c6.23,3.25,11.1,7.77,14.63,13.54c3.53,5.78,5.29,12.3,5.29,19.56c0,7.26-1.76,13.78-5.29,19.56c-3.53,5.78-8.4,10.29-14.63,13.54
		c-6.23,3.25-13.25,4.88-21.06,4.88C799.99,355.14,792.97,353.52,786.75,350.27z M816.06,333.09c2.46-1.49,4.41-3.6,5.86-6.33
		c1.45-2.73,2.18-5.93,2.18-9.6c0-3.67-0.73-6.86-2.18-9.6c-1.45-2.73-3.41-4.84-5.86-6.33c-2.46-1.49-5.21-2.23-8.25-2.23
		c-3.05,0-5.8,0.74-8.25,2.23c-2.46,1.49-4.41,3.6-5.86,6.33c-1.45,2.73-2.18,5.93-2.18,9.6c0,3.67,0.73,6.87,2.18,9.6
		c1.45,2.73,3.41,4.84,5.86,6.33c2.45,1.49,5.2,2.23,8.25,2.23C810.85,335.32,813.6,334.58,816.06,333.09z"/>
	<path class="st1" d="M857.72,280.85h24.49v53.65H915v18.99h-57.28V280.85z"/>
</g>
<g>
	<g>
		<path class="st0" d="M295.66,248.01c2.35-0.45,7.84-5.04,0.96-13.74c-6.88-8.7-17.6-2.54-17.6-2.54
			C275.67,247.83,293.33,248.45,295.66,248.01z"/>
		<path class="st0" d="M327.66,248.37c2.84,1.13,7.04,0.15,8.71-2.51c3.08-4.89,0.2-11.55-1.68-13.55
			c-0.65-0.69-2.61-0.95-3.99-0.34C325.21,234.42,325.34,247.45,327.66,248.37z"/>
		<path class="st0" d="M340.09,397.32c-0.7-1.13-1.59-2.12-2.62-2.98c-8.16-7.23-32.25-5.31-32.41-5.29
			c0.82-1.48,4.5-8.33,7.79-17.32c1.79-5.36,3.4-11.37,4.19-17.42l-27.22-1.2c-1.96-0.11-3.8-1.21-5.09-3.02
			c-1.49-2.11-2.03-4.9-1.47-7.39l1.02-7.67c0,0-33.63-34.62-52.15-34.62c-0.33,0-0.66,0.01-0.99,0.02
			c-12.24,0.54-11.85,20.36,0.4,20.59c25.32,0.46,47.89,5.62,49.07,36.18c1.09,28.15-27.58,45.59-25.75,45.8
			c4.39,0.51,16.67-1.99,16.67,11.95c0,2.39-0.63,8.27-0.63,8.27h69.28c4.07,0,7.18-3.98,6.39-8.28
			C345.69,409.93,343.84,403.37,340.09,397.32z"/>
		<path class="st0" d="M342.7,265.03l-37.18,0.16c-2.25-0.16-4.23,1.56-4.82,4.2l-9.01,39.74c4.83,1.8,16.25,8.73,14.44,18.44
			c-1.81,9.7-6.32,17.04-19.86,8.73l-1.18,7.21c-0.87,3.89,1.59,7.92,4.91,8.05l27.81,1.2c0.01-0.08,4.66,0.07,8.27,0.06
			c2.89-0.01,5.49-2.02,6.31-5.01c0-0.02,0.01-0.03,0.01-0.05l4.42-19.66c-1.81,0-9.86-3.3-9.03-12.62
			c0.9-10.13,10.83-8.73,13.54-7.76l6.15-34.68C348.32,269.22,345.96,265.26,342.7,265.03z M310.06,272.81l-3.12,15.59
			c-0.32,1.61-1.8,2.92-3.29,2.92s-2.45-1.31-2.12-2.92l3.12-15.59c0.32-1.61,1.8-2.92,3.29-2.92S310.38,271.19,310.06,272.81z"/>
		<path class="st0" d="M206.09,422.78c1.83,0.23,3.94,0.42,6.25,0.57c0.01-0.62-0.34-1.24-1.06-1.35
			c-19.64-2.96-43.2-19.51-47.44-72.77c-4.8-60.18,45.64-98.1,59.51-107.33c1.88-1.25,12.19-7.07,13.28-5.01l6.32,18.44
			c0.73,1.37,1.77,1.02,1.35-0.49c-2.25-8.24-3.16-16.97-1.35-23.77c1.81-6.79,7.22-15.53,7.22-15.53s-13.95-9.9-8.39-29.81
			c5.56-19.91,11.54-19.81,14.71-13.86c2.2,4.13,8.07,10.78,12.12,16.01c2.96,3.81,7.66,5.49,12.14,4.31
			c6.31-1.67,16.17-3.03,29-0.9c0,0,7.41-22.93,10.83-21.35c6.32,2.91,10.83,10.67,10.2,30.33c0,0.01,0,0.01,0,0.02
			c8.76,8.55,10.56,15.26,10.83,27.16c0.07,3.15,0.63,4.6,0.63,4.6s-0.21-2.88,0-6.79c0.9-16.5-9.93-25.23-9.93-25.23
			c0-10.67-0.9-28.14-10.83-31.05c0-13.95-59.07-85.9-149.81-95.82c-11.26-1.23-20.34,9.75-17.75,21.59
			c6.3,28.8,24.46,44.79-9.75,93.49c-77.45,110.26-46.18,165-8.59,199.73c0.14,0.13,0.29,0.26,0.43,0.39
			c0.25,0.23,0.51,0.46,0.76,0.69C161.41,411.35,192.28,421.12,206.09,422.78z"/>
	</g>
	<path class="st0" d="M344.18,247.85c0,0,10.6,9.17,11.02,19.97c0.42,10.8-2.97,19-7.63,23.79
		C347.57,291.61,364.95,268.82,344.18,247.85z"/>
</g>
</svg>
