<svg width="20" height="20" viewBox="0 0 20 20" fill="none" xmlns="http://www.w3.org/2000/svg">
<path fill-rule="evenodd" clip-rule="evenodd" d="M15.9998 13.75V8.75C15.9998 5.68 14.3698 3.11 11.4998 2.43V1.75C11.4998 0.92 10.8298 0.25 9.99979 0.25C9.16979 0.25 8.49979 0.92 8.49979 1.75V2.43C5.63979 3.11 3.99979 5.67 3.99979 8.75V13.75L1.99979 15.75V16.75H17.9998V15.75L15.9998 13.75ZM9.99978 19.75C11.0998 19.75 11.9998 18.85 11.9998 17.75H7.99978C7.99978 18.85 8.89979 19.75 9.99978 19.75ZM5.99978 14.75H13.9998V8.75C13.9998 6.27 12.4898 4.25 9.99978 4.25C7.50978 4.25 5.99978 6.27 5.99978 8.75V14.75ZM5.57979 1.83L4.14979 0.4C1.74978 2.23 0.169785 5.05 0.0297852 8.25H2.02979C2.17979 5.6 3.53979 3.28 5.57979 1.83ZM19.9698 8.25H17.9698C17.8198 5.6 16.4498 3.28 14.4298 1.83L15.8498 0.4C18.2398 2.23 19.8198 5.05 19.9698 8.25Z" fill="black" fill-opacity="0.54"/>
</svg>
