<svg width="85" height="108" viewBox="0 0 85 108" fill="none" xmlns="http://www.w3.org/2000/svg">
<path d="M80.2029 0.382332C82.3929 0.0929337 84.4117 1.63345 84.6101 3.83366C85.6264 15.1051 84.653 26.4783 81.7238 37.4313C78.4498 49.6736 72.7965 61.1512 65.0868 71.2088C57.377 81.2663 47.7618 89.7068 36.7901 96.0483C26.9739 101.722 16.2438 105.616 5.09528 107.562C2.91905 107.942 0.907051 106.393 0.617653 104.203L0.165794 100.783C-0.123604 98.5932 1.41953 96.5928 3.5936 96.2008C13.252 94.4591 22.5464 91.0569 31.0607 86.1357C40.7307 80.5466 49.2051 73.1075 56.0001 64.2433C62.7952 55.379 67.7777 45.2632 70.6633 34.4734C73.204 24.973 74.0752 15.1139 73.2484 5.33464C73.0623 3.13336 74.5932 1.12359 76.7833 0.83419L80.2029 0.382332Z" fill="#F2F2F2"/>
</svg>
