<svg width="193" height="193" viewBox="0 0 193 193" fill="none" xmlns="http://www.w3.org/2000/svg">
<path d="M189 96.5C191.209 96.5 193.009 94.7081 192.917 92.5009C192.184 74.8169 186.598 57.6465 176.737 42.8875C166.133 27.0181 151.062 14.6495 133.429 7.34562C115.796 0.0417684 96.393 -1.86925 77.6738 1.85422C58.9546 5.57769 41.76 14.7684 28.2642 28.2642C14.7684 41.76 5.57769 58.9546 1.85422 77.6738C-1.86925 96.393 0.0417687 115.796 7.34563 133.429C14.6495 151.062 27.0181 166.133 42.8875 176.737C57.6465 186.598 74.8169 192.184 92.5009 192.917C94.7081 193.009 96.5 191.209 96.5 189V186.246C96.5 184.037 94.7079 182.256 92.5012 182.153C76.9451 181.427 61.8524 176.475 48.8621 167.795C34.7612 158.373 23.771 144.982 17.2811 129.314C10.7912 113.646 9.0931 96.4049 12.4016 79.7718C15.7102 63.1387 23.8767 47.8602 35.8685 35.8685C47.8602 23.8767 63.1387 15.7102 79.7718 12.4016C96.4049 9.0931 113.646 10.7912 129.314 17.2811C144.982 23.771 158.373 34.7612 167.795 48.8621C176.475 61.8524 181.427 76.9451 182.153 92.5012C182.256 94.7079 184.037 96.5 186.246 96.5H189Z" fill="#6600CC"/>
</svg>
