<svg width="46" height="46" viewBox="0 0 46 46" fill="none" xmlns="http://www.w3.org/2000/svg">
<path d="M23 29.1333C26.3874 29.1333 29.1334 26.3873 29.1334 23C29.1334 19.6127 26.3874 16.8667 23 16.8667C19.6127 16.8667 16.8667 19.6127 16.8667 23C16.8667 26.3873 19.6127 29.1333 23 29.1333Z" fill="white" fill-opacity="0.2"/>
<path d="M17.25 3.83334L13.7425 7.66668H7.66671C5.55837 7.66668 3.83337 9.39168 3.83337 11.5V34.5C3.83337 36.6083 5.55837 38.3333 7.66671 38.3333H38.3334C40.4417 38.3333 42.1667 36.6083 42.1667 34.5V11.5C42.1667 9.39168 40.4417 7.66668 38.3334 7.66668H32.2575L28.75 3.83334H17.25ZM23 32.5833C17.71 32.5833 13.4167 28.29 13.4167 23C13.4167 17.71 17.71 13.4167 23 13.4167C28.29 13.4167 32.5834 17.71 32.5834 23C32.5834 28.29 28.29 32.5833 23 32.5833Z" fill="white" fill-opacity="0.2"/>
</svg>
