<svg width="200" height="168" viewBox="0 0 200 168" fill="none" xmlns="http://www.w3.org/2000/svg">
<g clip-path="url(#clip0)">
<path d="M142.88 38.0342H141.459C141.179 38.0342 140.952 38.2642 140.952 38.5479V57.8441C140.952 58.1278 141.179 58.3578 141.459 58.3578H142.88C143.161 58.3578 143.388 58.1278 143.388 57.8441V38.5479C143.388 38.2642 143.161 38.0342 142.88 38.0342Z" fill="#3F3D56"/>
<path d="M133.627 0H69.4102C64.6386 0 60.7704 3.91569 60.7704 8.74595V158.918C60.7704 163.748 64.6386 167.664 69.4102 167.664H133.627C138.398 167.664 142.266 163.748 142.266 158.918V8.74595C142.266 3.91569 138.398 0 133.627 0Z" fill="#3F3D56"/>
<path d="M130.923 4.36719H121.575V5.50557C121.575 6.21417 121.437 6.91583 121.169 7.57046C120.901 8.22509 120.508 8.81985 120.013 9.32077C119.518 9.82169 118.93 10.219 118.283 10.4899C117.637 10.7608 116.943 10.9 116.243 10.8996H86.5129C85.8129 10.9 85.1197 10.7608 84.4728 10.4899C83.826 10.219 83.2383 9.82169 82.7431 9.32077C82.248 8.81985 81.8553 8.22509 81.5873 7.57046C81.3193 6.91583 81.1814 6.21417 81.1814 5.50557V4.36719H72.4286C70.712 4.36719 69.0657 5.05748 67.8519 6.28621C66.6381 7.51494 65.9562 9.18145 65.9562 10.9191V156.756C65.9562 158.494 66.6381 160.16 67.8519 161.389C69.0657 162.618 70.712 163.308 72.4286 163.308H130.923C132.64 163.308 134.286 162.618 135.5 161.389C136.714 160.16 137.396 158.494 137.396 156.756V10.9303C137.397 10.069 137.231 9.2158 136.906 8.41958C136.582 7.62337 136.105 6.89976 135.504 6.29017C134.903 5.68058 134.189 5.19696 133.403 4.867C132.617 4.53703 131.774 4.36719 130.923 4.36719Z" fill="white"/>
<path d="M104.18 5.00732H94.5154C94.0418 5.00732 93.6578 5.39598 93.6578 5.87541V6.47724C93.6578 6.95668 94.0418 7.34533 94.5154 7.34533H104.18C104.654 7.34533 105.038 6.95668 105.038 6.47724V5.87541C105.038 5.39598 104.654 5.00732 104.18 5.00732Z" fill="#E6E8EC"/>
<path d="M108.071 7.50392C108.795 7.50392 109.382 6.90949 109.382 6.17622C109.382 5.44295 108.795 4.84851 108.071 4.84851C107.346 4.84851 106.759 5.44295 106.759 6.17622C106.759 6.90949 107.346 7.50392 108.071 7.50392Z" fill="#E6E8EC"/>
<path d="M102.016 101.496C110.53 101.496 117.432 94.5093 117.432 85.8903C117.432 77.2713 110.53 70.2842 102.016 70.2842C93.5013 70.2842 86.599 77.2713 86.599 85.8903C86.599 94.5093 93.5013 101.496 102.016 101.496Z" fill="white"/>
<path d="M122.294 83.7108C122.294 87.8361 121.085 91.8688 118.821 95.2988C116.557 98.7288 113.338 101.402 109.573 102.981C105.808 104.559 101.665 104.972 97.6683 104.167C93.6713 103.362 89.9999 101.376 87.1183 98.4585C84.2368 95.5414 82.2745 91.8247 81.4795 87.7786C80.6846 83.7325 81.0928 79.5387 82.6525 75.7274C84.2121 71.9161 86.8532 68.6586 90.2418 66.3668C93.6303 64.075 97.6141 62.8518 101.689 62.8519C104.395 62.852 107.075 63.3916 109.575 64.4399C112.074 65.4882 114.346 67.0247 116.259 68.9616C118.172 70.8985 119.69 73.198 120.726 75.7286C121.761 78.2593 122.294 80.9716 122.294 83.7108V83.7108ZM99.3075 94.7514L114.592 79.279C114.716 79.1541 114.814 79.0058 114.881 78.8424C114.948 78.6791 114.982 78.504 114.982 78.3271C114.982 78.1503 114.948 77.9752 114.881 77.8118C114.814 77.6485 114.716 77.5001 114.592 77.3753L112.712 75.4854C112.588 75.3603 112.442 75.261 112.281 75.1933C112.12 75.1255 111.947 75.0906 111.773 75.0906C111.598 75.0906 111.425 75.1255 111.264 75.1933C111.103 75.261 110.957 75.3603 110.834 75.4854L98.3673 88.105L92.5466 82.1989C92.2967 81.9473 91.9587 81.8062 91.6063 81.8062C91.2539 81.8062 90.9158 81.9473 90.666 82.1989L88.7853 84.1138C88.5369 84.3668 88.3974 84.709 88.3974 85.0657C88.3974 85.4224 88.5369 85.7646 88.7853 86.0176L97.4274 94.7626C97.5507 94.8878 97.6973 94.9872 97.8586 95.055C98.02 95.1228 98.193 95.1577 98.3677 95.1577C98.5424 95.1577 98.7154 95.1228 98.8767 95.055C99.0381 94.9872 99.1846 94.8878 99.308 94.7626L99.3075 94.7514Z" fill="#AD5EEC"/>
<path d="M63.3224 33.0542H63.109C62.8288 33.0542 62.6016 33.2842 62.6016 33.5679V38.555C62.6016 38.8387 62.8288 39.0687 63.109 39.0687H63.3224C63.6026 39.0687 63.8298 38.8387 63.8298 38.555V33.5679C63.8298 33.2842 63.6026 33.0542 63.3224 33.0542Z" fill="#3F3D56"/>
<path d="M63.4336 44.0673H63.0644C62.7842 44.0673 62.557 44.2972 62.557 44.5809V54.0214C62.557 54.3051 62.7842 54.535 63.0644 54.535H63.4336C63.7139 54.535 63.9411 54.3051 63.9411 54.0214V44.5809C63.9411 44.2972 63.7139 44.0673 63.4336 44.0673Z" fill="#3F3D56"/>
<path d="M63.3891 58.1979H63.0867C62.8064 58.1979 62.5792 58.4279 62.5792 58.7116V68.2419C62.5792 68.5256 62.8064 68.7556 63.0867 68.7556H63.3891C63.6694 68.7556 63.8966 68.5256 63.8966 68.2419V58.7116C63.8966 58.4279 63.6694 58.1979 63.3891 58.1979Z" fill="#3F3D56"/>
<path d="M46.2548 86.116C46.29 86.15 46.3352 86.1717 46.3838 86.1779C46.4323 86.1842 46.4816 86.1746 46.5242 86.1505C46.4332 86.1519 46.3425 86.1403 46.2548 86.116Z" fill="url(#paint0_linear)"/>
<path d="M56.4399 90.149L56.174 91.6152L55.9688 92.7367L55.5956 94.7883L51.9773 97.3526C51.9773 97.3526 51.6511 97.07 51.1131 96.6245C49.6302 95.3885 46.5135 92.8718 44.2249 91.5207C43.6363 91.1409 42.9993 90.8438 42.3317 90.6376L56.4399 90.149Z" fill="#FEB9B9"/>
<path d="M53.7856 91.2399C53.7856 91.2399 58.0044 91.9729 58.2515 90.1491C58.4986 88.3252 56.0799 87.3396 54.0302 87.2169C51.9805 87.0942 39.6782 87.9499 39.6782 87.9499C39.6782 87.9499 37.5082 90.8796 45.3454 91.37L53.7856 91.2399Z" fill="#3F3D56"/>
<path d="M63.0117 31.0552H40.9413V57.5474H63.0117V31.0552Z" fill="#2F2E41"/>
<path opacity="0.1" d="M63.0117 31.1754H40.9413V57.6676H63.0117V31.1754Z" fill="black"/>
<path d="M15.0747 76.4062C14.7113 76.4988 14.2469 76.8548 13.7304 77.3694C11.506 79.5986 8.32023 84.83 8.32023 84.83C4.24718 79.9187 8.75432 76.0383 10.6755 74.7048C11.1426 74.382 11.4564 74.2043 11.4564 74.2043L15.0747 76.4062Z" fill="#FEB9B9"/>
<path d="M56.1976 39.4163C56.1976 39.4163 57.2834 47.107 61.0219 48.9383C64.7603 50.7696 56.1976 54.1922 56.1976 54.1922L44.5001 49.7939C44.5001 49.7939 51.1336 47.5956 49.8063 41.1248L56.1976 39.4163Z" fill="#FEB9B9"/>
<path d="M43.6551 85.6855L43.3905 87.1467L43.1756 88.2725L42.8024 90.3241L39.1841 92.886C39.1841 92.886 38.8579 92.6058 38.3199 92.1605C36.837 90.9246 33.7206 88.4078 31.4284 87.0568C30.84 86.6764 30.203 86.3793 29.5352 86.1736L43.6551 85.6855Z" fill="#FEB9B9"/>
<path d="M40.5244 87.4873C40.5244 87.4873 44.3108 87.5144 44.5386 85.6854C44.7663 83.8563 42.4751 82.8759 40.5244 82.7532C38.5738 82.6305 26.7218 83.5432 26.7218 83.5432C26.7218 83.5432 25.0404 86.9976 32.4953 87.487L40.5244 87.4873Z" fill="#2F2E41"/>
<path d="M67.0723 116.221C66.9067 116.138 66.741 116.053 66.5779 115.971L66.1329 115.403L60.2978 107.912V108.042C60.2584 109.293 59.8382 119.206 56.5609 120.121C53.0638 121.097 48.8449 121.342 46.9217 114.75C44.9985 108.158 41.4846 93.7517 37.876 92.8962L43.244 88.4405C43.244 88.4405 46.7981 92.6486 48.2462 96.6765C48.1919 96.4264 45.7376 84.8178 47.7518 82.7638H65.3627C65.3627 82.7638 68.0814 90.6022 69.9447 94.485C71.3955 97.4998 73.5728 104.628 74.9748 109.451C76.3627 114.214 71.4863 118.42 67.0723 116.221Z" fill="#3F3D56"/>
<path opacity="0.1" d="M66.5709 84.9525C63.8522 86.5812 51.9174 85.9181 48.0347 85.653L46.9768 85.5754C46.8631 85.5754 46.9941 85.5103 46.9941 85.5103L47.1029 84.402L49.9971 76.9564L65.4933 67.8596C65.1793 68.8179 65.0756 70.284 65.1005 71.9627C65.172 77.3568 66.5709 84.9525 66.5709 84.9525Z" fill="black"/>
<path d="M66.5701 84.5848C63.8515 86.2136 51.9166 85.5505 48.0339 85.2854L46.976 85.2102L46.8005 85.1952L46.9933 85.1452L47.9473 84.8951L49.9961 76.5939L65.4923 67.4996C65.1786 68.4579 65.0746 69.924 65.0995 71.6028C65.1712 76.9916 66.5701 84.5848 66.5701 84.5848Z" fill="#EFEFEF"/>
<path opacity="0.1" d="M65.0906 71.5976C61.9393 72.3331 55.0044 74.4912 52.34 79.7036C50.5631 83.1737 49.0678 84.6622 48.0248 85.2851L46.9669 85.21C46.9738 85.1887 46.9796 85.1669 46.9842 85.145L47.9381 84.8948L49.987 76.5937L65.4832 67.4996C65.173 68.4527 65.0658 69.9188 65.0906 71.5976Z" fill="black"/>
<path opacity="0.1" d="M11.4568 74.2096L15.0751 76.4063C14.7117 76.4989 14.2473 76.8549 13.7307 77.3695C13.4292 76.4787 11.537 75.2354 10.6759 74.7051C11.1428 74.3872 11.4568 74.2096 11.4568 74.2096Z" fill="black"/>
<path opacity="0.1" d="M46.3215 85.3526C46.2819 85.3732 46.2368 85.381 46.1925 85.3748C46.1482 85.3686 46.1069 85.3487 46.0745 85.318C46.1547 85.3415 46.2379 85.3531 46.3215 85.3526Z" fill="black"/>
<path d="M54.51 48.4506C54.51 48.4506 51.2526 48.8158 48.9616 46.3742C48.9616 46.3742 39.3224 49.1837 36.0579 55.5308C32.7935 61.878 10.6014 74.3322 10.6014 74.3322C10.6014 74.3322 14.462 76.5289 14.0986 77.6272L28.6927 69.0809C28.6927 69.0809 33.8828 65.2981 35.3238 64.4425C36.7648 63.587 44.7328 58.3381 46.4208 72.6212C48.1089 86.9043 46.4208 85.1955 46.4208 85.1955C46.4208 85.1955 48.8331 86.0512 52.3302 79.2135C55.8273 72.3758 66.6797 70.7897 66.6797 70.7897L67.2827 63.5892C67.2827 63.5892 69.4354 58.8156 67.777 56.8343C67.2746 56.2476 66.9404 55.5329 66.8107 54.7677C66.5363 52.9389 66.8107 49.8916 70.6513 47.3598C76.5606 43.4518 78.8517 40.2796 78.8517 40.2796C78.8517 40.2796 78.9726 37.958 75.3545 36.8595C71.7364 35.761 57.0235 29.7793 57.0235 29.7793L56.5291 31.8558L68.1378 40.1495C68.1378 40.1495 62.3496 44.9029 57.7576 44.7878C57.7574 44.7878 58.6101 48.3279 54.51 48.4506Z" fill="#AD5EEC"/>
<path opacity="0.1" d="M56.7434 42.7639C56.4582 41.7852 56.2353 40.7891 56.0762 39.7816L49.6849 41.4909C49.9666 42.726 49.9163 44.0149 49.5391 45.2237C50.8458 45.5766 52.2263 45.5315 53.5078 45.094C54.7893 44.6564 55.9148 43.8459 56.7434 42.7639Z" fill="black"/>
<path d="M51.4351 45.0934C55.2311 45.0934 58.3083 41.9783 58.3083 38.1357C58.3083 34.2931 55.2311 31.178 51.4351 31.178C47.639 31.178 44.5618 34.2931 44.5618 38.1357C44.5618 41.9783 47.639 45.0934 51.4351 45.0934Z" fill="#FEB9B9"/>
<path opacity="0.1" d="M58.911 94.1696C58.911 94.1696 62.8901 102.106 61.684 104.545L58.911 94.1696Z" fill="black"/>
<path d="M55.0905 22.066C56.9984 22.2863 58.8101 23.1142 60.6886 23.5671C61.158 23.7148 61.6578 23.7338 62.1369 23.6221C62.8659 23.3944 63.4591 22.6214 64.2154 22.6439C64.6807 22.6589 65.0927 22.9792 65.4758 23.2867C66.0901 23.7627 66.6684 24.2846 67.2058 24.8479C68.5007 26.2714 69.304 28.188 70.4853 29.7366C71.6666 31.2853 73.3513 33.1013 75.0294 32.3911C73.8878 36.8944 70.3271 39.7116 66.2815 39.992C64.6677 40.1041 63.0142 39.7643 61.4522 40.2421C61.0631 40.4035 60.6523 40.5047 60.2334 40.5422C59.3338 40.5422 58.6096 39.7066 58.0485 38.8935C56.7336 36.9821 55.6933 34.813 54.2128 33.0692C53.7184 32.4914 53.1476 31.9434 52.4556 31.8384C51.7636 31.7334 51.1285 32.0686 50.5131 32.3913C49.4974 32.9243 48.4594 33.4746 47.671 34.3929C46.8826 35.3112 46.3858 36.667 46.712 37.8955C46.8875 38.5611 47.2881 39.1616 47.2952 39.8569C47.3101 40.9677 46.3413 41.7784 46.1509 42.8591C46.1079 43.3131 46.0923 43.7693 46.1039 44.2252C46.02 45.7056 45.0625 46.9169 44.0653 47.8503C43.6749 48.2105 43.2454 48.6008 43.1311 49.1587C43.0544 49.5414 43.1311 49.9438 43.0817 50.3321C42.9359 51.2928 41.9892 51.7807 41.1514 51.9059C40.1725 52.0526 39.1726 51.9326 38.2548 51.5582C39.4263 50.9974 40.148 49.4016 39.8762 47.973C39.503 45.9914 37.5357 44.5679 37.7046 42.5516C37.797 41.9329 37.9803 41.3317 38.2484 40.7679C38.677 39.6782 38.9886 38.5451 39.1777 37.3879C39.3259 36.4947 39.3977 35.5465 39.1208 34.6935C38.8737 33.9178 38.3572 33.3 37.9195 32.6444C37.3265 31.7524 36.8582 30.7816 36.5281 29.7597C36.4085 29.4566 36.3629 29.1287 36.3952 28.8039C36.4943 28.4203 36.7054 28.0759 37.0008 27.8156C38.076 26.6716 39.2251 25.4839 40.6661 25.1562C41.3536 25.0406 42.0529 25.0137 42.7471 25.0761C43.9544 25.1144 45.1629 25.0625 46.3628 24.9208C47.3513 24.8033 49.0218 24.8183 49.8599 24.1703C50.6408 23.5647 51.0809 22.8042 52.0421 22.4191C53.0156 22.0538 54.0621 21.9327 55.0919 22.0662L55.0905 22.066Z" fill="#2F2E41"/>
<path d="M182.804 167.247C188.31 167.247 192.774 166.483 192.774 165.54C192.774 164.598 188.31 163.833 182.804 163.833C177.297 163.833 172.833 164.598 172.833 165.54C172.833 166.483 177.297 167.247 182.804 167.247Z" fill="#AD5EEC"/>
<path d="M186.927 162.749C187.382 162.373 187.713 161.866 187.877 161.296C188.001 160.721 187.758 160.04 187.212 159.817C186.602 159.581 185.949 160.011 185.457 160.442C184.964 160.874 184.395 161.368 183.748 161.275C184.081 160.971 184.331 160.584 184.472 160.152C184.614 159.721 184.642 159.259 184.555 158.813C184.526 158.628 184.448 158.455 184.329 158.311C183.992 157.945 183.377 158.1 182.973 158.392C181.684 159.308 181.324 161.083 181.317 162.676C181.185 162.101 181.297 161.501 181.292 160.919C181.287 160.337 181.131 159.663 180.637 159.355C180.333 159.19 179.991 159.108 179.645 159.119C179.065 159.097 178.42 159.157 178.024 159.586C177.528 160.118 177.662 161.012 178.088 161.594C178.515 162.176 179.167 162.55 179.767 162.954C180.247 163.244 180.656 163.64 180.964 164.112C181.001 164.178 181.03 164.248 181.052 164.32H184.675C185.492 163.902 186.249 163.373 186.927 162.75L186.927 162.749Z" fill="white"/>
<path d="M47.2459 168C50.8799 168 53.8258 167.496 53.8258 166.874C53.8258 166.251 50.8799 165.747 47.2459 165.747C43.6119 165.747 40.666 166.251 40.666 166.874C40.666 167.496 43.6119 168 47.2459 168Z" fill="#EFEFEF"/>
<path d="M49.9673 165.032C50.2671 164.783 50.4856 164.449 50.594 164.072C50.6417 163.884 50.6242 163.684 50.5444 163.506C50.4647 163.329 50.3274 163.184 50.1554 163.097C49.7528 162.941 49.3225 163.224 48.9969 163.509C48.6714 163.794 48.2965 164.12 47.8695 164.059C48.0893 163.858 48.2538 163.602 48.347 163.318C48.4402 163.033 48.4589 162.729 48.4013 162.434C48.3821 162.312 48.3307 162.198 48.2524 162.103C48.0308 161.861 47.624 161.964 47.3574 162.156C46.5065 162.762 46.2692 163.932 46.2643 164.984C46.1777 164.604 46.2512 164.208 46.2479 163.824C46.2446 163.44 46.1415 162.996 45.8158 162.792C45.6149 162.683 45.3891 162.629 45.1612 162.637C44.7783 162.622 44.3529 162.661 44.091 162.945C43.7637 163.296 43.8521 163.886 44.1335 164.27C44.4149 164.654 44.8452 164.901 45.2414 165.167C45.5581 165.358 45.8283 165.619 46.0319 165.93C46.0564 165.973 46.0761 166.02 46.0908 166.067H48.4815C49.0206 165.791 49.5204 165.442 49.9673 165.03V165.032Z" fill="#EFEFEF"/>
<path d="M10.0339 168C13.6679 168 16.6138 167.496 16.6138 166.874C16.6138 166.251 13.6679 165.747 10.0339 165.747C6.3999 165.747 3.45398 166.251 3.45398 166.874C3.45398 167.496 6.3999 168 10.0339 168Z" fill="#EFEFEF"/>
<path d="M12.7549 165.032C13.0547 164.783 13.2732 164.449 13.3816 164.072C13.4293 163.884 13.4118 163.684 13.332 163.506C13.2523 163.329 13.115 163.184 12.943 163.097C12.5404 162.941 12.1101 163.224 11.7845 163.509C11.459 163.794 11.0841 164.12 10.6571 164.059C10.8769 163.858 11.0414 163.602 11.1346 163.318C11.2278 163.033 11.2465 162.729 11.1889 162.434C11.1697 162.312 11.1183 162.198 11.04 162.103C10.8184 161.861 10.4116 161.964 10.145 162.156C9.2941 162.762 9.05678 163.932 9.0519 164.984C8.96526 164.604 9.03882 164.208 9.0355 163.824C9.03217 163.44 8.92915 162.996 8.60341 162.792C8.40249 162.683 8.17673 162.629 7.94882 162.637C7.56591 162.622 7.14047 162.661 6.87855 162.945C6.55126 163.296 6.63967 163.886 6.92109 164.27C7.20251 164.654 7.63283 164.901 8.02904 165.167C8.34574 165.358 8.61589 165.619 8.81945 165.93C8.84397 165.973 8.86373 166.02 8.87839 166.067H11.2691C11.8082 165.791 12.308 165.442 12.7549 165.03V165.032Z" fill="#EFEFEF"/>
<path d="M200 167.357H0V167.765H200V167.357Z" fill="#2F2E41"/>
<path d="M190.237 11.3332C190.237 11.3332 169.359 10.058 171.819 24.8675C171.819 24.8675 171.323 27.4855 173.674 28.6728C173.674 28.6728 173.711 27.5759 175.816 27.9498C176.565 28.0756 177.327 28.1126 178.085 28.0602C179.107 27.9921 180.08 27.5895 180.857 26.913C180.857 26.913 186.726 24.4582 189.007 14.7492C189.007 14.7492 190.696 12.6308 190.629 12.086L187.106 13.6095C187.106 13.6095 188.311 16.1824 187.354 18.3201C187.354 18.3201 187.24 13.7015 186.563 13.802C186.426 13.8222 184.733 14.6929 184.733 14.6929C184.733 14.6929 186.803 19.1734 185.241 22.4317C185.241 22.4317 185.834 16.9096 184.085 15.0169L181.606 16.4827C181.606 16.4827 184.026 21.1114 182.385 24.8891C182.385 24.8891 182.806 19.0957 181.083 16.8392L178.836 18.6137C178.836 18.6137 181.11 23.1744 179.724 26.3076C179.724 26.3076 179.543 19.5655 178.35 19.056C178.35 19.056 176.384 20.8131 176.084 21.5309C176.084 21.5309 177.641 24.8442 176.674 26.5912C176.674 26.5912 176.081 22.0982 175.595 22.0731C175.595 22.0731 173.636 25.0499 173.433 27.0932C173.433 27.0932 173.517 24.0584 175.121 21.792C175.121 21.792 173.227 22.1208 172.121 23.3622C172.121 23.3622 172.426 21.2588 175.605 21.0731C175.605 21.0731 177.224 18.814 177.655 18.6785C177.655 18.6785 174.496 18.4094 172.58 19.2709C172.58 19.2709 174.266 17.2855 178.236 18.1891L180.455 16.3542C180.455 16.3542 176.294 15.7793 174.529 16.4145C174.529 16.4145 176.56 14.6575 181.053 15.9377L183.468 14.4767C183.468 14.4767 179.92 13.7035 177.807 13.9747C177.807 13.9747 180.039 12.7573 184.177 14.0777L185.913 13.2926C185.913 13.2926 183.314 12.7755 182.553 12.6927C181.791 12.61 181.752 12.3991 181.752 12.3991C183.398 12.1213 185.088 12.3116 186.634 12.9489C186.634 12.9489 190.299 11.5667 190.237 11.3332Z" fill="white"/>
<path d="M161.631 3.49271C161.631 3.49271 152.209 2.9178 153.309 9.60971C153.309 9.60971 153.088 10.7921 154.147 11.3291C154.147 11.3291 154.165 10.8271 155.117 11.0002C155.455 11.0579 155.799 11.0747 156.141 11.0505C156.603 11.0195 157.043 10.8361 157.393 10.5283C157.393 10.5283 160.046 9.41882 161.078 5.03127C161.078 5.03127 161.839 4.07502 161.809 3.82895L160.217 4.51669C160.217 4.51669 160.76 5.67886 160.334 6.6452C160.334 6.6452 160.282 4.55909 159.977 4.60709C159.915 4.60709 159.148 5.01086 159.148 5.01086C159.148 5.01086 160.086 7.0364 159.379 8.50744C159.379 8.50744 159.647 6.01241 158.856 5.15643L157.735 5.82937C157.735 5.82937 158.829 7.92019 158.087 9.62721C158.087 9.62721 158.278 7.00926 157.499 5.9902L156.485 6.79347C156.485 6.79347 157.512 8.85422 156.887 10.2703C156.887 10.2703 156.803 7.22302 156.265 6.99221C156.265 6.99221 155.377 7.78538 155.24 8.11175C155.24 8.11175 155.945 9.61778 155.508 10.3984C155.508 10.3984 155.24 8.36769 155.012 8.35715C155.012 8.35715 154.127 9.70302 154.035 10.6162C154.08 9.76432 154.343 8.93892 154.799 8.22166C154.288 8.31962 153.817 8.56654 153.443 8.93206C153.443 8.93206 153.582 7.98075 155.017 7.89798C155.017 7.89798 155.761 6.87646 155.945 6.81366C155.945 6.81366 154.517 6.6932 153.651 7.08283C153.651 7.08283 154.412 6.1867 156.205 6.59338L157.197 5.76499C157.197 5.76499 155.316 5.51152 154.518 5.79101C154.518 5.79101 155.435 4.99784 157.466 5.57522L158.557 4.91507C158.557 4.91507 156.953 4.56627 155.998 4.69076C155.998 4.69076 157.008 4.14097 158.877 4.73562L159.658 4.38166C159.658 4.38166 158.484 4.14815 158.138 4.11046C157.793 4.07278 157.776 3.97745 157.776 3.97745C158.521 3.8521 159.285 3.93901 159.983 4.22845C159.983 4.22845 161.66 3.59724 161.631 3.49271Z" fill="white"/>
<path d="M16.3247 105.653C16.3247 105.653 6.9023 105.078 8.00316 111.77C8.00316 111.77 7.78156 112.952 8.84121 113.489C8.84121 113.489 8.85849 112.987 9.81067 113.16C10.1488 113.218 10.4925 113.235 10.8346 113.211C11.2972 113.18 11.737 112.996 12.0868 112.688C12.0868 112.688 14.7399 111.579 15.7714 107.191C15.7714 107.191 16.5326 106.235 16.5027 105.989L14.9108 106.677C14.9108 106.677 15.4539 107.839 15.0273 108.805C15.0273 108.805 14.9753 106.719 14.6704 106.767C14.6083 106.767 13.8421 107.171 13.8421 107.171C13.8421 107.171 14.7794 109.197 14.0727 110.668C14.0727 110.668 14.3404 108.173 13.5496 107.317L12.4288 107.99C12.4288 107.99 13.5223 110.08 12.7809 111.787C12.7809 111.787 12.9719 109.169 12.1932 108.15L11.179 108.954C11.179 108.954 12.2056 111.014 11.5807 112.43C11.5807 112.43 11.4965 109.383 10.9583 109.152C10.9583 109.152 10.0706 109.946 9.93409 110.272C9.93409 110.272 10.6383 111.778 10.202 112.559C10.202 112.559 9.9341 110.528 9.70608 110.517C9.70608 110.517 8.82083 111.863 8.72909 112.776C8.77342 111.924 9.0367 111.099 9.4929 110.382C8.98206 110.48 8.51063 110.727 8.13655 111.092C8.13655 111.092 8.27549 110.141 9.71118 110.058C9.71118 110.058 10.4551 109.037 10.6385 108.974C10.6385 108.974 9.21038 108.853 8.34485 109.243C8.34485 109.243 9.10601 108.347 10.8989 108.754L11.8907 107.925C11.8907 107.925 10.0094 107.672 9.21171 107.951C9.21171 107.951 10.1291 107.158 12.16 107.735L13.2511 107.075C13.2511 107.075 11.6468 106.726 10.6922 106.851C10.6922 106.851 11.7013 106.301 13.571 106.896L14.3522 106.542C14.3522 106.542 13.1777 106.308 12.832 106.271C12.4864 106.233 12.47 106.138 12.47 106.138C13.2143 106.012 13.9785 106.099 14.6768 106.389C14.6768 106.389 16.3538 105.757 16.3247 105.653Z" fill="#3F3D56"/>
</g>
<defs>
<linearGradient id="paint0_linear" x1="46.3908" y1="86.1802" x2="46.3908" y2="86.116" gradientUnits="userSpaceOnUse">
<stop stop-color="#808080" stop-opacity="0.251"/>
<stop offset="0.54" stop-color="#808080" stop-opacity="0.122"/>
<stop offset="1" stop-color="#808080" stop-opacity="0.102"/>
</linearGradient>
<clipPath id="clip0">
<rect width="200" height="168" fill="white"/>
</clipPath>
</defs>
</svg>
