<svg width="16" height="16" viewBox="0 0 16 16" fill="none" xmlns="http://www.w3.org/2000/svg">
<circle cx="8" cy="8" r="8" fill="#67D4C7"/>
<path fill-rule="evenodd" clip-rule="evenodd" d="M10.237 5.76293C10.3915 5.91737 10.3915 6.16776 10.237 6.3222L6.32208 10.2371C6.16764 10.3916 5.91724 10.3916 5.7628 10.2371C5.60836 10.0827 5.60836 9.83231 5.7628 9.67787L9.67775 5.76292C9.83219 5.60848 10.0826 5.60848 10.237 5.76293Z" fill="white"/>
<path fill-rule="evenodd" clip-rule="evenodd" d="M5.7628 5.76293C5.91724 5.60848 6.16764 5.60848 6.32208 5.76292L10.237 9.67787C10.3915 9.83231 10.3915 10.0827 10.237 10.2371C10.0826 10.3916 9.83219 10.3916 9.67775 10.2371L5.7628 6.3222C5.60836 6.16776 5.60836 5.91737 5.7628 5.76293Z" fill="white"/>
</svg>
