<svg width="260" height="351" viewBox="0 0 260 351" fill="none" xmlns="http://www.w3.org/2000/svg">
<path d="M199.66 175.01C202.01 174.56 207.5 169.97 200.62 161.27C193.74 152.57 183.02 158.73 183.02 158.73C179.67 174.83 197.33 175.45 199.66 175.01Z" fill="#4B4B4B"/>
<path d="M231.66 175.37C234.5 176.5 238.7 175.52 240.37 172.86C243.45 167.97 240.57 161.31 238.69 159.31C238.04 158.62 236.08 158.36 234.7 158.97C229.21 161.42 229.34 174.45 231.66 175.37Z" fill="#4B4B4B"/>
<path d="M244.09 324.32C243.39 323.19 242.5 322.2 241.47 321.34C233.31 314.11 209.22 316.03 209.06 316.05C209.88 314.57 213.56 307.72 216.85 298.73C218.64 293.37 220.25 287.36 221.04 281.31L193.82 280.11C191.86 280 190.02 278.9 188.73 277.09C187.24 274.98 186.7 272.19 187.26 269.7L188.28 262.03C188.28 262.03 154.65 227.41 136.13 227.41C135.8 227.41 135.47 227.42 135.14 227.43C122.9 227.97 123.29 247.79 135.54 248.02C160.86 248.48 183.43 253.64 184.61 284.2C185.7 312.35 157.03 329.79 158.86 330C163.25 330.51 175.53 328.01 175.53 341.95C175.53 344.34 174.9 350.22 174.9 350.22H244.18C248.25 350.22 251.36 346.24 250.57 341.94C249.69 336.93 247.84 330.37 244.09 324.32Z" fill="#4B4B4B"/>
<path d="M246.7 192.03L209.52 192.19C207.27 192.03 205.29 193.75 204.7 196.39L195.69 236.13C200.52 237.93 211.94 244.86 210.13 254.57C208.32 264.27 203.81 271.61 190.27 263.3L189.09 270.51C188.22 274.4 190.68 278.43 194 278.56L221.81 279.76C221.82 279.68 226.47 279.83 230.08 279.82C232.97 279.81 235.57 277.8 236.39 274.81C236.39 274.79 236.4 274.78 236.4 274.76L240.82 255.1C239.01 255.1 230.96 251.8 231.79 242.48C232.69 232.35 242.62 233.75 245.33 234.72L251.48 200.04C252.32 196.22 249.96 192.26 246.7 192.03ZM214.06 199.81L210.94 215.4C210.62 217.01 209.14 218.32 207.65 218.32C206.16 218.32 205.2 217.01 205.53 215.4L208.65 199.81C208.97 198.2 210.45 196.89 211.94 196.89C213.43 196.89 214.38 198.19 214.06 199.81Z" fill="#4B4B4B"/>
<path d="M110.09 349.78C111.92 350.01 114.03 350.2 116.34 350.35C116.35 349.73 116 349.11 115.28 349C95.64 346.04 72.08 329.49 67.84 276.23C63.04 216.05 113.48 178.13 127.35 168.9C129.23 167.65 139.54 161.83 140.63 163.89L146.95 182.33C147.68 183.7 148.72 183.35 148.3 181.84C146.05 173.6 145.14 164.87 146.95 158.07C148.76 151.28 154.17 142.54 154.17 142.54C154.17 142.54 140.22 132.64 145.78 112.73C151.34 92.8199 157.32 92.9199 160.49 98.8699C162.69 103 168.56 109.65 172.61 114.88C175.57 118.69 180.27 120.37 184.75 119.19C191.06 117.52 200.92 116.16 213.75 118.29C213.75 118.29 221.16 95.3599 224.58 96.9399C230.9 99.8499 235.41 107.61 234.78 127.27C234.78 127.28 234.78 127.28 234.78 127.29C243.54 135.84 245.34 142.55 245.61 154.45C245.68 157.6 246.24 159.05 246.24 159.05C246.24 159.05 246.03 156.17 246.24 152.26C247.14 135.76 236.31 127.03 236.31 127.03C236.31 116.36 235.41 98.8899 225.48 95.9799C225.48 82.0299 166.41 10.0799 75.67 0.159864C64.41 -1.07014 55.33 9.90986 57.92 21.7499C64.22 50.5499 82.38 66.5399 48.17 115.24C-29.28 225.5 1.99 280.24 39.58 314.97C39.72 315.1 39.87 315.23 40.01 315.36C40.26 315.59 40.52 315.82 40.77 316.05C65.41 338.35 96.28 348.12 110.09 349.78Z" fill="#4B4B4B"/>
<path d="M248.18 174.85C248.18 174.85 258.78 184.02 259.2 194.82C259.62 205.62 256.23 213.82 251.57 218.61C251.57 218.61 268.95 195.82 248.18 174.85Z" fill="#4B4B4B"/>
</svg>
