<svg width="331" height="158" viewBox="0 0 331 158" fill="none" xmlns="http://www.w3.org/2000/svg">
<g opacity="0.9">
<path d="M0 112.699H77.2665V81.7245H243.438V112.699H330.263" stroke="#330066" stroke-width="2" stroke-miterlimit="10"/>
<path d="M141.044 81.185C142.123 80.8766 142.607 81.7135 142.839 82.3962C143.698 84.9178 145.603 85.7437 148.025 86.096C149.974 86.3713 151.857 87.043 153.784 87.4724C160.248 89.2122 166.711 88.5185 173.186 87.4945C174.243 87.3293 175.025 86.6576 175.862 86.074C176.302 85.7657 176.379 85.3472 176.104 84.8738C175.928 84.5654 175.741 84.2571 175.564 83.9488C174.717 82.4292 174.772 82.0549 176.148 81.0088C179.76 78.267 183.459 75.6463 187.071 72.9044C187.798 72.3539 189.13 72.1226 188.679 70.6912C187.996 68.5109 187.28 67.8613 185.519 67.7952C185.309 67.7842 185.111 67.7842 184.902 67.7732C183.878 67.7401 183.526 67.2997 183.911 66.2977C184.307 65.2516 184.759 64.2165 185.232 63.2035C185.673 62.2565 185.53 61.4967 185.045 60.6268C182.711 56.4866 179.165 53.965 174.694 52.5775C173.626 52.2472 172.988 52.6106 172.349 53.4144C168.792 57.852 164.718 61.75 160.027 64.9763C159.455 65.3727 158.937 65.9563 158.111 65.659C157.66 64.4257 158.673 63.9522 159.345 63.3026C159.851 63.1704 160.446 63.3026 160.809 62.785C161.888 61.783 163.056 60.8911 164.223 59.9992C166.832 58.0061 168.936 55.5176 170.863 52.9409C172.305 51.0139 173.77 50.4413 175.884 51.5535C177.095 51.9499 178.207 52.5775 179.363 53.1061C182.975 54.6256 184.913 57.7529 186.807 60.9241C187.104 61.4196 187.203 61.9812 187.005 62.5428C186.51 63.9302 185.893 65.2516 185.221 66.4628C186.355 66.5619 187.897 65.8792 188.591 67.6741C188.36 68.4669 188.976 68.9844 189.273 69.579C190.342 71.7923 190.364 71.7813 188.426 73.2017C184.902 75.8004 181.378 78.3881 177.745 81.0638C177.745 81.0638 175.553 81.8456 176.566 83.8717C178.615 85.6446 177.392 86.5365 175.917 87.2852C174.805 87.8468 175.014 88.8819 174.849 89.7958C174.375 88.8158 173.582 88.8929 172.668 89.036C169.552 89.5426 166.436 89.972 163.287 90.2032C158.299 90.5666 153.641 88.97 148.906 87.8138C148.168 87.6376 147.441 87.3954 146.693 87.2192C145.228 86.8888 145.085 86.9989 145.041 88.4524C145.019 89.1682 145.074 89.8729 145.008 90.5886C144.953 91.1172 145.063 91.7558 144.314 91.943C143.532 91.0291 143.808 89.9169 143.874 88.9039C143.995 87.043 143.323 85.5895 142.046 84.3342" fill="#010101"/>
<path d="M120.398 158C120.398 157.901 120.398 157.802 120.387 157.703C121.213 156.965 122.226 157.196 123.173 157.196C138.027 157.185 152.881 157.185 167.735 157.185C182.799 157.185 197.851 157.185 212.915 157.196C213.862 157.196 214.875 156.965 215.701 157.703C215.69 157.802 215.69 157.901 215.69 158C183.922 158 152.154 158 120.398 158Z" fill="#E6E6E6"/>
<path d="M80.2502 106.83C81.4835 105.553 82.4855 104.672 82.4305 102.8L80.2502 106.83Z" fill="#615E5E"/>
<path d="M83.1685 102.745C83.5098 103.031 83.7301 102.877 83.9283 102.723C86.3177 100.95 89.0155 99.7171 91.6692 98.4067C94.7964 96.8541 98.221 96.5127 101.612 96.1714C106.722 95.6539 111.82 95.5878 116.522 98.1865C119.924 100.069 122.963 102.448 126.003 104.87C129.746 107.854 131.354 111.94 132.819 116.201C133.38 117.732 133.38 117.732 134.867 117.005C135.252 116.818 135.604 116.454 136.1 116.686C136.166 116.818 136.199 116.961 136.199 117.104C136.045 117.71 135.549 118.007 135.043 118.194C133.931 118.623 133.523 119.416 133.688 120.55C134.03 124.845 132.752 128.809 131.112 132.685C130.936 133.103 130.77 133.533 130.407 133.852C129.724 134.315 129.053 133.962 128.392 133.775C127.764 133.599 127.17 133.324 126.498 133.412C125.111 133.136 123.756 132.795 122.578 131.969C122.149 131.573 121.609 131.43 121.08 131.242C115.872 129.503 110.664 127.774 105.455 126.034C104.927 125.858 104.398 125.66 103.815 125.759C101.216 125.054 98.6064 124.371 96.1949 123.127C94.8845 122.301 93.387 122.048 91.9115 121.696C89.533 121.255 87.2206 120.517 84.8532 120.033C82.1334 119.361 79.3916 118.8 76.7048 118.04C76.2093 117.897 75.7138 117.787 75.4165 117.313C76.0001 115.683 76.5947 114.054 77.1783 112.424C77.817 111.719 78.1583 110.861 78.4336 109.958C79.6779 108.317 80.0743 106.511 80.0413 104.43" fill="#615E5E"/>
<path d="M141.341 83.6075C141.815 83.6075 142.387 83.3762 142.684 84.0149C141.914 84.5765 141.011 84.3783 140.163 84.3783" fill="#615E5E"/>
<path d="M109.772 33.4729C110.246 33.7592 110.73 34.0345 111.204 34.3208C111.765 34.9044 112.283 34.1336 112.833 34.2877C115.047 34.552 116.478 33.605 117.766 31.7662C122.303 25.2695 127.06 18.9269 131.696 12.4963C131.993 12.0779 132.29 11.6705 132.797 11.4723C135.638 11.0869 139.767 13.7186 141.011 16.7137C142.09 19.3013 142.168 22.0321 142.09 24.774C141.914 25.6549 141.254 26.1614 140.582 26.6569C140.108 26.9542 139.701 27.3506 139.239 27.6699C137.719 28.8592 136.574 30.4338 134.955 31.5129C134.327 31.9313 133.722 32.3718 132.962 32.5259C129.251 34.9264 124.924 36.2037 121.422 38.9676C120.112 40.0026 118.791 41.0267 118.075 42.6013C116.588 43.4602 114.97 43.4602 113.34 43.295C112.261 43.1849 111.413 42.5683 110.873 41.6763C109.453 39.3419 109.001 36.7763 109.365 34.0785C109.387 33.8143 109.519 33.594 109.772 33.4729Z" fill="#D59368"/>
<path d="M188.58 67.6631C187.655 66.3417 186.224 66.9473 184.804 66.7161C185.387 65.3837 185.96 64.1174 186.499 62.8401C186.698 62.3556 186.973 61.9041 186.598 61.2875C184.682 58.1603 182.744 55.0661 179.254 53.4144C181.687 51.036 184.451 49.0429 187.006 46.8076C187.777 46.1359 188.536 45.4863 189.164 44.6714C189.516 44.2089 189.847 43.6033 190.618 43.8125C191.245 44.7595 191.917 45.6294 193.128 45.8827C193.591 45.9818 193.866 46.4112 194.163 46.7526C195.925 48.8117 198.05 50.3202 200.693 51.069C201.343 51.2562 202.345 51.3883 201.86 52.5555C197.533 57.6868 193.161 62.763 188.58 67.6631Z" fill="#D59368"/>
<path d="M201.882 52.5775C202.113 51.7957 201.452 51.7187 201.023 51.6086C197.918 50.7717 195.352 49.12 193.469 46.4993C193.183 46.1029 192.885 46.257 192.588 46.1469C191.487 45.7505 190.584 45.1559 190.518 43.8235C188.987 43.8786 187.457 44.275 185.926 43.8566C185.981 42.8435 186.774 42.8986 187.457 42.8325C188.646 42.7224 189.868 42.9867 191.036 42.6343C196.068 39.1988 198.138 33.5059 194.57 28.3967C193.81 26.8771 192.764 25.8531 190.892 26.1614C190.606 26.2054 190.287 26.1063 190.022 25.9411C189.879 25.831 189.857 25.6989 189.956 25.5447C190.21 25.5227 190.463 25.4897 190.716 25.4897C191.355 25.4897 192.016 25.6769 191.795 24.5427C191.674 23.9591 192.104 23.4416 192.918 23.4196C193.667 23.3975 194.416 23.1773 195.165 23.0452C195.682 23.4856 195.737 24.1133 195.858 24.7079C196.783 28.6609 198.083 32.4268 201.111 35.3558C202.003 36.2147 203.104 36.7763 204.051 37.5251C205.615 38.7583 206.969 40.2118 208.048 41.8966C208.378 42.4251 208.687 42.9647 209.446 42.8325C211.131 43.2399 211.23 43.1078 211.627 41.4121C211.924 40.1458 211.572 38.6592 212.794 37.6902C212.827 38.5491 212.805 39.43 212.915 40.2779C213.223 42.6123 212.629 44.3851 210.162 45.1229C209.634 45.288 209.413 45.7836 209.127 46.202C207.938 47.9748 206.694 49.7146 205.57 51.5315C204.932 52.5665 204.293 53.1722 203.038 52.5335C202.686 52.3463 202.245 52.2252 201.882 52.5775Z" fill="#232323"/>
<path d="M109.772 33.4729C109.585 35.4439 109.618 37.3929 110.245 39.3199C111.313 42.5572 112.866 43.5042 116.213 42.8105C116.819 42.6894 117.392 42.2489 118.052 42.5903C116.786 46.7856 114.584 50.2432 110.576 52.3463C109.695 52.8088 108.814 53.1171 107.834 52.6987C107.691 52.3023 107.625 51.8838 107.493 51.4874C107.107 49.6816 106.645 47.8977 106.358 46.0699C106.535 45.4532 106.391 44.8586 106.226 44.275C104.244 37.437 102.229 30.61 99.3111 24.0913C99.267 24.0032 99.201 23.9261 99.1239 23.86C98.7495 23.5407 98.4412 23.1002 97.8906 23.0232C97.8686 22.3735 98.3091 21.944 98.6614 21.4706C103.077 20.3364 104.288 20.909 106.667 24.9832C108.23 27.6259 109.276 30.4448 109.772 33.4729Z" fill="#353535"/>
<path d="M212.783 37.6682C212.199 39.1327 212.199 40.7073 211.869 42.2159C211.77 42.6673 212.034 43.4602 211.197 43.5152C210.492 43.5593 209.688 43.7685 209.281 42.8656C207.949 42.0837 207.442 40.6082 206.451 39.5291C205.515 38.4941 204.568 37.514 203.368 36.8424C200.45 35.2017 198.787 32.592 197.62 29.5969C197.202 28.5068 196.717 27.4387 196.42 26.3045C196.255 25.6769 195.902 25.2254 195.451 24.807C195.462 24.1903 194.944 23.6618 195.131 23.0121L195.109 23.0341C196.111 21.8449 197.301 21.911 198.644 22.3845C200.164 22.924 201.771 23.2324 203.291 23.7939C204.469 24.1243 205.427 24.8951 206.495 25.4456L206.484 25.4346C207.475 26.0402 208.18 27.0643 209.347 27.4167C209.589 27.5598 209.799 27.736 209.843 28.0443C210.58 29.0794 210.933 30.3567 211.847 31.2816C212.86 33.3187 212.507 35.543 212.783 37.6682Z" fill="#D9BF35"/>
<path d="M140.945 81.2951C140.725 80.2931 140.097 79.6654 139.657 78.9607C137.928 76.2079 137.719 73.5101 139.569 70.6692C141.76 67.3107 141.187 63.6329 140.439 60.0212C139.591 55.925 137.983 52.082 136.067 48.3272C136.166 48.2501 136.232 48.173 136.309 48.151C138.732 47.6665 138.732 47.6665 138.743 45.244C138.765 42.7444 138.798 40.2449 138.82 37.7453C139.007 37.6462 139.15 37.6902 139.26 37.8664C139.8 39.8705 139.404 41.9076 139.525 43.9337C139.536 44.1319 139.525 44.3411 139.525 44.5393C139.525 47.1049 139.525 47.1049 142.068 46.6645C142.267 46.6314 142.465 46.5874 142.663 46.5433C148.389 45.5743 154.082 44.3961 159.819 43.5152C160.766 43.5813 161.096 44.2089 161.239 45.0238C161.999 49.4724 162.803 53.9099 163.54 58.3585C163.75 59.6248 163.144 60.5057 162.406 61.3536C161.878 61.9592 161.173 62.4107 160.843 63.1815C160.545 63.7761 160.138 63.7981 159.642 63.4237C159.444 62.2785 160.325 61.6509 160.942 60.9792C161.977 59.856 162.186 58.6778 161.911 57.2023C161.261 53.6456 160.688 50.078 160.083 46.5103C159.83 45.0018 159.675 44.9027 158.167 45.189C151.901 46.3892 145.614 47.4243 139.349 48.5915C137.653 48.9108 137.631 48.9548 138.269 50.5074C139.756 54.0861 141.231 57.6758 141.727 61.5628C142.178 65.1305 142.322 68.6431 140.108 71.8584C138.49 74.2038 139.271 76.5052 140.681 78.7074C141.143 79.4342 142.002 80.0838 141.551 81.1519" fill="#1A0C28"/>
<path d="M189.945 25.5227C189.945 25.6108 189.934 25.6879 189.934 25.776C189.57 26.3706 188.965 26.4917 188.348 26.5247C183.162 26.734 177.997 27.2185 172.811 27.5047C170.378 27.6369 167.944 27.8901 165.5 27.9012C164.498 27.4937 163.363 27.1854 163.705 25.6879C165.026 27.5818 166.986 27.0092 168.748 26.8991C174.342 26.5688 179.935 26.1393 185.518 25.7429C186.784 25.6548 188.062 25.5337 189.328 25.4346C189.548 25.4566 189.747 25.4897 189.945 25.5227Z" fill="#4C4454"/>
<path d="M107.889 51.7847C108.296 52.1151 107.9 52.4014 107.834 52.6987C104.508 51.3553 103.958 50.5845 103.969 46.9838C103.969 45.5303 103.231 44.286 102.967 42.9206C103.088 42.8105 103.242 42.7665 103.407 42.8105C104.508 44.0658 104.96 45.6074 104.816 47.171C104.596 49.6375 105.741 51.0029 107.889 51.7847Z" fill="#555555"/>
<path d="M203.401 23.9701C201.947 23.5847 200.483 23.2324 199.04 22.8029C197.697 22.3955 196.376 21.9661 195.131 23.0342C195.968 21.7679 197.036 21.5366 198.49 22.0211C200.285 22.6267 202.201 22.924 203.874 23.882C203.742 24.0692 203.577 24.0912 203.401 23.9701Z" fill="#232323"/>
<path d="M103.275 42.9206H103.121H102.966C101.887 39.6282 100.731 36.3578 98.8372 33.4178C98.8702 33.3187 98.9032 33.2196 98.9363 33.1205C99.5199 32.9884 99.7731 33.4178 99.9933 33.8032C101.392 36.3468 102.614 38.9675 103.396 41.7644C103.506 42.1608 103.594 42.5682 103.275 42.9206Z" fill="#474747"/>
<path d="M138.721 36.501C138.898 34.4529 138.545 32.3718 139.03 30.3457C139.668 30.8852 139.437 31.7221 139.734 32.3828C139.933 33.6821 139.878 34.9815 139.834 36.2918C139.811 36.8424 139.933 37.5581 139.107 37.7233L138.975 37.7563L138.842 37.7453C138.798 37.3269 138.754 36.9084 138.721 36.501Z" fill="#74697F"/>
<path d="M116.324 29.674C117.92 27.1304 119.693 24.7079 121.51 22.3184C121.664 22.3515 121.752 22.4506 121.796 22.5937C121.334 24.4987 119.825 25.765 118.812 27.3176C118.218 28.2205 117.788 29.3436 116.676 29.8392C116.511 29.8722 116.401 29.8061 116.324 29.674Z" fill="#545454"/>
<path d="M112.833 34.4529C112.293 34.3868 111.688 35.1466 111.214 34.3208C112.525 34.2877 113.483 33.7482 114.187 32.592C114.815 31.5679 115.608 30.643 116.334 29.674C116.401 29.7401 116.467 29.7951 116.533 29.8502C116.268 31.601 114.242 34.1116 112.833 34.4529Z" fill="#56514E"/>
<path d="M124.097 18.4204C124.46 17.991 124.824 17.5505 125.176 17.1211C125.33 17.1651 125.429 17.2532 125.462 17.4074C124.626 19.4114 123.546 21.2393 121.719 22.5056C121.653 22.4396 121.575 22.3735 121.498 22.3184C122.368 21.0191 123.227 19.7198 124.097 18.4204Z" fill="#504F52"/>
<path d="M209.359 27.4277C207.982 27.3726 207.255 26.3816 206.496 25.4456C207.707 25.743 208.467 26.6789 209.359 27.4277Z" fill="#44402C"/>
<path d="M211.858 31.3037C210.658 30.5549 210.273 29.2996 209.854 28.0663C210.801 28.9693 211.374 30.1034 211.858 31.3037Z" fill="#443F24"/>
<path d="M203.401 23.9701C203.556 23.9481 203.721 23.9151 203.875 23.8931C204.899 24.1793 205.857 24.5647 206.507 25.4567C205.339 25.2474 204.459 24.4326 203.401 23.9701Z" fill="#44402C"/>
<path d="M130.176 133.852C132.048 129.569 133.59 125.208 133.348 120.429C134.185 121.519 134.977 121.211 136.024 120.583C138.776 118.932 141.463 117.192 144.084 115.32C147.211 113.085 148.907 110.035 149.678 106.346C150.393 102.943 150.58 99.4858 150.944 96.0503C151.032 95.2354 150.735 94.5527 150.349 93.892C150.36 93.5287 150.625 93.3305 150.856 93.1102C150.988 93.0111 151.131 92.9451 151.296 92.901C153.124 93.0992 154.996 93.1102 156.67 94.0352C158.74 94.7069 160.854 94.6739 162.968 94.3545C164.168 94.1783 165.347 93.892 166.569 93.837C168.584 93.5617 170.566 93.0552 172.614 93.0992C173.264 93.2534 173.253 93.7489 173.264 94.2774C173.286 95.5327 173.165 96.788 173.33 98.0323C173.374 98.3516 173.374 98.66 173.165 98.9352C172.978 100.466 172.471 101.952 172.702 103.527C172.152 107.579 171.006 111.455 169.08 115.078C168.309 117.17 166.459 118.293 164.84 119.559C157.176 125.517 148.863 130.494 140.56 135.482C137.642 137.244 134.768 139.094 131.685 140.569C131.454 140.679 131.057 140.602 131.024 140.954C131.002 141.197 131.344 141.252 131.498 141.417C132.412 142.188 133.524 142.397 134.647 142.463C142.234 142.925 149.777 143.795 157.374 144.126C165.622 144.478 173.858 145.051 182.117 145.37C187.865 145.59 193.635 145.656 199.372 146.174C200.671 146.284 202.058 146.416 203.116 145.326C203.897 144.963 204.536 145.205 204.943 145.888C206.011 147.704 206.243 149.686 205.868 151.746C205.78 152.219 205.428 152.527 204.998 152.726C204.14 152.957 203.281 153.111 202.499 152.483C202.345 152.384 202.642 152.109 202.433 152.131C199.669 152.45 196.905 152.34 194.141 152.175C191.785 151.801 189.417 152.087 187.05 151.999C186.29 151.966 185.541 152.021 184.782 151.955C184.594 151.944 184.418 151.911 184.242 151.856C181.181 151.569 178.131 151.613 175.07 151.845C174.541 151.933 174.024 151.933 173.605 151.525C173.33 151.338 173.022 151.382 172.713 151.382C162.671 151.415 152.629 151.393 142.586 151.393C142.179 151.393 141.771 151.338 141.397 151.569C138.875 152.704 136.2 153.133 133.458 153.243C130.958 153.232 128.459 153.188 125.959 153.276C124.285 153.375 122.7 152.913 121.29 152.098C118.582 150.523 116.302 148.486 114.915 145.59C114.915 145.436 114.937 145.282 114.992 145.139C116.126 143.333 116.875 141.34 117.8 139.424C117.998 139.016 118.163 138.466 118.648 138.433C119.253 138.389 119.396 139.027 119.628 139.457C120.189 140.481 120.63 141.56 121.257 142.54C121.345 142.639 121.434 142.738 121.533 142.826C122.975 142.705 124.076 141.802 125.276 141.153C125.387 141.065 125.497 140.987 125.618 140.921C126.719 140.338 126.278 139.732 125.651 139.116C124.715 137.992 123.867 136.814 123.25 135.482C122.898 134.502 123.085 134.028 124.23 134.447C124.363 134.502 124.484 134.579 124.605 134.656C125.155 135.085 125.783 135.372 126.4 135.68C126.521 135.746 126.642 135.812 126.752 135.889C127.336 136.363 128.029 136.649 128.69 136.968C128.811 137.023 128.932 137.1 129.042 137.167C129.714 137.585 129.78 137.156 129.824 136.638C129.912 135.691 129.56 134.711 130.176 133.852Z" fill="#D59368"/>
<path d="M173.737 151.305C174.112 151.657 174.552 151.503 174.971 151.448C178.131 151.481 181.291 151.228 184.44 151.58L184.407 151.569C186.048 151.922 187.711 151.657 189.362 151.724C190.926 151.779 192.49 151.624 194.031 151.944C196.366 152.142 198.711 151.966 201.045 152.043C201.53 152.054 202.07 151.845 202.51 152.252C203.303 152.626 204.129 152.45 204.943 152.406C205.263 152.406 205.406 152.626 205.494 152.88C205.538 154.025 206.375 153.981 207.124 153.871C211.286 153.276 215.371 154.289 219.5 154.476C219.996 154.498 220.525 154.509 220.888 154.95C219.148 155.864 217.419 156.778 215.68 157.692C183.912 157.692 152.144 157.692 120.377 157.692C116.952 157.108 114.496 154.994 112.349 152.472C111.204 151.118 110.125 149.664 109.266 148.123C108.638 146.989 108.11 147.132 107.152 147.572C103.078 149.422 98.9595 151.206 94.8522 152.99C94.4448 153.166 93.9823 153.342 93.5419 153.353C87.2324 153.452 80.9119 153.551 74.7456 151.856C72.9727 151.371 71.244 150.766 69.8125 149.543C68.414 148.343 68.1388 147.11 69.0637 145.491C69.6583 144.445 70.4511 143.52 71.3651 142.254C67.1918 144.258 63.6021 142.144 59.9023 141.406C56.4227 140.712 52.9652 139.842 49.5406 138.895C48.2743 138.543 47.3164 138.807 46.4685 139.611C44.7177 141.285 42.7466 142.111 40.2691 141.813C38.8596 141.648 37.3951 141.648 35.9857 141.802C32.0767 142.232 28.5641 141.23 25.2056 139.27C24.0054 138.565 23.686 138.103 24.7321 137.101C25.0514 136.792 25.4258 136.473 25.4258 135.955C26.1195 135.317 27.0996 134.865 26.9674 133.676C27.0996 133.412 27.1766 133.059 27.6061 133.247C27.8814 133.522 27.9254 133.874 27.9694 134.227C28.0135 134.579 28.0245 134.964 28.4429 135.107C28.9384 135.273 29.1807 134.953 29.4009 134.579C29.8634 133.786 30.1717 134.216 30.447 134.733C30.6892 135.185 30.8214 135.68 31.0526 136.132C31.9666 137.915 33.5412 138.708 35.4792 138.191C36.9657 137.794 38.4302 137.453 39.9828 137.673C41.0399 137.827 41.9098 137.387 42.3282 136.363C42.9008 134.986 43.9579 134.887 45.2242 135.052C47.2393 135.328 49.2764 135.559 51.2694 134.854C55.4537 135.427 59.5499 136.462 63.6682 137.365C66.0576 137.882 68.414 138.499 70.7705 139.149C71.244 139.303 71.8496 139.424 71.9046 139.996C72.0037 141.175 72.6975 140.91 73.3471 140.646C74.4262 140.206 75.4943 140.261 76.5844 140.602C77.0689 140.8 77.7076 140.767 77.8948 141.428C77.3993 142.408 76.3202 142.221 75.5274 142.595C74.9768 142.848 74.3712 142.981 73.8096 143.201C72.9177 143.465 73.0278 144.06 73.3141 144.72C73.6224 145.557 74.5253 146.009 74.7456 146.901C75.4172 148.178 76.4964 149.059 77.6415 149.874C78.5885 150.688 79.5685 150.523 80.6146 150.05C84.6668 148.2 88.9942 147.429 93.3767 146.846C93.4758 146.857 93.641 146.879 93.652 146.934C93.9383 149.114 95.8653 148.673 97.1977 149.092C98.0786 149.367 98.2548 148.486 98.486 147.903C98.9264 146.79 99.3559 145.7 100.677 145.348C101.668 144.985 102.483 144.478 102.802 143.366C103.078 142.408 103.815 142.243 104.619 142.617C107.086 143.795 109.255 143.058 111.336 141.659C111.678 141.472 112.019 141.307 112.426 141.362C113.759 142.485 114.54 143.961 115.146 145.557C117.657 149.422 120.74 152.483 125.618 153.023C127.776 152.891 129.945 153.012 132.115 152.968C132.665 152.957 133.227 153.078 133.755 152.814C136.332 152.737 138.809 152.197 141.221 151.316C141.529 151.052 141.904 151.14 142.245 151.14C152.408 151.14 162.572 151.14 172.746 151.14C173.066 151.118 173.44 151.019 173.737 151.305Z" fill="#BEBEBE"/>
<path d="M294.597 132.916C297.416 133.698 300.235 134.469 303.054 135.262C304.661 135.713 306.269 136.187 307.877 136.66C307.778 137.574 307.029 137.607 306.401 137.607C303.109 137.651 299.827 137.706 296.535 137.453C294.685 137.31 292.802 137.034 290.985 137.761C290.886 137.783 290.776 137.827 290.688 137.805C286.405 136.693 282.297 138.092 278.146 138.719C275.558 139.105 273.004 139.259 270.394 138.983C267.256 138.653 264.085 138.796 260.924 138.675C256.861 138.521 252.776 138.378 248.713 138.246C241.027 137.992 233.341 137.596 225.666 137.475C219.357 137.376 213.168 136.594 206.969 135.658C206.033 135.515 205.141 135.713 204.249 135.933C203.258 136.176 202.278 136.495 201.243 136.33C199.074 136.021 196.893 135.889 194.713 135.845C191.707 135.779 188.701 135.867 185.706 135.801C184.858 135.779 183.79 135.988 183.504 134.711C186.389 132.949 189.604 132.079 192.83 131.242C197.686 129.987 202.608 129.216 207.641 129.613C208.147 129.855 208.235 130.406 208.477 130.835C210.228 133.907 213.631 134.315 216.064 131.727C216.373 131.397 216.604 130.978 217.121 130.934C223.067 132.531 229.19 131.947 235.224 132.189C248.471 132.729 261.728 133.004 274.986 133.434C277.144 133.5 279.225 133.423 281.306 132.74C283.288 132.09 285.392 131.87 287.473 131.727C287.935 131.606 288.243 131.914 288.541 132.167C290.071 133.5 291.745 133.775 293.606 132.949C293.925 132.817 294.256 132.619 294.597 132.916Z" fill="#01E276"/>
<path d="M303.219 141.758C304.298 143.245 305.906 144.192 307.392 145.788C303.781 144.974 300.543 144.236 297.295 143.509C294.322 142.848 291.349 142.199 288.387 141.549C287.407 141.329 286.46 141.714 285.535 141.879C280.877 142.672 276.219 143.278 271.507 143.685C267.223 144.049 262.951 143.994 258.678 143.872C253.305 143.729 247.953 143.069 242.602 142.474C238.616 142.034 234.619 141.736 230.611 141.494C228.078 141.34 225.545 140.998 222.991 141.164C221.416 140.074 220.084 141.527 218.619 141.582C213.697 142.232 208.753 141.868 203.82 141.934C201.728 141.956 199.647 141.979 197.588 142.408C196.354 142.661 195.154 142.507 193.998 142.023C193.37 141.758 192.776 141.45 192.787 140.635C192.963 139.864 193.623 139.655 194.24 139.424C197.786 138.091 201.442 137.145 205.119 136.297C205.879 136.12 206.639 136.187 207.399 136.308C213.147 137.2 218.872 138.025 224.73 138.047C230.588 138.058 236.446 138.4 242.305 138.609C248.372 138.829 254.439 138.906 260.484 139.259C264.349 139.479 268.236 139.226 272.101 139.743C274.127 140.007 276.197 139.798 278.179 139.303C283.476 137.981 288.75 137.981 294.058 139.292C296.48 139.886 298.958 140.261 301.402 140.8C302.107 140.932 302.878 140.965 303.219 141.758Z" fill="#BEBEBE"/>
<path d="M131.597 140.239C135.616 138.158 139.448 135.757 143.302 133.401C150.635 128.93 157.969 124.437 164.785 119.174C166.359 117.952 167.78 116.586 169.068 115.078C170.114 117.17 170.555 119.405 170.312 121.718C170.07 124.074 168.716 125.847 166.69 126.882C157.088 131.782 147.387 136.451 137.377 140.481C136.992 140.635 136.596 140.701 136.364 141.087C134.768 141.714 133.149 141.285 131.552 141.098C130.87 140.999 130.991 140.492 131.597 140.239Z" fill="#BEBEBE"/>
<path d="M219.147 141.175C219.654 140.965 220.182 140.789 220.667 140.536C221.658 140.007 222.451 140.107 223.001 141.164C224.862 144.236 226.657 147.352 228.606 150.369C229.201 151.283 229.003 151.713 228.287 152.34C226.162 154.201 223.75 155.17 220.898 154.961C217.397 154.664 213.895 154.41 210.404 154.058C208.973 153.915 207.574 154.245 206.154 154.256C204.734 154.278 204.723 153.783 205.295 152.792C205.802 152.704 206.088 153.21 206.55 153.254C207.299 153.331 207.949 153.276 208.4 152.538C209.579 150.611 209.369 147.209 207.96 145.502C207.266 144.676 206.506 144.093 205.328 144.478C204.998 144.588 204.601 144.687 204.524 144.137C205.328 143.069 206.65 142.771 207.773 143.685C208.819 144.544 209.876 144.61 211.032 144.302C212.265 143.972 213.466 144.247 214.644 144.456C215.767 144.654 216.472 144.401 216.923 143.311C217.342 142.32 218.057 141.549 219.147 141.175Z" fill="#232323"/>
<path d="M303.219 141.758C299.321 140.635 295.236 140.294 291.338 139.27C286.812 138.08 282.507 139.038 278.136 139.798C275.57 140.25 273.004 140.492 270.417 139.985C270.218 139.941 270.009 139.941 269.811 139.952C265.065 140.14 260.341 139.688 255.606 139.578C249.044 139.435 242.481 139.171 235.929 138.961C230.181 138.774 224.433 138.609 218.696 138.334C214.82 138.147 210.977 137.288 207.112 136.737C206.661 136.671 206.177 136.517 205.758 136.616C201.552 137.607 197.356 138.642 193.337 140.239C193.205 140.294 193.106 140.426 192.985 140.514C191.851 141.34 190.474 141.56 189.197 142.023C187.435 142.661 185.64 143.212 183.868 143.795C183.614 143.817 183.383 143.762 183.218 143.542C183.229 143.19 183.229 142.848 182.866 142.65C182.601 141.78 183.295 141.593 183.824 141.406C188.944 139.578 194.075 137.805 199.261 136.176C199.944 135.955 200.649 136.01 201.354 135.988C201.453 135.988 201.563 136.01 201.662 135.977C206.232 134.249 210.691 135.922 215.195 136.374C216.615 136.517 218.025 136.759 219.445 136.803C227.494 137.078 235.555 137.277 243.604 137.552C253.393 137.893 263.171 138.279 272.949 138.653C277.012 138.807 280.921 137.706 284.874 137.034C287.044 136.671 289.004 137.2 291.041 137.442C291.746 137.211 292.45 137.332 293.155 137.486C299.189 138.785 305.245 139.996 311.28 141.307C312.238 141.516 313.46 141.67 312.854 143.234C311.555 143.839 310.399 142.992 309.187 142.837C307.194 142.584 305.212 142.133 303.219 141.758Z" fill="#A2FED2"/>
<path d="M156.635 94.3215C154.83 93.6828 152.914 93.5287 151.042 93.1983C148.762 93.6058 146.626 92.9781 144.49 92.3174C144.303 92.2624 144.391 92.0752 144.413 91.932C144.809 90.4785 144.556 89.003 144.567 87.5495C144.578 86.4704 144.886 86.2722 145.932 86.5475C149.412 87.4614 152.881 88.3644 156.382 89.1902C160.181 90.0821 163.947 89.6857 167.735 89.3113C169.497 89.1352 171.247 88.8489 172.987 88.5075C174.121 88.2873 174.76 88.5736 174.837 89.7848C174.749 90.7869 174.65 91.7889 174.595 92.7909C174.551 93.5287 173.989 93.6058 173.461 93.7269C173.163 93.4846 172.921 93.0772 172.437 93.3635C170.499 93.6498 168.561 93.9251 166.612 94.2114C165.533 94.1123 164.487 94.2334 163.429 94.4536C161.161 94.9051 158.904 94.5748 156.635 94.3215Z" fill="#2F005E"/>
<path d="M201.353 135.999C195.583 137.695 189.934 139.754 184.241 141.681C183.691 141.868 182.997 141.879 182.865 142.661C182.711 142.65 182.49 142.705 182.424 142.628C180.585 140.536 181.169 136.319 183.503 134.711C184.01 135.35 184.726 135.35 185.441 135.35C188.844 135.339 192.268 135.218 195.66 135.394C197.554 135.493 199.503 135.383 201.353 135.999Z" fill="#01FC83"/>
<path d="M217.122 130.934C215.008 134.601 211.198 134.403 209.128 132.421C208.324 131.65 207.927 130.67 207.641 129.624C207.707 128.567 207.652 127.466 208.291 126.541C208.654 126.023 208.258 125.704 208.082 125.307C207.355 123.7 207.597 122.092 208.731 120.936C209.865 119.769 211.484 119.427 212.938 120.044C214.501 120.705 215.371 122.114 215.305 123.931C215.283 124.393 215.217 124.768 215.657 125.142C217.518 126.706 217.827 128.699 217.122 130.934Z" fill="#FEDA1F"/>
<path d="M294.597 132.916C291.437 134.381 289.983 134.138 287.473 131.727C287.197 130.912 286.669 130.174 286.735 129.26C286.779 128.655 286.273 128.545 285.909 128.291C284.533 127.344 284.037 126.001 284.357 124.426C284.665 122.962 285.656 121.993 287.109 121.652C288.64 121.288 289.906 121.85 290.886 123.072C291.184 123.446 291.316 123.887 291.943 124.03C296.843 125.208 298.011 129.172 294.597 132.916Z" fill="#FEDA1F"/>
<path d="M312.854 143.245C312.976 142.155 312.293 141.945 311.412 141.758C304.618 140.349 297.835 138.895 291.052 137.453C292.902 136.374 294.884 136.891 296.822 137.023C300.268 137.255 303.704 137.156 307.151 137.156C307.47 137.156 307.701 136.924 307.877 136.649C310.267 137.508 312.403 138.862 314.506 140.25C315.079 140.624 316.081 140.976 315.684 141.912C315.288 142.859 314.561 143.619 313.306 143.278C313.163 143.256 313.009 143.256 312.854 143.245Z" fill="#01F982"/>
<path d="M131.596 140.239C131.1 140.8 131.563 140.756 131.937 140.789C133.413 140.888 134.877 140.976 136.353 141.076C144.402 141.637 152.451 142.188 160.501 142.749C160.413 143.41 159.851 143.322 159.41 143.443C155.369 143.531 151.372 142.981 147.353 142.738C143.488 142.507 139.623 142.232 135.758 141.945C134.084 141.824 132.389 141.857 130.803 141.197C130.66 141.087 130.385 140.932 130.407 140.877C130.605 140.316 131.111 140.294 131.596 140.239Z" fill="#535251"/>
<path d="M183.218 143.553C183.416 143.564 183.614 143.564 183.813 143.575C186.72 143.113 189.605 143.707 192.49 143.85C194.824 143.972 197.158 144.225 199.504 144.379C200.165 144.423 200.847 144.401 201.299 145.029C201.387 145.216 201.365 145.392 201.222 145.557C199.449 146.042 197.687 145.601 195.936 145.469C191.058 145.117 186.18 144.819 181.313 144.357C178.384 144.082 175.411 144.258 172.548 143.399C172.471 142.452 173.099 142.959 173.473 142.948C176.721 143.146 179.97 143.355 183.218 143.553Z" fill="#575757"/>
<path d="M173.473 142.948C173.153 143.069 172.757 142.948 172.504 143.256C172.107 143.751 171.535 143.773 170.973 143.773C167.681 143.806 164.377 143.817 161.085 143.762C160.501 143.751 159.829 143.795 159.554 143.047C159.874 142.948 160.182 142.837 160.501 142.738C164.818 142.771 169.156 142.419 173.473 142.948Z" fill="#7F7F7F"/>
<path d="M172.437 93.3635C172.987 92.9121 173.273 93.1653 173.461 93.7269C173.417 95.1584 173.361 96.6008 173.317 98.0323C172.833 96.9312 173.185 95.775 173.075 94.6518C173.02 94.1343 173.24 93.4957 172.437 93.3635Z" fill="#826C5E"/>
<path d="M172.691 103.527C172.151 101.886 173.01 100.29 172.889 98.6599C172.933 98.6599 172.988 98.6489 173.01 98.671C173.065 98.748 173.109 98.8471 173.153 98.9352C172.999 100.466 172.845 101.996 172.691 103.527Z" fill="#826C5E"/>
<path d="M123.601 135.361C124.163 136.671 125.066 137.75 125.903 138.873C126.552 139.743 126.883 140.558 125.594 141.164L125.616 141.142C124.196 141.769 123.007 142.959 121.322 142.981L121.333 142.992C120.386 141.494 119.791 139.798 118.767 138.202C117.325 139.963 116.995 142.221 115.728 143.994C114.958 143.454 114.98 142.705 114.825 142.023C114.165 139.281 114.121 136.495 114.176 133.698C114.209 132.09 113.284 130.945 111.731 130.549C110.784 130.307 111.026 131.055 111.026 131.474C111.015 132.564 110.861 133.478 109.628 133.885C108.593 134.216 107.844 134.028 107.338 133.026C107.04 132.432 106.721 131.859 106.457 131.253C106.126 130.34 105.796 129.415 105.157 128.468C105.146 128.424 104.97 128.743 105.135 128.622C105.212 128.567 105.235 128.6 105.279 128.666C105.455 129.007 105.378 129.338 105.312 129.679C105.157 130.417 105.036 131.165 104.816 131.892C104.64 132.487 104.398 133.048 103.66 133.125C101.689 132.839 99.9271 131.848 98.0111 131.397C97.7028 131.32 97.4385 131.176 97.2623 130.901C96.8439 129.734 97.1962 128.523 97.009 127.333C96.976 127.135 97.0531 127.377 96.91 127.267C96.8109 127.201 96.7338 127.444 96.6677 127.576C96.3374 128.236 95.9409 128.842 95.2693 129.205C94.5205 129.437 94.3994 128.908 94.3223 128.391C94.2012 127.609 94.3553 126.849 94.4544 126.078C94.2782 127.08 94.1351 128.093 93.7607 129.051C93.5075 129.712 93.5625 130.648 92.4724 130.67C91.3272 130.692 89.9838 129.888 89.7306 128.908C89.4222 127.686 89.158 126.442 88.8827 125.208C88.8056 124.878 88.9598 124.371 88.4092 124.261C88.3101 124.349 88.211 124.426 88.1229 124.526C87.7595 124.889 87.4072 125.263 86.9227 125.451C85.5573 125.99 84.6323 125.44 84.4782 123.986C84.4231 123.479 84.4011 122.984 84.2359 122.488C83.9276 123.083 83.6743 123.689 83.3991 124.294C83.2119 124.691 83.0687 125.263 82.5181 125.175C82.0116 125.087 81.9345 124.526 81.8354 124.085C81.6262 123.215 81.8024 122.29 81.6042 121.222C81.1638 122.411 80.9435 123.435 80.6682 124.459C80.2168 126.144 79.7873 126.464 78.0365 126.067C75.9664 125.594 73.8963 125.219 71.8151 124.801C71.661 124.768 71.5178 124.823 71.3857 124.911C70.0423 124.834 70.5598 124.008 70.9673 123.557C71.7931 122.621 72.7731 121.817 73.6871 120.958C74.59 120.727 74.9093 119.791 75.4489 119.394C74.5239 119.603 73.4118 119.846 72.3547 120.352C72.0244 120.506 71.3196 121.035 71.1765 120.044C71.8151 119.637 72.4538 119.229 73.0924 118.822C74.7552 117.677 76.4069 117.654 78.3669 118.271C80.404 118.91 82.5402 119.317 84.6433 119.78C87.0658 120.253 89.4112 121.024 91.8447 121.442C93.3092 121.927 94.8728 122.114 96.2493 122.863C98.7819 123.722 101.314 124.592 103.847 125.451C106.479 125.968 108.945 127.047 111.489 127.851C114.913 128.93 118.305 130.108 121.707 131.242C122.115 131.375 122.621 131.386 122.875 131.848C124.086 132.267 125.297 132.685 126.508 133.114C127.588 133.125 128.501 133.709 129.503 133.951C130.032 134.072 130.076 134.425 130.065 134.843C130.054 135.394 130.076 135.944 130.065 136.495C130.032 137.772 129.966 137.805 128.689 137.167L128.711 137.189C128.05 136.671 127.213 136.462 126.541 135.944L126.563 135.966C125.903 135.449 125.066 135.24 124.394 134.722L124.416 134.733C123.998 134.491 123.645 134.083 123.073 134.227C122.941 134.766 123.238 135.074 123.601 135.361Z" fill="#FE9B21"/>
<path d="M51.2249 135.063C49.8264 136.176 48.2077 135.691 46.6662 135.647C45.9064 135.625 45.1466 135.493 44.3978 135.383C43.561 135.262 43.0214 135.383 42.7682 136.407C42.3828 137.97 41.1165 138.422 39.674 138.103C38.4627 137.838 37.3506 138.025 36.2715 138.433C33.1332 139.6 30.92 137.915 30.2703 135.196C30.2042 134.909 30.0501 134.645 29.7638 133.918C29.7968 135.096 29.8849 135.834 28.6737 135.691C27.4954 135.559 27.5945 134.854 27.5725 134.105C27.5615 133.797 27.5835 133.5 27.5945 133.191C27.6606 133.18 27.7377 133.18 27.8038 133.169C28.4094 133.5 28.057 134.359 28.7287 134.766C29.3123 133.775 28.5635 132.971 28.4094 132.123C28.4314 131.969 28.5195 131.859 28.6516 131.782C30.2152 131.452 31.5586 131.804 32.6157 133.048C33.0121 133.511 33.3975 134.05 34.1353 133.797C34.807 133.577 34.9391 132.938 35.1263 132.355C35.6328 130.725 34.9391 129.26 34.5097 127.763C34.5097 127.609 34.5537 127.466 34.6418 127.344C35.6548 126.552 36.6238 126.552 37.769 127.201C40.4117 128.71 43.2416 128.82 46.1707 128.137C47.7893 127.763 49.463 127.278 50.8945 128.787C51.1588 129.062 51.8745 128.908 52.381 128.952C52.4912 129.095 52.4691 129.227 52.326 129.349C51.4671 129.822 50.366 129.382 49.5732 130.097C49.1657 130.406 48.8024 130.758 48.5601 131.22C47.8884 132.531 48.3289 133.588 49.7053 134.116C50.2448 134.337 51.0707 134.16 51.2249 135.063Z" fill="#232323"/>
<path d="M71.3636 124.922C72.8282 124.426 74.1936 125.219 75.614 125.263C77.0125 125.307 78.6862 126.42 79.6992 125.561C80.5691 124.823 80.5141 123.039 80.9435 121.751C81.1307 121.2 81.0426 120.517 81.6592 120.066C82.386 121.696 81.8464 123.502 82.5071 125.263C83.1237 123.887 83.6853 122.632 84.2469 121.365C84.335 121.387 84.4231 121.409 84.5112 121.442C84.6103 122.224 84.6874 123.017 84.8415 123.799C84.9406 124.283 84.5222 125.065 85.348 125.164C86.0528 125.241 86.8896 125.484 87.4402 124.669C87.6274 124.393 87.7815 124.03 88.211 124.019C88.5193 125.373 87.5613 125.693 86.6033 125.88C84.9626 126.21 84.4451 125.825 83.9166 124.085C83.7294 124.724 83.4211 125.307 83.1348 125.913C82.9476 126.32 82.7494 126.86 82.1988 126.761C81.6923 126.673 81.6152 126.1 81.5051 125.66C81.3179 124.911 81.395 124.151 81.3729 123.325C81.1307 123.81 81.0536 124.294 80.9215 124.757C80.415 126.53 80.3379 126.585 78.51 126.53C78.1136 126.519 77.7172 126.375 77.4419 126.86C76.3848 128.688 74.4578 129.062 72.652 129.624C72.2556 128.49 73.3347 128.666 73.8192 128.313C74.4248 128.071 75.0524 127.873 75.614 127.554C75.9884 127.344 76.7041 127.488 76.594 126.673C76.4839 125.913 75.9774 125.715 75.3387 125.605C74.0284 125.384 72.696 125.153 71.3636 124.922Z" fill="#4B331D"/>
<path d="M73.8528 128.324C73.3243 128.732 72.7957 129.15 72.2672 129.558C72.3112 129.833 72.2452 130.075 72.124 130.318C71.6726 131.176 70.9458 131.562 69.9988 131.441C68.248 131.22 66.4972 130.956 64.7354 130.802C64.3831 130.769 64.0307 130.637 63.9756 130.196C67.268 129.569 70.5604 128.941 73.8528 128.324Z" fill="#BEBEBE"/>
<path d="M63.9764 130.185C66.1346 130.461 68.3039 130.703 70.4511 131.044C71.5632 131.22 71.5632 130.218 72.0587 129.745C72.279 131.309 73.4572 132.597 73.6774 134.006C73.9306 135.57 73.6884 137.442 72.356 138.774C72.2129 138.697 72.1138 138.576 72.0477 138.433C71.7284 137.398 72.2129 136.451 72.378 135.46C72.4882 134.832 72.8405 134.182 72.2459 133.61C71.398 132.233 70.1428 131.738 68.5681 131.628C66.6632 131.485 64.7472 131.276 62.8533 130.989C62.3137 130.901 61.7301 130.901 61.2786 130.527C61.1685 130.207 61.2456 130.031 61.62 130.108C62.4128 130.13 63.1946 130.163 63.9764 130.185Z" fill="#4B423B"/>
<path d="M34.6303 127.355C34.6523 127.444 34.6634 127.532 34.6413 127.631C34.2009 128.236 33.5512 128.082 32.9676 128.082C31.9325 128.082 30.9635 128.258 29.9835 128.622C28.1336 129.293 26.8563 128.633 26.1956 126.739C25.4799 124.68 25.4799 124.68 24.0594 126.276C23.8943 126.309 23.7511 126.276 23.63 126.166C23.7842 125.131 24.2356 124.25 25.0505 123.579C25.6561 123.083 26.1516 123.072 26.3608 123.975C26.559 124.812 26.7352 125.649 26.9774 126.464C27.4289 128.005 28.2878 128.402 29.7853 127.851C31.3489 127.267 32.9346 126.761 34.6303 127.355Z" fill="#55463C"/>
<path d="M71.1546 120.044C71.5511 120.749 72.0135 120.231 72.4209 120.088C73.6542 119.67 74.8655 119.218 76.1538 118.899C75.361 119.659 74.8765 120.749 73.6542 120.969C73.9515 120.628 74.2598 120.297 74.7994 119.692C72.1787 120.639 69.8443 121.475 67.5099 122.312C68.6551 121.354 69.7011 120.341 71.1546 120.044Z" fill="#4B3A24"/>
<path d="M27.2308 133.819C27.44 135.218 26.8343 135.933 25.4249 135.977C23.9714 135.515 25.5901 134.469 24.9955 133.863C24.3458 134.557 24.8083 136.12 23.1125 136.131C21.6921 136.131 22.2867 135.625 22.6831 135.052C22.8152 135.074 22.9363 135.107 23.0575 135.151C24.2577 134.92 23.8283 133.511 24.6321 132.982C24.9844 132.74 25.3038 132.388 25.7993 132.597C26.2287 133.225 25.535 133.984 26.0305 134.623C26.537 134.59 26.537 134.039 26.8564 133.83C26.9775 133.731 27.0986 133.731 27.2308 133.819Z" fill="#4E3E34"/>
<path d="M84.5784 119.945C82.1228 119.372 79.6563 118.855 77.2118 118.216C76.0226 117.908 74.9545 117.809 73.9304 118.635C73.7322 118.8 73.3578 118.767 73.0715 118.822C73.8533 118.315 74.6241 117.82 75.4059 117.313C78.5662 118.117 81.7154 118.921 84.8757 119.725C84.8206 119.857 84.7215 119.923 84.5784 119.945Z" fill="#3B2D1D"/>
<path d="M25.6666 132.575C25.3803 132.784 25.105 132.993 24.8187 133.202C24.4443 132.839 24.7527 132.454 24.7527 132.068C24.7527 131.595 24.5324 132.112 24.4223 132.046C24.2792 132.068 24.1691 132.024 24.092 131.903C24.6095 130.89 24.6866 129.954 23.9819 128.908C23.4533 128.137 23.4313 127.113 23.6185 126.155C23.7176 126.144 23.8167 126.144 23.9158 126.155C24.2902 126.508 24.2682 126.992 24.3122 127.433C24.4554 129.073 25.7657 129.921 26.7017 131.022C26.7347 131.165 26.7237 131.298 26.6356 131.419C26.03 131.562 26.1071 132.289 25.6666 132.575Z" fill="#232323"/>
<path d="M61.6301 130.097C61.52 130.196 61.3989 130.295 61.2888 130.395C60.9364 130.813 60.474 130.736 60.0225 130.692C57.8092 130.472 55.5959 130.196 53.3937 129.943C52.9752 129.899 52.4357 129.888 52.3916 129.249C52.3696 129.161 52.3586 129.062 52.3696 128.963C55.4638 129.26 58.569 129.481 61.6301 130.097Z" fill="#4B423B"/>
<path d="M22.6834 135.361C22.6834 135.251 22.6724 135.151 22.6724 135.041C22.9918 133.929 23.4873 132.894 24.1039 131.914L24.203 131.969C24.5113 133.247 23.8727 134.667 22.6834 135.361Z" fill="#473A32"/>
<path d="M158.189 65.5048C158.718 65.6149 159.037 65.2185 159.4 64.9653C164.289 61.5738 168.639 57.5987 172.228 52.8528C172.922 51.9279 173.528 51.7517 174.64 52.1151C179.397 53.6456 183.196 56.2994 185.596 60.792C186.015 61.5738 186.191 62.1794 185.75 63.0273C185.057 64.3707 184.517 65.8021 183.922 67.1675C184.066 67.2666 184.154 67.3768 184.209 67.3657C186.951 66.7491 188.228 68.2356 189.087 70.57C189.395 71.4179 189.329 71.7813 188.624 72.2878C184.418 75.3379 180.256 78.4431 176.049 81.4933C175.246 82.0769 175.003 82.5173 175.653 83.4313C176.159 84.136 177.272 85.0499 176.831 85.6996C176.159 86.6906 174.981 87.4284 173.748 87.8248C173.219 87.99 172.636 87.9679 172.085 88.067C167.604 88.8929 163.078 89.0911 158.541 88.9039C156.912 88.8378 155.37 88.2102 153.784 87.8248C153.289 87.6266 153.135 87.1971 153.08 86.7347C152.628 83.4643 151.891 80.227 151.846 76.9015C151.802 73.1137 153.52 70.0305 155.932 67.3107C156.559 66.617 156.945 65.4828 158.189 65.5048Z" fill="#6600CB"/>
<path d="M158.188 65.5049C155.446 68.0925 153.244 71.0215 152.418 74.7874C152.011 76.6483 152.242 78.5202 152.561 80.3812C153.002 82.8587 153.09 85.4023 153.783 87.8468C151.031 87.2082 148.289 86.5365 145.525 85.9639C144.49 85.7437 143.818 85.2922 143.378 84.3232C142.871 83.2221 142.354 82.1209 141.572 81.185C141.385 80.1389 140.592 79.4232 140.074 78.5533C138.808 76.4171 138.114 74.1267 139.601 71.9355C142.166 68.1696 141.869 64.1395 141.054 60.0322C140.328 56.4205 138.995 53.007 137.387 49.7036C136.936 48.7787 137.068 48.5805 138.092 48.4043C145.007 47.215 151.922 45.9708 158.816 44.6824C159.74 44.5063 160.192 44.5283 160.368 45.6074C161.073 50.0229 161.855 54.4275 162.625 58.832C162.725 59.4156 162.416 59.768 162.108 60.1864C161.293 61.2875 160.28 62.2345 159.641 63.4678C159.036 64.0514 158.375 64.6129 158.188 65.5049Z" fill="#5D0AAF"/>
<path d="M175.862 51.7847C179.209 49.142 182.556 46.4993 185.904 43.8566C187.434 43.4492 188.965 43.339 190.507 43.8125C187.545 47.3141 183.702 49.8357 180.31 52.8528C180.024 53.1061 179.605 53.2272 179.253 53.4144C178.13 52.8749 176.996 52.3353 175.862 51.7847Z" fill="#B67244"/>
<path d="M103.276 42.9206C102.318 39.441 101.26 36.0055 98.9481 33.1205L98.9591 33.1426C97.6047 31.1055 96.9881 28.8041 96.6798 26.4146C96.5036 25.0933 96.7348 23.882 97.891 23.0121L97.902 22.9901C99.0142 21.955 98.7609 23.4746 99.2124 23.6838C100.578 26.2385 101.536 28.9582 102.439 31.6891C103.892 36.0716 105.357 40.4431 106.557 44.9137C106.645 45.244 106.854 45.5743 106.667 45.9377C107.074 47.8757 107.482 49.8247 107.9 51.7627C106.26 52.071 104.333 50.2982 104.454 48.4263C104.586 46.4663 104.167 44.6494 103.276 42.9206Z" fill="#C3C3C3"/>
<path d="M97.8905 23.0231C95.8314 25.9522 97.3509 28.705 98.2869 31.4909C98.4741 32.0634 98.9916 32.4819 98.9696 33.1426C96.9105 30.665 96.3709 27.736 96.5801 24.6528C96.6132 24.0362 96.9215 23.1333 97.8905 23.0231Z" fill="#3E3745"/>
<path d="M191.531 42.8325C190.672 42.4251 189.824 42.8656 188.988 42.9316C183.625 43.3501 178.758 41.6873 174.001 39.5291C173.627 39.364 173.274 39.1768 172.911 38.9896C171.942 39.1217 171.193 38.5271 170.367 38.2078C168.628 37.5471 166.833 37.0626 165.06 36.49C164.531 36.2477 163.959 36.2257 163.408 36.2918C160.975 36.534 159.499 35.1466 158.299 33.3297C157.539 32.1846 157.473 30.8962 158.046 29.674C158.949 27.769 160.149 26.0623 161.9 24.807C163.188 23.871 163.298 23.9261 163.606 25.5117C163.651 25.5668 163.695 25.6328 163.739 25.6769C163.783 26.756 164.741 26.9982 165.412 27.5048C166.37 29.0023 167.692 29.4427 169.465 29.1675C171.975 28.7821 174.53 28.9252 177.062 28.727C182.216 28.3306 187.402 28.2205 192.566 27.8131C193.381 27.747 194.196 27.736 194.912 28.2315C197.565 31.8212 197.29 36.6111 194.405 39.9586C193.491 41.0046 192.82 42.2159 191.531 42.8325Z" fill="#D59368"/>
<path d="M151.494 3.9185C152.331 4.57918 153.102 5.33896 154.027 5.8675C155.877 6.92459 155.976 8.43314 155.535 10.261C155.106 12.0559 156.306 13.5534 156.626 15.2271C156.813 15.128 157 15.0179 157.198 14.9188C157.517 15.2602 157.495 15.6786 157.352 16.064C156.482 18.5085 155.326 20.8319 153.95 23.0342C153.73 23.3865 153.443 23.6728 153.003 23.7389C152.43 23.6067 151.913 23.816 151.373 23.9921C150.261 24.3665 149.138 24.6748 147.949 24.6528C146.869 24.6418 145.856 24.818 144.865 25.3355C144.062 25.765 143.148 25.9962 142.245 25.4456C142.047 25.3135 141.936 25.1153 141.804 24.9281C141.617 22.4726 141.87 19.973 140.956 17.5946C139.624 14.148 136.332 11.7916 132.687 11.7255C131.52 12.1219 130.176 11.6485 129.075 12.4303C128.635 12.5294 128.381 12.188 128.051 12.0228C127.28 11.3842 127.236 10.7345 127.897 9.95271C128.392 9.36911 128.877 8.64236 128.679 7.87157C128.304 6.34099 129.273 5.69132 130.264 4.94255C133.678 2.35489 137.323 0.317795 141.727 0.0204887C143.115 -0.0676019 144.469 0.141613 145.812 0.394874C145.878 0.471953 145.934 0.560044 145.967 0.659146C145.581 1.13263 145.053 1.06657 144.557 0.989487C140.56 0.339818 137.014 1.55106 133.7 3.66524C132.588 4.38098 131.553 5.21784 130.518 6.03267C128.943 7.26594 129.053 7.93763 130.936 8.77449C133.832 10.3932 136.992 11.1419 140.241 11.5714C141.375 11.7145 142.509 11.4613 143.533 11.0648C146.33 9.97473 149.215 10.0188 152.122 10.1069C152.518 10.1179 152.948 10.25 153.278 9.89765C154.655 8.55427 154.644 8.56528 153.498 7.11178C152.97 6.44009 152.397 5.81245 151.836 5.1848C151.538 4.83244 150.955 4.5021 151.494 3.9185Z" fill="#232323"/>
<path d="M163.584 25.5117C163.155 25.2584 163.474 24.7299 163.166 24.3996C161.162 25.6108 159.664 27.3066 158.596 29.3657C157.209 32.0524 159.466 35.8073 162.494 35.9504C163.386 35.9945 164.311 35.6642 165.159 36.1817C164.873 36.523 164.476 36.6001 164.08 36.5891C162.175 36.512 160.457 37.1837 158.728 37.8664C155.579 38.5161 152.529 38.3069 149.468 37.2167C146.44 36.1376 145.867 31.8102 146.891 30.0374C147.277 29.3767 147.728 28.749 148.609 28.727C148.906 28.8481 149.027 29.1124 148.84 29.3216C147.519 30.8302 147.585 32.581 147.915 34.0895C149.27 32.1515 150.976 30.1695 152.606 28.1434C153.322 27.8681 153.674 27.2075 154.071 26.6239C157.429 21.7018 160.81 16.7907 163.573 11.5053C163.816 11.0538 164.014 10.5914 164.014 10.0628C164.355 8.98371 164.025 8.70842 162.913 8.96169C162.142 9.13787 161.536 9.90866 160.644 9.57832C161.69 8.26797 164.058 7.53021 165.71 7.99269C167.317 8.45516 169.002 10.5914 169.112 12.3312C169.145 12.8377 169.123 13.3442 169.123 13.8507C167.879 17.4404 166.458 20.931 163.849 23.7829C163.386 24.3115 163.595 24.9171 163.584 25.5117Z" fill="#353535"/>
<path d="M128.05 12.0228C128.414 11.9347 128.689 12.1109 128.953 12.3091C128.337 14.3792 127.159 16.042 125.397 17.2972C125.331 17.2312 125.254 17.1761 125.177 17.1101C126.046 15.8327 126.916 14.5664 127.775 13.2891C128.039 12.9147 128.535 12.5624 128.05 12.0228Z" fill="#4D4456"/>
<path d="M138.874 115.133C139.216 114.836 139.557 114.538 139.909 114.252C140.735 113.911 141.131 113.019 141.968 112.688C142.178 112.391 142.387 112.094 142.596 111.796C145.085 109.693 145.822 106.775 146.263 103.758C146.395 102.866 146.483 101.963 146.593 101.06C146.67 98.9242 146.516 96.8101 146.274 94.6959C146.142 93.5507 146.549 93.0442 147.694 93.2864C148.619 93.4846 149.577 93.4516 150.469 93.815C151.141 94.0022 151.383 94.3986 151.339 95.1363C151.075 99.662 150.711 104.155 149.511 108.559C148.564 112.028 146.186 114.318 143.433 116.322C140.878 118.183 138.191 119.846 135.417 121.354C133.71 122.279 133.71 122.29 133.346 120.429C132.983 119.207 133.479 118.458 134.624 117.996C135.13 117.798 135.571 117.434 136.044 117.148C136.628 115.97 138.081 116.003 138.874 115.133Z" fill="#B67244"/>
<path d="M92.8143 107.205C92.4069 108.967 91.581 110.783 90.0174 112.193C89.665 112.512 89.1805 112.843 88.63 112.545C88.0794 112.248 87.8482 111.752 87.9253 111.147C88.2116 108.79 89.4448 106.973 91.2947 105.575C92.0325 105.024 92.8363 105.773 92.8143 107.205Z" fill="#3A3A3A"/>
<path d="M98.9482 113.591C99.2235 111.874 99.719 110.233 100.831 108.856C101.228 108.372 101.701 107.92 102.395 108.185C103.033 108.438 103.298 108.989 103.232 109.671C103.077 111.466 102.681 113.184 101.481 114.604C101.051 115.111 100.589 115.683 99.8071 115.386C99.0032 115.067 98.8931 114.362 98.9482 113.591Z" fill="#3A3A3A"/>
<path d="M119.484 118.767C119.396 116.895 119.836 115.408 120.794 114.109C121.609 113.019 122.435 113.151 122.853 114.461C123.58 116.752 122.721 118.734 121.499 120.595C121.235 121.002 120.827 121.431 120.222 121.134C119.737 120.892 119.473 120.473 119.473 119.901C119.484 119.449 119.484 118.987 119.484 118.767Z" fill="#3A3A3A"/>
<path d="M109.045 116.311C109.309 114.67 109.684 113.052 110.807 111.73C111.225 111.235 111.699 110.607 112.459 110.938C113.273 111.301 113.373 112.182 113.273 112.898C113.053 114.406 112.558 115.849 111.71 117.126C111.324 117.71 110.884 118.381 110.025 118.15C109.1 117.908 109.001 117.137 109.045 116.311Z" fill="#3A3A3A"/>
<path d="M122.854 131.848C116.511 129.723 110.169 127.587 103.826 125.451C104.201 125.076 104.564 125.307 104.949 125.44C110.576 127.322 116.203 129.194 121.819 131.077C122.226 131.22 122.744 131.276 122.854 131.848Z" fill="#302415"/>
<path d="M132.632 116.697C134.163 116.223 135.704 115.871 137.312 115.805C137.202 116.542 136.618 116.63 136.034 116.719C135.506 117.005 134.933 117.236 134.46 117.599C133.183 118.568 132.742 117.996 132.632 116.697Z" fill="#BEBEBE"/>
<path d="M128.657 137.167C129.031 137.233 129.405 137.31 129.791 137.376C129.989 134.315 129.989 134.315 126.487 133.103C127.842 132.696 128.899 133.786 130.176 133.841C130.176 135.229 130.176 136.616 130.176 138.169C129.548 137.838 128.954 137.761 128.657 137.167Z" fill="#3A2611"/>
<path d="M84.5778 119.945C84.6769 119.868 84.787 119.802 84.8861 119.725C87.3196 120.264 89.7531 120.804 92.1866 121.354C92.2196 121.63 92.1425 121.762 91.8452 121.608C89.4227 121.046 87.0003 120.495 84.5778 119.945Z" fill="#2F2314"/>
<path d="M91.8453 121.608C91.9554 121.519 92.0655 121.431 92.1866 121.354C93.53 121.861 95.1267 121.707 96.2278 122.874C94.7633 122.444 93.3098 122.026 91.8453 121.608Z" fill="#362714"/>
<path d="M136.034 116.719C136.464 116.41 136.882 116.113 137.312 115.805C137.906 115.739 138.204 114.99 138.886 115.133C138.16 116.102 137.048 116.542 136.057 117.159C136.045 117.005 136.034 116.862 136.034 116.719Z" fill="#494949"/>
<path d="M125.397 17.3083C126.696 15.7226 127.852 14.0489 128.954 12.3201C130.022 10.9988 131.387 11.5824 132.686 11.7255C127.676 18.6406 122.589 25.5007 117.7 32.4929C116.379 34.3868 114.903 34.9154 112.822 34.4639C114.65 33.4068 115.344 31.4468 116.511 29.8612C118.361 27.4937 120.101 25.0492 121.719 22.5166C123.052 20.8429 124.285 19.1251 125.397 17.3083Z" fill="#B67244"/>
<path d="M141.815 24.9281C142.002 24.84 142.09 24.9501 142.167 25.0933C142.795 25.9632 142.949 26.9762 142.916 27.9893C142.762 33.5169 143.345 39.0336 143.246 44.5503C143.235 45.3541 143.367 46.191 142.795 46.8847C139.04 47.9528 139.051 47.9528 139.073 44.0878C139.084 41.9626 139.084 39.8374 139.095 37.7123C139.568 35.8844 139.348 34.0235 139.348 32.1846C139.128 30.8522 139.271 29.4978 139.26 28.1544C139.249 27.3176 139.943 26.8881 140.493 26.3926C141.066 26.0292 141.418 25.4567 141.815 24.9281Z" fill="#B67244"/>
<path d="M140.483 26.3926C138.732 28.0553 139.624 30.2356 139.348 32.1846C138.897 31.623 139.293 30.9293 139.04 30.3347C139.172 29.2886 138.743 28.1764 139.381 27.1854C139.745 26.9322 139.866 26.3045 140.483 26.3926Z" fill="#323034"/>
<path d="M194.889 28.2425C188.293 28.6169 181.686 28.9913 175.091 29.3547C172.657 29.4868 170.213 29.63 167.779 29.7401C166.524 29.7951 165.566 28.8482 165.401 27.5158C170.191 27.2075 174.992 26.9432 179.781 26.5688C183.173 26.3045 186.575 26.3376 189.945 25.776C190.242 25.787 190.562 25.8641 190.848 25.798C192.995 25.2915 194.107 26.4917 194.889 28.2425Z" fill="#B67244"/>
<path d="M195.472 24.807C196.1 24.774 196.452 24.9832 196.662 25.6659C197.102 27.1194 197.631 28.5619 198.203 29.9713C199.348 32.7792 201.044 35.0806 203.764 36.6442C206.263 38.0756 207.838 40.4431 209.292 42.8656C209.17 43.5923 208.697 43.6364 208.411 43.0968C206.649 39.7934 203.577 37.8554 200.846 35.51C197.609 32.7572 196.474 28.7821 195.472 24.807Z" fill="#030302"/>
<path d="M106.667 45.9597C105.125 41.1037 103.627 36.2257 102.031 31.3917C101.172 28.8041 100.159 26.2605 99.2119 23.7058C99.5862 23.3865 99.6193 23.7829 99.7074 23.9701C102.702 30.7201 104.795 37.7673 106.799 44.8476C106.909 45.222 107.052 45.6184 106.667 45.9597Z" fill="#0F0F0F"/>
<path d="M142.794 46.8957C142.541 39.6282 142.761 32.3497 142.156 25.0933C143.279 25.6879 144.303 25.4346 145.228 24.6749C145.514 24.4436 145.701 24.3115 146.12 24.3225C148.157 24.3775 150.172 24.1904 152.033 23.2434C152.539 22.9901 152.903 22.869 152.859 23.6508C152.848 23.7169 152.837 23.7829 152.837 23.849C152.495 24.6528 151.857 25.2915 151.614 26.1504C151.449 26.5358 151.196 26.8551 150.91 27.1524C150.304 27.692 149.819 28.3636 149.115 28.7931C149.049 28.8041 148.983 28.8261 148.917 28.8371C148.135 28.8041 147.738 29.3877 147.386 29.9162C145.954 32.0524 147.243 35.9284 149.665 36.7873C152.231 37.7013 154.852 38.2628 157.571 37.5251C157.99 37.415 158.375 37.426 158.717 37.7233C159.697 38.8024 159.719 40.1127 159.609 41.4451C159.708 42.2049 159.796 42.9647 159.895 43.7244C156.724 44.6714 153.409 44.9577 150.183 45.6184C147.727 46.1359 145.25 46.4773 142.794 46.8957Z" fill="#D59368"/>
<path d="M159.554 143.058C161.25 143.553 162.99 143.267 164.719 143.289C167.317 143.333 169.905 143.278 172.504 143.256C182.106 143.972 191.696 144.676 201.298 145.392C201.959 144.974 202.598 144.897 203.192 145.502C202.972 146.823 201.882 146.647 201.045 146.625C197.984 146.57 194.934 146.427 191.873 146.295C188.558 146.152 185.255 145.899 181.94 145.81C171.127 145.524 160.347 144.764 149.556 144.159C144.172 143.85 138.798 143.179 133.425 142.76C132.202 142.661 131.464 142.067 130.815 141.186C137.708 141.637 144.601 142.1 151.494 142.551C154.17 142.727 156.857 142.892 159.554 143.058Z" fill="#B67244"/>
<path d="M203.192 145.502C202.565 145.469 201.926 145.425 201.298 145.392C201.309 145.304 201.298 145.216 201.287 145.128C202.322 144.522 203.6 144.742 204.635 144.17C208.125 143.63 210.482 146.956 209.414 150.909C209.27 151.448 209.083 151.977 208.896 152.494C208.665 153.122 208.423 153.739 207.564 153.706C206.694 153.673 205.703 153.981 205.306 152.803C205.196 152.671 205.086 152.538 204.965 152.406C206.154 150.49 205.56 148.596 204.921 146.702C204.624 145.877 204.271 145.172 203.192 145.502Z" fill="#333333"/>
<path d="M106.721 131C106.975 131.485 107.217 131.991 107.492 132.465C107.833 133.048 107.789 134.028 109.012 133.654C110.025 133.357 110.818 133.136 110.652 131.804C110.564 131.132 110.289 130.141 110.84 129.811C111.412 129.47 112.029 130.373 112.667 130.626C114.209 131.209 114.727 132.256 114.572 133.929C114.264 137.189 114.793 140.415 115.641 143.795C116.654 141.703 117.612 139.743 118.68 137.519C119.682 139.479 120.805 141.087 121.322 143.003C120.034 141.791 119.737 139.996 118.669 138.543C117.81 140.338 116.995 142.078 116.158 143.817C115.916 144.313 115.795 144.897 115.189 145.117C114.396 143.443 114.396 141.593 113.989 139.776C114.033 139.644 113.692 139.798 113.901 139.776C114.44 139.732 113.515 140.888 112.513 141.505C112.205 141.626 111.897 141.736 111.599 141.857C111.544 141.802 111.489 141.747 111.434 141.692C111.412 141.241 111.643 140.877 111.963 140.635C113.482 139.479 113.736 137.915 113.57 136.154C113.482 135.196 113.57 134.227 113.548 133.258C113.537 132.795 113.526 132.3 112.943 132.167C112.392 132.046 111.919 132.211 111.676 132.762C111.423 133.346 111.093 133.797 110.487 134.072C108.076 135.118 106.699 134.205 106.413 131.32C106.457 131.154 106.567 131.055 106.721 131Z" fill="#5C3C1D"/>
<path d="M173.736 151.305C162.89 151.294 152.044 151.294 141.198 151.283C141.132 150.975 141.352 150.953 141.55 150.953C152.242 150.964 162.923 150.975 173.615 150.986C173.714 150.986 173.857 150.964 173.901 151.019C174.078 151.239 173.791 151.217 173.736 151.305Z" fill="#6B4A34"/>
<path d="M112.525 141.516C113.042 140.844 113.571 140.184 114.254 139.303C114.617 141.395 115.157 143.212 115.201 145.117C115.179 145.26 115.168 145.392 115.146 145.535C114.056 144.335 113.296 142.914 112.525 141.516Z" fill="#CD8F66"/>
<path d="M156.636 94.3215C159.962 94.2885 163.287 94.2444 166.612 94.2114C163.287 94.817 159.962 95.3015 156.592 94.5858C156.559 94.5748 156.493 94.5087 156.504 94.4977C156.537 94.4316 156.592 94.3765 156.636 94.3215Z" fill="#110A14"/>
<path d="M150.47 93.815C149.468 93.6938 148.455 93.6058 147.453 93.4626C146.671 93.3415 146.363 93.5727 146.462 94.4096C146.737 96.722 146.88 99.0453 146.682 101.369C146.583 101.468 146.484 101.468 146.385 101.369C146.264 98.8361 146.187 96.3035 146.01 93.7819C145.955 93.0552 146.109 92.9231 146.814 93.0111C148.224 93.1983 149.633 93.2864 151.043 93.4076C150.866 93.5507 150.668 93.6828 150.47 93.815Z" fill="#464646"/>
<path d="M193.953 152.065C190.782 151.635 187.555 152.252 184.406 151.569C187.192 151.569 189.978 151.569 192.764 151.591C193.237 151.591 193.788 151.382 194.173 151.9C194.14 152.01 194.074 152.065 193.953 152.065Z" fill="#766052"/>
<path d="M193.953 152.065C194.008 151.988 194.074 151.933 194.174 151.9C197.235 151.9 200.285 151.9 203.346 151.9C203.346 151.955 203.357 152.021 203.357 152.076C203.082 152.131 202.795 152.186 202.52 152.241C199.668 152.186 196.816 152.12 193.953 152.065Z" fill="#6D584B"/>
<path d="M184.44 151.58C181.28 151.536 178.131 151.492 174.97 151.448C178.131 151.206 181.291 150.964 184.44 151.58Z" fill="#766052"/>
<path d="M133.733 152.792C131.035 153.419 128.315 153.1 125.606 153.012C128.304 152.527 131.024 152.913 133.733 152.792Z" fill="#755B49"/>
<path d="M121.312 142.981C122.887 142.705 124.054 141.472 125.607 141.142C124.517 142.232 123.107 142.76 121.731 143.344C121.434 143.476 121.257 143.333 121.312 142.981Z" fill="#482F15"/>
<path d="M123.602 135.361C122.677 135.118 122.677 134.205 122.248 133.577C123.074 133.83 123.899 133.995 124.395 134.744C123.998 134.964 123.69 134.26 123.349 134.612C123.261 134.689 123.514 135.096 123.602 135.361Z" fill="#3A2611"/>
<path d="M125.595 141.164C126.52 140.514 126.179 139.688 125.903 138.873C127.236 140.228 127.203 140.514 125.595 141.164Z" fill="#432B13"/>
<path d="M126.521 135.944C127.402 136.087 128.14 136.462 128.69 137.189C127.831 137.001 127.05 136.682 126.521 135.944Z" fill="#3A2611"/>
<path d="M124.373 134.722C125.243 134.887 125.992 135.251 126.542 135.966C125.683 135.79 124.913 135.46 124.373 134.722Z" fill="#3A2611"/>
<path d="M72.3221 138.752C73.0269 137.332 73.0709 135.746 73.5114 134.26C73.6435 133.808 73.3462 133.5 73.0379 133.213C72.0909 132.333 71.3311 131.419 72.2781 130.075C72.3001 130.042 72.1239 129.866 72.0468 129.745C72.1129 129.679 72.19 129.613 72.2561 129.558C73.9738 129.249 75.2291 127.906 76.8918 127.488C76.9799 127.466 77.1121 127.344 77.101 127.289C76.6276 124.702 78.4775 126.42 79.1491 126.309C79.8429 126.188 80.2172 126.177 80.3824 125.406C80.6247 124.283 80.9991 123.193 81.4065 121.795C82.0011 123.557 81.5386 125.186 82.2874 126.904C82.926 125.473 83.4656 124.25 84.0162 123.017C84.9191 123.689 83.5867 125.495 85.4366 125.616C86.7249 125.693 87.9032 125.627 88.2115 124.019L88.2005 124.03C88.8832 123.909 88.8942 124.393 88.9823 124.856C89.2465 126.243 89.5549 127.62 89.8962 128.996C90.0834 129.778 92.2857 130.89 92.9684 130.571C93.2987 130.417 93.2877 130.075 93.3648 129.8C93.607 128.996 93.7832 128.181 94.1025 127.256C94.6751 127.763 94.4549 128.291 94.4879 128.743C94.598 129.899 95.0385 129.139 95.4019 128.919C95.7652 128.457 96.1176 127.994 96.481 127.521C97.2738 127.466 97.0315 128.082 97.0866 128.479C97.1967 129.238 96.8774 130.053 97.3729 130.769C97.5601 130.879 97.7473 130.978 97.9345 131.088C99.1347 131.342 99.0136 132.2 98.8704 133.092C98.3529 136.374 97.3178 139.49 96.1286 142.573C95.7322 143.619 95.3248 144.654 94.8733 145.678C94.609 146.295 94.3228 146.912 93.4749 146.846C92.1315 147.297 90.7 147.484 89.3236 147.66C86.2184 148.057 83.3555 149.136 80.5035 150.292C79.3694 150.755 78.3453 150.766 77.4094 149.918C76.2642 149.037 75.1961 148.079 74.4143 146.835C74.095 146.064 73.181 145.733 72.9828 144.874C72.7956 143.883 72.8837 143.047 74.117 142.859C77.6406 141.626 81.1752 140.492 85.3265 141.252C81.0761 139.655 77.1451 139.842 73.192 140.866C72.8066 140.965 72.223 141.252 72.0689 140.866C71.8046 140.173 71.7385 139.391 72.3221 138.752Z" fill="#D59368"/>
<path d="M72.6523 133.533C73.5002 134.094 72.8395 134.81 72.7734 135.405C72.6633 136.374 72.2009 137.299 72.2669 138.301C72.3 139.369 71.5952 139.545 70.7474 139.545C64.4599 137.948 58.1394 136.539 51.7748 135.284C51.5766 135.251 51.4005 135.129 51.2133 135.052C51.0041 134.667 50.6076 134.755 50.2663 134.678C49.1982 134.447 48.0861 134.205 47.8658 132.916C47.6456 131.617 48.0861 130.527 49.2863 129.822C50.024 129.536 50.7838 129.657 51.5326 129.789C57.8861 130.879 64.2727 131.815 70.6262 132.916C71.331 133.059 72.0467 133.103 72.6523 133.533Z" fill="#B67244"/>
<path d="M93.4529 146.735C94.0035 146.691 94.1577 146.273 94.3448 145.832C96.1507 141.593 97.8024 137.299 98.5402 132.718C98.6503 132.013 98.6503 131.441 97.9455 131.077C99.9276 131.331 101.667 132.311 103.539 132.905C103.638 133.026 103.693 133.158 103.704 133.313C103.363 136.77 102.295 140.03 101.106 143.267C100.864 143.917 100.423 144.544 100.82 145.293C100.886 145.436 100.875 145.568 100.786 145.689C99.311 145.832 99.2229 147.121 98.8925 148.112C98.4521 149.433 97.8134 150.05 96.426 149.367C96.1617 149.235 95.8534 149.169 95.5561 149.114C94.3559 148.894 93.1336 148.717 93.4529 147C93.3869 146.934 93.3648 146.879 93.3869 146.812C93.4089 146.757 93.4309 146.735 93.4529 146.735Z" fill="#232323"/>
<path d="M70.748 139.545C71.4968 139.424 72.0474 139.072 72.2676 138.312C72.2896 138.455 72.3006 138.598 72.3227 138.752C72.2456 140.822 72.2676 140.877 74.4368 140.261C78.511 139.116 82.4421 139.468 86.296 141.131C86.241 141.274 86.2079 141.439 86.1859 141.439C82.0016 141.197 77.9054 141.681 73.9303 143.025C73.7762 143.135 73.633 143.124 73.5009 142.981C74.9213 142.441 76.3528 141.89 77.7733 141.351C79.2158 140.327 80.8564 140.745 82.1007 140.602C80.5812 140.382 78.7202 140.349 76.8703 140.602C76.6942 140.624 76.6832 140.811 76.6171 140.943C74.8773 140.239 73.2917 141.131 71.5959 141.494C71.4307 140.756 72.2676 139.578 70.748 139.545Z" fill="#4D3729"/>
<path d="M93.4537 146.735C93.4647 146.823 93.4537 146.923 93.4427 147.011C91.8791 147.605 90.2164 147.737 88.5867 147.991C85.7678 148.431 83.1361 149.466 80.5264 150.523C79.2491 151.041 78.192 150.997 77.201 150.039C77.0689 149.874 77.0909 149.73 77.2561 149.609C78.148 150.325 79.117 150.644 80.2291 150.149C84.4465 148.244 88.9171 147.363 93.4537 146.735Z" fill="#4C3E36"/>
<path d="M76.6284 140.943C76.7165 140.723 75.7805 140.492 76.6174 140.294C78.7866 139.754 81.066 139.93 83.3233 140.756C81.4734 140.954 79.6235 141.153 77.7736 141.362C77.4432 141.098 76.9257 141.351 76.6284 140.943Z" fill="#B17045"/>
<path d="M100.775 145.7C100.775 145.623 100.775 145.535 100.786 145.458C101.358 144.346 102.493 143.531 102.426 142.089C102.415 141.769 102.812 141.67 103.153 141.725C103.406 141.769 103.66 141.824 103.891 141.923C106.093 142.936 108.262 143.19 110.41 141.758C110.696 141.56 111.07 141.494 111.434 141.637C111.489 141.714 111.544 141.78 111.599 141.857C109.452 143.487 107.172 144.302 104.552 143.014C103.781 142.639 103.219 142.496 103.032 143.696C102.856 144.885 101.876 145.425 100.775 145.7Z" fill="#4B3E36"/>
<path d="M77.2664 149.62C77.2444 149.764 77.2223 149.907 77.2113 150.05C76.2313 149.026 74.7448 148.442 74.4365 146.835C75.3724 147.759 76.3194 148.684 77.2664 149.62Z" fill="#40352D"/>
<path d="M27.2307 133.819H27.0985H26.9664C26.3938 133.059 26.4048 132.222 26.6691 131.364L26.6471 131.386C27.4729 130.945 28.1556 130.956 28.4859 131.991L28.497 131.969C28.1336 132.344 27.9574 132.861 27.561 133.213L27.583 133.191C27.2637 133.28 27.3518 133.61 27.2307 133.819Z" fill="#232323"/>
<path d="M73.5123 142.981C73.6555 142.992 73.7986 143.003 73.9418 143.025C72.8737 143.256 73.2921 144.236 72.9948 144.863C72.7746 144.137 71.8496 143.201 73.5123 142.981Z" fill="#372C25"/>
<path d="M212.386 126.166C214.005 126.188 215.337 127.488 215.359 129.04C215.381 130.56 213.983 131.969 212.452 131.98C210.778 131.991 209.501 130.659 209.545 128.952C209.6 127.389 210.866 126.144 212.386 126.166Z" fill="#A68B01"/>
<path d="M211.55 121.519C212.287 121.442 213.003 121.828 213.377 122.632C213.708 123.336 213.796 124.096 212.596 124.019C211.913 123.975 211.285 124.184 210.669 124.415C209.314 124.911 209.017 124.691 209.237 123.248C209.413 122.048 210.184 121.519 211.55 121.519Z" fill="#A68B00"/>
<path d="M288.585 129.106C288.574 127.466 289.851 126.144 291.426 126.166C293.033 126.188 294.377 127.488 294.399 129.04C294.41 130.56 293.011 131.969 291.492 131.98C289.873 131.991 288.607 130.736 288.585 129.106Z" fill="#A68B01"/>
<path d="M287.935 123.16C288.441 123.358 289.157 123.325 289.421 123.975C289.707 124.68 288.893 124.713 288.606 125.065C288.287 125.462 287.946 125.836 287.56 126.166C287.219 126.464 287.34 127.377 286.657 127.102C285.997 126.827 285.622 126.122 285.6 125.362C285.567 124.184 286.701 123.116 287.935 123.16Z" fill="#A88D01"/>
<path d="M95.4133 128.908C95.2151 129.371 94.9509 129.767 94.3563 130.053C94.3563 129.205 94.3563 128.468 94.3563 127.256C94.092 128.005 93.9709 128.313 93.8828 128.633C93.2331 130.967 92.3852 131.32 90.271 130.119C89.8526 129.888 89.7976 129.536 89.7205 129.117C89.4452 127.73 89.1039 126.353 88.8396 124.966C88.7625 124.537 88.6634 124.184 88.2229 124.008C88.1569 123.656 88.3661 123.446 88.8176 123.138C89.247 125.054 89.6544 126.882 90.0728 128.721C90.249 129.514 91.9998 130.582 92.7596 130.384C93.2441 130.251 93.112 129.811 93.2001 129.514C93.5965 128.17 93.9488 126.827 94.3232 125.473C94.4554 125.484 94.5765 125.495 94.7086 125.495C94.7086 126.409 94.7527 127.322 94.6976 128.236C94.6536 128.842 94.8297 129.051 95.4133 128.908Z" fill="#452C14"/>
<path d="M97.3951 130.758C96.5582 130.703 96.9106 130.053 96.8115 129.624C96.6683 128.919 97.1418 128.126 96.4921 127.51C96.1948 126.816 96.8225 126.706 97.3841 126.166C97.3951 127.851 97.3951 129.304 97.3951 130.758Z" fill="#70481E"/>
<path d="M103.562 133.247C103.551 133.136 103.551 133.015 103.54 132.905C104.267 132.971 104.278 132.399 104.399 131.936C104.608 131.132 104.597 130.262 105.038 129.514C105.203 129.404 105.346 129.415 105.478 129.558C105.743 130.791 105.258 131.903 104.895 133.015C104.674 133.654 104.146 133.984 103.562 133.247Z" fill="#5A3A1A"/>
<path d="M105.334 129.525C105.235 129.525 105.136 129.525 105.026 129.525C105.07 129.095 105.114 128.666 105.18 127.994C106.072 128.996 106.347 130.02 106.71 131C106.633 131.033 106.578 131.077 106.545 131.143C105.609 131.011 105.907 129.943 105.334 129.525Z" fill="#3F2912"/>
<path d="M28.487 131.991C27.9584 131.529 27.3528 131.298 26.6481 131.386C24.9413 130.064 23.5979 128.556 23.9283 126.166C24.3908 125.572 24.4348 124.746 25.0294 124.217C25.5359 123.766 25.8553 123.634 26.0204 124.471C26.1636 125.208 26.3288 125.946 26.56 126.662C27.1326 128.446 28.2117 128.996 29.8744 128.258C31.427 127.576 33.0347 127.708 34.6423 127.631C35.7985 129.47 36.0738 131.408 35.1819 133.423C34.6423 134.623 33.343 134.843 32.6933 133.731C31.6803 132.002 30.1277 131.958 28.487 131.991Z" fill="#D59367"/>
<path d="M72.6526 133.533C69.14 133.346 65.7045 132.52 62.2469 131.991C57.9195 131.331 53.614 130.56 49.2976 129.844C50.1455 128.699 51.3457 129.404 52.3918 129.249C54.572 129.888 56.8404 129.8 59.0536 130.185C59.7914 130.318 60.5402 130.329 61.2889 130.406C64.3611 130.747 67.4222 131.121 70.4944 131.419C71.8488 131.54 71.8048 132.971 72.6526 133.533Z" fill="#77431F"/>
<path d="M27.5613 133.214C27.6604 132.641 27.4402 131.826 28.4973 131.969C29.3452 132.575 29.3121 133.511 29.3782 134.392C29.4112 134.755 29.5434 135.262 28.9047 135.306C28.2991 135.35 27.9577 135.096 27.8917 134.458C27.8366 134.028 28.0569 133.522 27.5613 133.214Z" fill="#C78C64"/>
<path d="M26.6586 131.364C27.2752 132.123 26.8017 133.015 26.9559 133.819C26.8678 134.105 26.7356 134.392 26.7026 134.689C26.6475 135.218 26.3613 135.372 25.8768 135.328C25.3262 135.273 25.4253 134.865 25.4583 134.535C25.5134 133.885 25.6015 133.236 25.6785 132.586C25.8327 132.035 25.4693 131.066 26.6586 131.364Z" fill="#D39266"/>
<path d="M22.6826 135.361C23.4314 134.337 24.026 133.258 24.1912 131.969C24.7087 131.738 24.5656 130.934 25.2923 130.78C25.5235 131.683 24.7197 132.366 24.8298 133.202C24.3563 133.643 24.3343 134.282 24.1361 134.843C23.8498 135.636 23.4204 135.922 22.6826 135.361Z" fill="#CF8F64"/>
<path d="M146.396 101.369C146.495 101.358 146.594 101.358 146.693 101.369C146.473 104.749 146.065 108.086 143.83 110.86C143.5 111.268 143.301 111.874 142.597 111.796C145.316 108.845 145.911 105.135 146.396 101.369Z" fill="#5E5E5E"/>
<path d="M141.969 112.688C141.407 113.371 140.923 114.164 139.91 114.252C140.504 113.613 140.967 112.798 141.969 112.688Z" fill="#525252"/>
<path d="M130.759 8.88461C130.066 8.89562 129.218 8.98371 129.02 8.13584C128.832 7.29898 129.02 6.5502 129.901 5.92256C133.127 3.59917 136.221 1.11061 140.383 0.571054C141.716 0.394873 143.015 0.284759 144.325 0.571054C144.876 0.692178 145.415 0.835326 145.977 0.659144C148.146 1.1987 149.71 2.76231 151.505 3.92951C151.989 5.32795 153.245 6.09874 154.147 7.16684C155.293 8.53224 155.227 9.01674 153.509 9.87563C152.738 10.3271 151.912 9.98574 151.119 9.98574C148.675 9.96372 146.252 9.98574 143.907 10.8666C141.033 11.9568 138.203 11.2851 135.384 10.4702C133.81 10.0078 132.334 9.29203 130.759 8.88461Z" fill="#D9BF35"/>
<path d="M150.746 26.8441C150.944 26.6128 151.153 26.3926 151.351 26.1614C151.803 25.2805 152.375 24.4766 152.893 23.6398L152.871 23.6618C154.985 21.0741 156.405 18.1561 157.198 14.9078C157.859 12.8046 159.191 11.1419 160.667 9.56731C161.493 9.46821 161.922 8.59831 162.825 8.56528C163.475 8.54326 164.278 8.1028 164.719 8.56528C165.181 9.04978 164.301 9.58933 164.245 10.1839C163.497 12.2871 162.285 14.148 161.118 16.031C158.696 19.951 156.152 23.805 153.509 27.5928C153.333 27.8461 153.179 28.1104 152.871 28.2205C151.318 30.3567 149.722 32.4599 147.938 34.4089C146.804 32.5369 147.101 30.8082 148.918 28.8592L148.896 28.8702C149.611 28.2866 150.371 27.747 150.746 26.8441Z" fill="#C3C3C3"/>
<path d="M130.76 8.8846C131.09 7.97066 131.63 8.70842 131.949 8.82954C133.799 9.53427 135.671 10.1509 137.598 10.6134C139.888 11.1639 142.112 11.1089 144.337 10.2941C147.343 9.20393 150.415 9.32506 153.498 9.87562C153.663 10.3051 153.696 10.7896 153.069 10.6905C149.49 10.1179 146.076 10.6794 142.619 11.6815C139.293 12.6395 136.155 11.2851 133.061 10.217C132.246 9.90865 131.222 9.84259 130.76 8.8846Z" fill="#040302"/>
<path d="M152.859 28.2205C156.746 22.2744 160.777 16.4164 164.234 10.195C164.542 11.5934 163.474 12.5514 162.902 13.5314C160.072 18.4645 156.956 23.2214 153.641 27.8571C153.487 28.0774 153.355 28.6059 152.859 28.2205Z" fill="#0E0E0E"/>
<path d="M152.892 23.6398C152.639 24.6418 152.033 25.4236 151.351 26.1614C151.516 25.1043 152.11 24.3115 152.892 23.6398Z" fill="#232323"/>
<path d="M150.745 26.8441C150.591 27.9452 149.864 28.5178 148.895 28.8702C149.501 28.1875 150.129 27.5158 150.745 26.8441Z" fill="#232323"/>
<path d="M105.335 129.525C106.271 129.668 105.941 130.758 106.557 131.143C106.579 131.947 107.097 132.553 107.372 133.258C107.559 133.731 107.68 134.48 108.484 134.183C109.409 133.83 110.951 134.271 111.116 132.916C111.292 131.43 112.239 131.694 113.076 131.661C114.221 131.606 113.979 132.52 113.99 133.191C114.012 134.821 113.957 136.451 114.056 138.081C114.111 138.983 113.527 139.479 113.065 140.041C112.58 140.624 111.986 141.12 111.446 141.648C111.171 141.791 110.896 141.901 110.642 142.067C108.55 143.432 106.403 143.542 104.168 142.419C103.727 142.199 103.232 142.067 102.494 141.802C103.122 143.696 102.208 144.709 100.798 145.458C100.512 145.337 99.8404 145.667 100.16 144.874C101.679 141.109 102.648 137.189 103.573 133.247C104.234 133.72 104.564 133.467 104.707 132.751C104.906 131.683 105.126 130.604 105.335 129.525Z" fill="#D59368"/>
<path d="M212.442 127.377C213.654 127.499 214.325 128.093 214.424 129.205C214.513 130.207 213.511 131.143 212.442 131.055C211.396 130.967 210.802 130.34 210.78 129.271C210.758 128.082 211.451 127.543 212.442 127.377Z" fill="#685800"/>
<path d="M291.482 127.377C292.693 127.499 293.365 128.093 293.464 129.205C293.552 130.207 292.55 131.143 291.482 131.055C290.436 130.967 289.841 130.34 289.819 129.271C289.808 128.082 290.491 127.543 291.482 127.377Z" fill="#685800"/>
<path d="M107.019 140.767C108.154 140.129 108.869 139.391 108.88 137.937C108.891 136.77 110.576 135.867 111.986 135.999C111.798 136.528 111.292 136.561 110.917 136.726C109.948 137.156 109.398 137.75 109.398 138.928C109.387 140.173 108.572 140.778 107.019 140.767Z" fill="#150F0A"/>
<path d="M142.057 84.3342L141.044 81.2951L142.773 83.9819C142.762 83.9819 142.398 84.4333 142.057 84.3342Z" fill="#010101"/>
</g>
</svg>
