<svg width="263" height="215" viewBox="0 0 263 215" fill="none" xmlns="http://www.w3.org/2000/svg">
<path d="M11.7147 82.5086C11.9662 100.667 17.769 102.632 24.8951 100.739C33.0358 98.5751 39.7175 91.794 43.0106 82.8221L45.2818 76.6346C46.7916 72.521 46.8424 67.8745 45.4231 63.7171C44.0037 59.5598 41.2303 56.2321 37.7131 54.4663H37.7131C35.9716 53.5919 34.0998 53.1273 32.2048 53.0989C30.3097 53.0706 28.4284 53.479 26.6683 54.301C24.9082 55.123 23.3038 56.3424 21.9466 57.8895C20.5895 59.4367 19.5062 61.2813 18.7585 63.3182C11.4504 66.6757 10.007 73.6268 11.7147 82.5086Z" fill="#2F2E41"/>
<path d="M57.536 45.9624L59.7232 41.6337C59.9903 41.1051 60.1516 40.5127 60.195 39.9008C60.2383 39.2889 60.1626 38.6734 59.9736 38.1006C59.7846 37.5278 59.4871 37.0125 59.1034 36.5934C58.7198 36.1743 58.26 35.8622 57.7585 35.6805C57.2292 35.4888 56.6684 35.4478 56.1228 35.561C55.5772 35.6742 55.0626 35.9382 54.622 36.3312C54.1813 36.7241 53.8273 37.2345 53.5895 37.8198C53.3517 38.4052 53.237 39.0485 53.2549 39.6962L53.3834 44.3492L43.1045 77.2948L48.7098 78.6635L57.536 45.9624Z" fill="#9F616A"/>
<path d="M3.45931 127.179L0.767119 131.099C0.438365 131.578 0.206565 132.137 0.0891114 132.736C-0.0283427 133.334 -0.0284023 133.956 0.0889364 134.554C0.206275 135.153 0.437966 135.713 0.766627 136.191C1.09529 136.67 1.51239 137.056 1.98663 137.319C2.48719 137.597 3.03729 137.731 3.59111 137.71C4.14493 137.689 4.68641 137.513 5.17043 137.198C5.65445 136.882 6.06699 136.436 6.37366 135.896C6.68034 135.356 6.87227 134.739 6.93347 134.095L7.37304 129.468L21.5603 98.5709L16.179 96.2822L3.45931 127.179Z" fill="#9F616A"/>
<path d="M20.0923 159.792L20.4886 165.36L20.5815 166.658L46.9307 163.695C47.839 163.575 48.7103 163.206 49.4738 162.619C50.2373 162.031 50.8714 161.241 51.3248 160.313C51.7781 159.384 52.0377 158.344 52.0826 157.277C52.1275 156.209 51.9564 155.144 51.5832 154.168L43.0855 132.832L40.1502 125.463L27.4306 122.03C16.9417 131.419 26.3787 141.781 38.252 152.263C38.7168 152.675 39.1864 153.087 39.661 153.499L20.0923 159.792Z" fill="#2F2E41"/>
<path d="M11.2143 179.07C11.5353 179.124 11.8628 179.08 12.1652 178.943C12.4677 178.807 12.735 178.581 12.9415 178.289L21.5604 166.086L21.0712 160.365L18.1324 158.302C17.892 158.134 17.6231 158.028 17.3443 157.993C17.0656 157.958 16.7837 157.995 16.5182 158.1C16.2527 158.206 16.0101 158.377 15.8071 158.604C15.604 158.83 15.4456 159.105 15.3426 159.41L9.72109 176.066C9.6161 176.377 9.57273 176.712 9.59423 177.045C9.61572 177.379 9.70154 177.702 9.84522 177.991C9.98891 178.28 10.1867 178.528 10.4238 178.715C10.661 178.901 10.9312 179.023 11.2143 179.07Z" fill="#2F2E41"/>
<path opacity="0.2" d="M18.625 158.648L19.1142 165.514L20.4889 165.36L45.4634 162.55C46.3717 162.431 47.243 162.062 48.0065 161.474C48.77 160.887 49.4041 160.097 49.8575 159.168C50.3108 158.24 50.5704 157.2 50.6153 156.132C50.6603 155.065 50.4891 154 50.1159 153.024L43.0859 134.617V132.832L40.1506 125.463L27.4309 122.03C16.9421 131.419 26.3791 141.781 38.2524 152.263L38.1937 152.354L18.625 158.648Z" fill="black"/>
<path d="M8.76797 176.782C9.08901 176.835 9.41646 176.791 9.7189 176.655C10.0214 176.518 10.2887 176.292 10.4952 176L19.1141 163.797L18.6249 158.076L15.6861 156.014C15.4457 155.845 15.1768 155.739 14.8981 155.704C14.6193 155.67 14.3374 155.706 14.0719 155.811C13.8064 155.917 13.5638 156.089 13.3608 156.315C13.1578 156.541 12.9993 156.816 12.8963 157.121L7.27481 173.777C7.16981 174.088 7.12644 174.423 7.14794 174.756C7.16943 175.09 7.25525 175.413 7.39893 175.702C7.54262 175.991 7.74044 176.239 7.97755 176.426C8.21466 176.613 8.48489 176.734 8.76797 176.782Z" fill="#2F2E41"/>
<path d="M17.6465 157.504L18.1357 164.37L44.4849 161.405C45.3931 161.285 46.2644 160.917 47.0279 160.329C47.7914 159.742 48.4257 158.952 48.8792 158.024C49.3327 157.096 49.5926 156.056 49.6378 154.988C49.683 153.921 49.5123 152.856 49.1395 151.88L42.1074 133.473V123.174L24.9847 119.741C14.0832 129.499 24.705 140.308 37.2152 151.21L17.6465 157.504Z" fill="#2F2E41"/>
<path d="M34.2797 76.8285C38.3325 76.8285 41.6179 72.986 41.6179 68.246C41.6179 63.5061 38.3325 59.6636 34.2797 59.6636C30.2269 59.6636 26.9414 63.5061 26.9414 68.246C26.9414 72.986 30.2269 76.8285 34.2797 76.8285Z" fill="#9F616A"/>
<path d="M24.4951 82.5501L34.7687 90.5604L43.5746 88.2718L38.6824 82.5501V73.9677L30.8549 73.3955C30.6906 76.8227 29.0114 79.959 24.4951 82.5501Z" fill="#9F616A"/>
<path d="M23.0281 122.602L42.1075 125.463L46.5105 101.432C48.556 95.0529 47.3824 89.4171 43.5953 84.3846C43.4505 83.5377 43.0647 82.7731 42.5007 82.2155C41.9368 81.6578 41.228 81.34 40.4898 81.3139L38.683 81.4059C38.8874 88.9943 34.1071 87.1666 26.9418 80.8337L26.0766 81.1373C24.9581 81.5298 23.9978 82.3801 23.3715 83.5328C22.7452 84.6854 22.4946 86.0633 22.6658 87.4143L23.4547 93.6425C23.7892 96.1117 24.3089 98.5417 25.0077 100.904C26.9639 107.742 26.2648 114.98 23.0281 122.602Z" fill="#6C63FF"/>
<path d="M14.2222 96.8543L23.0281 100.287L26.9418 83.6946L25.6159 82.9897C24.5166 82.4053 23.2685 82.3319 22.1246 82.7844C20.9808 83.237 20.027 84.1815 19.4568 85.4263L14.2222 96.8543Z" fill="#6C63FF"/>
<path d="M40.1504 81.4059L45.0427 87.6995L50.9131 76.8284L43.5748 72.2512L40.1504 81.4059Z" fill="#6C63FF"/>
<path d="M25.7188 65.6714C30.3301 67.705 35.2514 67.4942 40.3953 65.6714V58.8054H25.7188V65.6714Z" fill="#2F2E41"/>
<path d="M254.587 183.532L249.528 185.998L215.801 132.253L191.349 186.984L185.025 185.505L203.575 110.065H225.076L254.587 183.532Z" fill="#2F2E41"/>
<path d="M261.374 196.07C261.094 196.159 260.801 196.183 260.513 196.14C260.224 196.096 259.946 195.986 259.694 195.817L249.025 188.632C248.737 188.438 248.491 188.17 248.306 187.847C248.122 187.524 248.003 187.155 247.959 186.77C247.916 186.385 247.948 185.993 248.055 185.625C248.162 185.257 248.34 184.922 248.575 184.648L249.528 183.532L254.587 183.039L262.321 191.723C262.602 192.038 262.807 192.436 262.914 192.874C263.021 193.313 263.027 193.777 262.931 194.219C262.834 194.661 262.64 195.065 262.366 195.39C262.093 195.715 261.751 195.95 261.374 196.07Z" fill="#2F2E41"/>
<path d="M178.66 198.042C178.94 198.132 179.233 198.155 179.521 198.112C179.809 198.069 180.088 197.959 180.34 197.789L191.009 190.605C191.297 190.411 191.543 190.142 191.728 189.819C191.912 189.496 192.031 189.128 192.075 188.742C192.118 188.357 192.086 187.965 191.979 187.597C191.872 187.229 191.694 186.895 191.459 186.62L190.506 185.505L185.447 185.012L177.713 193.695C177.432 194.011 177.227 194.408 177.12 194.847C177.013 195.285 177.007 195.749 177.103 196.191C177.2 196.633 177.394 197.037 177.668 197.363C177.941 197.688 178.283 197.922 178.66 198.042Z" fill="#2F2E41"/>
<path d="M189.241 31.6675L187.133 33.1467L182.765 24.8447C182.496 24.3348 182.337 23.757 182.299 23.1599C182.262 22.5627 182.348 21.9639 182.55 21.4138C182.752 20.8638 183.065 20.3786 183.461 19.9992C183.857 19.6199 184.325 19.3575 184.826 19.2341C185.271 19.1245 185.731 19.1275 186.176 19.2429C186.62 19.3583 187.038 19.5836 187.402 19.9035C187.766 20.2233 188.067 20.6305 188.285 21.0977C188.503 21.5648 188.634 22.0811 188.667 22.612L189.241 31.6675Z" fill="#FFB9B9"/>
<path d="M247.634 96.3029L248.508 93.616L256.331 96.9814C256.811 97.1881 257.242 97.5269 257.587 97.9692C257.932 98.4115 258.181 98.9443 258.313 99.5228C258.445 100.101 258.456 100.708 258.346 101.293C258.235 101.877 258.006 102.422 257.677 102.881C257.385 103.29 257.022 103.62 256.612 103.851C256.201 104.081 255.754 104.207 255.299 104.218C254.844 104.23 254.392 104.128 253.973 103.919C253.555 103.709 253.179 103.398 252.872 103.005L247.634 96.3029Z" fill="#FFB9B9"/>
<path d="M214.536 61.2516C218.029 61.2516 220.86 57.9403 220.86 53.8556C220.86 49.7709 218.029 46.4596 214.536 46.4596C211.044 46.4596 208.212 49.7709 208.212 53.8556C208.212 57.9403 211.044 61.2516 214.536 61.2516Z" fill="#FFB9B9"/>
<path d="M220.017 69.6337H211.164V58.2932L218.752 57.307L220.017 69.6337Z" fill="#FFB9B9"/>
<path d="M226.341 113.024H202.31C203.157 97.3424 203.828 82.1882 202.31 73.5782L203.707 65.7341C203.901 64.6472 204.437 63.6854 205.21 63.0399C205.982 62.3943 206.934 62.1124 207.875 62.2501L211.163 62.7307C213.39 67.309 216.081 67.2649 219.174 63.2238H223.134C223.662 63.2238 224.185 63.347 224.672 63.5861C225.158 63.8253 225.599 64.1756 225.969 64.6165C226.339 65.0575 226.629 65.5803 226.824 66.1542C227.019 66.7282 227.114 67.3419 227.104 67.9593C228.135 73.4841 228.478 79.1544 228.122 84.7942L226.341 113.024Z" fill="#3F3D56"/>
<path d="M185.868 31.6674L189.241 29.6953L207.369 64.7032L202.31 73.5782L185.868 31.6674Z" fill="#3F3D56"/>
<path d="M247.681 97.7059L250.563 94.8623L235.248 69.7628C233.75 67.3073 231.684 65.4019 229.293 64.2698C226.902 63.1377 224.285 62.8257 221.748 63.3705L221.265 63.4743L227.056 75.3271L234.684 82.0811L247.681 97.7059Z" fill="#3F3D56"/>
<path d="M221.85 49.4895C221.85 49.4895 223.032 46.4491 219.959 45.067C219.959 45.067 217.36 40.0917 212.16 43.4086C212.16 43.4086 208.615 45.067 208.615 49.4895C208.615 53.912 207.434 54.7412 207.434 54.7412C207.434 54.7412 209.193 52.6298 209.666 50.9714C210.139 49.313 213.815 48.9367 215.233 50.5951C216.651 52.2536 220.196 51.9772 220.196 51.9772L219.959 58.0581C219.959 58.0581 221.141 54.4648 221.614 54.4648C222.086 54.4648 222.559 49.4895 221.85 49.4895Z" fill="#2F2E41"/>
<path d="M221.266 215C242.636 215 259.96 213.945 259.96 212.643C259.96 211.341 242.636 210.286 221.266 210.286C199.896 210.286 182.572 211.341 182.572 212.643C182.572 213.945 199.896 215 221.266 215Z" fill="#E6E6E6"/>
<path d="M28.0726 213.889C39.3682 213.889 48.5251 213.331 48.5251 212.643C48.5251 211.955 39.3682 211.397 28.0726 211.397C16.777 211.397 7.62012 211.955 7.62012 212.643C7.62012 213.331 16.777 213.889 28.0726 213.889Z" fill="#E6E6E6"/>
<path d="M184.336 41.47L59.9994 54.503C59.3889 54.5661 58.7819 54.3435 58.3116 53.8839C57.8412 53.4243 57.5459 52.7653 57.4905 52.0514L54.7263 15.9793C54.6723 15.2653 54.8627 14.5554 55.2556 14.0053C55.6486 13.4552 56.2121 13.1099 56.8225 13.045L181.159 0.0121183C181.77 -0.051029 182.377 0.171615 182.847 0.631209C183.318 1.0908 183.613 1.74982 183.668 2.4637L186.433 38.5358C186.487 39.2498 186.296 39.9597 185.903 40.5098C185.51 41.0599 184.947 41.4052 184.336 41.47Z" fill="#6600CC"/>
<path d="M74.5282 43.4388C79.8906 43.4388 84.2376 38.3547 84.2376 32.0832C84.2376 25.8116 79.8906 20.7275 74.5282 20.7275C69.1659 20.7275 64.8188 25.8116 64.8188 32.0832C64.8188 38.3547 69.1659 43.4388 74.5282 43.4388Z" fill="white"/>
<path d="M96.2852 22.202C95.8583 22.2477 95.4644 22.4896 95.1899 22.8746C94.9153 23.2596 94.7827 23.7563 94.8209 24.2556C94.8592 24.755 95.0653 25.2161 95.394 25.5379C95.7227 25.8597 96.1471 26.0159 96.5741 25.9721L172.558 18.0075C172.77 17.9857 172.976 17.9152 173.164 17.8001C173.353 17.685 173.52 17.5275 173.657 17.3367C173.793 17.1459 173.896 16.9255 173.96 16.6882C174.023 16.4508 174.046 16.2011 174.027 15.9533C174.008 15.7055 173.948 15.4645 173.849 15.2442C173.75 15.0238 173.616 14.8283 173.452 14.669C173.289 14.5096 173.1 14.3895 172.897 14.3154C172.694 14.2414 172.481 14.2149 172.269 14.2374L96.2852 22.202Z" fill="white"/>
<path d="M97.1517 33.5123C96.9397 33.534 96.7335 33.6044 96.5449 33.7194C96.3562 33.8345 96.1888 33.9919 96.0522 34.1827C95.9156 34.3736 95.8126 34.594 95.7489 34.8315C95.6853 35.0689 95.6623 35.3187 95.6813 35.5666C95.7003 35.8144 95.7609 36.0555 95.8596 36.2759C95.9583 36.4963 96.0933 36.6918 96.2567 36.8512C96.4201 37.0106 96.6088 37.1307 96.8119 37.2047C97.0151 37.2786 97.2287 37.305 97.4406 37.2823L173.424 29.3178C173.636 29.296 173.842 29.2255 174.031 29.1104C174.219 28.9953 174.387 28.8378 174.523 28.647C174.66 28.4562 174.763 28.2358 174.826 27.9985C174.89 27.7611 174.913 27.5114 174.894 27.2636C174.875 27.0158 174.814 26.7748 174.716 26.5545C174.617 26.3341 174.482 26.1386 174.319 25.9793C174.155 25.8199 173.967 25.6998 173.764 25.6257C173.561 25.5517 173.347 25.5252 173.135 25.5477L97.1517 33.5123Z" fill="white"/>
</svg>
