
<svg width="200" height="200" viewBox="0 0 200 200" fill="none" xmlns="http://www.w3.org/2000/svg">
<path d="M187.264 0H12.7364C5.70543 0 0 5.70543 0 12.7364V187.264C0 194.295 5.70543 200 12.7364 200H187.264C194.295 200 200 194.295 200 187.264V12.7364C200 5.70543 194.295 0 187.264 0Z" fill="white"/>
<path d="M94.5738 65.1158L58.9149 76.7437L51.9381 125.581V151.938L67.442 194.573L74.4187 200C74.4187 200 74.4187 200 75.9691 200C77.5195 200 126.45 200 126.45 200C126.45 200 144.961 177.519 148.062 168.992C151.163 160.465 148.062 119.379 143.411 110.852C138.76 102.325 124.031 56.5887 111.628 61.2399C99.2249 65.891 94.5738 65.1158 94.5738 65.1158Z" fill="white"/>
<path d="M70.3954 108.798C70.4652 107.597 70.5272 106.418 70.5737 105.256C70.0931 106.054 69.6512 106.829 69.2559 107.566C69.7365 107.876 70.1241 108.302 70.3954 108.798Z" fill="#6600CC"/>
<path d="M131.868 43.7829C95.9846 11.217 61.2947 4.65112 61.2947 4.65112C61.2947 4.65112 76.0233 7.7519 66.6745 39.8294C57.3179 71.8992 10.9071 122.481 35.7133 165.116C46.566 182.946 72.6513 198.736 74.4187 200C62.7908 191.473 56.6435 162.015 64.4109 140.287C66.1861 135.326 67.4497 130.364 68.3722 125.527C67.659 126.589 66.4109 127.225 65.0931 127.015C63.2559 126.729 61.9691 124.946 62.2482 123.046L62.3412 122.426C60.659 122.008 59.5272 120.333 59.783 118.535L60.5892 112.961C60.8528 111.171 62.4109 109.907 64.1396 110.015V110.008C64.3567 108.496 65.504 107.372 66.8838 107.108C67.8683 105.217 69.1396 103.062 70.7055 100.884C70.7598 98.0542 70.7598 95.4031 70.7598 93.0077C70.7598 81.1938 73.9303 75.2868 73.9303 75.2868C73.9303 75.2868 78.0931 84.9767 79.6745 91.7984C84.1474 88.6356 89.7055 86.4263 96.4962 86.4263C104.186 86.4263 110.519 89.1007 115.574 92.7209C116.969 85.8914 121.519 75.2945 121.519 75.2945C121.519 75.2945 124.69 81.2015 124.69 93.0155C124.69 95.5891 124.667 98.4728 124.706 101.558C126.295 103.574 127.581 105.512 128.581 107.147C130.07 107.434 131.271 108.566 131.457 110.054L131.488 110.326C131.628 110.287 131.768 110.24 131.923 110.217C133.768 109.969 135.473 111.318 135.721 113.225L136.38 118.403C136.62 120.302 135.31 122.07 133.465 122.318C133.31 122.341 133.163 122.333 133.016 122.333L133.116 123.132C133.357 125.031 131.884 126.814 129.837 127.093C128.775 127.233 127.768 126.938 127.008 126.364C127.938 130.953 129.225 135.628 131.039 140.287C136.488 154.264 136.434 173.643 126.357 200C135.217 191.62 154.907 169.186 161.295 149.612C172.923 113.953 167.752 76.3566 131.868 43.7829Z" fill="#6600CC"/>
<path d="M96.4962 88.7593C89.8218 88.7593 84.4264 91.0849 80.1473 94.3329C80.2249 94.9298 80.2714 95.488 80.2714 95.9763C80.2714 101.883 83.4419 93.0228 96.1396 93.0228C96.69 93.0228 98.7597 93.0228 99.3101 93.0228C112 93.0228 115.171 101.883 115.171 95.9763C115.171 95.7748 115.178 95.55 115.194 95.3252C110.318 91.5965 104.109 88.7593 96.4962 88.7593Z" fill="#6600CC"/>
<path d="M124.891 108.403C125.217 108.039 125.612 107.721 126.062 107.496C125.674 106.884 125.248 106.233 124.783 105.558C124.814 106.496 124.853 107.442 124.891 108.403Z" fill="#6600CC"/>
<path opacity="0.17" d="M104.706 156.59C102.054 158.582 99.4032 158.869 98.6901 158.908C98.6281 158.908 98.566 158.915 98.504 158.915C98.4498 158.915 98.3955 158.908 98.3412 158.908C97.6746 158.869 94.9924 158.605 92.3025 156.59C89.2017 154.264 70.597 134.884 70.597 134.884C70.597 134.884 81.0001 152.225 87.9614 160.729C89.4498 162.543 93.5893 161.264 94.6281 162.016C100.535 166.295 97.7443 164.83 101.605 162.016C102.388 161.45 106.101 163.442 107.814 161.264C114.566 152.659 126.411 134.884 126.411 134.884C126.411 134.884 107.806 154.264 104.706 156.59Z" fill="#6600CC"/>
<path d="M110.109 172.868C100.031 172.093 96.9302 164.341 107.008 162.791C110.318 162.279 112.791 161.434 114.62 160.535L116.326 145.768C116.326 144.039 114.922 142.636 113.194 142.636H83.0233C81.2946 142.636 79.8915 144.039 79.8915 145.768L81.783 159.791C83.6822 160.954 86.5349 162.147 90.7442 162.791C100.822 164.341 97.7209 172.093 87.6434 172.868C86.2016 172.977 84.845 173.039 83.5736 173.062L85.3178 186.016C85.3178 187.744 86.7209 189.147 88.4496 189.147H108.55C110.279 189.147 111.682 187.744 111.682 186.016L113.186 173.031C112.202 173 111.178 172.954 110.109 172.868Z" fill="#6600CC"/>
<path d="M82.5894 127.876C83.9149 131.52 87.8452 132.465 87.3646 123.806C87.039 118.031 80.225 121.411 82.5894 127.876Z" fill="#6600CC"/>
<path d="M113.264 127.876C111.938 131.52 108.008 132.465 108.488 123.806C108.814 118.031 115.62 121.411 113.264 127.876Z" fill="#6600CC"/>
<path d="M86.9297 149.095C87.1997 148.35 86.7072 147.489 85.8298 147.171C84.9524 146.853 84.0223 147.198 83.7524 147.943C83.4824 148.688 83.9749 149.549 84.8523 149.867C85.7297 150.185 86.6598 149.839 86.9297 149.095Z" fill="#6600CC"/>
</svg>
