<svg width="300" height="288" viewBox="0 0 300 288" fill="none" xmlns="http://www.w3.org/2000/svg">
<path d="M161.203 26.6433L153.293 28.7248V29.3493L156.832 32.0553L158.705 34.5531L161.203 38.508L166.199 32.0553L168.905 28.7248V26.6433L167.239 25.3944L161.203 26.6433Z" fill="#B3B1B1" stroke="black" stroke-width="0.5"/>
<path d="M146.216 198.994C130.171 200.26 105.002 198.994 105.002 198.994L114.483 169.832L116.215 147.309L124.878 119.588L126.61 99.622V91.3788L130.188 93.8766C132.062 97.554 136.849 104.909 136.849 104.909H143.926H152.877C156.372 104.909 156.654 103.316 158.913 101.995C163.253 99.4563 168.904 93.8766 168.904 93.8766L198.67 91.3788L175.357 195.039C175.357 195.039 157.665 198.09 146.216 198.994Z" fill="#C4C4C4"/>
<path d="M98.5487 66.8169V64.111L101.255 58.9072V56.8256L117.907 43.5039L119.156 44.7528L131.02 38.3001L153.085 28.7251L141.636 12.0729C141.636 12.0729 135.715 6.79602 131.02 5.41199C126.108 3.96378 122.991 4.79519 117.907 5.41199C112.838 6.02701 109.882 6.47445 105.21 8.53428C100.959 10.4079 98.6915 11.903 95.2183 14.987C92.0272 17.8205 90.4794 19.7433 88.1411 23.3131C85.5309 27.2979 83.7556 29.6524 82.9373 34.3452C82.4066 37.3882 82.5232 39.1939 82.9373 42.255C83.4268 45.8737 85.6432 51.2055 85.6432 51.2055C88.1411 55.091 93.1784 63.1118 93.3449 64.111C93.5114 65.1101 96.8835 68.1352 98.5487 69.5229V66.8169Z" fill="#C4C4C4" stroke="black" stroke-width="0.5"/>
<path d="M169.112 172.975C168.613 170.643 163.215 153.825 160.578 145.707C157.942 137.589 158.08 129.055 158.08 129.055C158.08 129.055 173.067 123.851 181.602 116.357C198.997 101.084 185.973 83.8856 190.344 83.8856C195.238 83.8856 197.945 84.6918 202.833 84.9263C209.491 85.2458 213.236 84.9263 219.902 84.9263H226.979C226.979 84.9263 233.223 83.5387 237.595 83.8856C241.966 84.2325 251.791 84.9263 256.12 84.9263C259.517 84.9263 261.001 82.876 261.516 81.1885C261.631 80.4044 261.74 79.9307 261.74 79.9307C261.725 80.2893 261.657 80.7252 261.516 81.1885C261.195 83.3603 260.823 87.9135 262.573 91.3791C265.043 96.2717 266.602 97.2132 271.94 98.4562C277.84 99.8302 283.315 98.4102 287.759 94.2932C291.851 90.5023 292.22 87.3055 291.298 81.8041C290.672 78.0738 288.384 76.3921 288.384 76.3921L295.877 79.9307L299 93.4606C298.167 97.1379 292.963 107.615 292.963 107.615C292.963 107.615 291.784 115.039 292.963 117.19C289.771 120.173 281.307 126.141 281.307 126.141C281.307 126.141 271.176 129.193 267.152 130.72C267.152 130.72 264.256 134.143 261.74 135.299C257.825 137.098 250.708 135.299 250.708 135.299C250.708 135.299 242.798 138.005 240.092 138.838C237.386 139.67 230.975 141.627 226.979 142.793C222.982 143.958 225.314 148.968 226.979 151.327C227.673 155.837 231.974 167.355 231.974 167.355V189.627V210.234V232.715L240.092 264.562C240.092 264.562 247.863 275.316 250.708 279.132L244.672 283.504C244.672 283.504 237.079 286.376 231.974 287.042C227.299 287.653 219.902 287.042 219.902 287.042H206.372H193.258V270.598V261.44C193.258 261.44 188.054 242.539 187.222 239.375C186.389 236.211 181.81 215.23 181.81 215.23C181.81 215.23 169.612 175.306 169.112 172.975Z" fill="white" stroke="black" stroke-width="0.5"/>
<path d="M175.988 226.099C171.657 207.907 175.988 194.913 175.988 194.913L194.18 259.884L191.581 267.68C191.581 267.68 180.32 244.291 175.988 226.099Z" fill="#270449"/>
<path d="M179.232 173.136C178.772 170.819 173.794 154.102 171.363 146.034C168.932 137.965 169.059 129.483 169.059 129.483C169.059 129.483 182.879 124.311 190.748 116.863C206.788 101.682 194.779 84.5883 198.81 84.5883C203.323 84.5883 253.777 83.7962 258.285 84.0294C261.844 84.0294 264.06 82.665 264.544 81.1962C264.602 80.8513 264.644 80.6575 264.644 80.6575C264.637 80.8371 264.603 81.0174 264.544 81.1962C264.262 82.8774 263.589 88.1463 265.411 92.0363C267.689 96.8991 269.126 97.8349 274.049 99.0704C279.489 100.436 284.538 99.0246 288.636 94.9327C292.409 91.1648 292.749 87.9874 291.899 82.5194C291.322 78.8119 289.211 77.1404 289.211 77.1404L296.121 80.6575L299 94.1051C298.232 97.7601 292.936 103.995 292.936 103.995C292.936 103.995 287.548 113.119 288.636 115.257C285.693 118.222 279.942 121.321 279.942 121.321C279.942 121.321 270.659 125.069 266.948 126.586C266.948 126.586 262.337 130.567 260.018 131.716C256.408 133.504 249.622 131.716 249.622 131.716C249.622 131.716 243.455 132.621 240.959 133.449C238.464 134.276 216.924 137.446 213.239 138.605C209.553 139.764 222.965 151.028 224.5 153.373C225.14 157.855 228.832 168.966 228.832 168.966V192.355V213.146V233.071L237.197 261.063C237.197 261.063 251.848 274.855 254.471 278.648L248.905 282.993C248.905 282.993 241.903 285.847 237.197 286.51C232.886 287.117 226.065 286.51 226.065 286.51H213.589H201.497V270.166V261.063C201.497 261.063 196.698 242.278 195.931 239.133C195.163 235.988 190.94 215.134 190.94 215.134C190.94 215.134 179.693 175.453 179.232 173.136Z" fill="#6600CC"/>
<path d="M99.1734 90.5463C101.357 89.9024 105.002 90.5463 105.002 90.5463L114.368 106.99V122.185C112.911 134.189 109.997 158.737 109.997 160.902C109.997 163.067 107.638 181.37 106.459 190.251C106.459 190.251 104.098 203.354 102.296 211.691C100.246 221.172 96.4674 229.87 96.4674 235.837V255.819C96.4674 255.819 90.9167 274.414 88.1413 282.671C88.1413 282.671 78.5098 274.816 71.0728 272.888C63.9911 271.051 52.3391 272.888 52.3391 272.888L57.7511 239.792L62.1223 201.908C62.1223 201.908 66.6448 186.847 66.7016 176.93C66.7603 166.692 62.1223 151.119 62.1223 151.119C62.1223 151.119 59.3892 151.599 57.7511 151.119C54.7704 150.245 55.3522 146.044 52.3391 145.29C50.9985 144.955 50.1625 145.524 48.8005 145.29C46.2556 144.853 44.3806 144.332 42.9722 142.168C41.3761 139.715 42.9722 134.675 42.9722 134.675C42.9722 134.675 39.5118 137.867 36.7277 138.629C34.2188 139.316 32.6428 138.991 30.0668 138.629C25.8362 138.035 23.7452 136.467 19.8673 134.675C15.3092 132.568 12.6797 131.395 8.6271 128.43C5.65242 126.254 1.54992 122.185 1.54992 122.185C1.54992 122.185 0.312596 116.986 1.54992 114.068C2.9677 110.723 8.6271 108.031 8.6271 108.031L6.75373 112.819C6.75373 112.819 6.3854 118.279 8.6271 120.52C10.8688 122.762 13.6291 122.77 16.745 122.185C22.733 121.063 26.6801 119.964 30.0668 114.9C32.2962 111.566 33.1891 104.284 33.1891 104.284C33.1891 104.284 35.0395 106.57 36.7277 106.99C39.3068 107.632 40.3615 104.782 42.9722 104.284C45.208 103.858 46.5388 104.54 48.8005 104.284C52.4291 103.874 57.7511 101.578 57.7511 101.578H62.1223C65.4551 101.578 67.3569 102.047 70.6565 101.578C77.4973 100.606 79.8298 94.9555 86.6842 94.0849C89.5067 93.7264 91.2699 94.9828 93.9696 94.0849C96.3015 93.3093 96.8162 91.2415 99.1734 90.5463Z" fill="white" stroke="black" stroke-width="0.5"/>
<path d="M98.8895 94.4659C100.825 93.8688 104.087 96.2806 104.087 96.2806L109.285 115.586L104.087 129.983C102.796 141.116 97.6138 156.243 97.6138 158.251C97.6138 160.258 95.5228 177.234 94.4772 185.471C94.4772 185.471 92.3844 197.624 90.7872 205.356C88.9707 214.149 85.6211 222.216 85.6211 227.75V246.283C85.6211 246.283 85.7566 262.663 83.2965 270.321C83.2965 270.321 69.7037 263.902 63.1116 262.113C56.8345 260.41 55.178 265.123 55.178 265.123L59.2371 230.472C60.7502 216.75 61.2295 215.606 62.7426 201.885C62.7426 201.885 67.6531 176.39 67.7035 167.192C67.7555 157.698 65.1047 142.111 65.1047 142.111C65.1047 142.111 59.6264 149.487 58.1744 149.041C55.5324 148.231 57.3801 142.811 54.7093 142.111C53.521 141.8 49.5116 143.844 46.0465 142.111C41.6214 139.899 47.2949 131.991 46.0465 129.983C44.6317 127.708 38.2037 133.926 38.2037 133.926C38.2037 133.926 35.1364 136.887 32.6685 137.594C30.4447 138.231 29.0477 137.249 26.7644 136.914C23.0145 136.363 20.8966 135.111 17.4593 133.448C13.419 131.494 11.3527 130.135 7.76057 127.385C5.12384 125.366 1.48744 122.343 1.48744 122.343C1.48744 122.343 0.390694 117.521 1.48744 114.814C2.74415 111.712 7.76057 109.215 7.76057 109.215L6.10003 113.655C6.10003 113.655 5.77355 118.719 7.76057 120.798C9.74759 122.877 12.1943 122.885 14.9562 122.343C20.2639 121.302 23.7625 120.283 26.7644 115.586C28.7405 112.494 29.532 105.74 29.532 105.74C29.532 105.74 31.1722 107.86 32.6685 108.25C34.9546 108.845 35.8895 109.677 38.2037 109.215C40.1854 108.82 41.365 105.977 43.3698 105.74C46.5861 105.36 52.1105 105.74 52.1105 105.74C52.1105 105.74 56.6613 103.231 58.1744 103.231C61.1286 103.231 59.8179 103.666 62.7426 103.231C68.8062 102.329 69.4243 105.669 75.5 104.861C78.0018 104.529 85.2349 97.1134 87.6279 96.2806C89.6949 95.5613 96.8002 95.1107 98.8895 94.4659Z" fill="#6600CC"/>
<path d="M112.912 37.2594L95.8431 51.83C95.8431 51.83 91.8454 47.1437 90.6393 43.504C89.7352 40.7759 88.8497 38.9933 89.5985 36.2186C90.2805 33.6913 91.4813 32.4062 93.5534 30.8067C95.8129 29.0624 97.5715 28.1696 100.422 28.3088C103.546 28.4614 104.974 30.211 107.5 32.0556C109.867 33.785 112.912 37.2594 112.912 37.2594Z" stroke="black" stroke-width="0.5"/>
<path d="M105.209 41.8388C103.128 42.8796 97.9241 46.0851 93.7611 50.5812L90.2225 41.8388L89.3899 35.5942L93.7611 30.5986L98.5486 28.9333H102.92C104.516 30.0435 107.832 32.3887 108.332 32.8882C108.831 33.3878 111.038 36.1493 112.078 37.4676L105.209 41.8388Z" fill="#DAC036"/>
<path d="M131.437 93.4604C129.13 90.7695 124.152 88.0485 124.152 88.0485C124.152 88.0485 133.416 92.9337 138.738 92.7332C141.558 92.6269 143.171 92.3143 145.669 91.0006C148.162 89.6891 151.003 85.8029 151.003 85.8029L151.732 78.8727L151.003 75.5593L152.668 80.9713V98.2479V106.366C152.668 106.366 147.584 106.621 144.342 106.366C141.557 106.147 137.265 105.325 137.265 105.325C137.265 105.325 136.221 102.366 135.392 100.538C134.084 97.6545 133.497 95.8642 131.437 93.4604Z" fill="#D2A190"/>
<path d="M101.879 68.8985C100.534 67.3749 99.2043 66.7178 98.7567 64.7355C98.1905 62.2281 100.838 58.4909 100.838 58.4909V57.0339L117.282 43.504L118.739 44.7529L130.604 38.5083L137.681 43.504L142.052 48.9159L146.007 53.7034L150.17 59.7398V68.0659C150.17 68.0659 151.363 73.2461 151.211 76.6002C151.021 80.7954 150.212 85.6259 148.505 87.0078L144.134 90.5464C144.134 90.5464 140.247 91.8658 137.681 91.7953C135.434 91.7335 134.23 91.1391 132.061 90.5464C129.581 89.8688 128.22 89.3753 125.817 88.4649C121.022 86.6491 117.708 86.3347 113.952 82.8448C112.259 81.2719 111.643 80.074 110.205 78.2654C108.546 76.1783 107.84 74.8224 106.042 72.8534C104.53 71.1976 103.363 70.5798 101.879 68.8985Z" fill="#D2A190"/>
<path d="M101.463 79.5142L98.5492 64.7354L106.459 73.0614L113.952 82.8446L123.319 86.5914L124.985 96.999L123.319 109.28L119.573 125.516C117.075 133.009 112.079 148.454 112.079 150.286V169.436L106.459 166.314L104.169 154.865L112.079 132.385L113.952 117.606C113.328 115.386 112.079 110.612 112.079 109.28C112.079 107.948 108.332 100.538 106.459 96.999L101.463 79.5142Z" fill="white" stroke="black" stroke-width="0.5"/>
<path d="M102.429 83.9051L99.7555 70.21L107.013 77.9255L113.889 86.9913L120.546 91.8669L122.483 97.0646L120.546 109.193L117.081 125.652C114.789 132.596 112.17 149.943 112.17 151.64V167.233L107.013 164.34L104.912 153.731L112.17 132.899L113.889 119.204C113.316 117.146 112.17 112.723 112.17 111.488C112.17 110.254 108.732 103.387 107.013 100.108L102.429 83.9051Z" fill="#DAC036"/>
<path d="M230.934 17.0685L234.265 21.4397V22.2723L222.816 26.8517L216.78 29.9739L203.25 37.2593L205.123 41.4223L214.282 37.2593L222.816 35.1777L233.016 31.431L222.816 38.3C222.816 38.3 221.469 40.1127 221.568 41.4223C221.677 42.8837 222.47 43.6737 223.649 44.5446C224.934 45.4937 227.604 45.5854 227.604 45.5854C227.604 45.5854 227.793 48.2113 228.853 49.3321C229.777 50.31 231.975 50.7892 231.975 50.7892C231.975 50.7892 231.439 52.8163 231.975 53.9115C232.483 54.9491 234.265 55.7848 234.265 55.7848C234.265 55.7848 238.928 54.9543 241.758 53.9115C243.772 53.1695 246.754 51.6218 246.754 51.6218C246.754 51.6218 252.879 53.3163 256.121 51.6218C257.403 50.9513 259.035 49.3321 259.035 49.3321L260.7 51.6218V59.7397L262.99 69.3147C262.99 69.3147 261.463 75.9756 260.7 78.4734C259.937 80.9713 260.7 85.9669 260.7 85.9669C260.7 85.9669 261.789 94.3774 265.488 97.6235C269.046 100.746 272.431 101.397 277.144 100.954C280.706 100.619 282.638 99.5097 285.678 97.6235C288.226 96.043 290.343 95.3907 291.507 92.6278C292.516 90.2304 291.507 85.9669 291.507 85.9669C291.507 85.9669 289.996 80.2892 288.593 76.8082C286.811 72.391 284.979 70.304 282.972 65.9843C279.57 58.6584 279.005 53.9906 275.687 46.6261C273.253 41.2235 268.818 33.0962 268.818 33.0962C268.818 33.0962 265.315 31.0979 262.99 29.9739C259.28 28.1802 256.809 28.0211 253.207 26.019C249.696 24.0679 247.958 22.5635 244.881 19.9826C241.665 17.2859 237.179 12.4891 237.179 12.4891C237.179 12.4891 236.059 7.10396 234.265 4.16305C233.181 2.38566 230.934 0 230.934 0C230.934 0 228.215 2.19289 227.396 4.16305C226.366 6.63993 227.396 11.0321 227.396 11.0321C227.396 11.0321 229.755 15.4727 230.934 17.0685Z" fill="#D2A190"/>
<path d="M138.097 44.3366C135.424 41.6956 130.604 38.3002 130.604 38.3002L152.876 29.3496L157.248 33.0964C157.248 33.0964 161.966 40.2429 162.868 42.2551C163.77 44.2672 165.574 51.6219 165.574 51.6219C165.574 54.9117 169.433 57.9984 173.539 61.2832L173.692 61.4051L179.936 68.4823L189.303 75.3513C191.384 76.392 189.303 78.8899 189.303 81.5959V92.2116C189.303 92.2116 189.511 97.8317 189.303 100.33C189.095 102.827 185.556 109.28 185.556 109.28C185.556 109.28 182.018 113.235 179.936 117.19C179.936 117.19 172.304 122.671 169.528 123.434C166.753 124.198 163.338 126.159 159.329 127.806C155.852 129.234 150.378 131.344 150.378 131.344C150.378 129.193 152.876 121.145 152.876 121.145V113.235V103.66V95.5421V83.4692C152.876 80.2082 150.689 74.4076 150.378 68.4823C150.234 65.7222 150.964 64.1062 150.378 61.4051C149.419 56.9754 146.827 55.2674 144.134 51.6219C141.938 48.6502 140.726 46.9334 138.097 44.3366Z" fill="white" stroke="black" stroke-width="0.5"/>
<path d="M144.846 47.6557C142.513 45.2734 133.519 37.5166 133.519 37.5166L152.669 29.5575L157.04 32.8879C157.04 32.8879 162.081 41.6887 162.868 43.5037C163.655 45.3187 164.325 53.2869 164.325 53.2869C164.325 56.2911 172.278 60.048 175.912 63.0522L180.353 70.9798L189.537 75.6322C191.353 76.571 187.638 81.2362 187.638 83.6771C187.638 86.118 189.537 90.841 189.537 90.841C189.537 90.841 189.718 95.9105 189.537 98.1637C189.355 100.417 186.267 106.237 186.267 106.237C186.267 106.237 183.178 109.805 181.362 113.372C181.362 113.372 174.7 118.317 172.278 119.005C169.856 119.694 166.875 121.463 163.376 122.948C160.342 124.236 155.565 126.14 155.565 126.14C155.565 124.2 157.745 116.94 157.745 116.94V109.805V101.168V93.8452V82.955C157.745 80.0134 155.836 74.781 155.565 69.4361C155.438 66.9464 156.075 65.4887 155.565 63.0522C154.727 59.0564 152.465 57.5157 150.115 54.2274C148.198 51.5468 147.14 49.9981 144.846 47.6557Z" fill="#DAC036"/>
<path d="M12.7901 88.4644L8.83523 108.239L6.3374 113.235V119.271C6.3374 120.104 8.00262 121.283 8.83523 121.769L14.2472 123.226L20.2836 121.769L27.1526 119.271L30.6912 114.9L33.1891 109.28V104.076C31.9401 102.48 29.4423 99.0802 29.4423 98.2476C29.4423 97.415 28.4709 95.4029 27.9852 94.5009L27.1526 88.4644L22.5733 84.9259L25.9037 86.3829L29.4423 87.84H42.1396C42.1396 87.84 44.4856 86.4366 44.8456 84.9259C45.0152 84.2142 44.8456 83.0525 44.8456 83.0525C44.8456 83.0525 46.0306 83.3003 46.719 83.0525C47.5843 82.741 48.3842 81.3873 48.3842 81.3873V79.722L51.2983 78.8894C51.2983 78.8894 52.7409 78.495 53.3798 77.8487C54.1758 77.0434 54.4206 76.1835 54.4206 75.1427C54.4206 74.1019 48.3842 70.9796 48.3842 70.9796C48.3842 70.9796 53.6889 72.2071 55.8777 72.6449C60.0407 73.4775 67.1179 76.3916 67.326 74.5182C67.5342 72.6449 61.2896 69.1063 59.6244 68.4818C57.9592 67.8574 49.4249 64.5269 49.4249 64.5269L44.2211 60.572C44.2211 60.572 46.7881 54.501 47.3434 50.3726C47.7985 46.9889 49.4249 42.6709 47.3434 41.6302C45.2619 40.5894 44.2211 41.6302 44.2211 41.6302C44.2211 41.6302 42.9141 47.2344 41.0988 50.3726C39.2799 53.517 35.0624 57.4497 35.0624 57.4497L25.9037 63.4862L16.745 68.2737L12.7901 78.8894L12.7901 88.4644Z" fill="#D2A190"/>
<path d="M107.292 225.013C107.975 214.577 105.418 205.724 105.418 198.994C105.418 198.994 127.491 200.675 140.388 199.826C154.555 198.894 176.398 194.831 176.398 194.831C176.398 194.831 171.403 205.03 176.398 227.511C181.394 249.991 190.969 262.48 190.969 262.48C190.969 262.48 188.326 268.896 181.394 273.096C170.431 279.738 155.704 279.953 142.886 279.965C129.987 279.977 119.479 275.24 107.292 271.014C98.6017 268.002 95.2189 262.48 95.2189 262.48C99.2432 251.656 106.287 240.353 107.292 225.013Z" fill="#D2A190"/>
</svg>
