<svg width="17" height="17" viewBox="0 0 17 17" fill="none" xmlns="http://www.w3.org/2000/svg">
<path d="M11.9588 1H5.0412C2.80909 1 1 2.80942 1 5.0412V11.9588C1 14.1909 2.80942 16 5.04152 16H11.9585C14.1906 16 16 14.1906 16 11.9585V5.0412C16 2.80909 14.1909 1 11.9588 1Z" stroke="#7010CF" stroke-width="2" stroke-miterlimit="10"/>
<path d="M8.49994 12C10.4329 12 11.9999 10.433 11.9999 8.50003C11.9999 6.56703 10.4329 5.00003 8.49994 5.00003C6.56694 5.00003 4.99994 6.56703 4.99994 8.50003C4.99994 10.433 6.56694 12 8.49994 12Z" stroke="#7010CF" stroke-width="2" stroke-miterlimit="10"/>
<path d="M12.7501 5.00003C13.1643 5.00003 13.5001 4.66424 13.5001 4.25003C13.5001 3.83582 13.1643 3.50003 12.7501 3.50003C12.3358 3.50003 12.0001 3.83582 12.0001 4.25003C12.0001 4.66424 12.3358 5.00003 12.7501 5.00003Z" fill="#7010CF"/>
</svg>
