<svg width="40" height="40" viewBox="0 0 40 40" fill="none" xmlns="http://www.w3.org/2000/svg">
<rect width="40" height="40" rx="5" fill="#0077B5"/>
<path fill-rule="evenodd" clip-rule="evenodd" d="M14.8027 16.5641H10.2703V30.1821H14.8027V16.5641Z" fill="white"/>
<path fill-rule="evenodd" clip-rule="evenodd" d="M15.099 12.3522C15.0696 11.017 14.1147 10 12.5642 10C11.0137 10 10 11.017 10 12.3522C10 13.6598 10.9837 14.7061 12.5054 14.7061H12.5343C14.1147 14.7061 15.099 13.6598 15.099 12.3522Z" fill="white"/>
<path fill-rule="evenodd" clip-rule="evenodd" d="M31.1448 22.3748C31.1448 18.1919 28.9088 16.2451 25.9262 16.2451C23.5198 16.2451 22.4424 17.5669 21.8408 18.4941V16.5653H17.3079C17.3676 17.8431 17.3079 30.1833 17.3079 30.1833H21.8408V22.5779C21.8408 22.1709 21.8703 21.7649 21.9901 21.4735C22.3177 20.6604 23.0635 19.8185 24.3157 19.8185C25.9565 19.8185 26.6123 21.0673 26.6123 22.8973V30.183H31.1446L31.1448 22.3748Z" fill="white"/>
</svg>
