<svg width="17" height="4" viewBox="0 0 17 4" fill="none" xmlns="http://www.w3.org/2000/svg">
<path fill-rule="evenodd" clip-rule="evenodd" d="M12.726 2C12.726 3.1 13.6568 4 14.7945 4C15.9322 4 16.863 3.1 16.863 2C16.863 0.9 15.9322 -3.93402e-08 14.7945 -8.74228e-08C13.6568 -1.35505e-07 12.726 0.9 12.726 2ZM10.6574 2C10.6574 0.9 9.72659 -3.01609e-07 8.58889 -3.49691e-07C7.4512 -3.97774e-07 6.52036 0.9 6.52036 2C6.52036 3.1 7.4512 4 8.58889 4C9.72659 4 10.6574 3.1 10.6574 2ZM2.38329 -6.11959e-07C3.52098 -5.63877e-07 4.45182 0.899999 4.45182 2C4.45182 3.1 3.52098 4 2.38329 4C1.24559 4 0.314751 3.1 0.314751 2C0.314751 0.899999 1.24559 -6.60042e-07 2.38329 -6.11959e-07Z" fill="#6600CC"/>
</svg>
