<svg width="25" height="24" viewBox="0 0 25 24" fill="none" xmlns="http://www.w3.org/2000/svg">
<path d="M20 -2.11315e-07C22.7614 -9.4609e-08 25 2.23858 25 5L25 19C25 21.7614 22.7614 24 20 24L5.17757 24C2.41614 24 0.177569 21.7614 0.177569 19L0.17757 5C0.17757 2.23857 2.41615 -9.54464e-07 5.17757 -8.37758e-07L20 -2.11315e-07Z" fill="#6600CC" fill-opacity="0.1"/>
<path fill-rule="evenodd" clip-rule="evenodd" d="M16.726 12C16.726 13.1 17.6568 14 18.7945 14C19.9322 14 20.863 13.1 20.863 12C20.863 10.9 19.9322 10 18.7945 10C17.6568 10 16.726 10.9 16.726 12ZM14.6574 12C14.6574 10.9 13.7266 10 12.5889 10C11.4512 10 10.5204 10.9 10.5204 12C10.5204 13.1 11.4512 14 12.5889 14C13.7266 14 14.6574 13.1 14.6574 12ZM6.38329 10C7.52098 10 8.45182 10.9 8.45182 12C8.45182 13.1 7.52098 14 6.38329 14C5.24559 14 4.31475 13.1 4.31475 12C4.31475 10.9 5.24559 10 6.38329 10Z" fill="#6600CC"/>
</svg>
