<svg width="284" height="197" viewBox="0 0 284 197" fill="none" xmlns="http://www.w3.org/2000/svg">
<g clip-path="url(#clip0)">
<path d="M104.324 112.087L108.832 110.732C109.288 110.595 109.709 110.359 110.065 110.043C110.421 109.726 110.704 109.335 110.894 108.898C111.084 108.46 111.176 107.986 111.164 107.51C111.152 107.033 111.037 106.564 110.826 106.136C110.599 105.676 110.267 105.276 109.857 104.968C109.447 104.659 108.97 104.452 108.466 104.361C107.961 104.271 107.442 104.301 106.951 104.448C106.46 104.595 106.011 104.856 105.638 105.209L102.045 108.618L88.5402 116.349L80.3621 111.91L78.6102 118.903L88.9983 122.796L104.324 112.087Z" fill="#FFB8B8"/>
<path d="M282.147 152.637C282.147 162.802 216.312 200.95 139.351 200.95C62.3894 200.95 0 181.207 0 171.042C0 160.877 60.858 172.959 137.819 172.959C214.78 172.959 282.147 142.472 282.147 152.637Z" fill="#DADADA"/>
<path opacity="0.1" d="M282.147 148.687C282.147 158.852 216.312 197 139.351 197C62.3894 197 0 177.257 0 167.092C0 156.927 60.858 169.009 137.819 169.009C214.78 169.009 282.147 138.522 282.147 148.687Z" fill="black"/>
<path d="M282.147 152.637C282.147 162.802 216.312 189.447 139.351 189.447C62.3894 189.447 0 181.207 0 171.042C0 160.878 60.858 161.456 137.819 161.456C214.78 161.456 282.147 142.473 282.147 152.637Z" fill="#B3B3B3"/>
<path opacity="0.1" d="M140.91 177.558C173.591 177.558 200.085 175.505 200.085 172.973C200.085 170.442 173.591 168.389 140.91 168.389C108.228 168.389 81.7341 170.442 81.7341 172.973C81.7341 175.505 108.228 177.558 140.91 177.558Z" fill="black"/>
<path d="M176.757 87.4789L175.085 85.8038C174.109 84.8267 172.786 84.2778 171.407 84.2778C170.027 84.2778 168.704 84.8267 167.728 85.8038L135.288 118.295L102.848 85.8038C101.873 84.8267 100.55 84.2778 99.17 84.2778C97.7904 84.2778 96.4673 84.8267 95.4918 85.8038L93.8193 87.4789C93.3363 87.9627 92.9531 88.537 92.6917 89.1692C92.4303 89.8013 92.2958 90.4787 92.2958 91.1629C92.2958 91.8471 92.4303 92.5246 92.6917 93.1567C92.9531 93.7888 93.3363 94.3632 93.8193 94.8469L126.259 127.339L93.8193 159.83C93.3363 160.314 92.9531 160.888 92.6917 161.52C92.4303 162.152 92.2958 162.83 92.2958 163.514C92.2958 164.198 92.4303 164.876 92.6917 165.508C92.9531 166.14 93.3363 166.714 93.8193 167.198L95.4918 168.873C96.4673 169.85 97.7904 170.399 99.17 170.399C100.55 170.399 101.873 169.85 102.848 168.873L135.288 136.382L167.728 168.873C168.704 169.85 170.027 170.399 171.407 170.399C172.786 170.399 174.109 169.85 175.085 168.873L176.757 167.198C177.733 166.221 178.281 164.896 178.281 163.514C178.281 162.132 177.733 160.807 176.757 159.83L144.317 127.339L176.757 94.8469C177.733 93.8699 178.281 92.5447 178.281 91.1629C178.281 89.7812 177.733 88.456 176.757 87.4789Z" fill="#FF6584"/>
<path opacity="0.1" d="M95.1882 159.338L126.742 127.774L126.439 127.47L96.3488 157.569C95.8448 158.073 95.4497 158.675 95.1882 159.338Z" fill="black"/>
<path opacity="0.1" d="M93.5296 88.5188C94.5033 87.5455 95.8239 86.9987 97.2009 86.9987C98.5779 86.9987 99.8985 87.5455 100.872 88.5188L133.252 120.886L165.631 88.5188C166.605 87.5455 167.925 86.9987 169.302 86.9987C170.679 86.9987 172 87.5455 172.974 88.5188L174.643 90.1875C175.359 90.9036 175.85 91.8134 176.056 92.8049C176.261 93.7964 176.172 94.8262 175.799 95.7676L176.76 94.8065C177.242 94.3245 177.625 93.7524 177.886 93.1227C178.147 92.493 178.281 91.8181 178.281 91.1366C178.281 90.455 178.147 89.7801 177.886 89.1504C177.625 88.5207 177.242 87.9486 176.76 87.4667L175.091 85.798C174.117 84.8246 172.797 84.2778 171.42 84.2778C170.043 84.2778 168.722 84.8246 167.748 85.798L135.369 118.165L102.989 85.798C102.016 84.8246 100.695 84.2778 99.3179 84.2778C97.9409 84.2778 96.6203 84.8246 95.6466 85.798L93.9773 87.4667C93.4755 87.9678 93.0821 88.5668 92.8218 89.2264L93.5296 88.5188Z" fill="black"/>
<path opacity="0.1" d="M144.939 127.47L142.519 129.9L174.905 162.422C175.622 163.142 176.113 164.056 176.318 165.052C176.523 166.048 176.434 167.083 176.061 168.029L177.023 167.063C177.505 166.579 177.887 166.004 178.148 165.371C178.409 164.739 178.544 164.06 178.544 163.376C178.544 162.691 178.409 162.013 178.148 161.38C177.887 160.747 177.505 160.172 177.023 159.688L144.939 127.47Z" fill="black"/>
<path d="M195.768 85.7665C195.768 85.7665 193.629 94.9482 195.463 94.9482C197.296 94.9482 200.963 90.6634 200.963 90.6634V88.2149L195.768 85.7665Z" fill="#A0616A"/>
<path d="M200.199 77.6561L194.699 86.2256H198.671L200.199 77.6561Z" fill="#D0CDE1"/>
<path d="M204.171 152.334H196.838V158.455H204.171V152.334Z" fill="#A0616A"/>
<path d="M220.367 151.416L221.895 158.455L229.534 156.618L227.7 150.497L220.367 151.416Z" fill="#A0616A"/>
<path d="M197.712 88.062C197.712 88.062 195.267 89.2862 194.962 94.7952C194.656 100.304 195.878 114.689 195.878 114.689C195.878 114.689 194.656 121.116 195.878 126.931C197.101 132.746 194.656 153.864 196.184 153.864C197.712 153.864 205.657 154.782 205.962 153.864C206.268 152.946 206.573 139.173 206.573 139.173C206.573 139.173 209.018 132.134 206.573 127.849C206.573 127.849 212.074 132.44 212.074 133.664C212.074 134.889 217.879 153.864 220.63 154.17C223.38 154.476 231.019 153.864 229.491 151.109C227.963 148.355 224.296 135.807 224.296 135.807C224.296 135.807 221.546 126.625 216.657 122.646L219.102 103.059C219.102 103.059 224.296 89.8983 221.241 88.062C218.185 86.2257 197.712 88.062 197.712 88.062Z" fill="#2F2E41"/>
<path d="M206.616 38.1749C211.004 38.1749 214.561 34.6122 214.561 30.2174C214.561 25.8226 211.004 22.2599 206.616 22.2599C202.228 22.2599 198.671 25.8226 198.671 30.2174C198.671 34.6122 202.228 38.1749 206.616 38.1749Z" fill="#A0616A"/>
<path d="M202.644 35.1143C202.644 35.1143 205.699 45.2142 204.783 46.4384C203.866 47.6626 214.561 39.7052 214.561 39.7052C214.561 39.7052 210.588 36.9506 212.116 32.9719L202.644 35.1143Z" fill="#A0616A"/>
<path d="M215.477 38.787C215.477 38.787 211.811 40.0112 209.977 42.1536C208.144 44.296 203.866 44.602 203.866 44.602C203.866 44.602 200.084 46.7352 198.671 50.4171C197.165 54.3411 198.04 59.8659 198.671 61.1291C199.893 63.5775 199.893 69.6986 199.893 69.6986L198.366 83.7772C198.366 83.7772 192.865 88.9801 197.143 89.5922C201.421 90.2043 209.06 89.2862 213.644 89.5922C218.228 89.8983 223.422 90.5104 221.894 87.4498C220.367 84.3893 218.533 82.2469 220.367 76.1258C221.801 71.3358 221.739 53.4268 221.644 45.864C221.631 44.8254 221.353 43.8073 220.836 42.9067C220.32 42.0061 219.581 41.2529 218.692 40.7187L215.477 38.787Z" fill="#D0CDE1"/>
<path d="M203.56 85.6135C203.56 85.6135 202.17 88.6793 202.032 90.5104C200.963 104.742 208.755 90.5104 208.755 90.5104V88.062L203.56 85.6135Z" fill="#A0616A"/>
<path d="M224.95 156.006C224.95 156.006 220.367 152.64 220.367 154.476C220.367 156.312 215.172 163.658 215.172 163.658C215.172 163.658 206.616 169.779 213.644 169.779C220.672 169.779 223.728 168.555 223.728 168.555L231.062 163.658C231.062 163.658 232.895 161.515 232.284 159.067C231.673 156.618 229.534 153.252 229.534 153.252C229.534 153.252 227.089 156.618 224.95 156.006Z" fill="white"/>
<path d="M198.06 156.924C198.06 156.924 197.449 153.864 195.31 155.394C193.171 156.924 187.365 161.515 187.365 161.515C187.365 161.515 176.67 163.964 183.392 167.024C190.115 170.085 205.394 165.8 205.394 165.8C205.394 165.8 206.005 156.006 205.394 156.312C204.782 156.618 198.365 157.537 198.06 156.924Z" fill="white"/>
<path opacity="0.1" d="M211.047 48.4277L211.964 67.0971L203.081 85.1165L201.574 84.5424L210.741 67.7092L211.047 48.4277Z" fill="black"/>
<path d="M218.228 42.7657L220.52 42.3066C220.52 42.3066 227.395 47.3566 225.256 57.4564C223.117 67.5562 213.644 82.859 213.644 82.859C213.644 82.859 211.505 85.6135 210.894 86.2257C210.283 86.8378 209.061 86.2257 209.672 87.1438C210.283 88.062 208.755 88.6741 208.755 88.6741C208.755 88.6741 202.033 88.6741 202.644 86.2257C203.255 83.7772 213.644 66.332 213.644 66.332L212.116 50.1111C212.116 50.1111 210.894 42.1536 218.228 42.7657Z" fill="#D0CDE1"/>
<path opacity="0.1" d="M221.131 71.0758V68.9333L210.741 86.0726L221.131 71.0758Z" fill="black"/>
<path d="M200.979 22.8459L199.665 22.3193C199.665 22.3193 202.411 19.291 206.232 19.5544L205.158 18.3694C205.158 18.3694 207.784 17.3161 210.172 20.081C211.428 21.5345 212.88 23.2429 213.786 25.1675H215.192L214.605 26.4622L216.66 27.7569L214.551 27.5243C214.751 28.6421 214.682 29.7914 214.352 30.8774L214.408 31.9007C214.408 31.9007 211.963 28.1125 211.963 27.5858V28.9025C211.963 28.9025 210.65 27.7175 210.65 26.9275L209.934 27.8492L209.575 26.4009L205.158 27.8492L205.874 26.6642L203.128 27.0592L204.202 25.6109C204.202 25.6109 201.098 27.3225 200.978 28.7708C200.859 30.2191 199.307 32.0624 199.307 32.0624L198.59 30.7457C198.59 30.7457 197.516 24.8209 200.979 22.8459Z" fill="#2F2E41"/>
<path d="M78.9662 97.4148L61.7776 98.5217L57.1672 82.1768L72.2748 78.6309L78.9662 97.4148Z" fill="#2F2E41"/>
<path d="M101.522 167.526L95.9762 168.594C92.1883 156.635 88.0843 145.31 88.0845 136.55C82.724 142.526 76.0765 145.944 68.2487 147.018L69.1018 133.773L75.5005 130.355L85.2936 125.828C86.151 125.432 87.076 125.202 88.019 125.153C89.8524 125.056 91.6567 125.642 93.0846 126.798C94.5124 127.954 95.4628 129.598 95.7529 131.414L101.522 167.526Z" fill="#FFB8B8"/>
<path d="M100.669 162.185C100.669 162.185 101.2 161.96 103.324 164.743C103.324 164.743 110.105 166.008 108.984 169.071C107.862 172.133 99.1427 172.037 98.3141 171.569C97.4855 171.101 90.8903 171.111 91.3462 169.03C91.8021 166.949 94.4292 164.623 94.4292 164.623C94.4292 164.623 95.6371 167.075 97.5147 167.085C100.029 167.099 100.882 164.962 100.455 162.826C100.451 162.806 100.685 162.198 100.669 162.185Z" fill="#2F2E41"/>
<path d="M57.7337 154.901C57.7337 154.901 58.5645 157.176 54.8238 158.546C54.8238 158.546 51.1547 165.504 48.2091 163.246C45.2636 160.987 48.3202 151.523 49.1088 150.779C49.8974 150.035 52.1198 142.849 54.2247 144.05C56.3296 145.251 57.9652 148.899 57.9652 148.899C57.9652 148.899 51.1877 151.079 54.3938 156.125C54.3938 156.125 55.7916 156.22 57.7337 154.901Z" fill="#2F2E41"/>
<path d="M65.7482 94.5676C69.6054 94.5676 72.7324 91.4357 72.7324 87.5723C72.7324 83.7089 69.6054 80.577 65.7482 80.577C61.8909 80.577 58.7639 83.7089 58.7639 87.5723C58.7639 91.4357 61.8909 94.5676 65.7482 94.5676Z" fill="#FFB8B8"/>
<path d="M71.7681 106.108H59.6106L57.0511 98.6313C61.4883 97.2747 60.4519 93.4223 59.6106 89.6589H71.7681C69.4112 94.3672 66.4831 101.031 72.1946 102.263L71.7681 106.108Z" fill="#FFB8B8"/>
<path d="M74.9672 145.416L72.7569 147.098C71.8065 147.822 70.6837 148.283 69.5 148.438C68.3163 148.593 67.1128 148.434 66.009 147.979C59.6784 143.226 54.5153 144.651 50.439 151.824C45.5496 146.298 45.009 138.293 49.3725 130.034L73.5808 130.569L78.4864 129.073L74.9672 145.416Z" fill="#2F2E41"/>
<path d="M66.6421 170.167C65.2549 170.594 63.7618 170.519 62.4244 169.955C61.0869 169.39 59.9903 168.373 59.3268 167.08C57.1513 165.161 55.3156 162.413 53.7235 159.071C52.5812 156.62 51.6003 154.096 50.7871 151.517C49.6854 148.109 51.5276 144.386 54.9561 143.366C55.0581 143.336 55.1613 143.307 55.2657 143.28C59.8427 142.103 64.543 144.748 66.1075 149.214L70.6569 162.2C70.9323 162.986 71.0465 163.82 70.9924 164.652C70.9384 165.483 70.7173 166.295 70.3425 167.039C69.9676 167.783 69.4466 168.443 68.8108 168.981C68.1749 169.518 67.4373 169.922 66.6421 170.167Z" fill="#FFB8B8"/>
<path opacity="0.2" d="M52.686 157.592C52.686 157.592 58.0182 163.574 59.0847 166.992L52.686 157.592Z" fill="black"/>
<path d="M44.2576 133.966L44.737 138.656C44.7855 139.131 44.9367 139.589 45.1802 139.999C45.4237 140.409 45.7536 140.761 46.1468 141.03C46.54 141.299 46.9871 141.479 47.4569 141.558C47.9267 141.636 48.4079 141.611 48.867 141.484C49.3611 141.347 49.8162 141.096 50.1957 140.751C50.5753 140.406 50.8686 139.976 51.0522 139.497C51.2358 139.018 51.3045 138.502 51.2527 137.991C51.2009 137.48 51.0301 136.989 50.7541 136.556L48.0887 132.379L43.0533 117.638L48.9472 110.43L42.4202 107.389L36.646 116.874L44.2576 133.966Z" fill="#FFB8B8"/>
<path d="M75.1805 130.035C69.0521 140.345 59.1964 138.535 48.7326 130.462C53.1456 127.157 50.439 117.644 46.5998 117.003C42.6298 116.341 42.1524 108.209 40.6277 104.186L59.1838 97.3496L64.1961 101.302L69.2084 100.127L71.2633 100.857C72.6006 101.332 73.7605 102.206 74.5871 103.362C75.4136 104.517 75.8671 105.898 75.8866 107.319C71.6756 113.412 68.5583 119.912 75.1805 130.035Z" fill="#6C63FF"/>
<path d="M77.5269 121.703C77.5269 121.703 76.5825 116.826 73.4821 118.356C70.3818 119.887 70.1685 115.615 70.1685 115.615L72.6213 101.408L82.6459 112.09L77.5269 121.703Z" fill="#6C63FF"/>
<path d="M72.2713 78.5692C72.2713 78.5692 75.8109 79.8986 75.8604 84.6182C75.8584 85.4123 75.7456 86.2023 75.5252 86.9651C75.2873 87.8303 75.0859 89.7104 76.6122 92.2324C77.6096 93.8696 78.5094 95.5643 79.307 97.3079L75.3051 97.6589L74.7026 91.0142C74.4105 87.7927 73.6464 84.6319 72.4349 81.6333L72.4096 81.5707C72.4096 81.5707 70.5471 84.7477 67.0616 84.6185L68.3525 83.4179C68.3525 83.4179 63.9713 85.0262 61.5939 85.3358C61.3226 85.3712 61.0661 85.4801 60.852 85.6507C60.6378 85.8213 60.4742 86.0471 60.3788 86.304C60.2834 86.5608 60.2597 86.8388 60.3103 87.1082C60.361 87.3775 60.484 87.6278 60.6662 87.8323C60.68 87.8477 60.6941 87.8631 60.7085 87.8786C62.1469 89.4302 65.0054 93.032 63.1613 95.7103C61.3171 98.3886 62.7833 99.192 62.7833 99.192L60.1 97.5944L58.8828 96.8001L58.846 97.7976L52.4006 96.8094C52.4006 96.8094 50.6671 96.4954 54.5582 92.3948C54.5582 92.3948 55.6052 90.7852 55.2263 89.3494C54.9117 88.2573 54.8609 87.1058 55.0783 85.9901C56.0877 81.3465 59.7137 72.1745 72.2713 78.5692Z" fill="#2F2E41"/>
</g>
<defs>
<clipPath id="clip0">
<rect width="284" height="197" fill="white"/>
</clipPath>
</defs>
</svg>
