<svg width="32" height="32" viewBox="0 0 32 32" fill="none" xmlns="http://www.w3.org/2000/svg">
<rect width="32" height="32" rx="4" fill="#E93F66"/>
<path fill-rule="evenodd" clip-rule="evenodd" d="M15.0398 18.88H16.9598V20.8H15.0398V18.88ZM15.0398 11.2H16.9598V16.96H15.0398V11.2ZM15.9908 6.4C10.6916 6.4 6.40039 10.7008 6.40039 16C6.40039 21.2992 10.6916 25.6 15.9908 25.6C21.2996 25.6 25.6004 21.2992 25.6004 16C25.6004 10.7008 21.2996 6.4 15.9908 6.4ZM16.0003 23.68C11.7571 23.68 8.32031 20.2432 8.32031 16C8.32031 11.7568 11.7571 8.32 16.0003 8.32C20.2435 8.32 23.6803 11.7568 23.6803 16C23.6803 20.2432 20.2435 23.68 16.0003 23.68Z" fill="white"/>
</svg>
