<svg width="7" height="11" viewBox="0 0 7 11" fill="none" xmlns="http://www.w3.org/2000/svg">
<path d="M3.19198 0.389954C4.75515 0.389954 6.07585 1.4546 6.07585 3.07173C6.07585 5.96908 1.70961 6.91238 1.70961 8.46212V8.97423H5.6715C5.91408 8.97423 6.14318 9.25724 6.14318 9.59415C6.14318 9.93107 5.91408 10.241 5.6715 10.241H0.874064C0.604532 10.241 0.240723 10.0524 0.240723 9.76929V8.46206C0.240723 6.27898 4.64745 5.18749 4.64745 3.1121C4.64745 2.45181 4.21626 1.69712 3.1921 1.69712C2.43747 1.69712 1.83102 2.11484 1.83102 3.03124C1.83102 3.30077 1.54795 3.57031 1.07639 3.57031C0.699044 3.57031 0.42957 3.38163 0.42957 2.77525C0.429336 1.33331 1.72309 0.389954 3.19198 0.389954Z" fill="#F9AC30"/>
</svg>
