<svg width="219" height="413" viewBox="0 0 219 413" fill="none" xmlns="http://www.w3.org/2000/svg">
<path d="M110.74 113.889C115.077 118.061 116.744 128.081 116.744 128.081C116.744 128.081 155.679 135.302 162.047 133.539C166.641 132.267 169.904 131.735 172.964 128.081C177.89 122.197 167.651 113.969 172.964 108.431C176.006 105.26 183.334 104.064 183.334 104.064C183.334 104.064 194.766 99.5516 201.347 95.3313C207.848 91.1614 213.167 89.6814 216.63 82.7773C220.452 75.1559 218.59 69.2422 216.63 60.9444C213.99 49.7731 210.171 43.1777 201.347 35.8365C191.189 27.3867 146.779 5.41237 133.601 4.45336C123.422 3.71256 153.324 30.5374 120.241 39.4442C104.187 43.7665 104.336 24.7934 83.9781 24.8115C70.1557 24.8238 68.0637 25.725 55.9854 32.4461C41.3179 40.6078 40.0804 41.3527 30.5038 53.3029C22.4561 63.3452 18.0844 70.1186 15.7666 82.7773C14.2693 90.9545 15.7666 104.064 15.7666 104.064C15.7666 104.064 24.4952 90.7309 31.1737 90.3399C38.5971 89.9052 42.8599 92.3237 48.351 97.3381C54.56 103.008 51.8439 117.285 58.3408 122.622C61.7323 125.409 64.3598 125.378 68.7093 125.967C77.4187 127.145 85.632 113.889 85.632 113.889C85.632 113.889 91.8042 108.89 96.5484 108.431C102.459 107.859 106.461 109.773 110.74 113.889Z" fill="#4B3117"/>
<path d="M35.9621 76.2275C29.958 78.9565 28.3206 84.9606 28.3206 84.9606L29.958 77.3192C29.958 77.3192 32.1413 72.4068 35.9621 71.861C40.9645 71.1463 45.7869 72.9524 45.7869 72.9524C45.7869 72.9524 53.7728 76.0263 56.7034 80.0481C59.6231 84.055 62.1616 92.6021 62.1616 92.6021C62.1616 92.6021 61.7024 104.457 65.4365 105.702C73.6239 108.431 79.628 101.335 79.628 101.335C84.1043 98.351 83.4487 90.4188 91.0902 89.3271C98.7318 88.2355 101.097 90.9646 103.644 93.1479C106.191 95.3312 108.668 99.1164 111.286 102.427C113.116 104.741 114.167 106.981 115.411 108.925C115.918 109.635 116.198 110.068 116.198 110.068C115.922 109.701 115.663 109.319 115.411 108.925C113.336 106.02 107.463 98.4741 101.461 96.9686L101.259 96.918C97.5188 95.9792 97.0996 95.874 93.2735 96.9686C87.7365 98.5527 84.5404 107.339 79.628 110.068C74.5831 112.871 66.0769 116.213 61.07 113.343C58.3207 111.768 55.5869 105.553 55.0659 102.427C53.4284 92.602 56.7034 93.6937 53.4284 84.9607C51.8927 80.8655 45.7869 77.3192 45.7869 77.3192C45.7869 77.3192 39.9626 74.4091 35.9621 76.2275Z" fill="#583411"/>
<path d="M166.414 379.159L170.235 388.438H181.151L185.518 379.159H166.414Z" fill="#663F19"/>
<path d="M136.818 96.9686L126.993 108.431C126.993 108.431 124.81 99.6977 119.351 107.339C113.893 114.981 121.535 113.343 121.535 113.343L118.26 124.806C118.26 124.806 114.849 137.624 118.26 139.543L126.993 144.455C126.993 144.455 140.897 141.939 145.005 135.176C146.755 132.296 149.506 127.876 149.506 127.876C149.506 127.876 151.009 125.331 152.647 123.714C154.284 122.097 159.196 111.706 159.196 111.706L151.009 102.427C147.812 98.8031 136.818 96.9686 136.818 96.9686Z" fill="#7C5024"/>
<path d="M30.1478 379.292C27.4419 378.158 24.0168 374.95 24.0168 374.95C24.0168 374.95 20.821 381.425 18.1413 385.168C15.262 389.189 13.113 391.029 9.71121 394.62C5.39289 399.178 0.0681718 401.763 0.00297022 403.561C-0.0622313 405.358 0.965918 405.874 1.02941 405.904C2.47378 406.584 4.8946 406.55 6.48765 406.45C12.3146 406.083 20.6791 401.538 20.6791 401.538L34.8705 396.625L53.4285 385.163C53.4285 385.163 52.8884 380.301 51.0953 378.015C49.8639 376.445 47.008 374.95 47.008 374.95C47.008 374.95 42.3062 379.897 38.3224 380.57C35.1364 381.107 33.1277 380.542 30.1478 379.292Z" fill="#636363"/>
<path d="M30.1478 379.292C27.4419 378.158 24.0168 374.95 24.0168 374.95C24.0168 374.95 20.821 381.425 18.1413 385.168C15.262 389.189 13.113 391.029 9.71121 394.62C5.39289 399.178 0.0681719 401.763 0.00297034 403.561C-0.0622312 405.358 4.79185 401.577 4.85023 401.538C8.12517 399.354 10.7483 397.68 11.9459 396.625C18.1413 391.167 19.9177 385.177 25.0457 382.98C30.1399 380.797 37.5996 391.167 51.0953 378.015C52.5243 376.623 47.008 374.95 47.008 374.95C47.008 374.95 42.3062 379.897 38.3225 380.57C35.1364 381.107 33.1277 380.542 30.1478 379.292Z" fill="#7D7D7D"/>
<path d="M55.9483 391.043L53.4285 385.163L45.4746 389.255C45.4746 389.255 30.526 397.966 20.1843 401.772C15.8614 403.364 8.94414 405.349 8.94414 405.349C8.94414 405.349 6.41647 406.115 3.83499 406.115C2.7002 406.115 1.02948 405.904 1.02948 405.904C2.62568 407.201 3.00516 407.373 4.60136 408.67C4.60136 408.67 6.48771 409.179 10.8543 408.087C15.2209 406.996 55.9483 391.043 55.9483 391.043Z" fill="#B1B1B1"/>
<rect x="160.41" y="407.542" width="29.4745" height="5.45823" fill="#C4C4C4"/>
<path d="M170.75 388.33C169.249 388.216 167.242 386.692 167.242 386.692C167.242 386.692 166.171 393.531 164.776 397.717C163.449 401.7 160.41 407.542 160.41 407.542C160.41 407.542 168.315 410.271 169.143 403.175C169.207 402.629 171.539 407.944 174.055 408.088C178.029 408.315 175.147 400.992 176.785 403.175C181.62 409.622 189.884 407.542 189.884 407.542C189.884 407.542 187.493 402.003 186.609 398.263C185.477 393.471 185.42 385.71 185.42 385.71C185.42 385.71 183.163 388.112 181.274 388.33C178.948 388.598 178.192 385.652 175.852 385.71C173.625 385.764 172.972 388.498 170.75 388.33Z" fill="#636363"/>
<path d="M165.857 403.837C164.7 405.242 164.778 408.088 164.778 408.088H184.426C184.426 408.088 184.241 404.018 181.835 402.421C180.31 401.409 179.025 400.885 177.085 400.65C175.055 400.404 171.687 400.295 170.391 400.827C169.096 401.358 167.129 402.294 165.857 403.837Z" fill="#C4C4C4"/>
<path d="M33.2329 274.361L21.7706 367.151H47.4243L62.1616 301.652L110.74 274.361L127.66 317.481L159.864 382.434H193.159L164.776 307.656C164.776 307.656 167.57 273.544 164.776 251.982C163.465 241.867 165.018 235.131 159.864 226.329C154.665 217.45 139.668 209.408 139.668 209.408C139.668 209.408 126.285 223.057 115.106 226.329C105.082 229.262 88.3611 226.329 88.3611 226.329L82.357 244.887L33.2329 274.361Z" fill="#F2F0F0"/>
<path d="M30.5039 364.422L23.954 367.697L33.7789 275.999L82.903 245.978L89.4529 227.966L94.3653 229.058C94.3653 229.058 92.0605 242.34 87.8154 248.708C81.2655 258.532 44.1495 276.544 40.3287 280.365C36.508 284.186 30.5039 364.422 30.5039 364.422Z" fill="white"/>
<path d="M55.0661 295.648C51.7912 297.286 54.4705 302.297 54.5203 306.565C54.6053 313.862 56.7035 325.669 56.7035 325.669C56.7035 325.669 60.5242 305.473 62.1617 302.198C63.7992 298.923 76.899 293.465 76.899 293.465C76.899 293.465 58.341 294.011 55.0661 295.648Z" fill="#E8E8E8"/>
<path d="M157.681 235.062C151.69 224.874 131.481 217.05 131.481 217.05L139.669 209.408C139.669 209.408 157.56 219.376 163.685 230.149C171.096 243.186 167.506 268.357 167.506 268.357L164.776 307.656L183.334 356.781C183.334 356.781 168.051 326.76 164.776 322.394C162.254 319.03 154.406 312.023 154.406 312.023C154.406 312.023 159.39 304.422 160.956 296.194C162.998 285.464 163.685 268.357 163.685 268.357C163.685 268.357 165.056 247.605 157.681 235.062Z" fill="#DFDFDF"/>
<path d="M162.047 309.294L164.776 304.927L165.322 309.294L166.96 314.752L160.41 310.931L162.047 309.294Z" fill="#D8D8D8"/>
<path d="M109.648 201.221C96.5486 202.313 85.0863 193.034 85.0863 193.034L88.9071 206.133L88.3612 226.329C88.3612 226.329 100.369 230.15 116.744 225.237C128.038 221.849 135.848 211.592 135.848 211.592L127.115 203.95V193.034C127.115 193.034 122.748 200.129 109.648 201.221Z" fill="#7C5024"/>
<path d="M91.6362 203.404L85.0863 193.034L88.9071 206.133L88.3612 226.329C88.3612 226.329 89.9987 227.42 96.0028 227.966C102.007 228.512 104.736 227.42 104.736 227.42C104.736 227.42 89.9987 227.966 92.7278 214.321C93.1244 212.338 91.6362 203.404 91.6362 203.404Z" fill="#9D744B"/>
<path d="M29.4122 379.159L28.3206 367.151H42.512L44.1494 378.067C44.1494 378.067 41.9661 381.342 37.0537 381.342C32.1413 381.342 29.4122 379.159 29.4122 379.159Z" fill="#663F19"/>
<path d="M113.469 128.626C110.74 129.172 108.011 128.626 108.011 128.626L104.736 135.176C104.736 135.176 108.921 145.262 114.561 148.276C120.025 151.197 130.39 149.368 130.39 149.368V145.001V141.726C130.39 141.726 127.777 142.939 126.023 142.818C122.701 142.587 121.149 140.237 119.473 137.36C117.006 133.123 118.795 129.661 119.473 124.806C120.053 120.658 122.202 114.435 122.202 114.435C122.202 114.435 116.198 128.081 113.469 128.626Z" fill="#7C5024"/>
<path d="M122.202 114.435C122.202 114.435 116.198 128.081 113.469 128.626L113.469 133.539C113.469 133.539 114.561 139.543 117.29 141.726C122.128 145.597 124.385 146.093 124.385 146.093C124.385 146.093 130.39 146.706 130.39 145.001V141.726C130.39 141.726 127.776 142.939 126.023 142.818C122.701 142.587 121.148 140.237 119.473 137.36C117.006 133.123 118.795 129.661 119.473 124.806C120.053 120.658 122.202 114.435 122.202 114.435Z" fill="#72481F"/>
<path d="M128.962 20.7336C129.178 22.0939 122.421 27.7077 121.549 30.6733C120.678 33.6389 118.444 43.478 118.444 43.478L110.862 41.8405C110.862 41.8405 111.474 33.1292 111.867 30.5338C112.26 27.9383 108.144 18.9068 108.144 18.9068L108.8 14.581L110.862 14.8935L111.34 14.5234L111.124 13.1632L113.448 11.7453L114.62 12.3653L115.51 12.0577L114.882 10.635L116.663 10.0198L117.488 10.1448L118.444 9.40462L118.575 8.53945L121.593 8.11173L124.368 12.0723L126.299 13.2499C126.299 13.2499 128.746 19.3734 128.962 20.7336Z" fill="#7C5024"/>
<path d="M112.025 23.9201L108.622 18.5368L108.557 18.9694L111.416 25.1554C111.416 25.1554 112.942 25.795 113.891 25.5303C114.785 25.2808 115.803 24.05 115.803 24.05C115.803 24.05 117.124 24.7294 117.865 24.3624C118.528 24.0342 118.952 22.7571 118.952 22.7571C118.952 22.7571 118.362 26.6503 119.121 27.2079C119.881 27.7654 119.534 27.2704 119.534 27.2704C119.534 27.2704 119.042 23.383 120.386 21.6468C121.419 20.3113 124.079 19.5513 124.079 19.5513L123.863 18.191C123.863 18.191 121.937 18.3841 120.976 17.7536C119.903 17.0501 119.307 14.8456 119.307 14.8456L120.675 14.168L125.062 13.0625L123.89 12.4425L120.394 13.2403L118.378 9.83729L117.9 10.2074L119.569 13.1153C119.569 13.1153 118.789 13.7236 118.548 14.2881C118.346 14.7578 118.351 15.5858 118.351 15.5858C118.351 15.5858 118.898 17.8792 120.02 18.4938C120.738 18.8872 122.082 18.8062 122.082 18.8062L120.648 19.9165L119.411 19.729L115.445 12.4904L114.967 12.8605L118.455 20.4692C118.455 20.4692 118.107 22.1268 117.302 22.5071C116.555 22.8602 115.24 22.1947 115.24 22.1947L111.687 15.0185L111.209 15.3886L114.284 22.9349C114.284 22.9349 113.827 23.9264 113.263 24.1076C112.793 24.2584 112.025 23.9201 112.025 23.9201Z" fill="white"/>
<path d="M88.9069 26.0116C84.514 25.1517 73.1627 25.4479 73.1627 25.4479C73.1627 25.4479 84.1901 21.7547 88.9069 21.6306C94.0298 21.4958 98.6211 20.541 102.553 23.8282C106.575 27.1913 106.694 32.8336 107.465 38.0197C108.227 43.1497 104.94 45.9444 105.282 51.1194C105.527 54.834 105.456 57.2646 107.465 60.3984C110.148 64.5837 113.525 65.8848 118.381 66.9483C123.859 68.1478 131.808 60.3209 136.939 62.5817C141.235 64.4744 141.508 66.8455 142.943 71.315C144.448 76.0005 139.123 86.598 139.123 86.598L136.394 95.877C136.394 95.877 136.629 90.5597 136.939 88.2355C138.031 80.0483 136.939 78.4107 136.394 75.6815C135.664 72.0312 132.027 69.6775 127.66 69.6775C124.037 69.6775 120.019 74.5897 113.469 74.044C106.919 73.4983 104.901 72.3432 101.461 66.9483C99.0983 63.2431 99.6468 58.1832 100.369 53.8487C101.461 47.2988 104.588 44.767 103.644 38.5656C103.137 35.2336 101.664 32.4235 98.7317 29.8323C95.6469 27.1063 92.947 26.8024 88.9069 26.0116Z" fill="#583411"/>
<path d="M92.1819 83.8688L80.7196 146.638L100.369 130.81L106.919 87.6896L119.473 39.1113L111.832 30.3781L92.1819 83.8688Z" fill="#7C5024"/>
<path d="M102.553 87.6896L96.0027 131.355L100.915 129.172L106.919 87.6896L119.473 39.1113L121.656 30.3781L102.553 87.6896Z" fill="#72481F"/>
<path d="M92.1819 83.8688L80.7196 146.638L83.4487 143.909L93.8194 83.8688L107.465 46.207L111.832 30.3781L92.1819 83.8688Z" fill="#AD835A"/>
<path d="M115.652 206.133C116.036 204.951 117.29 203.404 117.29 203.404H128.206C128.206 203.404 128.135 204.076 128.206 204.496C128.484 206.137 131.481 207.225 131.481 207.225L138.031 211.046C138.031 211.046 132.573 218.141 128.752 218.141C124.931 218.141 121.371 217.884 118.381 214.867C116.966 213.438 116.38 211.955 115.652 210.5C114.925 209.044 115.126 207.755 115.652 206.133Z" fill="#72481F"/>
<path d="M81.2654 175.567L85.0862 193.579C85.0862 193.579 92.5119 198.06 97.6401 200.129C111.764 205.827 136.394 204.496 136.394 204.496L129.844 187.575L133.119 183.209L135.302 178.842C135.302 178.842 129.844 170.655 130.935 162.467C132.027 154.28 135.848 146.638 135.848 146.638L130.935 143.909C130.935 143.909 118.928 150.455 112.923 146.638C106.77 142.727 108.011 128.626 108.011 128.626L104.19 126.443L83.4488 143.909C83.4488 143.909 73.9064 153.476 74.1697 162.467C74.3709 169.339 81.2654 175.567 81.2654 175.567Z" fill="#6600CC"/>
<path d="M115.652 173.384C112.377 161.922 129.245 148.531 130.935 143.909L135.848 146.639C135.848 146.639 134.011 151.318 133.119 153.734C131.972 156.838 132.083 157.024 131.481 159.192C128.752 169.017 135.302 178.842 135.302 178.842L129.844 187.575L135.848 205.042L116.744 203.404C116.744 203.404 124.385 199.583 125.477 191.942C126.569 184.3 118.927 184.846 115.652 173.384Z" fill="#4B0096" fill-opacity="0.37"/>
<path d="M92.7278 137.905C99.496 131.399 106.373 128.08 106.373 128.08L104.19 126.443C104.19 126.443 88.2363 136.583 81.2655 146.093C79.9024 147.952 78.028 150.632 76.8989 152.643C75.6375 154.888 75.2614 156.463 75.2614 156.463L79.628 151.005C79.628 151.005 83.381 146.706 85.0862 145.001C86.7915 143.296 90.9892 139.577 92.7278 137.905Z" fill="white"/>
<path d="M135.302 178.842C134.615 180.732 129.844 187.575 129.844 187.575L130.389 172.292C130.389 172.292 130.432 171.872 129.844 169.563C129.159 166.878 129.533 165.221 129.844 162.467C130.562 156.095 135.848 147.184 135.848 147.184C135.848 147.184 138.849 147.016 140.76 147.184C144.727 147.534 147.701 147.167 150.585 149.913C162.047 160.83 195.888 197.4 195.888 197.4C195.888 197.4 154.406 220.325 150.585 220.325C146.764 220.325 142.398 219.233 142.398 219.233C142.398 219.233 127.115 213.229 126.569 210.5C126.023 207.771 126.569 205.587 126.569 205.587C126.569 205.587 130.39 201.221 131.481 200.675C132.573 200.129 138.031 202.312 138.031 202.312C138.031 202.312 135.092 199.22 136.394 197.946C137.17 197.185 139.123 197.4 139.123 197.4L142.398 203.95L150.585 212.137L175.693 196.308C175.693 196.308 165.322 189.759 161.501 188.121C150.671 183.48 138.031 170.109 138.031 170.109C138.031 170.109 137.485 172.838 135.302 178.842Z" fill="#7C5024"/>
<path d="M143.489 155.918L134.21 150.459L135.848 146.639L140.76 147.184L148.402 148.276L169.143 169.017L195.888 197.4L151.131 219.779L188.247 196.308L173.51 181.025L143.489 155.918Z" fill="#72481F"/>
<path d="M178.968 197.4L150.585 212.683L175.147 196.308L160.41 187.575L154.406 184.3L147.856 179.388L138.031 170.109L149.493 177.75L165.322 187.575L181.151 196.308L178.968 197.4Z" fill="#AD835A"/>
<path fill-rule="evenodd" clip-rule="evenodd" d="M135.302 116.618L132.027 111.706V118.802L139.123 122.622V122.622L139.123 122.622L134.21 128.626L129.844 129.718L134.21 132.993L138.031 132.447L141.306 123.168L144.323 124.677C145.332 125.646 146.307 126.443 146.764 126.443C147.638 126.443 151.495 124.26 153.314 123.168H147.856L146.328 122.786L139.123 119.984V119.893L135.302 116.618Z" fill="#72481F"/>
<path d="M138.577 314.206L110.74 273.815L124.386 309.84L159.318 383.526L170.235 381.343L138.577 314.206Z" fill="#F8F8F8"/>
<path d="M212.732 78.3534C214.486 74.4156 214.369 67.4369 214.369 67.4369C214.369 67.4369 212.402 73.816 210.002 77.2618C207.763 80.4778 206.378 82.538 202.907 84.3575C199.089 86.359 196.298 85.8302 191.99 85.9949C186.204 86.2163 181.952 81.6283 176.161 81.6283C169.066 81.6283 166.523 81.0812 163.062 84.3575C158.628 88.5532 158.394 91.4048 157.603 97.4572C156.935 102.569 161.212 111.956 161.424 117.107C161.53 119.663 162.211 121.223 161.424 123.657C159.692 129.015 148.87 130.752 148.87 130.752C148.87 130.752 163.753 131.775 166.337 125.84C167.698 122.713 166.505 118.876 166.337 115.469C166.082 110.32 162.204 109.091 163.062 104.007C163.934 98.8372 165.134 95.468 169.066 91.999C172.214 89.2209 174.744 88.2936 178.891 87.6324C184.012 86.8157 186.804 94.7646 191.99 94.7281C196.966 94.6931 201.851 94.4506 206.182 91.999C210.387 89.6181 210.765 82.7678 212.732 78.3534Z" fill="#583411"/>
<path d="M146.211 13.454C142.708 9.21322 131.057 5.19365 131.057 5.19365C131.057 5.19365 143.102 6.99109 148.471 11.924C153.428 16.4777 155.043 19.8382 155.49 26.5538C155.86 32.1 152.522 35.9113 151.124 41.291C149.514 47.4836 148.873 56.8326 148.873 56.8326C148.873 56.8326 147.849 45.6576 150.032 38.5619C151.547 33.6385 153.173 32.3055 152.625 27.1836C151.915 20.5588 150.455 18.5904 146.211 13.454Z" fill="#583411"/>
</svg>
