<svg width="40" height="40" viewBox="0 0 40 40" fill="none" xmlns="http://www.w3.org/2000/svg">
<rect width="40" height="40" rx="5" fill="#25D366"/>
<path d="M14.4889 28.1845L14.7441 27.7546L14.5643 27.6479L14.362 27.7009L14.4889 28.1845ZM14.8499 28.3988L14.5947 28.8287L14.5947 28.8288L14.8499 28.3988ZM19.8809 29.7766L19.8807 30.2766H19.8809V29.7766ZM29.7695 19.8919L30.2695 19.8921V19.8921L29.7695 19.8919ZM26.8771 12.8988L27.2308 12.5454L26.8771 12.8988ZM19.8888 10L19.889 9.5H19.8888V10ZM10 19.8839L10.5 19.8841V19.8841L10 19.8839ZM11.5113 25.1443L11.9346 24.8783L11.9346 24.8782L11.5113 25.1443ZM11.7463 25.5183L12.2286 25.6503L12.2866 25.4384L12.1697 25.2523L11.7463 25.5183ZM10.7478 29.1659L10.2655 29.0339L10.0368 29.8693L10.8746 29.6496L10.7478 29.1659ZM14.2337 28.6145L14.5947 28.8287L15.105 27.9688L14.7441 27.7546L14.2337 28.6145ZM14.5947 28.8288C16.1899 29.7754 18.0177 30.2759 19.8807 30.2766L19.8811 29.2766C18.1967 29.2759 16.5451 28.8234 15.105 27.9688L14.5947 28.8288ZM19.8809 30.2766H19.8849V29.2766H19.8809V30.2766ZM19.8849 30.2766C25.6093 30.2766 30.2672 25.6183 30.2695 19.8921L29.2695 19.8917C29.2674 25.0662 25.0568 29.2766 19.8849 29.2766V30.2766ZM30.2695 19.8921C30.2705 17.1183 29.1908 14.5077 27.2308 12.5454L26.5233 13.2521C28.2958 15.0267 29.2704 17.383 29.2695 19.8917L30.2695 19.8921ZM27.2308 12.5454C25.2709 10.5832 22.6619 9.50096 19.889 9.5L19.8886 10.5C22.3961 10.5009 24.7508 11.4776 26.5233 13.2521L27.2308 12.5454ZM19.8888 9.5C14.1604 9.5 9.50227 14.1576 9.5 19.8837L10.5 19.8841C10.5021 14.7101 14.7125 10.5 19.8888 10.5V9.5ZM9.5 19.8837C9.4992 21.8452 10.0481 23.7565 11.088 25.4105L11.9346 24.8782C10.9955 23.3846 10.4993 21.658 10.5 19.8841L9.5 19.8837ZM11.088 25.4104L11.323 25.7844L12.1697 25.2523L11.9346 24.8783L11.088 25.4104ZM11.2641 25.3863L10.2655 29.0339L11.23 29.298L12.2286 25.6503L11.2641 25.3863ZM10.8746 29.6496L14.6158 28.6682L14.362 27.7009L10.6209 28.6823L10.8746 29.6496Z" fill="white"/>
<path fill-rule="evenodd" clip-rule="evenodd" d="M25.3679 23.3295C25.2936 23.2055 25.0956 23.1312 24.7984 22.9824C24.5012 22.8336 23.0403 22.1148 22.7678 22.0156C22.4955 21.9165 22.2973 21.8669 22.0993 22.1643C21.9012 22.4618 21.3317 23.1312 21.1584 23.3295C20.985 23.5277 20.8117 23.5526 20.5146 23.4038C20.2175 23.2551 19.26 22.9414 18.1249 21.9289C17.2415 21.141 16.6452 20.1679 16.4718 19.8704C16.2985 19.5729 16.4534 19.4122 16.6021 19.264C16.7358 19.1308 16.8993 18.9168 17.0479 18.7433C17.1964 18.5699 17.246 18.4458 17.345 18.2477C17.4441 18.0493 17.3945 17.8758 17.3202 17.727C17.246 17.5783 16.6517 16.1156 16.404 15.5206C16.1628 14.9412 15.9179 15.0197 15.7355 15.0105C15.5623 15.0018 15.364 15 15.1659 15C14.9678 15 14.6459 15.0744 14.3735 15.3719C14.1011 15.6694 13.3335 16.3883 13.3335 17.8508C13.3335 19.3135 14.3983 20.7265 14.5469 20.9248C14.6954 21.1232 16.6422 24.1246 19.6232 25.4118C20.3321 25.718 20.8856 25.9008 21.3172 26.0377C22.029 26.264 22.6769 26.232 23.1888 26.1555C23.7598 26.0702 24.9469 25.4367 25.1946 24.7426C25.4421 24.0483 25.4421 23.4534 25.3679 23.3295Z" fill="white"/>
</svg>
