<svg width="48" height="24" viewBox="0 0 48 24" fill="none" xmlns="http://www.w3.org/2000/svg">
<path d="M4.39104 23.4044C3.81087 23.0042 3.5201 22.4636 3.5201 21.765V21.6807L3.51068 21.3087H5.34679V21.7275C5.34679 21.8855 5.45852 22.0353 5.67524 22.1745C5.89062 22.3137 6.19081 22.3886 6.58388 22.3886C6.91233 22.3886 7.14521 22.3418 7.29597 22.2588C7.43597 22.1745 7.51135 22.0634 7.51135 21.9417C7.51135 21.7931 7.41713 21.662 7.23944 21.5509C7.05233 21.4398 6.72387 21.3087 6.26485 21.1508C5.97408 21.0477 5.73044 20.9647 5.5339 20.8898C5.33737 20.8149 5.10314 20.7038 4.83123 20.5552C4.55931 20.4161 4.33451 20.2568 4.17567 20.0989C4.01682 19.941 3.87548 19.7456 3.75433 19.5034C3.63318 19.2612 3.57664 19.0002 3.57664 18.7125C3.57664 18.0327 3.83913 17.484 4.3722 17.0731C4.90661 16.6636 5.59044 16.4589 6.43311 16.4589C7.30405 16.4589 8.01615 16.673 8.57748 17.1012C9.13881 17.5295 9.42015 18.0982 9.42015 18.8048V19.2612H7.59481V18.8423C7.59481 18.6469 7.50058 18.4609 7.30405 18.3016C7.10752 18.1437 6.82618 18.0688 6.4708 18.0688C6.18004 18.0688 5.95524 18.1156 5.80582 18.208C5.6564 18.311 5.58102 18.4221 5.58102 18.5613C5.58102 18.7004 5.66582 18.8129 5.83409 18.9052C6.00235 19.0082 6.32138 19.1381 6.78983 19.296L7.26771 19.4632L7.77385 19.668C7.98923 19.771 8.16691 19.854 8.29884 19.9383C8.42941 20.0226 8.58017 20.1337 8.75786 20.2729C8.93555 20.4121 9.06747 20.5619 9.16978 20.7011C9.264 20.8403 9.34746 21.0183 9.42285 21.2137C9.48881 21.409 9.5265 21.6232 9.5265 21.8373C9.5265 22.5265 9.25458 23.0578 8.72152 23.4298C8.18711 23.8112 7.48578 23.9972 6.62291 23.9972C5.71159 23.9999 4.97257 23.8045 4.39104 23.4044Z" fill="#6600CC"/>
<path d="M11.1351 22.8914C10.3665 22.1553 9.98283 21.2614 9.98283 20.2283C9.98283 19.1951 10.3665 18.3012 11.1351 17.5652C11.8943 16.8291 12.8016 16.4571 13.861 16.4571C14.9285 16.4571 15.8465 16.8291 16.6057 17.5652C17.1765 18.1138 17.5332 18.7575 17.6638 19.4735H15.7065C15.6123 19.2313 15.4629 19.0078 15.2758 18.8218C14.8921 18.4404 14.4237 18.2543 13.861 18.2543C13.3091 18.2543 12.8406 18.4497 12.4557 18.8311C12.0707 19.2125 11.8755 19.6782 11.8755 20.2283C11.8755 20.7783 12.072 21.2426 12.4557 21.6254C12.8393 22.0081 13.3078 22.2022 13.861 22.2022C14.4223 22.2022 14.8908 22.0068 15.2758 21.6254C15.5383 21.3644 15.7065 21.0767 15.7913 20.7314H17.7015C17.5978 21.5598 17.2425 22.2771 16.6057 22.8914C15.8465 23.6274 14.9285 23.9994 13.861 23.9994C12.8016 23.9994 11.8943 23.6274 11.1351 22.8914Z" fill="#6600CC"/>
<path d="M18.4499 16.5963H20.3143V19.4173H23.2933V16.5963H25.1671V23.8589H23.2933V21.1583H20.3143V23.8589H18.4499V16.5963Z" fill="#6600CC"/>
<path d="M27.0665 22.8914C26.2978 22.1553 25.9142 21.2614 25.9142 20.2283C25.9142 19.1951 26.2978 18.3012 27.0665 17.5652C27.8257 16.8291 28.733 16.4571 29.7924 16.4571C30.8598 16.4571 31.7779 16.8291 32.5371 17.5652C33.2963 18.3012 33.6705 19.1951 33.6705 20.2283C33.6705 21.2614 33.2963 22.1553 32.5371 22.8914C31.7779 23.6274 30.8598 23.9994 29.7924 23.9994C28.733 23.9994 27.8257 23.6274 27.0665 22.8914ZM31.2058 21.6254C31.5894 21.244 31.7765 20.7783 31.7765 20.2283C31.7765 19.6782 31.5894 19.2045 31.2058 18.8218C30.8221 18.4404 30.3537 18.2543 29.791 18.2543C29.2391 18.2543 28.7707 18.4497 28.3857 18.8311C28.0007 19.2125 27.8055 19.6782 27.8055 20.2283C27.8055 20.7783 28.002 21.2426 28.3857 21.6254C28.7693 22.0081 29.2378 22.2022 29.791 22.2022C30.3537 22.2022 30.8221 22.0068 31.2058 21.6254Z" fill="#6600CC"/>
<path d="M35.2805 22.8914C34.5119 22.1553 34.1282 21.2614 34.1282 20.2283C34.1282 19.1951 34.5119 18.3012 35.2805 17.5652C36.0397 16.8291 36.947 16.4571 38.0064 16.4571C39.0739 16.4571 39.9919 16.8291 40.7511 17.5652C41.5103 18.3012 41.8846 19.1951 41.8846 20.2283C41.8846 21.2614 41.5103 22.1553 40.7511 22.8914C39.9919 23.6274 39.0739 23.9994 38.0064 23.9994C36.947 23.9994 36.0397 23.6274 35.2805 22.8914ZM39.4198 21.6254C39.8035 21.244 39.9906 20.7783 39.9906 20.2283C39.9906 19.6782 39.8035 19.2045 39.4198 18.8218C39.0362 18.4404 38.5677 18.2543 38.0051 18.2543C37.4531 18.2543 36.9847 18.4497 36.5997 18.8311C36.2147 19.2125 36.0195 19.6782 36.0195 20.2283C36.0195 20.7783 36.2161 21.2426 36.5997 21.6254C36.9833 22.0081 37.4518 22.2022 38.0051 22.2022C38.5677 22.2022 39.0362 22.0068 39.4198 21.6254Z" fill="#6600CC"/>
<path d="M42.633 16.5963H44.4974V22.0616H48V23.8589H42.633V16.5963Z" fill="#6600CC"/>
<path d="M26.8888 11.6033C26.8174 11.4722 26.6882 11.345 26.5024 11.2192C26.3167 11.0948 26.1457 11.0198 25.9909 10.9957C25.9303 10.9837 25.8765 10.9663 25.8294 10.9422C25.7809 10.9181 25.7459 10.8954 25.7217 10.8713C25.6611 10.8004 25.6113 10.6184 25.5696 10.3266C25.5278 10.0349 25.5063 9.71103 25.5063 9.35372C25.5063 9.15164 25.4996 8.9857 25.4888 8.85455C25.4767 8.72341 25.4592 8.61099 25.435 8.51598C25.4107 8.42096 25.369 8.33799 25.3098 8.26573C25.2492 8.1948 25.1779 8.12254 25.0944 8.05161C24.9504 7.93251 24.7888 7.82812 24.6098 7.7398C24.4308 7.65014 24.2921 7.60597 24.1965 7.60597C24.0646 7.60597 23.9542 7.67155 23.864 7.8027C23.7738 7.93384 23.7173 8.09979 23.6931 8.30186C23.681 8.39688 23.6689 8.51865 23.6567 8.6672C23.6446 8.81574 23.6325 8.93752 23.6204 9.03254C23.6083 9.15164 23.5719 9.33364 23.5127 9.5772C23.4521 9.82076 23.3808 10.0884 23.2973 10.3801C23.2139 10.6719 23.1264 10.9663 23.0375 11.2634C22.9473 11.5605 22.8612 11.8228 22.7777 12.0489C22.7064 12.251 22.6014 12.5013 22.4641 12.7983C22.3268 13.0954 22.1881 13.3818 22.0508 13.6548C21.9135 13.9292 21.787 14.1634 21.6739 14.3601C21.5595 14.5568 21.4854 14.6612 21.4491 14.6719C21.4249 14.6719 21.4101 14.6518 21.4047 14.609C21.3979 14.5675 21.3926 14.4845 21.3872 14.3587C21.3804 14.2343 21.3778 14.059 21.3778 13.8328C21.3778 13.6066 21.3778 13.3216 21.3778 12.9763C21.3778 12.4651 21.3751 12.0637 21.3683 11.7719C21.3616 11.4802 21.332 11.258 21.2781 11.1028C21.2243 10.9489 21.1435 10.8298 21.0358 10.7455C20.9281 10.6625 20.7787 10.5675 20.5876 10.4604C20.3601 10.3413 20.1353 10.2798 19.9145 10.2731C19.6924 10.2677 19.5349 10.3239 19.4393 10.443C19.3438 10.5381 19.2603 10.7107 19.1876 10.9609C19.1163 11.2112 19.0678 11.4909 19.0436 11.8C19.0193 12.0623 18.9507 12.3527 18.8376 12.6739C18.7232 12.9951 18.5294 13.4354 18.2547 13.9947L18.0394 14.4404L18.0932 13.8877C18.1053 13.7338 18.1296 13.5156 18.1646 13.236C18.2009 12.9563 18.2359 12.6913 18.2722 12.4424C18.3194 12.1092 18.3678 11.7585 18.4163 11.3892C18.4634 11.0212 18.5065 10.6759 18.5415 10.3547C18.5778 10.0335 18.6074 9.75385 18.6317 9.51564C18.6559 9.27744 18.668 9.1115 18.668 9.01648C18.668 8.62438 18.4701 8.29115 18.0757 8.01681C17.9074 7.9218 17.7459 7.84686 17.5911 7.79333C17.435 7.7398 17.2977 7.72508 17.1779 7.74917C17.1294 7.76121 17.0729 7.81206 17.0069 7.90039C16.9409 7.99005 16.875 8.10514 16.809 8.24833C16.7431 8.39152 16.6798 8.55479 16.6206 8.73946C16.56 8.92414 16.5129 9.1115 16.4765 9.30153C16.3083 10.0148 16.1804 10.6813 16.0902 11.2995C16.0646 11.4788 16.0417 11.6568 16.0188 11.8348C15.9811 11.891 15.9435 11.9499 15.9017 12.0141C15.6621 12.4062 15.3539 12.7729 14.9769 13.1142C14.6 13.4554 14.2379 13.7084 13.8906 13.873C13.7587 13.9318 13.651 13.9787 13.5676 14.0135C13.4841 14.0483 13.4033 14.075 13.3253 14.0924C13.2472 14.1098 13.1664 14.1219 13.083 14.1272C12.9995 14.1326 12.8972 14.1352 12.7774 14.1352C12.3937 14.1352 12.1609 14.0416 12.0774 13.8529C11.9939 13.6655 11.9872 13.4594 12.0599 13.236C12.1312 13.0125 12.2457 12.8184 12.4005 12.6525C12.5553 12.4865 12.6818 12.4277 12.7774 12.4758C12.9093 12.5588 13.1368 12.6003 13.4599 12.6003C13.6389 12.6003 13.7802 12.5882 13.8812 12.5642C13.9822 12.5401 14.1168 12.4865 14.285 12.4036C14.6202 12.2256 14.9069 11.9874 15.1466 11.6903C15.3862 11.3932 15.5652 11.072 15.685 10.7268C15.8048 10.3815 15.8613 10.0309 15.856 9.67356C15.8492 9.31625 15.7685 8.97767 15.6137 8.65649C15.0267 7.4668 14.1423 7.18175 12.9578 7.80002C12.3116 8.13324 11.7705 8.57888 11.333 9.13826C10.8955 9.69764 10.567 10.2958 10.3463 10.9315C10.1242 11.5685 10.0165 12.1961 10.0232 12.8157C10.0286 13.4353 10.1578 13.9827 10.4096 14.4578C10.6613 14.9328 11.0382 15.2888 11.5403 15.5257C12.0424 15.7639 12.6764 15.8107 13.4424 15.6689C13.7049 15.622 13.9539 15.5565 14.1868 15.4722C14.4196 15.3892 14.6418 15.2821 14.8504 15.151C15.0591 15.0198 15.2664 14.8592 15.4696 14.6692C15.5773 14.5688 15.6877 14.4604 15.8008 14.344C15.8008 14.4136 15.8008 14.4805 15.8008 14.5448C15.8075 14.9262 15.8452 15.2433 15.9179 15.4989C15.9892 15.7545 16.1036 15.9633 16.2585 16.1239C16.4133 16.2845 16.6179 16.4303 16.8682 16.5615C17.0715 16.6685 17.2182 16.7368 17.3084 16.7662C17.3986 16.7957 17.5211 16.805 17.6759 16.793C17.8078 16.781 17.9209 16.7569 18.0165 16.7221C18.1121 16.6859 18.2049 16.6177 18.2951 16.5173C18.3853 16.4169 18.4769 16.2831 18.5738 16.1158C18.6694 15.9499 18.7824 15.7291 18.9143 15.4561L19.3626 14.5287L19.578 14.8325C19.7813 15.1175 19.9993 15.3651 20.2335 15.5725C20.4664 15.7813 20.6939 15.9446 20.916 16.0637C21.1368 16.1828 21.3522 16.251 21.5622 16.2684C21.7708 16.2858 21.9485 16.2483 22.0912 16.152C22.2352 16.057 22.4143 15.8335 22.6296 15.4829C22.845 15.1322 23.0604 14.7214 23.2758 14.2517C23.4912 13.782 23.6917 13.2881 23.8775 12.7702C24.0633 12.2523 24.2033 11.7799 24.2988 11.3517L24.3352 11.1737L24.6219 11.424C25.1846 11.9472 25.723 12.2269 26.2373 12.2631C26.4405 12.2871 26.5724 12.2898 26.6317 12.2724C26.6909 12.255 26.7636 12.2042 26.847 12.1212C26.9547 12.0141 27.0113 11.9365 27.018 11.8897C27.0288 11.8415 26.9843 11.7465 26.8888 11.6033ZM13.1583 11.0319C13.266 10.8057 13.3979 10.5836 13.5527 10.3628C13.7076 10.1433 13.8637 9.94656 14.0199 9.77392C14.1747 9.60129 14.3254 9.46211 14.4681 9.35506C14.6121 9.248 14.7252 9.19447 14.8087 9.19447C14.8558 9.19447 14.8558 9.2868 14.8087 9.47148C14.7602 9.65616 14.6943 9.84351 14.6108 10.0335C14.5031 10.2718 14.3564 10.4912 14.1706 10.6933C13.9849 10.8954 13.8031 11.0386 13.6227 11.1215C13.4545 11.2045 13.3118 11.246 13.192 11.246C13.1085 11.246 13.0668 11.2366 13.0668 11.2192C13.0695 11.2018 13.0991 11.1389 13.1583 11.0319Z" fill="#6600CC"/>
<path d="M10.1 9.06772C10.1242 8.94326 10.1511 8.79739 10.1807 8.63011C10.2103 8.46417 10.244 8.28485 10.279 8.09482C10.3153 7.90479 10.3503 7.72011 10.3867 7.54213C10.5415 6.73383 10.6828 6.01118 10.808 5.37418C10.9332 4.73851 11.0503 4.17244 11.158 3.67863C11.2657 3.18482 11.3667 2.75658 11.4636 2.39392C11.5591 2.03125 11.6547 1.71275 11.7503 1.43975L11.8432 1.17076C11.9213 0.944602 11.893 0.697027 11.7691 0.493615C11.5538 0.113555 11.3263 -0.0470342 11.0867 0.0118483C10.9184 0.0479808 10.7151 0.437409 10.4769 1.18013C10.2373 1.92419 9.98015 2.96802 9.70554 4.31161C9.65708 4.52573 9.60996 4.75457 9.5615 4.99813C9.51304 5.24169 9.46324 5.48257 9.40939 5.72078C9.35555 5.95899 9.30709 6.18515 9.26536 6.39927C9.22363 6.61339 9.18459 6.79806 9.14824 6.95196C9.08767 7.26109 9.02305 7.57424 8.95036 7.88873C8.87902 8.20455 8.83056 8.43875 8.80633 8.59398C8.71075 9.08244 8.63268 9.4799 8.57345 9.78903C8.51287 10.0982 8.46576 10.3511 8.42941 10.5478C8.39307 10.7445 8.36615 10.8958 8.34865 11.0028C8.33115 11.1099 8.31499 11.1995 8.30422 11.2705C8.26788 11.5916 8.22884 11.7201 8.18711 11.6545C8.14538 11.589 8.08885 11.2892 8.01616 10.7539C7.97981 10.5277 7.9327 10.2427 7.87212 9.89743C7.81154 9.55216 7.74962 9.18415 7.68366 8.7907C7.6177 8.3986 7.54905 7.99713 7.47771 7.58629C7.40636 7.17545 7.33636 6.79271 7.27175 6.4354C7.20579 6.07809 7.14656 5.7636 7.09272 5.48926C7.03887 5.21626 6.99983 5.01954 6.9756 4.90044C6.84368 4.32901 6.68215 3.80576 6.491 3.33068C6.29985 2.85561 6.09659 2.43808 5.88121 2.08211C5.66583 1.7248 5.44372 1.44243 5.21757 1.235C4.99007 1.02757 4.76258 0.911146 4.53508 0.887057C4.34393 0.862969 4.1824 0.901778 4.05048 1.00348C3.91856 1.10519 3.79337 1.2805 3.67357 1.52941C3.59011 1.73149 3.47299 2.11289 3.32357 2.67093C3.17415 3.23032 3.018 3.8633 2.85647 4.57123C2.69494 5.27916 1.02171 15.6345 0.877671 16.3598C0.733636 17.0851 0.625947 17.7101 0.554602 18.2333C0.459027 18.8395 0.37826 19.4016 0.3123 19.9195C0.24634 20.4374 0.189803 20.8978 0.141343 21.3019C0.0928824 21.7061 0.0578832 22.0393 0.033653 22.3016C0.0121151 22.5625 0 22.7352 0 22.8181C0.0363453 23.2464 0.23961 23.5555 0.609793 23.7455C0.717483 23.8044 0.786135 23.8312 0.81575 23.8258C0.845364 23.8191 0.884402 23.787 0.932862 23.7281C0.992092 23.6452 1.02305 23.5381 1.02305 23.407C1.02305 23.3467 1.04728 23.1634 1.0944 22.8543C1.14151 22.5451 1.19536 22.1999 1.25593 21.8198C1.32728 21.4397 1.39324 21.061 1.45381 20.6863C1.51304 20.3116 1.55477 20.0466 1.579 19.8927C1.61535 19.6907 1.67458 19.3695 1.75804 18.9292C1.84149 18.4889 1.93438 18.0165 2.03668 17.5107C2.13764 17.0048 3.76376 6.86364 3.87145 6.36447C3.97914 5.86531 4.06933 5.45447 4.14067 5.13329C4.3197 4.38388 4.45701 3.85126 4.55393 3.53677C4.6495 3.22229 4.71546 3.08177 4.75181 3.1179C4.76392 3.12995 4.78412 3.20087 4.81508 3.33202C4.84469 3.46317 4.87431 3.62376 4.90527 3.81379C4.93488 4.00382 4.9645 4.21258 4.99546 4.43875C5.02507 4.66491 5.05199 4.88438 5.07622 5.0985C5.08834 5.2176 5.11526 5.47321 5.15699 5.86531C5.19872 6.25741 5.24987 6.6803 5.3091 7.13262C5.36833 7.5729 5.42622 8.01586 5.48006 8.4615C5.53391 8.90713 5.57294 9.22563 5.59717 9.41566C5.63352 9.80777 5.68736 10.2306 5.75871 10.683C5.83005 11.1353 5.90544 11.5756 5.98351 12.0038C6.06159 12.4321 6.13832 12.8215 6.21639 13.1721C6.29447 13.5227 6.36312 13.793 6.42235 13.9844C6.58927 14.4956 6.81945 14.9573 7.11291 15.3668C7.40636 15.7777 7.70789 16.06 8.01885 16.2139C8.11442 16.2728 8.21 16.3183 8.30557 16.3477C8.40115 16.3772 8.46037 16.3919 8.4846 16.3919C8.58018 16.3919 8.67576 16.3477 8.77133 16.2581C8.8669 16.1684 8.93286 16.0587 8.96921 15.9275C9.00555 15.7843 9.04998 15.5916 9.10382 15.3481C9.15767 15.1045 9.20882 14.8329 9.25593 14.5358C9.30305 14.2387 9.35151 13.9255 9.39997 13.599C9.44708 13.2711 9.49016 12.966 9.52516 12.6796C9.5965 12.0855 9.67727 11.502 9.76746 10.9305C9.85765 10.3591 9.94919 9.83587 10.0461 9.36079C10.0582 9.28987 10.0757 9.19217 10.1 9.06772Z" fill="#6600CC"/>
</svg>
