<svg width="40" height="40" viewBox="0 0 40 40" fill="none" xmlns="http://www.w3.org/2000/svg">
<g clip-path="url(#clip0)">
<path d="M14.1451 21.5979C11.2751 21.598 8.47764 20.5809 6.25154 18.6866C3.50459 16.3491 1.9292 12.9404 1.9292 9.33461V5.85039C1.9292 5.5618 2.0417 5.29055 2.246 5.08672C2.44975 4.88336 2.72029 4.77148 3.00811 4.77148C3.00889 4.77148 3.00967 4.77148 3.01045 4.77148L12.133 4.79148C12.4666 4.79227 12.7365 5.06328 12.7357 5.39688C12.7349 5.73 12.4646 5.99953 12.1317 5.99953C12.1312 5.99953 12.1308 5.99953 12.1303 5.99953L3.13725 5.97984V9.33461C3.13725 12.5856 4.55771 15.659 7.03443 17.7666C9.49287 19.8586 12.7247 20.7632 15.9007 20.2483C16.0082 20.2309 16.1165 20.2126 16.2258 20.1934C16.5547 20.136 16.8675 20.3553 16.9251 20.6839C16.9828 21.0125 16.7632 21.3256 16.4346 21.3833C16.3202 21.4034 16.2067 21.4225 16.094 21.4408C15.4447 21.546 14.7929 21.5979 14.1451 21.5979Z" fill="#FF6D3A"/>
<path d="M25.8549 21.5978C25.207 21.5979 24.5556 21.546 23.906 21.4407C23.7933 21.4224 23.6799 21.4033 23.5654 21.3832C23.2368 21.3255 23.0172 21.0124 23.0749 20.6838C23.1326 20.3552 23.4461 20.1358 23.7742 20.1933C23.8835 20.2125 23.9918 20.2308 24.0993 20.2482C27.2757 20.763 30.5072 19.8584 32.9656 17.7665C35.4423 15.6588 36.8628 12.5855 36.8628 9.33453V5.97977L27.8697 5.99953C27.8692 5.99953 27.8688 5.99953 27.8683 5.99953C27.5353 5.99953 27.2651 5.72992 27.2643 5.39688C27.2635 5.06328 27.5334 4.79227 27.867 4.79148L36.9895 4.77148C36.9903 4.77148 36.991 4.77148 36.9918 4.77148C37.2797 4.77148 37.5503 4.88336 37.754 5.08672C37.9583 5.29055 38.0708 5.5618 38.0708 5.85039V9.33453C38.0708 12.9403 36.4954 16.349 33.7485 18.6865C31.5225 20.5807 28.7246 21.5977 25.8549 21.5978Z" fill="#FF6D3A"/>
<path d="M14.394 35.1849H25.6061C20.9618 29.7526 21.4465 21.9233 21.4465 21.9233H20.0001H18.5537C18.5537 21.9234 19.0383 29.7526 14.394 35.1849Z" fill="#FFB125"/>
<path d="M21.4463 21.9233H20H18.5536C18.5536 21.9233 18.6141 22.9033 18.4868 24.4104C18.2137 27.6408 18.9672 30.8869 20.7251 33.611C21.0735 34.1509 21.4619 34.6783 21.895 35.1848H25.6061C20.9617 29.7525 21.4463 21.9233 21.4463 21.9233Z" fill="#FF901D"/>
<path d="M9.80493 1.40088V10.3674C9.80493 15.6722 12.3262 20.6613 16.5972 23.8078C18.6209 25.2987 21.3793 25.2987 23.4029 23.8078C27.6738 20.6613 30.1952 15.6723 30.1952 10.3674V1.40088H9.80493Z" fill="#FFB125"/>
<path d="M26.571 1.40088V10.3674C26.571 15.6722 24.0498 20.6613 19.7788 23.8078C19.2852 24.1715 18.7477 24.4457 18.188 24.632C19.923 25.2093 21.8729 24.935 23.4029 23.8078C27.6738 20.6613 30.1952 15.6722 30.1952 10.3674V1.40088H26.571Z" fill="#FF901D"/>
<path d="M22.0724 25.9112H17.9273C17.1729 25.9112 16.5613 25.2997 16.5613 24.5452C16.5613 23.7908 17.1728 23.1792 17.9273 23.1792H22.0724C22.8267 23.1792 23.4384 23.7908 23.4384 24.5452C23.4384 25.2996 22.8268 25.9112 22.0724 25.9112Z" fill="#FF6D3A"/>
<path d="M22.0724 23.1792H19.8142V25.9112H22.0724C22.8268 25.9112 23.4384 25.2996 23.4384 24.5451C23.4384 23.7908 22.8269 23.1792 22.0724 23.1792Z" fill="#ED5729"/>
<path d="M29.5442 40H10.4558C10.1185 40 9.86499 39.6922 9.92968 39.3612L10.9413 34.1842C10.9905 33.9325 11.211 33.751 11.4674 33.751H28.5326C28.7891 33.751 29.0095 33.9325 29.0587 34.1842L30.0704 39.3612C30.135 39.6922 29.8815 40 29.5442 40Z" fill="#2C5871"/>
<path d="M30.0703 39.3611L29.0586 34.1842C29.0095 33.9325 28.7889 33.751 28.5325 33.751H25.2351L26.4562 40H29.5442C29.8814 40 30.135 39.6921 30.0703 39.3611Z" fill="#1D4859"/>
<path d="M12.2246 37.6953L12.5684 35.9363C12.5971 35.7898 12.7254 35.6841 12.8747 35.6841H27.1252C27.2745 35.6841 27.4029 35.7898 27.4315 35.9363L27.7753 37.6953C27.8129 37.8881 27.6653 38.0673 27.4689 38.0673H12.531C12.3346 38.0673 12.187 37.8881 12.2246 37.6953Z" fill="#E1EFFB"/>
<path d="M27.7754 37.6953L27.4316 35.9363C27.4029 35.7898 27.2746 35.6841 27.1253 35.6841H23.7582L24.2239 38.0674H27.469C27.6654 38.0673 27.813 37.8881 27.7754 37.6953Z" fill="#C3D8E5"/>
<path d="M30.9444 2.80148H9.05566C8.73683 2.80148 8.47839 2.54305 8.47839 2.22422V0.577266C8.47839 0.258438 8.73683 0 9.05566 0H30.9444C31.2632 0 31.5217 0.258438 31.5217 0.577266V2.22422C31.5217 2.54305 31.2632 2.80148 30.9444 2.80148Z" fill="#FF6D3A"/>
<path d="M30.9445 0H27.8976V2.80148H30.9445C31.2633 2.80148 31.5217 2.54305 31.5217 2.22422V0.577266C31.5217 0.258438 31.2633 0 30.9445 0Z" fill="#ED5729"/>
<path d="M22.0724 25.9112H17.9273C17.1729 25.9112 16.5613 25.2997 16.5613 24.5452C16.5613 23.7908 17.1728 23.1792 17.9273 23.1792H22.0724C22.8267 23.1792 23.4384 23.7908 23.4384 24.5452C23.4384 25.2996 22.8268 25.9112 22.0724 25.9112Z" fill="#FF6D3A"/>
<path d="M22.0724 25.9112H17.9273C17.1729 25.9112 16.5613 25.2997 16.5613 24.5452C16.5613 23.7908 17.1728 23.1792 17.9273 23.1792H22.0724C22.8267 23.1792 23.4384 23.7908 23.4384 24.5452C23.4384 25.2996 22.8268 25.9112 22.0724 25.9112Z" fill="#FF6D3A"/>
</g>
<defs>
<clipPath id="clip0">
<rect width="40" height="40" fill="white"/>
</clipPath>
</defs>
</svg>
