<svg width="148" height="200" viewBox="0 0 148 200" fill="none" xmlns="http://www.w3.org/2000/svg">
<path d="M113.812 99.8871C115.153 99.6301 118.288 97.0094 114.36 92.042C110.432 87.0746 104.311 90.5918 104.311 90.5918C102.398 99.7843 112.481 100.138 113.812 99.8871Z" fill="#6600CC"/>
<path d="M132.083 100.093C133.704 100.738 136.102 100.178 137.056 98.6594C138.814 95.8674 137.17 92.0648 136.097 90.9228C135.726 90.5289 134.606 90.3804 133.819 90.7287C130.684 92.1276 130.758 99.5672 132.083 100.093Z" fill="#6600CC"/>
<path d="M139.18 185.138C138.78 184.493 138.272 183.927 137.684 183.436C133.025 179.308 119.27 180.405 119.179 180.416C119.647 179.571 121.748 175.66 123.627 170.527C124.649 167.466 125.568 164.035 126.019 160.581L110.477 159.895C109.358 159.833 108.308 159.205 107.571 158.171C106.72 156.966 106.412 155.373 106.732 153.952L107.314 149.572C107.314 149.572 88.1126 129.806 77.5383 129.806C77.3499 129.806 77.1615 129.811 76.9731 129.817C69.9844 130.125 70.2071 141.442 77.2014 141.573C91.6583 141.836 104.545 144.782 105.219 162.231C105.841 178.303 89.4715 188.261 90.5163 188.381C93.0229 188.672 100.034 187.245 100.034 195.204C100.034 196.569 99.6746 199.926 99.6746 199.926H139.231C141.555 199.926 143.331 197.653 142.88 195.198C142.377 192.338 141.321 188.592 139.18 185.138Z" fill="#6600CC"/>
<path d="M140.67 109.605L119.442 109.696C118.157 109.605 117.027 110.587 116.69 112.094L111.545 134.784C114.303 135.812 120.824 139.769 119.79 145.313C118.757 150.851 116.182 155.042 108.451 150.297L107.777 154.414C107.28 156.635 108.685 158.936 110.58 159.01L126.459 159.695C126.465 159.65 129.12 159.735 131.181 159.73C132.831 159.724 134.315 158.576 134.784 156.869C134.784 156.858 134.789 156.852 134.789 156.841L137.313 145.615C136.28 145.615 131.683 143.731 132.157 138.41C132.671 132.626 138.341 133.425 139.888 133.979L143.399 114.178C143.879 111.997 142.532 109.736 140.67 109.605ZM122.034 114.047L120.253 122.948C120.07 123.867 119.225 124.615 118.374 124.615C117.523 124.615 116.975 123.867 117.164 122.948L118.945 114.047C119.128 113.128 119.973 112.38 120.824 112.38C121.674 112.38 122.217 113.122 122.034 114.047Z" fill="#6600CC"/>
<path d="M62.6706 199.675C63.7155 199.806 64.9202 199.914 66.2391 200C66.2448 199.646 66.045 199.292 65.6339 199.229C54.4202 197.539 40.9682 188.09 38.5473 157.68C35.8067 123.319 64.6062 101.668 72.5254 96.3985C73.5989 95.6848 79.4855 92.3618 80.1079 93.5379L83.7163 104.067C84.1331 104.849 84.727 104.649 84.4872 103.787C83.2025 99.082 82.6829 94.0975 83.7163 90.2149C84.7498 86.3381 87.8387 81.3478 87.8387 81.3478C87.8387 81.3478 79.8738 75.6953 83.0483 64.3274C86.2229 52.9595 89.6372 53.0166 91.4472 56.4138C92.7033 58.7719 96.0549 62.5688 98.3673 65.555C100.057 67.7304 102.741 68.6896 105.299 68.0158C108.902 67.0623 114.531 66.2858 121.857 67.502C121.857 67.502 126.088 54.4097 128.04 55.3119C131.649 56.9734 134.224 61.4041 133.864 72.6292C133.864 72.6349 133.864 72.6349 133.864 72.6406C138.866 77.5224 139.894 81.3536 140.048 88.148C140.088 89.9466 140.407 90.7745 140.407 90.7745C140.407 90.7745 140.288 89.1301 140.407 86.8976C140.921 77.4767 134.738 72.4922 134.738 72.4922C134.738 66.4 134.224 56.4252 128.554 54.7637C128.554 46.7988 94.8273 5.71789 43.018 0.0539184C36.5889 -0.648368 31.4046 5.62082 32.8834 12.381C36.4804 28.8248 46.8492 37.9545 27.3165 65.7605C-16.9047 128.715 0.949326 159.97 22.4119 179.799C22.4918 179.873 22.5775 179.948 22.6574 180.022C22.8001 180.153 22.9486 180.285 23.0913 180.416C37.1599 193.148 54.7856 198.727 62.6706 199.675Z" fill="#6600CC"/>
<path d="M141.515 99.7957C141.515 99.7957 147.567 105.031 147.807 111.198C148.047 117.364 146.111 122.046 143.451 124.781C143.451 124.781 153.374 111.769 141.515 99.7957Z" fill="#6600CC"/>
</svg>
