<svg width="295" height="157" viewBox="0 0 295 157" fill="none" xmlns="http://www.w3.org/2000/svg">
<g clip-path="url(#clip0)">
<path d="M194.067 79.9553C194.067 90.7367 192.912 100.079 190.601 107.982C188.29 115.884 185.089 122.433 180.997 127.626C176.905 132.813 172.055 136.681 166.446 139.229C160.712 141.794 154.494 143.093 148.214 143.038C141.96 143.1 135.768 141.8 130.066 139.229C124.507 136.686 119.698 132.818 115.639 127.626C111.58 122.435 108.408 115.887 106.123 107.982C103.839 100.081 102.696 90.739 102.696 79.9553C102.696 69.1715 103.839 59.8294 106.123 51.929C108.406 44.0239 111.578 37.4756 115.639 32.2842C119.7 27.0927 124.509 23.2391 130.066 20.7235C135.777 18.1861 141.966 16.9077 148.214 16.9749C154.49 16.9196 160.705 18.2036 166.446 20.7412C172.057 23.2545 176.908 27.108 180.997 32.3018C185.086 37.4957 188.288 44.044 190.601 51.9467C192.912 59.84 194.067 69.1762 194.067 79.9553ZM166.994 79.9553C166.994 71.4325 166.458 64.4468 165.386 58.9984C164.315 53.5499 162.894 49.2732 161.125 46.1682C159.347 43.0656 157.33 40.9354 155.076 39.7779C152.964 38.657 150.614 38.0614 148.224 38.0415C145.846 38.0583 143.508 38.6542 141.412 39.7779C139.184 40.9331 137.21 43.0632 135.49 46.1682C133.77 49.2732 132.389 53.5499 131.345 58.9984C130.299 64.4445 129.778 71.4301 129.78 79.9553C129.78 88.5394 130.302 95.5392 131.345 100.955C132.389 106.37 133.77 110.647 135.49 113.785C137.212 116.916 139.186 119.06 141.412 120.218C143.508 121.343 145.846 121.939 148.224 121.954C150.615 121.936 152.965 121.34 155.076 120.218C157.33 119.062 159.347 116.918 161.125 113.785C162.904 110.652 164.328 106.375 165.397 100.955C166.459 95.5368 166.992 88.537 166.994 79.9553Z" fill="#E8E8E8"/>
<path d="M282.234 91.6361H294.926V106.369C294.942 107.625 294.472 108.839 293.615 109.757C292.739 110.714 291.483 111.194 289.848 111.196H282.234V139.562H259.39V111.196H209.812C208.202 111.205 206.637 110.667 205.371 109.672C204.105 108.746 203.218 107.391 202.876 105.86L200.169 92.9057L257.192 16.1898H282.234V91.6361ZM259.39 59.4546C259.39 57.4812 259.461 55.35 259.602 53.0607C259.743 50.7715 259.955 48.4138 260.238 45.9878L227.663 91.6361H259.39V59.4546Z" fill="#E8E8E8"/>
<path d="M82.0677 92.0428H94.7563V106.779C94.7722 108.034 94.3025 109.247 93.4454 110.163C92.5691 111.125 91.3147 111.605 89.6823 111.603H82.0677V139.972H59.224V111.603H9.6463C8.03585 111.614 6.46953 111.076 5.20476 110.079C3.93711 109.155 3.04901 107.801 2.70662 106.27L0 93.3124L57.0227 16.5965H82.0677V92.0428ZM59.224 59.8612C59.224 57.8832 59.2947 55.7519 59.436 53.4674C59.5774 51.1828 59.7882 48.8252 60.0685 46.3945L27.4972 92.0428H59.224V59.8612Z" fill="#E8E8E8"/>
<path opacity="0.28" d="M247.624 157C262.667 157 274.863 154.641 274.863 151.731C274.863 148.821 262.667 146.461 247.624 146.461C232.58 146.461 220.384 148.821 220.384 151.731C220.384 154.641 232.58 157 247.624 157Z" fill="#BCBCBC"/>
<path d="M294.823 101.414C294.823 101.414 272.386 99.8229 230.515 128.999C204.604 147.056 183.697 119.627 183.697 119.627" stroke="#6600CC" stroke-linecap="round" stroke-linejoin="round"/>
<path fill-rule="evenodd" clip-rule="evenodd" d="M180.248 108.993C179.838 107.709 179.156 106.529 178.25 105.532C177.343 104.536 176.232 103.747 174.994 103.218C173.866 102.741 173.16 102.475 171.86 102.475C170.876 102.474 169.897 102.611 168.951 102.882C166.542 103.943 164.619 105.871 163.563 108.284C162.506 110.696 162.392 113.418 163.245 115.91C164.181 117.855 165.414 119.425 167.368 120.338C168.609 120.92 169.963 121.221 171.333 121.218C171.531 121.218 171.729 121.218 171.923 121.197C174.299 121.048 176.53 119.998 178.16 118.261C179.79 116.523 180.697 114.23 180.697 111.847C180.697 110.878 180.546 109.915 180.248 108.993V108.993ZM178.792 110.984C178.792 111.079 178.792 111.175 178.774 111.274C178.774 111.468 178.736 111.663 178.707 111.857C178.679 112.052 178.647 112.243 178.608 112.434C178.591 112.526 178.57 112.621 178.548 112.717C178.548 112.717 178.548 112.717 178.548 112.738C178.367 113.511 178.097 114.261 177.746 114.973C176.227 118.085 173.414 120.066 170.542 120.387C169.21 120.55 167.861 120.324 166.655 119.737C162.75 117.823 161.386 112.586 163.609 108.042C165.831 103.497 170.803 101.365 174.707 103.282C175.623 103.754 176.429 104.415 177.072 105.22C177.715 106.026 178.181 106.958 178.439 107.957C178.613 108.569 178.721 109.199 178.76 109.835V110.132C178.76 110.319 178.76 110.507 178.76 110.694C178.792 110.789 178.792 110.885 178.792 110.984Z" stroke="#6600CC" stroke-miterlimit="10"/>
<path fill-rule="evenodd" clip-rule="evenodd" d="M172.386 115.617C172.226 115.89 171.965 116.088 171.659 116.17C171.354 116.251 171.028 116.209 170.754 116.052L166.969 113.873L164.726 112.575C164.499 112.443 164.322 112.24 164.222 111.997C164.123 111.754 164.106 111.485 164.174 111.231C164.242 110.978 164.392 110.754 164.601 110.594C164.809 110.434 165.064 110.348 165.326 110.347C165.535 110.347 165.74 110.401 165.92 110.507L167.485 111.398L171.966 113.986C172.236 114.148 172.433 114.409 172.511 114.715C172.59 115.02 172.545 115.344 172.386 115.617Z" stroke="#6600CC" stroke-miterlimit="10"/>
<path fill-rule="evenodd" clip-rule="evenodd" d="M175.566 111.019C175.406 111.292 175.145 111.491 174.839 111.572C174.534 111.654 174.208 111.611 173.934 111.454L169.252 108.745L167.909 107.971C167.683 107.839 167.506 107.635 167.406 107.392C167.306 107.149 167.289 106.88 167.358 106.627C167.426 106.373 167.576 106.149 167.784 105.99C167.992 105.83 168.247 105.743 168.51 105.743C168.718 105.742 168.923 105.797 169.103 105.902L171.496 107.285L175.132 109.385C175.267 109.464 175.386 109.569 175.482 109.694C175.577 109.818 175.647 109.961 175.687 110.112C175.727 110.264 175.737 110.422 175.717 110.578C175.696 110.733 175.645 110.883 175.566 111.019V111.019Z" stroke="#6600CC" stroke-miterlimit="10"/>
<path fill-rule="evenodd" clip-rule="evenodd" d="M183.901 119.613C183.251 120.733 182.318 121.663 181.196 122.309C180.073 122.954 178.801 123.293 177.506 123.291C176.22 123.292 174.957 122.953 173.845 122.308L171.923 121.197C174.299 121.048 176.53 119.998 178.16 118.261C179.79 116.523 180.697 114.23 180.697 111.847C180.698 110.878 180.548 109.915 180.251 108.993L181.209 109.545C182.896 110.526 184.126 112.136 184.63 114.023C185.135 115.909 184.873 117.919 183.901 119.613Z" stroke="#6600CC" stroke-miterlimit="10"/>
<path fill-rule="evenodd" clip-rule="evenodd" d="M133.596 101.414C133.603 102.637 133.474 103.856 133.211 105.05C133.073 105.288 133.001 105.559 133.002 105.835V105.867C132.023 109.301 129.939 111.67 127.525 111.67H122.755C122.402 111.67 122.08 111.67 121.748 111.621C119.229 111.37 116.891 110.195 115.186 108.321C113.481 106.448 112.53 104.009 112.515 101.476C112.5 98.9416 113.423 96.4918 115.105 94.5986C116.788 92.7053 119.112 91.5026 121.628 91.2224C122.002 91.1797 122.379 91.1584 122.755 91.1587H127.525C129.939 91.1587 132.023 93.5281 133.002 96.962V96.9938C133.001 97.2694 133.073 97.5404 133.211 97.7789C133.474 98.9726 133.603 100.192 133.596 101.414Z" stroke="#6600CC" stroke-miterlimit="10"/>
<path fill-rule="evenodd" clip-rule="evenodd" d="M136.525 101.315C136.526 102.294 136.467 103.272 136.349 104.244C136.223 105.319 136.016 106.382 135.73 107.426C135.342 108.895 134.76 110.306 133.999 111.621C132.748 113.742 131.112 115.214 129.282 115.719C127.465 115.217 125.84 113.764 124.593 111.67H127.515C129.928 111.67 132.013 109.301 132.992 105.867C133.07 105.602 133.14 105.329 133.2 105.05C133.728 102.655 133.728 100.174 133.2 97.7789C133.14 97.4996 133.07 97.2272 132.992 96.962C132.013 93.5281 129.928 91.1587 127.515 91.1587H124.48C125.741 88.9591 127.409 87.4313 129.282 86.915C131.172 87.4384 132.854 88.9944 134.119 91.2259C134.854 92.5404 135.414 93.9458 135.783 95.406C136.059 96.4506 136.256 97.5146 136.373 98.5888C136.474 99.4941 136.525 100.404 136.525 101.315V101.315Z" stroke="#6600CC" stroke-miterlimit="10"/>
<path fill-rule="evenodd" clip-rule="evenodd" d="M139.352 101.315C139.353 102.294 139.294 103.272 139.175 104.244C139.049 105.319 138.843 106.382 138.557 107.426C138.256 108.556 137.843 109.653 137.324 110.701C135.737 113.884 133.356 115.914 130.695 115.914C130.217 115.913 129.742 115.848 129.281 115.719C131.112 115.214 132.748 113.739 133.999 111.621C134.76 110.306 135.342 108.895 135.73 107.426C136.016 106.382 136.223 105.319 136.348 104.244C136.467 103.272 136.526 102.294 136.525 101.315C136.525 100.403 136.474 99.4917 136.373 98.5852C136.256 97.511 136.059 96.4471 135.783 95.4024C135.412 93.9483 134.852 92.549 134.119 91.2401C132.854 89.0086 131.172 87.4525 129.281 86.9291C129.742 86.8009 130.217 86.7354 130.695 86.7346C133.426 86.7346 135.861 88.8565 137.447 92.202C137.935 93.2356 138.324 94.3131 138.61 95.4201C138.886 96.4648 139.083 97.5287 139.2 98.6029C139.301 99.5036 139.351 100.409 139.352 101.315V101.315Z" stroke="#6600CC" stroke-miterlimit="10"/>
<path fill-rule="evenodd" clip-rule="evenodd" d="M145.712 96.9938C145.711 97.4156 145.543 97.8198 145.245 98.1181C144.947 98.4163 144.543 98.5843 144.122 98.5852H139.218C139.101 97.511 138.903 96.4471 138.627 95.4024H144.14C144.558 95.408 144.957 95.578 145.252 95.8757C145.546 96.1735 145.711 96.5751 145.712 96.9938V96.9938Z" stroke="#6600CC" stroke-miterlimit="10"/>
<path fill-rule="evenodd" clip-rule="evenodd" d="M145.712 105.835C145.711 106.257 145.543 106.661 145.245 106.959C144.947 107.257 144.543 107.425 144.122 107.426H138.557C138.843 106.382 139.049 105.319 139.175 104.244H144.122C144.543 104.244 144.947 104.412 145.245 104.711C145.543 105.009 145.711 105.413 145.712 105.835V105.835Z" stroke="#6600CC" stroke-miterlimit="10"/>
<path d="M115.324 100.353C115.324 100.353 102.251 92.9269 77.5167 103.183C52.7826 113.438 22.7483 104.951 13.208 75.952" stroke="#6600CC" stroke-linecap="round" stroke-linejoin="round"/>
<path fill-rule="evenodd" clip-rule="evenodd" d="M232.557 150.242L222.462 154.454L228.755 146.896L232.14 146.472L232.557 150.242Z" fill="#6600CC"/>
<path fill-rule="evenodd" clip-rule="evenodd" d="M268.4 148.764H257.386V144.987L260.602 143.915L268.4 148.764Z" fill="#6600CC"/>
<path fill-rule="evenodd" clip-rule="evenodd" d="M260.139 141.164L256.62 141.988L246.245 104.381L246.217 104.279L246.125 104.233L243.351 102.847L237.797 99.3738L237.557 99.7628L242.973 103.154L232.154 143.236L228.893 144.05L231.186 119.086L233.486 93.9666L243.164 92.3682L252.786 90.7874L260.139 141.164Z" fill="#828282"/>
<path fill-rule="evenodd" clip-rule="evenodd" d="M230.511 81.7977L233.712 88.6655C233.606 89.302 233.504 89.9386 233.412 90.5787L233.359 90.897L225.232 80.7863L234.974 70.566L236.489 76.967L230.582 81.5148L230.433 81.6315L230.511 81.7977Z" fill="#C4C4C4"/>
<path fill-rule="evenodd" clip-rule="evenodd" d="M242.444 62.6373C241.737 63.9246 240.825 65.8873 239.889 68.0728C238.765 70.6898 237.613 73.6533 236.783 76.2066L235.327 70.0426L234.921 68.3345L242.444 62.6373Z" fill="#6600CC" fill-opacity="0.8"/>
<path fill-rule="evenodd" clip-rule="evenodd" d="M259.68 68.087L252.903 70.5625L252.747 70.6155V90.3099L243.101 91.9155L233.543 93.4892C233.635 92.5414 233.744 91.5936 233.896 90.66L234.218 88.7044V88.6372V88.6089C236.083 77.8298 240.331 67.7793 242.885 62.9344L242.108 69.1479L242.083 69.353L242.285 69.4025L243.21 69.6359L243.348 69.6678L243.444 69.5617L251.033 60.809L258.602 59.9178L259.68 68.087Z" fill="#6600CC" fill-opacity="0.8"/>
<path fill-rule="evenodd" clip-rule="evenodd" d="M249.973 51.3667L249.952 51.2924L249.98 51.2182C250.215 50.6508 250.335 50.0427 250.334 49.4287C250.337 49.1895 250.264 48.9554 250.125 48.7604C250.051 48.6736 249.957 48.6061 249.851 48.5636C249.746 48.5212 249.631 48.5049 249.518 48.5163H249.284V43.9897C248.869 43.6717 248.432 43.3823 247.977 43.1233C245.335 41.6667 242.244 41.2541 239.313 41.9669V56.4061H248.588V52.9227H249.051V56.8694H245.56L245.341 60.5968V60.717L245.239 60.7772L243.454 61.8876L242.564 68.9994L243.15 69.1479L250.422 60.7701V52.9581L249.973 51.3667ZM243.009 52.9227H241.154V47.8197H239.765V47.3564H241.62V52.4595H243.009V52.9227ZM245.793 47.8197H243.705V47.3564H245.793V47.8197Z" fill="#C4C4C4"/>
<path fill-rule="evenodd" clip-rule="evenodd" d="M253.888 41.7901C253.883 42.7853 253.737 43.7749 253.454 44.7288L250.69 52.1836L250.443 51.3101C250.681 50.7018 250.801 50.0537 250.796 49.4005C250.793 49.0654 250.685 48.7398 250.485 48.4704C250.3 48.2455 250.036 48.1 249.747 48.0637V43.7669L249.666 43.6962C249.22 43.3309 248.739 43.0099 248.231 42.7378C244.56 40.616 240.793 40.9696 239.111 41.5319C235.8 39.5338 234.91 37.4226 235.058 35.6331C235.193 34.0382 236.157 32.6272 237.143 31.69C237.076 32.2928 237.169 32.9026 237.412 33.4582C237.685 34.0164 238.152 34.4554 238.726 34.6924C239.754 35.0835 240.881 35.1246 241.934 34.8091L241.998 34.7879C243.535 34.3034 246.987 33.2425 250.072 35.2512C251.331 36.0166 252.366 37.0995 253.075 38.3916L250.076 40.1951L249.821 40.3472L250.037 40.5559L250.5 41.0191L250.606 41.1323L250.75 41.0722L252.871 40.2199L253.701 41.6698L253.779 41.8078L253.888 41.7901Z" fill="#6600CC"/>
<path fill-rule="evenodd" clip-rule="evenodd" d="M268.895 58.9064L259.86 65.9651L259.065 60.0628L263.227 59.1858L263.51 59.1256L263.393 58.8639L255.513 41.2278L255.436 41.0615L255.263 41.0934L254.478 41.2242L254.33 41.249L254.022 41.2879L253.842 40.9731L253.178 39.8132L253.082 39.6364L252.892 39.7142L250.715 40.5841L250.574 40.4391L253.164 38.8796L253.277 38.8159L253.68 38.5754L253.708 38.5542L256.489 39.4136L256.927 41.3727L256.934 41.4152L256.962 41.4505L268.895 58.9064Z" fill="#C4C4C4"/>
<path fill-rule="evenodd" clip-rule="evenodd" d="M233.73 149.715L233.271 145.56L233.242 145.326L233.013 145.355L229.32 145.814H229.225L229.172 145.885L222.253 154.206L222.515 154.56L233.589 149.945L233.751 149.878L233.73 149.715ZM223.211 153.782L229.469 146.263L232.854 145.843L233.271 149.591L223.211 153.782ZM269.824 148.155L261.294 142.851L261.203 142.794L261.1 142.833L257.641 143.986L257.485 144.035V148.587H270.513L269.824 148.155ZM257.941 148.124V144.364L261.142 143.303L268.895 148.124H257.941ZM244.337 47.2645V47.7419H246.415V47.2821L244.337 47.2645ZM242.263 52.3393V47.2645H240.419V47.7419H241.804V52.8202H243.648V52.3393H242.263ZM244.337 47.2645V47.7419H246.415V47.2821L244.337 47.2645ZM242.263 52.3393V47.2645H240.419V47.7419H241.804V52.8202H243.648V52.3393H242.263ZM242.263 52.3393V47.2645H240.419V47.7419H241.804V52.8202H243.648V52.3393H242.263ZM244.337 47.2645V47.7419H246.415V47.2821L244.337 47.2645ZM244.337 47.2645V47.7419H246.415V47.2821L244.337 47.2645ZM242.263 52.3393V47.2645H240.419V47.7419H241.804V52.8202H243.648V52.3393H242.263ZM242.263 52.3393V47.2645H240.419V47.7419H241.804V52.8202H243.648V52.3393H242.263ZM244.337 47.2645V47.7419H246.415V47.2821L244.337 47.2645ZM244.337 47.2645V47.7419H246.415V47.2821L244.337 47.2645ZM242.263 52.3393V47.2645H240.419V47.7419H241.804V52.8202H243.648V52.3393H242.263ZM242.263 52.3393V47.2645H240.419V47.7419H241.804V52.8202H243.648V52.3393H242.263ZM244.337 47.2645V47.7419H246.415V47.2821L244.337 47.2645ZM244.337 47.2645V47.7419H246.415V47.2821L244.337 47.2645ZM242.263 52.3393V47.2645H240.419V47.7419H241.804V52.8202H243.648V52.3393H242.263ZM242.263 52.3393V47.2645H240.419V47.7419H241.804V52.8202H243.648V52.3393H242.263ZM244.337 47.2645V47.7419H246.415V47.2821L244.337 47.2645ZM244.337 47.2645V47.7419H246.415V47.2821L244.337 47.2645ZM242.263 47.2645H240.419V47.7419H241.804V52.8202H243.648V52.3393H242.263V47.2645ZM270.018 58.8534L269.895 58.673L257.941 41.1712L257.489 39.1342L257.461 39.0034L257.333 38.9645L254.334 38.0414L254.235 38.0132L254.146 38.0627L254.069 38.1157C253.328 36.7666 252.246 35.636 250.931 34.8374C247.666 32.7368 244.065 33.8437 242.525 34.3211L242.436 34.3459C241.495 34.6281 240.488 34.5958 239.567 34.2539C239.103 34.0596 238.727 33.7024 238.507 33.2496C238.236 32.5829 238.185 31.8466 238.362 31.1489L238.479 30.5336L237.995 30.9261C236.815 31.8739 235.458 33.5643 235.292 35.5659C235.126 37.5676 236.15 39.8097 239.532 41.8537V56.7244H245.744L245.535 60.2856L243.793 61.3784L235.26 67.8394L235.14 67.9314L235.172 68.0799L235.582 69.8022L225.547 80.3266L225.409 80.4751L225.532 80.6307L234.013 91.2011C233.921 91.9296 233.843 92.6617 233.772 93.3902L229.119 143.714L229.091 144.043L229.405 143.965L233.094 143.042L233.228 143.003L233.26 142.876L244.026 102.988L246.45 104.201L256.8 141.719L256.86 141.938L257.072 141.885L260.994 140.962L261.203 140.913L261.167 140.704L253.793 90.1791V70.7287L260.559 68.2532L260.736 68.186L260.711 68.0021L260.482 66.3046L269.849 58.9842L270.018 58.8534ZM235.723 35.6013C235.857 34.0205 236.818 32.6166 237.801 31.6829C237.732 32.2854 237.824 32.8952 238.066 33.4512C238.335 34.0076 238.801 34.4446 239.373 34.6783C240.391 35.0654 241.509 35.1064 242.553 34.795H242.617C244.161 34.3034 247.585 33.2425 250.673 35.2229C251.924 35.9854 252.954 37.0634 253.659 38.3491L250.676 40.1421L250.422 40.2942L250.634 40.4993L251.097 40.9625L251.203 41.0722L251.344 41.0121L253.464 40.1668L254.291 41.6097L254.369 41.7476H254.471C254.466 42.7371 254.32 43.7207 254.037 44.6687L251.288 52.0952L251.044 51.2288C251.277 50.6235 251.391 49.9785 251.38 49.3297C251.378 48.9961 251.27 48.6716 251.072 48.4032C250.889 48.1781 250.625 48.0335 250.337 48V43.6962L250.256 43.6255C249.817 43.2614 249.344 42.9416 248.843 42.6706C245.189 40.57 241.444 40.9236 239.769 41.4683C236.461 39.4843 235.574 37.3837 235.723 35.6013ZM254.471 44.796C254.773 43.7792 254.924 42.7235 254.92 41.6628L255.729 41.5284L263.379 58.6447L259.552 59.451L259.524 59.2494L259.298 59.2707L251.486 60.1937V52.845L254.471 44.796ZM244.094 61.7108L245.86 60.611L245.963 60.5509V60.4341L246.182 56.7244H249.655V52.8025H249.192V56.2647H239.956V41.9032C242.871 41.1961 245.945 41.6061 248.574 43.0526C249.025 43.3125 249.459 43.6007 249.874 43.9155V48.4173H250.104C250.217 48.4065 250.331 48.423 250.436 48.4655C250.541 48.508 250.634 48.5752 250.708 48.6614C250.847 48.8551 250.92 49.088 250.917 49.3262C250.915 49.933 250.795 50.5336 250.563 51.0944L250.535 51.1652L250.556 51.2394L251.009 52.8237V60.6039L243.807 68.9322L243.224 68.7837L244.094 61.7108ZM243.101 62.4641C242.394 63.7407 241.493 65.6964 240.56 67.8677C239.444 70.4706 238.295 73.4164 237.472 75.9414L236.023 69.8269L235.62 68.1259L243.101 62.4641ZM225.981 80.4999L235.673 70.3362L237.179 76.7017L231.306 81.2248L231.158 81.3415L231.235 81.5078L234.416 88.3402C234.31 88.9732 234.207 89.6027 234.115 90.2427L234.062 90.561L225.981 80.4999ZM237.094 77.3595C236.042 80.7035 235.194 84.1083 234.553 87.5551L231.727 81.4901L237.094 77.3595ZM260.697 140.563L257.199 141.383L246.867 103.971L246.839 103.872L246.747 103.826L243.988 102.443L238.465 98.9919L238.225 99.3809L243.61 102.755L232.854 142.624L229.61 143.434L231.889 118.605L234.179 93.6201L243.807 92.0322L253.376 90.4585L260.697 140.563ZM253.486 70.3751L253.334 70.4316V90.0164L243.726 91.5937L234.221 93.1568C234.313 92.2161 234.423 91.2719 234.575 90.3276L234.896 88.3861V88.3154V88.2906C236.751 77.5717 240.977 67.5707 243.518 62.754L242.744 68.9357L242.719 69.1373L242.917 69.1868L243.839 69.4202L243.977 69.4521L244.072 69.346L251.62 60.6393L259.132 59.7658L260.227 67.8996L253.486 70.3751ZM260.415 65.7777L259.623 59.9037L263.764 59.0337L264.043 58.9736L263.93 58.7154L256.09 41.1747L256.015 41.0085L255.839 41.0403L255.061 41.1677L254.913 41.1924L254.609 41.2348L254.429 40.9201L253.768 39.7672L253.673 39.5904L253.482 39.6682L251.32 40.5311L251.178 40.3896L253.754 38.8371L253.867 38.7735L254.266 38.533H254.295L257.061 39.3853L257.496 41.3339V41.3763L257.524 41.4117L269.393 58.772L260.415 65.7777ZM244.337 47.7419H246.415V47.2821H244.337V47.7419ZM242.263 47.2821H240.419V47.7419H241.804V52.8202H243.648V52.3393H242.263V47.2821ZM242.263 52.3569V47.2645H240.419V47.7419H241.804V52.8202H243.648V52.3393L242.263 52.3569ZM244.337 47.2821V47.7419H246.415V47.2821H244.337ZM244.337 47.2821V47.7419H246.415V47.2821H244.337ZM242.263 52.3393V47.2645H240.419V47.7419H241.804V52.8202H243.648V52.3393H242.263ZM242.263 52.3393V47.2645H240.419V47.7419H241.804V52.8202H243.648V52.3393H242.263ZM244.337 47.2645V47.7419H246.415V47.2821L244.337 47.2645ZM244.337 47.2645V47.7419H246.415V47.2821L244.337 47.2645ZM242.263 52.3393V47.2645H240.419V47.7419H241.804V52.8202H243.648V52.3393H242.263ZM242.263 52.3393V47.2645H240.419V47.7419H241.804V52.8202H243.648V52.3393H242.263ZM244.337 47.2645V47.7419H246.415V47.2821L244.337 47.2645ZM244.337 47.2645V47.7419H246.415V47.2821L244.337 47.2645ZM242.263 52.3393V47.2645H240.419V47.7419H241.804V52.8202H243.648V52.3393H242.263ZM242.263 52.3393V47.2645H240.419V47.7419H241.804V52.8202H243.648V52.3393H242.263ZM244.337 47.2645V47.7419H246.415V47.2821L244.337 47.2645ZM244.337 47.2645V47.7419H246.415V47.2821L244.337 47.2645ZM242.263 52.3393V47.2645H240.419V47.7419H241.804V52.8202H243.648V52.3393H242.263Z" fill="#757575"/>
<path d="M248.691 21.6607C248.765 21.3221 248.907 21.0021 249.108 20.72C249.29 20.4367 249.531 20.1955 249.814 20.0127C250.096 19.8387 250.408 19.7188 250.733 19.6591C251.083 19.5859 251.444 19.5859 251.793 19.6591C252.132 19.7298 252.454 19.8694 252.737 20.0693C253.008 20.2598 253.24 20.4997 253.422 20.7766C253.597 21.0564 253.717 21.3674 253.775 21.6925C253.844 22.0377 253.841 22.3932 253.767 22.7374C253.694 23.0815 253.551 23.407 253.348 23.6941C253.157 23.9624 252.917 24.1927 252.641 24.3731C252.363 24.5494 252.054 24.6695 251.73 24.7268C251.393 24.7939 251.046 24.7939 250.708 24.7268C250.365 24.6575 250.038 24.5204 249.747 24.3236C249.468 24.1367 249.227 23.8963 249.041 23.6163C248.863 23.3417 248.743 23.0337 248.687 22.711C248.617 22.3643 248.619 22.0069 248.691 21.6607ZM249.684 1.32973C250.15 1.06951 250.633 0.840322 251.129 0.643666C251.654 0.434975 252.197 0.275159 252.751 0.166247C253.347 0.0517709 253.953 -0.00389976 254.56 3.4582e-05C255.241 0.0057494 255.919 0.081593 256.585 0.226366C257.484 0.405008 258.348 0.728685 259.143 1.18474C259.842 1.5835 260.453 2.11866 260.941 2.75845C261.404 3.37116 261.725 4.07895 261.881 4.8308C262.045 5.64057 262.035 6.47578 261.853 7.28155C261.711 8.03453 261.429 8.75423 261.023 9.40341C260.677 9.93661 260.251 10.4137 259.761 10.818C259.308 11.1796 258.816 11.4892 258.295 11.741L256.881 12.42C256.466 12.6135 256.065 12.8357 255.68 13.0848C255.359 13.2859 255.112 13.5846 254.973 13.9371L254.072 16.2676L251.246 15.6735L251.535 12.8939C251.529 12.8457 251.529 12.797 251.535 12.7489C251.535 12.71 251.535 12.664 251.564 12.6074C251.648 12.1522 251.87 11.7339 252.2 11.4086C252.546 11.0928 252.932 10.8241 253.348 10.6093C253.783 10.3689 254.242 10.1461 254.726 9.93388C255.205 9.73056 255.669 9.49423 256.115 9.22659C256.553 8.95502 256.948 8.61747 257.284 8.22578C257.642 7.7975 257.885 7.28516 257.991 6.73694C258.076 6.36689 258.076 5.98241 257.991 5.61236C257.911 5.26717 257.757 4.94367 257.539 4.66459C257.307 4.36821 257.018 4.12064 256.691 3.93609C256.327 3.72822 255.932 3.58016 255.521 3.49757C254.981 3.37059 254.424 3.32647 253.871 3.36672C253.459 3.40232 253.052 3.47933 252.655 3.59659C252.302 3.70622 252.023 3.80524 251.783 3.90072C251.592 3.98905 251.379 4.01977 251.171 3.98913C250.992 3.96243 250.824 3.8835 250.689 3.76214C250.554 3.64079 250.457 3.48238 250.412 3.3066L249.684 1.32973Z" fill="#6600CC"/>
<path d="M137.762 122.456L134.052 126.877" stroke="#6600CC" stroke-linecap="round" stroke-linejoin="round"/>
<path d="M149.069 128.468L147.479 134.657" stroke="#6600CC" stroke-linecap="round" stroke-linejoin="round"/>
<path d="M161.083 125.993L162.319 130.767" stroke="#6600CC" stroke-linecap="round" stroke-linejoin="round"/>
<path d="M168.287 91.5831L172.92 87.6223" stroke="#6600CC" stroke-linecap="round" stroke-linejoin="round"/>
<path d="M158.426 84.7012L160.199 78.0739" stroke="#6600CC" stroke-linecap="round" stroke-linejoin="round"/>
<path d="M145.504 85.4686L145.005 80.5494" stroke="#6600CC" stroke-linecap="round" stroke-linejoin="round"/>
</g>
<defs>
<clipPath id="clip0">
<rect width="295" height="157" fill="white"/>
</clipPath>
</defs>
</svg>
