<svg width="40" height="40" viewBox="0 0 40 40" fill="none" xmlns="http://www.w3.org/2000/svg">
<rect width="40" height="40" rx="5" fill="#55ACEE"/>
<path fill-rule="evenodd" clip-rule="evenodd" d="M19.401 15.9228L19.443 16.6149L18.7435 16.5302C16.1974 16.2053 13.973 15.1037 12.0844 13.2535L11.1611 12.3355L10.9233 13.0134C10.4197 14.5246 10.7414 16.1206 11.7907 17.194C12.3503 17.7871 12.2243 17.8719 11.2591 17.5188C10.9233 17.4058 10.6295 17.3211 10.6016 17.3634C10.5036 17.4623 10.8394 18.7475 11.1052 19.256C11.4689 19.9621 12.2104 20.6542 13.0218 21.0638L13.7072 21.3886L12.8958 21.4027C12.1124 21.4027 12.0844 21.4168 12.1684 21.7134C12.4482 22.6314 13.5534 23.606 14.7844 24.0297L15.6518 24.3263L14.8964 24.7782C13.7772 25.4279 12.4622 25.7951 11.1471 25.8233C10.5176 25.8375 10 25.8939 10 25.9363C10 26.0775 11.7067 26.8685 12.7 27.1792C15.6798 28.0972 19.2191 27.7017 21.8772 26.134C23.7658 25.0183 25.6543 22.8009 26.5357 20.6542C27.0113 19.5102 27.487 17.4199 27.487 16.4172C27.487 15.7675 27.529 15.6827 28.3124 14.906C28.774 14.454 29.2077 13.9597 29.2916 13.8185C29.4315 13.5501 29.4175 13.5501 28.7041 13.7902C27.515 14.2139 27.3471 14.1574 27.9347 13.5219C28.3683 13.0699 28.8859 12.2508 28.8859 12.0107C28.8859 11.9683 28.6761 12.0389 28.4383 12.166C28.1865 12.3073 27.6269 12.5191 27.2072 12.6462L26.4518 12.8863L25.7663 12.4203C25.3885 12.166 24.8569 11.8836 24.5772 11.7988C23.8637 11.6011 22.7725 11.6293 22.129 11.8553C20.3803 12.4909 19.2751 14.1292 19.401 15.9228Z" fill="white"/>
</svg>
