<svg width="295" height="211" viewBox="0 0 295 211" fill="none" xmlns="http://www.w3.org/2000/svg">
<g clip-path="url(#clip0)">
<path opacity="0.1" d="M290.329 141.564C283.487 155.64 269.594 165.053 255.196 171.26C235.813 179.62 214.468 182.935 193.416 181.533C189.727 181.288 186.049 180.897 182.382 180.359C169.646 178.506 157.23 174.9 145.488 169.645C142.099 168.123 138.778 166.461 135.527 164.66C130.096 161.658 124.892 158.264 119.958 154.505C118.716 153.56 117.492 152.591 116.285 151.598C115.449 150.91 114.619 150.206 113.777 149.523C112 148.082 110.172 146.713 108.133 145.689C107.517 145.379 106.886 145.102 106.242 144.857C99.784 142.407 92.3367 143.331 85.613 145.242C80.4988 146.695 75.5133 148.686 70.4043 150.106C68.1317 150.757 65.8161 151.248 63.4746 151.575C58.2467 152.235 52.9378 151.77 47.9053 150.211L47.4752 150.078C46.7542 149.852 46.0392 149.604 45.3302 149.335L44.9001 149.171C44.2134 148.907 43.5413 148.624 42.8838 148.321L42.4537 148.126C41.767 147.807 41.0949 147.471 40.4374 147.117C40.2005 146.993 39.9661 146.86 39.7344 146.734C35.9934 144.65 32.5929 142.01 29.6501 138.903C29.5652 138.819 29.4853 138.731 29.3926 138.647C28.9832 138.205 28.5815 137.756 28.1926 137.296C28.0484 137.126 27.9042 136.957 27.7626 136.782C27.3008 136.221 26.8553 135.646 26.4261 135.059C26.3617 134.974 26.2999 134.887 26.2381 134.802C24.4797 132.376 23.0219 129.747 21.8964 126.972C21.8603 126.887 21.8269 126.8 21.796 126.715C21.4526 125.833 21.1393 124.937 20.856 124.026C20.7402 123.646 20.6294 123.255 20.5316 122.875C20.4981 122.762 20.4672 122.647 20.4389 122.534C19.0174 116.953 18.8552 111.152 18.8552 105.383C18.8552 104.711 18.8552 104.039 18.8552 103.367C18.8964 94.0371 19.0406 84.5476 20.4208 75.3458C20.4208 75.2816 20.4389 75.2173 20.4492 75.1557C20.9111 72.0579 21.5395 68.9871 22.3316 65.9564C23.1606 62.7765 24.22 59.6608 25.5016 56.6339C28.6767 49.1861 33.294 42.4086 38.4211 36.1268C51.3354 20.3196 68.272 7.04971 88.0955 2.08282C109.456 -3.26673 133.196 1.85939 150.427 15.5402C155.68 19.7109 160.4 24.6496 166.3 27.847C171.45 30.6309 177.478 31.784 182.994 29.5933C187.552 27.7828 190.519 26.8839 195.638 27.1587C206.237 27.7566 216.685 29.9391 226.633 33.6331C227.034 33.7795 227.436 33.931 227.835 34.0825C253.769 43.9778 276.062 63.6374 287.651 88.9007C287.958 89.5684 288.256 90.2413 288.544 90.9193C295.453 107.014 297.951 125.878 290.329 141.564Z" fill="#6C63FF"/>
<path opacity="0.1" d="M30.9789 190.814C43.5342 190.814 53.7122 189.184 53.7122 187.173C53.7122 185.162 43.5342 183.531 30.9789 183.531C18.4237 183.531 8.24561 185.162 8.24561 187.173C8.24561 189.184 18.4237 190.814 30.9789 190.814Z" fill="#6C63FF"/>
<path opacity="0.1" d="M234.919 210.569C257.181 210.569 275.228 208.821 275.228 206.665C275.228 204.509 257.181 202.762 234.919 202.762C212.658 202.762 194.611 204.509 194.611 206.665C194.611 208.821 212.658 210.569 234.919 210.569Z" fill="#6C63FF"/>
<path d="M271.414 27.6723H33.124C31.3477 27.6723 29.9077 29.1084 29.9077 30.88V162.718C29.9077 164.49 31.3477 165.926 33.124 165.926H271.414C273.191 165.926 274.631 164.49 274.631 162.718V30.88C274.631 29.1084 273.191 27.6723 271.414 27.6723Z" fill="url(#paint0_linear)"/>
<path d="M271.054 29.6164H33.5129C31.7365 29.6164 30.2965 31.0525 30.2965 32.8241V162.259C30.2965 164.03 31.7365 165.466 33.5129 165.466H271.054C272.83 165.466 274.27 164.03 274.27 162.259V32.8241C274.27 31.0525 272.83 29.6164 271.054 29.6164Z" fill="white"/>
<path d="M271.054 29.6164H33.5129C31.7365 29.6164 30.2965 31.0525 30.2965 32.8241V162.259C30.2965 164.03 31.7365 165.466 33.5129 165.466H271.054C272.83 165.466 274.27 164.03 274.27 162.259V32.8241C274.27 31.0525 272.83 29.6164 271.054 29.6164Z" fill="white"/>
<path opacity="0.04" d="M271.054 29.6164H33.5129C31.7365 29.6164 30.2965 31.0525 30.2965 32.8241V162.259C30.2965 164.03 31.7365 165.466 33.5129 165.466H271.054C272.83 165.466 274.27 164.03 274.27 162.259V32.8241C274.27 31.0525 272.83 29.6164 271.054 29.6164Z" fill="white"/>
<path d="M273.032 28.0575H31.5351C31.2066 28.0575 30.8916 28.1876 30.6593 28.4193C30.427 28.651 30.2965 28.9652 30.2965 29.2928V34.5139H274.26V29.2928C274.26 28.967 274.131 28.6543 273.901 28.4229C273.671 28.1915 273.358 28.0602 273.032 28.0575Z" fill="#5A5773"/>
<path d="M35.1686 32.9551C36.093 32.9551 36.8424 32.2077 36.8424 31.2857C36.8424 30.3638 36.093 29.6164 35.1686 29.6164C34.2442 29.6164 33.4948 30.3638 33.4948 31.2857C33.4948 32.2077 34.2442 32.9551 35.1686 32.9551Z" fill="white"/>
<path d="M39.6751 32.9551C40.5996 32.9551 41.349 32.2077 41.349 31.2857C41.349 30.3638 40.5996 29.6164 39.6751 29.6164C38.7507 29.6164 38.0013 30.3638 38.0013 31.2857C38.0013 32.2077 38.7507 32.9551 39.6751 32.9551Z" fill="white"/>
<path d="M44.1816 32.9551C45.106 32.9551 45.8554 32.2077 45.8554 31.2857C45.8554 30.3638 45.106 29.6164 44.1816 29.6164C43.2572 29.6164 42.5078 30.3638 42.5078 31.2857C42.5078 32.2077 43.2572 32.9551 44.1816 32.9551Z" fill="white"/>
<path opacity="0.2" d="M115.863 46.6565H50.3901V52.1987H115.863V46.6565Z" fill="#6C63FF"/>
<path opacity="0.1" d="M254.176 68.879H50.3901V154.133H254.176V68.879Z" fill="#5A5773"/>
<path opacity="0.1" d="M169.709 74.4392H166.22V67.6797C166.22 60.0521 160.122 53.7112 152.474 53.5957C150.63 53.5764 148.8 53.9212 147.09 54.6104C145.38 55.2996 143.823 56.3194 142.51 57.6112C141.198 58.9029 140.154 60.4411 139.44 62.1369C138.725 63.8328 138.355 65.6528 138.349 67.4922V74.4392H134.868C133.329 74.4439 131.855 75.0556 130.767 76.1406C129.679 77.2257 129.065 78.696 129.061 80.2304V108.023C129.065 109.558 129.679 111.028 130.767 112.113C131.855 113.198 133.329 113.81 134.868 113.815H169.709C171.248 113.81 172.722 113.198 173.809 112.113C174.897 111.028 175.509 109.558 175.514 108.023V80.2304C175.509 78.6962 174.897 77.2259 173.809 76.1408C172.722 75.0557 171.248 74.4439 169.709 74.4392ZM154.323 92.5064V102.461C154.326 102.988 154.128 103.497 153.77 103.884C153.411 104.271 152.919 104.508 152.391 104.546C152.116 104.559 151.841 104.516 151.583 104.42C151.325 104.324 151.089 104.176 150.89 103.987C150.691 103.797 150.532 103.569 150.424 103.316C150.315 103.064 150.259 102.792 150.259 102.517V92.5013C149.317 92.0431 148.559 91.28 148.107 90.3366C147.656 89.3931 147.539 88.325 147.774 87.3065C148.01 86.288 148.585 85.3792 149.405 84.7285C150.226 84.0778 151.243 83.7236 152.291 83.7236C153.339 83.7236 154.356 84.0778 155.177 84.7285C155.997 85.3792 156.572 86.288 156.807 87.3065C157.043 88.325 156.926 89.3931 156.475 90.3366C156.023 91.28 155.265 92.0431 154.323 92.5013V92.5064ZM162.161 74.4392H142.413V67.4922C142.413 64.8814 143.453 62.3776 145.304 60.5315C147.155 58.6854 149.665 57.6483 152.283 57.6483C154.901 57.6483 157.412 58.6854 159.263 60.5315C161.114 62.3776 162.154 64.8814 162.154 67.4922L162.161 74.4392Z" fill="black"/>
<path d="M169.709 73.9256H166.22V67.1661C166.22 59.5385 160.122 53.1976 152.474 53.0821C150.63 53.0627 148.8 53.4076 147.09 54.0968C145.38 54.7859 143.823 55.8058 142.51 57.0976C141.198 58.3893 140.154 59.9275 139.44 61.6233C138.725 63.3192 138.355 65.1392 138.349 66.9786V73.9256H134.868C133.329 73.9303 131.855 74.542 130.767 75.627C129.679 76.7121 129.065 78.1824 129.061 79.7168V107.51C129.065 109.044 129.679 110.515 130.767 111.6C131.855 112.685 133.329 113.296 134.868 113.301H169.709C171.248 113.296 172.722 112.685 173.809 111.6C174.897 110.514 175.509 109.044 175.514 107.51V79.7168C175.509 78.1826 174.897 76.7123 173.809 75.6272C172.722 74.5421 171.248 73.9303 169.709 73.9256ZM154.323 91.9928V101.947C154.326 102.474 154.128 102.983 153.77 103.37C153.411 103.757 152.919 103.994 152.391 104.033C152.116 104.045 151.841 104.002 151.583 103.906C151.325 103.81 151.089 103.663 150.89 103.473C150.691 103.283 150.532 103.055 150.424 102.803C150.315 102.55 150.259 102.278 150.259 102.004V91.9877C149.317 91.5295 148.559 90.7664 148.107 89.823C147.656 88.8795 147.539 87.8114 147.774 86.7929C148.01 85.7744 148.585 84.8656 149.405 84.2149C150.226 83.5642 151.243 83.2099 152.291 83.2099C153.339 83.2099 154.356 83.5642 155.177 84.2149C155.997 84.8656 156.572 85.7744 156.807 86.7929C157.043 87.8114 156.926 88.8795 156.475 89.823C156.023 90.7664 155.265 91.5295 154.323 91.9877V91.9928ZM162.161 73.9256H142.413V66.9786C142.413 64.3678 143.453 61.864 145.304 60.0179C147.155 58.1718 149.665 57.1347 152.283 57.1347C154.901 57.1347 157.412 58.1718 159.263 60.0179C161.114 61.864 162.154 64.3678 162.154 66.9786L162.161 73.9256Z" fill="#6C63FF"/>
<path opacity="0.1" d="M254.176 60.6736H233.55V65.5301H254.176V60.6736Z" fill="#5A5773"/>
<path d="M261.196 207.842C261.06 207.161 260.828 206.503 260.506 205.887L257.416 201.285H257.434C257.434 201.285 256.947 198.974 257.434 197.838C257.921 196.703 255.698 193.912 255.698 193.912C255.698 193.912 255.428 193.211 256.133 192.348C256.839 191.485 255.698 188.958 255.698 188.958C255.698 188.958 255.157 183.68 255.103 182.874C255.049 182.067 254.614 177.598 254.614 177.598L253.584 168.124L251.75 143.015L251.717 142.545C251.944 142.435 252.065 142.365 252.065 142.365L251.699 128.482L252.016 128.197C254.781 125.7 261.16 119.922 261.096 119.796C261.031 119.67 260.323 110.147 260.241 107.764C260.17 106.07 259.798 104.403 259.144 102.838C258.984 102.522 258.523 100.44 258.333 99.5587C258.281 99.3173 258.248 99.1658 258.248 99.1658C258.248 99.1658 256.378 95.6114 256.54 93.996C256.702 92.3806 257.027 91.171 253.041 90.6059C253.041 90.6059 249.693 90.1077 247.7 88.7491C246.521 87.9354 245.233 87.2921 243.873 86.8384C243.873 86.8384 242.756 84.7838 241.978 85.4798C241.649 84.7467 241.402 83.9792 241.244 83.1916L241.221 83.0477C242.697 82.0211 243.759 80.5047 244.218 78.7691C244.244 78.6715 244.265 78.5714 244.288 78.4738C244.365 78.4999 244.446 78.5146 244.527 78.5174C245.204 78.5174 245.622 77.765 246.255 77.5261C246.513 77.426 246.829 77.4106 247.028 77.2077C247.093 77.1295 247.142 77.0388 247.171 76.9413C247.2 76.8437 247.209 76.7412 247.198 76.6401C247.204 76.57 247.204 76.4996 247.198 76.4295C247.199 76.4047 247.199 76.3798 247.198 76.355V76.3807C247.025 75.4459 246.299 74.6164 246.379 73.6661C246.456 72.7724 247.244 71.9865 247.18 71.1159C247.179 71.0471 247.173 70.9784 247.162 70.9104V70.9413C247.066 70.6014 246.889 70.2895 246.647 70.0321C246.369 69.6555 246.005 69.3507 245.586 69.1435C245.228 68.9869 244.813 68.9509 244.478 68.7634C243.495 68.2293 243.497 66.8373 242.913 65.8871C242.662 65.4904 242.307 65.1704 241.885 64.9624C241.464 64.7544 240.994 64.6664 240.525 64.7083C239.794 64.7802 239.132 65.168 238.409 65.2938C237.42 65.4684 236.413 65.1474 235.476 64.7802C234.538 64.4129 233.588 64.0097 232.581 64.0097C231.574 64.0097 230.485 64.5233 230.181 65.471C230.019 65.9846 230.099 66.5368 229.975 67.0582C229.754 67.9776 228.945 68.635 228.108 69.0922C227.593 69.3772 226.98 69.7034 226.821 70.2427C226.821 70.2273 226.821 70.2145 226.821 70.2016C226.809 70.2447 226.8 70.2884 226.795 70.3326C226.79 70.3898 226.79 70.4474 226.795 70.5047C226.795 70.8745 226.991 71.2263 227.122 71.5782C227.367 72.2476 227.361 72.9825 227.106 73.6481C226.916 74.1361 226.591 74.565 226.406 75.0504C226.319 75.2765 226.261 75.5131 226.236 75.7541V75.713C226.23 75.8225 226.23 75.9322 226.236 76.0417C226.233 76.4168 226.321 76.787 226.494 77.1203C226.612 77.3506 226.775 77.5548 226.973 77.7211C227.172 77.8874 227.402 78.0124 227.65 78.0886C228.165 78.2067 228.487 77.7033 229.03 77.8317C229.127 77.8551 229.223 77.8851 229.316 77.9216C229.334 78.0372 229.352 78.1528 229.373 78.2658C229.701 79.9942 230.625 81.5539 231.984 82.6754C231.984 82.737 232.004 82.7986 232.012 82.8628C232.177 83.8867 232.248 84.9234 232.226 85.9601C232.226 85.9601 231.415 84.7761 230.302 87.0618C230.302 87.0618 227.4 88.7312 226.398 88.9212C225.397 89.1113 221.84 90.3466 221.84 90.3466C221.304 90.7334 220.658 90.9411 219.996 90.9398C218.887 90.9398 217.965 93.3616 218.099 94.6791C218.232 95.9966 218.019 96.9674 216.986 97.0213C215.953 97.0752 216.517 99.1632 216.525 99.1991L216.43 99.6486C216.229 100.568 215.791 102.54 215.637 102.849C214.982 104.413 214.61 106.081 214.537 107.774C214.457 110.158 213.765 119.645 213.685 119.806C213.631 119.912 218.001 123.895 221.073 126.679L221.518 127.079L220.105 140.249C220.146 140.757 220.297 141.249 220.548 141.692C220.799 142.136 221.143 142.52 221.557 142.817C221.557 142.971 221.557 143.128 221.542 143.29C221.48 144.831 221.356 146.695 221.109 147.183C220.676 148.046 220.784 152.674 220.784 152.674C220.784 152.674 220.349 162.094 219.808 163.119C219.268 164.144 219.157 166.293 219.319 166.714C219.481 167.136 218.776 178.449 218.776 178.449L218.235 183.51C218.235 183.51 218.397 188.354 217.908 188.462C217.419 188.57 217.148 191.908 217.148 191.908C217.148 191.908 215.415 194.276 216.172 195.137C216.929 195.997 216.062 196.377 215.982 196.59C215.902 196.803 214.329 197.618 215.467 200.627C215.477 200.657 215.489 200.686 215.503 200.715C214.437 202.192 211.058 206.956 211.264 207.68C211.416 208.14 211.738 208.526 212.165 208.758C212.961 209.234 214.326 209.454 216.497 208.758C220.102 207.6 219.845 206.765 219.845 206.765C219.863 206.375 220.031 206.007 220.314 205.737C220.596 205.466 220.972 205.314 221.364 205.312C222.855 205.204 223.967 203.833 223.967 203.833L223.792 203.183L223.553 202.284C223.581 202.027 223.764 201.578 224.583 201.329C225.832 200.951 225.505 198.583 225.505 198.583C225.505 198.583 225.397 196.107 225.937 195.784C226.478 195.46 226.264 191.369 226.264 191.369C226.264 191.369 226.862 188.408 227.727 186.415C228.592 184.422 229.627 172.583 229.627 172.583C229.627 172.583 230.33 166.768 230.982 165.099C231.633 163.43 232.231 158.748 232.231 158.748C232.231 158.748 236.246 150.995 236.297 149.271C236.297 149.271 236.812 147.656 237.327 149.433C237.842 151.21 239.289 155.463 239.289 155.463L240.698 160.684L242.38 168.489L243.466 175.059C243.466 175.059 243.301 177.534 243.724 178.397C244.146 179.26 244.754 181.248 244.429 181.625C244.105 182.003 245.078 183.78 245.351 184.155C245.624 184.53 245.351 192.499 245.351 192.499C245.351 192.499 246.598 199.282 248.387 200.461C248.512 200.542 248.645 200.611 248.784 200.666C248.758 201.401 248.732 202.384 248.766 202.898C248.762 203.013 248.781 203.127 248.823 203.234C248.985 203.45 250.829 204.904 251.21 204.904C251.591 204.904 252.943 205.846 252.999 206.303C253.056 206.76 256.963 208.697 257.516 208.753C258.07 208.81 260.753 209.29 261.121 208.538C261.212 208.317 261.238 208.076 261.196 207.842ZM251.599 110.836L251.877 111.074C251.877 111.074 252.162 113.296 252.366 113.961C252.569 114.626 252.325 115.921 252.325 115.921C252.343 116.404 252.44 116.881 252.611 117.333C252.853 117.819 252.121 118.874 252.121 118.874H251.47L251.266 110.558L251.599 110.836ZM232.226 86.0063V85.9575C232.221 85.9729 232.218 85.9909 232.218 86.0063H232.226ZM222.221 118.019C222.121 117.804 222.106 117.559 222.18 117.333C222.238 117.211 222.284 117.084 222.317 116.953C222.397 116.616 222.447 116.272 222.466 115.926C222.466 115.922 222.466 115.917 222.466 115.913C222.443 115.79 222.234 114.598 222.427 113.966C222.621 113.334 222.914 111.08 222.914 111.08L223.099 110.923L223.53 110.551C223.53 110.551 223.53 110.412 223.56 110.183C223.651 112.135 223.723 114.292 223.607 114.4C223.39 114.613 222.602 116.712 222.793 116.794C222.855 116.822 222.77 117.662 222.626 118.792C222.464 118.549 222.328 118.29 222.221 118.019Z" fill="url(#paint1_linear)"/>
<path d="M242.977 88.0583V91.2532L236.405 94.5482C236.405 94.5482 229.88 90.6111 231.489 89.0445C232.52 88.0532 232.321 85.3309 232.043 83.4587C231.881 82.3698 231.693 81.5711 231.693 81.5711C231.693 81.5711 243.415 78.2324 241.643 80.7672C241.051 81.6147 241.005 82.7113 241.203 83.7977C241.605 85.9524 242.977 88.0583 242.977 88.0583Z" fill="#C37098"/>
<path d="M224.974 119.3L224.127 129.707C224.127 129.707 222.857 128.559 221.215 127.064C218.168 124.293 213.842 120.33 213.893 120.225C213.973 120.063 214.666 110.623 214.741 108.25C214.811 106.565 215.179 104.906 215.827 103.349C215.982 103.041 216.417 101.079 216.6 100.162C216.662 99.8772 216.7 99.6923 216.7 99.6923L218.122 99.1221C218.122 99.1221 224.045 105.712 224.045 105.833C224.045 105.954 223.64 111.015 223.64 111.015L223.221 111.38L223.038 111.537C223.038 111.537 222.754 113.748 222.554 114.411C222.353 115.073 222.569 116.224 222.592 116.347C222.573 116.693 222.524 117.037 222.445 117.374C222.412 117.504 222.366 117.631 222.309 117.752C222.236 117.977 222.251 118.22 222.35 118.435C222.465 118.733 222.613 119.016 222.793 119.28L224.974 119.3Z" fill="#3F3D56"/>
<path d="M260.869 120.225C260.931 120.351 254.614 126.101 251.877 128.584L250.635 129.707L249.796 119.3H251.972C251.972 119.3 252.698 118.255 252.456 117.772C252.287 117.322 252.192 116.848 252.175 116.367C252.175 116.367 252.415 115.083 252.214 114.418C252.013 113.753 251.73 111.544 251.73 111.544L251.454 111.308L251.127 111.023C251.127 111.023 250.723 105.961 250.723 105.84C250.723 105.72 256.646 99.1298 256.646 99.1298L258.057 99.6922C258.057 99.6922 258.088 99.8437 258.139 100.085C258.33 100.961 258.786 103.033 258.943 103.349C259.591 104.906 259.959 106.565 260.029 108.249C260.096 110.622 260.787 120.063 260.869 120.225Z" fill="#3F3D56"/>
<path d="M260.895 208.556C260.516 209.305 257.859 208.812 257.31 208.771C256.762 208.73 252.889 206.786 252.835 206.331C252.781 205.877 251.439 204.94 251.063 204.94C250.687 204.94 248.861 203.491 248.699 203.278C248.658 203.172 248.639 203.058 248.645 202.944C248.588 202.063 248.699 199.795 248.699 199.795L256.489 200.224L260.274 205.903C260.593 206.515 260.824 207.17 260.959 207.847C261.005 208.084 260.983 208.33 260.895 208.556Z" fill="#3F3D56"/>
<path opacity="0.1" d="M260.895 208.556C260.516 209.305 257.859 208.812 257.31 208.771C256.762 208.73 252.889 206.786 252.835 206.331C252.781 205.877 251.439 204.94 251.063 204.94C250.687 204.94 248.861 203.491 248.699 203.278C248.658 203.172 248.639 203.058 248.645 202.944C248.588 202.063 248.699 199.795 248.699 199.795L256.489 200.224L260.274 205.903C260.593 206.515 260.824 207.17 260.959 207.847C261.005 208.084 260.983 208.33 260.895 208.556Z" fill="black"/>
<path opacity="0.1" d="M260.895 208.556C260.516 209.305 257.859 208.812 257.31 208.771C256.762 208.73 252.889 206.786 252.835 206.331C252.781 205.877 251.439 204.94 251.063 204.94C250.687 204.94 248.861 203.491 248.699 203.278C248.658 203.172 248.639 203.058 248.645 202.944L251.168 204.536C251.168 204.536 252.781 205.564 253.211 206.172C253.641 206.781 257.029 208.047 257.31 208.073C257.519 208.093 259.744 207.667 260.959 207.847C261.005 208.084 260.983 208.33 260.895 208.556Z" fill="black"/>
<path d="M224.07 203.869C224.07 203.869 222.968 205.235 221.495 205.34C221.107 205.343 220.734 205.495 220.454 205.764C220.174 206.033 220.009 206.399 219.991 206.786C219.991 206.786 220.249 207.618 216.687 208.771C214.537 209.462 213.185 209.244 212.397 208.771C211.974 208.539 211.655 208.155 211.504 207.698C211.262 206.843 216.015 200.332 216.015 200.332L220.342 200.075L223.432 201.467L223.906 203.232L224.07 203.869Z" fill="#3F3D56"/>
<path opacity="0.1" d="M224.07 203.869C224.07 203.869 222.968 205.235 221.495 205.34C221.107 205.343 220.734 205.495 220.454 205.764C220.174 206.033 220.009 206.399 219.991 206.786C219.991 206.786 220.249 207.618 216.687 208.771C214.537 209.462 213.185 209.244 212.397 208.771C211.974 208.539 211.655 208.155 211.504 207.698C211.262 206.843 216.015 200.332 216.015 200.332L220.342 200.075L223.432 201.467L223.906 203.232L224.07 203.869Z" fill="black"/>
<path opacity="0.1" d="M224.071 203.869C224.071 203.869 222.968 205.235 221.495 205.34C221.107 205.343 220.734 205.495 220.454 205.764C220.174 206.033 220.009 206.399 219.992 206.786C219.992 206.786 220.249 207.618 216.688 208.771C214.537 209.462 213.185 209.244 212.397 208.771C214.424 208.561 218.902 207.284 219.35 206.843C219.889 206.306 220.561 204.832 221.016 204.806C221.333 204.785 222.943 203.82 223.908 203.221L224.071 203.869Z" fill="black"/>
<path d="M257.241 197.895C256.757 199.02 257.241 201.323 257.241 201.323C257.241 201.323 250.03 201.698 248.269 200.52C246.508 199.341 245.261 192.589 245.261 192.589C245.261 192.589 245.519 184.661 245.261 184.286C245.004 183.911 244.025 182.144 244.347 181.769C244.669 181.394 244.09 179.412 243.649 178.554C243.209 177.696 243.392 175.233 243.392 175.233L242.315 168.695L240.652 160.928L239.238 155.73C239.238 155.73 237.788 151.498 237.296 149.731C236.805 147.964 236.284 149.569 236.284 149.569C236.233 151.285 232.257 159 232.257 159C232.257 159 231.665 163.661 231.021 165.32C230.377 166.979 229.677 172.768 229.677 172.768C229.677 172.768 228.647 184.553 227.797 186.536C226.947 188.518 226.362 191.464 226.362 191.464C226.362 191.464 226.579 195.537 226.041 195.858C225.502 196.179 225.59 198.645 225.59 198.645C225.59 198.645 225.912 201 224.676 201.377C223.44 201.755 223.646 202.556 223.646 202.556C223.646 202.556 216.77 203.681 215.642 200.679C214.514 197.677 216.072 196.878 216.157 196.662C216.242 196.446 217.1 196.074 216.348 195.214C215.596 194.353 217.313 192.001 217.313 192.001C217.313 192.001 217.584 188.68 218.065 188.572C218.547 188.465 218.39 183.644 218.39 183.644L218.925 178.608C218.925 178.608 219.626 167.357 219.464 166.928C219.301 166.499 219.41 164.359 219.948 163.332C220.486 162.305 220.913 152.936 220.913 152.936C220.913 152.936 220.805 148.331 221.235 147.474C221.493 146.988 221.601 145.121 221.663 143.598C221.709 142.435 221.719 141.472 221.719 141.472L227.735 139.222L235.46 136.759L241.96 139.867L251.47 141.687L251.588 143.323L253.404 168.314L254.434 177.742C254.434 177.742 254.864 182.188 254.918 182.992C254.972 183.796 255.508 189.048 255.508 189.048C255.508 189.048 256.636 191.564 255.938 192.422C255.24 193.28 255.508 193.963 255.508 193.963C255.508 193.963 257.725 196.77 257.241 197.895Z" fill="#3F3D56"/>
<path opacity="0.1" d="M241.648 80.7671C241.056 81.6146 241.01 82.7112 241.208 83.7976C239.855 84.7497 238.225 85.232 236.57 85.1703C234.915 85.1086 233.326 84.5063 232.048 83.456C231.886 82.3671 231.698 81.5684 231.698 81.5684C231.698 81.5684 243.42 78.2349 241.648 80.7671Z" fill="black"/>
<path d="M244.388 77.4902C244.388 78.9784 243.946 80.4333 243.117 81.6707C242.288 82.9082 241.109 83.8727 239.73 84.4422C238.352 85.0117 236.835 85.1607 235.371 84.8704C233.907 84.58 232.563 83.8634 231.508 82.811C230.453 81.7586 229.734 80.4179 229.443 78.9582C229.152 77.4985 229.301 75.9855 229.872 74.6105C230.443 73.2356 231.41 72.0604 232.651 71.2335C233.892 70.4067 235.351 69.9654 236.843 69.9654C237.835 69.9606 238.819 70.152 239.736 70.5285C240.654 70.9049 241.487 71.459 242.189 72.1587C242.891 72.8584 243.446 73.6898 243.824 74.6049C244.201 75.52 244.393 76.5007 244.388 77.4902Z" fill="#C37098"/>
<path opacity="0.1" d="M245.959 89.9946L243.487 133.898L230.058 131.086L227.398 113.486L230.032 89.8585L232.015 90.1128L235.512 90.5571L238.975 90.7702L242.73 90.3542L245.959 89.9946Z" fill="black"/>
<path d="M245.959 90.3158L243.487 134.219L230.058 131.407L227.398 113.807L230.032 90.1823L232.015 90.4339L235.512 90.8782L238.975 91.0914L242.73 90.6753L245.959 90.3158Z" fill="#6C63FF"/>
<path d="M234.92 91.4946L239.756 91.6564L238.396 93.5543C238.396 93.5543 238.491 97.3886 239.138 98.4878C239.784 99.587 239.594 116.568 239.594 116.568L238.306 119.005L236.104 116.273L236.133 93.8522L234.92 91.4946Z" fill="#3F3D56"/>
<path opacity="0.1" d="M234.92 91.4946L239.756 91.6564L238.396 93.5543C238.396 93.5543 238.491 97.3886 239.138 98.4878C239.784 99.587 239.594 116.568 239.594 116.568L238.306 119.005L236.104 116.273L236.133 93.8522L234.92 91.4946Z" fill="black"/>
<path opacity="0.1" d="M242.493 86.5123L237.981 91.4946L240.559 94.1733L244.831 90.0205L242.493 86.5123Z" fill="black"/>
<path d="M242.493 86.1913L237.981 91.1736L240.559 93.8522L244.831 89.6994L242.493 86.1913Z" fill="#6C63FF"/>
<path opacity="0.1" d="M236.076 91.2531L231.508 86.6997L231.077 89.083L233.174 94.3067L236.076 91.2531Z" fill="black"/>
<path d="M236.235 90.9321L231.67 86.3787L231.24 88.762L233.336 93.9857L236.235 90.9321Z" fill="#6C63FF"/>
<path opacity="0.1" d="M251.611 143.331C249.419 144.373 247.07 145.05 244.659 145.337C240.227 145.899 237.327 140.275 237.327 140.275L235.635 142.471C235.097 144.803 226.906 145.391 223.576 144.507C222.885 144.337 222.235 144.031 221.665 143.606C221.712 142.442 221.722 141.479 221.722 141.479L227.737 139.23L235.463 136.767L241.962 139.874L251.472 141.695L251.611 143.331Z" fill="black"/>
<path opacity="0.1" d="M245.959 90.3184L243.489 134.219L230.058 131.407L227.392 113.81L230.024 90.1823L232.007 90.4391C231.956 91.2997 231.859 92.157 231.716 93.0073C231.394 94.5097 233.382 105.17 233.382 105.17C233.382 105.17 237.16 117.125 238.859 115.402C240.559 113.679 242.98 104.58 242.98 104.58C244.62 101.205 243.008 91.7386 242.887 91.5485C242.803 91.2686 242.751 90.9799 242.732 90.6882L245.959 90.3184Z" fill="black"/>
<path opacity="0.1" d="M251.761 124.29L251.874 128.592L250.633 129.714L249.796 119.3H251.65L251.761 124.29Z" fill="black"/>
<path opacity="0.1" d="M222.595 116.355C222.576 116.701 222.527 117.044 222.448 117.382C222.448 117.287 222.448 117.233 222.427 117.225C222.35 117.205 222.443 116.812 222.595 116.355Z" fill="black"/>
<path opacity="0.1" d="M224.974 119.3L224.127 129.707C224.127 129.707 222.858 128.559 221.215 127.064L221.41 125.22C221.41 125.22 222.103 120.69 222.355 118.456C222.47 118.753 222.618 119.037 222.798 119.3H224.974Z" fill="black"/>
<path d="M232.259 86.5379C232.259 86.5379 231.456 85.3591 230.354 87.6345C230.354 87.6345 227.48 89.2962 226.491 89.4836C225.502 89.6711 221.985 90.9038 221.985 90.9038C221.453 91.2868 220.814 91.4927 220.159 91.492C219.057 91.492 218.142 93.9035 218.276 95.2158C218.41 96.5282 218.197 97.4938 217.177 97.5478C216.157 97.6017 216.718 99.7153 216.718 99.7153L223.514 107.484C223.514 107.484 223.944 114.637 223.73 114.852C223.517 115.068 222.736 117.164 222.924 117.236C223.112 117.307 221.894 125.218 221.894 125.218L220.257 140.568C220.257 140.568 220.257 143.136 223.589 144.022C226.921 144.908 235.118 144.322 235.646 141.99L237.338 139.792C237.338 139.792 240.237 145.419 244.669 144.857C249.101 144.294 251.923 142.686 251.923 142.686L251.439 124.29L251.117 111.031L258.036 99.6922C258.036 99.6922 256.182 96.1558 256.345 94.5558C256.507 92.9558 256.826 91.7436 252.878 91.1812C252.878 91.1812 249.549 90.6855 247.587 89.3321C246.42 88.5246 245.146 87.8848 243.801 87.4316C243.801 87.4316 242.694 85.3771 241.924 86.0808C241.924 86.0808 242.696 88.9854 242.632 89.4194C242.568 89.8535 242.753 91.8156 242.874 92.0184C242.995 92.2213 244.607 101.675 242.967 105.049C242.967 105.049 240.559 114.149 238.847 115.872C237.134 117.595 233.369 105.64 233.369 105.64C233.369 105.64 231.381 94.977 231.703 93.4772C232.025 91.9773 232.259 86.5379 232.259 86.5379Z" fill="#3F3D56"/>
<path d="M238.007 121.658C238.66 121.658 239.189 121.13 239.189 120.479C239.189 119.828 238.66 119.3 238.007 119.3C237.354 119.3 236.825 119.828 236.825 120.479C236.825 121.13 237.354 121.658 238.007 121.658Z" fill="#3F3D56"/>
<path d="M238.007 127.216C238.66 127.216 239.189 126.688 239.189 126.037C239.189 125.386 238.66 124.858 238.007 124.858C237.354 124.858 236.825 125.386 236.825 126.037C236.825 126.688 237.354 127.216 238.007 127.216Z" fill="#3F3D56"/>
<path opacity="0.1" d="M238.007 121.658C238.66 121.658 239.189 121.13 239.189 120.479C239.189 119.828 238.66 119.3 238.007 119.3C237.354 119.3 236.825 119.828 236.825 120.479C236.825 121.13 237.354 121.658 238.007 121.658Z" fill="black"/>
<path opacity="0.1" d="M238.007 127.216C238.66 127.216 239.189 126.688 239.189 126.037C239.189 125.386 238.66 124.858 238.007 124.858C237.354 124.858 236.825 125.386 236.825 126.037C236.825 126.688 237.354 127.216 238.007 127.216Z" fill="black"/>
<path opacity="0.1" d="M248.629 196.287C248.629 196.287 253.481 196.662 253.963 197.037C254.444 197.412 248.629 196.287 248.629 196.287Z" fill="black" stroke="#6C63FF" stroke-miterlimit="10"/>
<path opacity="0.1" d="M219.744 192.484C219.744 192.484 220.774 193.768 220.336 194.359C219.899 194.949 219.744 192.484 219.744 192.484Z" fill="black" stroke="#6C63FF" stroke-miterlimit="10"/>
<path opacity="0.1" d="M220.98 197.114C220.98 197.114 222.86 195.881 223.612 196.701C224.364 197.52 220.98 197.114 220.98 197.114Z" fill="black" stroke="#6C63FF" stroke-miterlimit="10"/>
<path opacity="0.1" d="M244.388 77.4902C244.39 78.1323 244.308 78.7719 244.146 79.3932C243.987 79.321 243.854 79.2021 243.765 79.0525C243.676 78.9029 243.634 78.7297 243.647 78.556C243.68 78.2504 243.883 77.9705 243.84 77.6674C243.775 77.2 243.209 77.0099 242.91 76.6401C242.542 76.1933 242.622 75.5435 242.653 74.9657C242.683 74.3878 242.537 73.6816 241.993 73.4838C241.831 73.4247 241.653 73.4196 241.496 73.3528C241.069 73.1731 240.937 72.644 240.652 72.2793C240.08 71.5448 238.944 71.5602 238.076 71.9095C237.699 72.0901 237.312 72.2513 236.918 72.3923C236.72 72.4618 236.511 72.4896 236.302 72.4742C236.093 72.4587 235.89 72.4002 235.705 72.3024C235.535 72.1946 235.398 72.0456 235.223 71.9378C234.641 71.5885 233.879 71.9378 233.374 72.3872C232.87 72.8366 232.465 73.4402 231.829 73.715C231.543 73.8434 231.191 73.9204 231.057 74.1978C230.99 74.3488 230.962 74.5136 230.974 74.678C230.974 75.6771 231.093 76.6915 230.884 77.67C230.75 78.2992 230.307 79.0131 229.666 78.9361C229.586 78.9243 229.508 78.9045 229.432 78.877C229.239 77.8484 229.263 76.791 229.503 75.7723C229.743 74.7536 230.193 73.7959 230.825 72.9606C231.457 72.1252 232.257 71.4306 233.173 70.9209C234.09 70.4112 235.103 70.0977 236.147 70.0005C237.192 69.9033 238.246 70.0245 239.241 70.3564C240.236 70.6882 241.151 71.2234 241.927 71.9277C242.703 72.6321 243.323 73.4901 243.748 74.447C244.172 75.4039 244.392 76.4386 244.393 77.4851L244.388 77.4902Z" fill="black"/>
<path d="M229.095 78.4507C229.288 78.4943 229.471 78.5945 229.669 78.6202C230.31 78.6972 230.753 77.9833 230.887 77.354C231.095 76.3756 230.987 75.3611 230.98 74.3621C230.965 74.1979 230.993 74.0327 231.059 73.8818C231.206 73.6045 231.559 73.5274 231.832 73.399C232.455 73.1217 232.862 72.531 233.377 72.0713C233.892 71.6116 234.641 71.2726 235.223 71.6218C235.396 71.7246 235.535 71.8787 235.705 71.9865C235.891 72.0829 236.094 72.1406 236.303 72.156C236.512 72.1715 236.722 72.1444 236.92 72.0764C237.32 71.9583 237.693 71.7502 238.077 71.5936C238.937 71.2443 240.075 71.2315 240.652 71.9608C240.938 72.3281 241.069 72.8546 241.496 73.0343C241.654 73.1011 241.831 73.1088 241.993 73.1679C242.537 73.3708 242.676 74.0719 242.653 74.6497C242.63 75.2276 242.552 75.8773 242.91 76.3242C243.209 76.6889 243.775 76.8789 243.84 77.3515C243.881 77.6545 243.68 77.937 243.647 78.2401C243.639 78.3527 243.654 78.4657 243.69 78.5726C243.727 78.6795 243.784 78.7781 243.859 78.8627C243.934 78.9472 244.025 79.0161 244.127 79.0653C244.229 79.1145 244.34 79.143 244.453 79.1492C245.122 79.1492 245.537 78.4019 246.163 78.163C246.42 78.0629 246.732 78.0475 246.935 77.8446C247.011 77.7471 247.064 77.6343 247.092 77.5141C247.119 77.3939 247.12 77.2692 247.095 77.1486C246.969 76.165 246.178 75.3098 246.263 74.3236C246.343 73.3785 247.221 72.5541 247.036 71.6244C246.941 71.2816 246.764 70.9669 246.521 70.7076C246.245 70.3344 245.885 70.031 245.47 69.8215C245.112 69.6674 244.697 69.6315 244.37 69.444C243.397 68.9124 243.399 67.5256 242.825 66.5805C242.579 66.1899 242.229 65.8745 241.815 65.6688C241.401 65.4632 240.938 65.3752 240.477 65.4145C239.753 65.4864 239.096 65.8691 238.381 65.9975C237.399 66.1721 236.405 65.8511 235.476 65.4838C234.546 65.1166 233.606 64.7134 232.61 64.7134C231.613 64.7134 230.534 65.227 230.23 66.167C230.071 66.6806 230.15 67.2302 230.027 67.7464C229.81 68.6633 228.997 69.3156 228.178 69.7702C227.614 70.0835 226.937 70.443 226.87 71.0825C226.826 71.4883 227.05 71.853 227.192 72.2459C227.432 72.9106 227.427 73.6394 227.176 74.3005C226.988 74.7859 226.674 75.2122 226.483 75.695C226.348 76.0227 226.284 76.3753 226.296 76.7294C226.307 77.0836 226.394 77.4313 226.55 77.7496C226.67 77.9816 226.837 78.1867 227.039 78.3523C227.241 78.5179 227.476 78.6405 227.727 78.7126C228.235 78.8333 228.554 78.3325 229.095 78.4507Z" fill="#3F3D56"/>
<g opacity="0.1">
<path opacity="0.1" d="M230.887 76.7941C230.753 77.4233 230.307 78.1372 229.666 78.0602C229.468 78.0345 229.288 77.9343 229.092 77.8907C228.554 77.7726 228.234 78.2759 227.727 78.1475C227.475 78.0755 227.241 77.9529 227.038 77.7873C226.835 77.6217 226.668 77.4165 226.548 77.1844C226.413 76.923 226.332 76.6376 226.308 76.3446C226.257 76.7994 226.34 77.2591 226.548 77.6673C226.668 77.8994 226.835 78.1045 227.038 78.2701C227.241 78.4357 227.475 78.5583 227.727 78.6303C228.242 78.7485 228.554 78.2451 229.092 78.3735C229.28 78.4389 229.472 78.4946 229.666 78.5404C230.307 78.6201 230.753 77.9061 230.887 77.2769C230.992 76.721 231.034 76.1549 231.01 75.5896C231.008 75.9941 230.967 76.3975 230.887 76.7941Z" fill="black"/>
<path opacity="0.1" d="M227.359 72.9265C227.392 72.5057 227.334 72.0827 227.189 71.6861C227.072 71.4223 226.973 71.1512 226.893 70.8745C226.882 70.9177 226.873 70.9614 226.867 71.0055C226.823 71.4087 227.05 71.7759 227.189 72.1689C227.279 72.4128 227.336 72.6676 227.359 72.9265Z" fill="black"/>
<path opacity="0.1" d="M247.033 71.5731C246.912 72.3024 246.32 72.9881 246.26 73.756C246.246 73.8875 246.246 74.0201 246.26 74.1515C246.389 73.2552 247.185 72.4617 247.033 71.5731Z" fill="black"/>
<path opacity="0.1" d="M247.077 76.9919C247.055 77.0993 247.004 77.1987 246.93 77.2795C246.739 77.4824 246.415 77.4978 246.157 77.598C245.531 77.8368 245.127 78.5919 244.447 78.5842C244.273 78.5743 244.106 78.5121 243.968 78.4058C243.83 78.2994 243.728 78.1539 243.675 77.9883C243.659 78.044 243.647 78.1006 243.639 78.1578C243.631 78.2703 243.647 78.383 243.683 78.4896C243.72 78.5962 243.777 78.6944 243.852 78.7787C243.927 78.863 244.018 78.9317 244.12 78.9807C244.222 79.0298 244.332 79.0582 244.445 79.0644C245.117 79.0644 245.529 78.3171 246.155 78.0808C246.412 77.9806 246.726 77.9652 246.927 77.7623C247.003 77.6648 247.056 77.5521 247.084 77.4319C247.111 77.3117 247.112 77.187 247.087 77.0664C247.084 77.0355 247.079 77.015 247.077 76.9919Z" fill="black"/>
<path opacity="0.1" d="M243.847 76.7788C243.783 76.3114 243.216 76.1213 242.918 75.7515C242.735 75.5086 242.635 75.213 242.634 74.9091C242.614 75.3868 242.622 75.8748 242.918 76.2343C243.214 76.5939 243.665 76.7479 243.809 77.1178C243.845 77.0087 243.858 76.8932 243.847 76.7788Z" fill="black"/>
<path opacity="0.1" d="M242.65 74.0899C242.671 73.512 242.532 72.8058 241.988 72.608C241.829 72.5489 241.651 72.5412 241.494 72.477C241.066 72.2973 240.933 71.7682 240.649 71.4035C240.075 70.6716 238.939 70.6844 238.074 71.0337C237.688 71.1904 237.32 71.3984 236.918 71.5165C236.72 71.586 236.511 71.6138 236.302 71.5984C236.093 71.5829 235.89 71.5244 235.705 71.4266C235.535 71.3188 235.396 71.1698 235.223 71.062C234.639 70.7127 233.877 71.062 233.375 71.5114C232.872 71.9608 232.465 72.5618 231.829 72.8392C231.541 72.9676 231.191 73.0446 231.041 73.322C230.976 73.4732 230.949 73.638 230.962 73.8022C230.962 73.9024 230.962 74.0025 230.962 74.1027C230.965 73.9992 230.99 73.8977 231.036 73.8048C231.186 73.5274 231.536 73.4504 231.824 73.322C232.447 73.0446 232.854 72.4539 233.369 71.9942C233.884 71.5345 234.634 71.1955 235.218 71.5448C235.391 71.6475 235.53 71.8016 235.7 71.9069C235.885 72.0053 236.088 72.0641 236.297 72.0796C236.506 72.0951 236.715 72.0669 236.913 71.9968C237.306 71.8571 237.692 71.6968 238.069 71.5165C238.932 71.1673 240.067 71.1519 240.644 71.8838C240.927 72.2485 241.061 72.7775 241.489 72.9573C241.646 73.0241 241.823 73.0318 241.983 73.0908C242.424 73.2552 242.599 73.7483 242.637 74.2363L242.65 74.0899Z" fill="black"/>
</g>
<g opacity="0.1">
<path opacity="0.1" d="M229.967 76.7788C229.982 76.3525 230.135 75.9426 230.404 75.6105C230.672 75.2784 231.041 75.0422 231.456 74.9374C232.604 74.6575 233.809 74.7118 234.927 75.0941C237.371 75.9005 234.618 78.8025 234.618 78.8025C234.618 78.8025 232.787 80.6003 231.08 79.3444C230.576 78.9643 230.223 78.4184 230.083 77.8035C230 77.4685 229.961 77.124 229.967 76.7788Z" fill="black"/>
<path opacity="0.1" d="M243.402 76.7788C243.387 76.3522 243.233 75.942 242.964 75.6099C242.696 75.2778 242.326 75.0418 241.911 74.9374C240.763 74.658 239.559 74.7123 238.442 75.0941C235.998 75.9005 238.751 78.8025 238.751 78.8025C238.751 78.8025 240.579 80.6003 242.289 79.3444C242.794 78.9643 243.147 78.4184 243.286 77.8035C243.369 77.4685 243.408 77.124 243.402 76.7788Z" fill="black"/>
<path opacity="0.1" d="M234.466 74.8578V74.9785H238.929V74.8347L234.466 74.8578Z" fill="black"/>
<path opacity="0.1" d="M235.89 76.1444H236.032V75.7361C236.032 75.7361 236.485 75.3842 237.237 75.7361V76.1007H237.495V75.8619H237.368C237.368 75.8619 237.42 75.3662 236.58 75.4459C236.58 75.4459 235.906 75.3816 235.921 75.808H235.767L235.89 76.1444Z" fill="black"/>
</g>
<path d="M229.968 76.6118C229.982 76.1855 230.135 75.7756 230.404 75.4435C230.672 75.1114 231.041 74.8752 231.456 74.7704C232.605 74.4923 233.809 74.5467 234.927 74.927C237.371 75.736 234.618 78.6355 234.618 78.6355C234.618 78.6355 232.787 80.4333 231.08 79.1774C230.575 78.7982 230.221 78.2519 230.083 77.6365C230 77.3015 229.961 76.957 229.968 76.6118Z" fill="#6C63FF"/>
<path d="M243.402 76.6118C243.387 76.1852 243.234 75.775 242.965 75.4429C242.696 75.1108 242.326 74.8748 241.911 74.7704C240.763 74.4923 239.56 74.5466 238.442 74.9271C235.999 75.7361 238.751 78.6356 238.751 78.6356C238.751 78.6356 240.58 80.4333 242.29 79.1775C242.795 78.7983 243.148 78.252 243.286 77.6365C243.37 77.3016 243.409 76.957 243.402 76.6118Z" fill="#6C63FF"/>
<path d="M234.466 74.696V74.8192H238.929V74.6729L234.466 74.696Z" fill="#6C63FF"/>
<path d="M235.89 75.9827H236.032V75.5743C236.032 75.5743 236.485 75.225 237.237 75.5743V75.9416H237.495V75.7002H237.369C237.369 75.7002 237.42 75.2071 236.581 75.2841C236.581 75.2841 235.906 75.2225 235.921 75.6462H235.767L235.89 75.9827Z" fill="#6C63FF"/>
<path d="M31.7102 117.415H30.2476V150.263H31.7102V117.415Z" fill="#535461"/>
<path d="M40.9034 150.162L40.8107 151.642L40.682 153.73L40.6279 154.6L40.4991 156.691L40.4425 157.561L40.3137 159.649L38.8382 183.397C38.7752 184.419 38.3238 185.379 37.5759 186.081C36.828 186.782 35.8399 187.173 34.8132 187.173H27.1445C26.118 187.173 25.1303 186.782 24.3828 186.08C23.6353 185.379 23.1844 184.419 23.1221 183.397L21.6388 159.649L21.5101 157.561L21.456 156.691L21.3298 154.595L21.2757 153.724L21.147 151.637L21.0543 150.157C21.0367 149.873 21.0776 149.589 21.1745 149.321C21.2714 149.054 21.4222 148.809 21.6176 148.602C21.8131 148.395 22.049 148.229 22.3108 148.117C22.5727 148.004 22.8549 147.946 23.1401 147.946H38.8201C39.1057 147.946 39.3883 148.004 39.6504 148.117C39.9125 148.23 40.1485 148.396 40.3438 148.604C40.5391 148.811 40.6896 149.057 40.7858 149.325C40.8821 149.593 40.9221 149.878 40.9034 150.162Z" fill="#3F3D56"/>
<path d="M40.8107 151.642L40.682 153.73H21.2732L21.1444 151.642H40.8107Z" fill="#9D9CB5"/>
<path d="M40.6279 154.6L40.4992 156.691H21.4586L21.3273 154.6H40.6279Z" fill="#9D9CB5"/>
<path d="M40.4425 157.561L40.3138 159.649H21.644L21.5127 157.561H40.4425Z" fill="#9D9CB5"/>
<path d="M18.9118 129.727C27.4304 135.873 30.9789 145.488 30.9789 145.488C30.9789 145.488 20.7119 145.136 12.1804 138.991C3.649 132.845 0.113342 123.23 0.113342 123.23C0.113342 123.23 10.3907 123.582 18.9118 129.727Z" fill="#6C63FF"/>
<path d="M0.12616 123.23C0.12616 123.23 10.7821 129.137 14.1993 134.016C17.6165 138.896 30.9789 145.491 30.9789 145.491" stroke="#535461" stroke-width="2" stroke-miterlimit="10"/>
<path d="M24.4096 117.356C29.0449 120.695 30.9788 125.934 30.9788 125.934C30.9788 125.934 25.3908 125.744 20.7529 122.398C16.1151 119.051 14.1863 113.82 14.1863 113.82C14.1863 113.82 19.7744 113.997 24.4096 117.356Z" fill="#6C63FF"/>
<path d="M14.1863 113.807C14.1863 113.807 19.9856 117.017 21.8448 119.675C23.704 122.334 30.9788 125.921 30.9788 125.921" stroke="#535461" stroke-width="2" stroke-miterlimit="10"/>
<path d="M37.7181 125.657C32.3901 131.494 31.2648 139.122 31.2648 139.122C31.2648 139.122 38.7739 137.286 44.0992 131.448C49.4246 125.611 50.5525 117.98 50.5525 117.98C50.5525 117.98 43.0434 119.817 37.7181 125.657Z" fill="#6C63FF"/>
<path d="M50.5525 117.98C50.5525 117.98 43.6151 123.964 41.8512 128.089C40.0872 132.213 31.2648 139.132 31.2648 139.132" stroke="#535461" stroke-width="2" stroke-miterlimit="10"/>
</g>
<defs>
<linearGradient id="paint0_linear" x1="152.268" y1="165.926" x2="152.268" y2="27.6723" gradientUnits="userSpaceOnUse">
<stop stop-color="#808080" stop-opacity="0.25"/>
<stop offset="0.54" stop-color="#808080" stop-opacity="0.12"/>
<stop offset="1" stop-color="#808080" stop-opacity="0.1"/>
</linearGradient>
<linearGradient id="paint1_linear" x1="47391.2" y1="124155" x2="47391.2" y2="42066.5" gradientUnits="userSpaceOnUse">
<stop stop-color="#808080" stop-opacity="0.25"/>
<stop offset="0.54" stop-color="#808080" stop-opacity="0.12"/>
<stop offset="1" stop-color="#808080" stop-opacity="0.1"/>
</linearGradient>
<clipPath id="clip0">
<rect width="295" height="210.569" fill="white"/>
</clipPath>
</defs>
</svg>
