<svg width="30" height="30" viewBox="0 0 30 30" fill="none" xmlns="http://www.w3.org/2000/svg">
<g clip-path="url(#clip0)">
<path d="M17.9915 0H27.0215L19.5146 9.58066H10.4846L17.9915 0Z" fill="#6600CC"/>
<path d="M17.9915 0H21.8077L14.3009 9.58066H10.4846L17.9915 0Z" fill="#6600CC"/>
<path d="M20.9107 0H24.1032L16.5963 9.58066H13.4038L20.9107 0Z" fill="#EAEAE4"/>
<path d="M15.0001 30.0003C20.1655 30.0003 24.3528 25.813 24.3528 20.6477C24.3528 15.4823 20.1655 11.295 15.0001 11.295C9.8348 11.295 5.64746 15.4823 5.64746 20.6477C5.64746 25.813 9.8348 30.0003 15.0001 30.0003Z" fill="#DDE8EF"/>
<path d="M10.4858 12.4555V9.581H19.5158V12.4555L21.0464 13.5116V8.81565C21.0464 8.39319 20.7041 8.05035 20.2811 8.05035H9.72049C9.29803 8.05035 8.9552 8.39319 8.9552 8.81565V13.5122L10.4858 12.4555Z" fill="#DDE8EF"/>
<path d="M14.9991 27.6493C18.866 27.6493 22.0008 24.5145 22.0008 20.6476C22.0008 16.7807 18.866 13.6459 14.9991 13.6459C11.1322 13.6459 7.99744 16.7807 7.99744 20.6476C7.99744 24.5145 11.1322 27.6493 14.9991 27.6493Z" fill="#DDE8EF"/>
<path d="M12.0081 0H2.97815L10.485 9.58066H19.515L12.0081 0Z" fill="#6600CC"/>
<path d="M12.0076 0H8.19128L15.6982 9.58066H19.5145L12.0076 0Z" fill="#6600CC"/>
<path d="M9.08988 0H5.89734L13.4042 9.58066H16.5967L9.08988 0Z" fill="#EAEAE4"/>
<path d="M15.1921 15.39C16.7553 15.39 18.076 16.4546 18.076 18.0717C18.076 20.9691 13.7097 21.9124 13.7097 23.4621V23.9742H17.6716C17.9142 23.9742 18.1433 24.2572 18.1433 24.5942C18.1433 24.9311 17.9142 25.241 17.6716 25.241H12.8742C12.6047 25.241 12.2408 25.0524 12.2408 24.7693V23.4621C12.2408 21.279 16.6476 20.1875 16.6476 18.1121C16.6476 17.4518 16.2164 16.6971 15.1922 16.6971C14.4376 16.6971 13.8311 17.1148 13.8311 18.0312C13.8311 18.3008 13.5481 18.5703 13.0765 18.5703C12.6992 18.5703 12.4297 18.3816 12.4297 17.7752C12.4295 16.3333 13.7232 15.39 15.1921 15.39Z" fill="#9CA2A6"/>
</g>
<defs>
<clipPath id="clip0">
<rect width="30" height="30" fill="white"/>
</clipPath>
</defs>
</svg>
